<svg width="331" height="272" viewBox="0 0 331 272" fill="none" xmlns="http://www.w3.org/2000/svg">
<g clip-path="url(#clip0_1_212)">
<path d="M47.8714 71.0714C46.7903 87.9802 56.116 104.085 56.11 121.03C56.1039 139.293 45.3165 156.002 43.7219 174.192C41.6985 197.283 55.2946 219.818 74.23 233.186C93.1593 246.553 116.649 251.938 139.746 253.769C161.508 255.491 183.494 254.313 204.954 250.318C221.419 247.254 237.829 242.42 251.878 233.301C265.928 224.182 277.47 210.331 281.118 193.978C287.037 167.442 271.768 140.502 273.103 113.35C274.015 94.8272 282.646 76.613 279.373 58.3565C277.023 45.267 268.603 33.8031 258.045 25.7112C247.487 17.6194 234.906 12.6036 222.156 8.82658C193.713 0.39633 163.586 -2.29893 134.104 0.952304C103.355 4.34253 74.1696 20.4778 56.7442 46.6328C51.8759 53.945 48.4452 62.2302 47.8775 71.0654L47.8714 71.0714Z" fill="#E5F2FF"/>
<path d="M223.745 203.55C223.745 203.55 224.633 203.411 226.118 203.103" stroke="#709FFF" stroke-width="1.5" stroke-linecap="round" stroke-linejoin="round"/>
<path d="M231.482 201.773C241.236 198.987 256.741 192.533 256.741 179.613C256.741 160.764 241.671 156.413 245.44 132.923C249.209 109.433 259.64 92.9053 258.191 83.0428C256.741 73.1863 244.57 75.5009 238.482 81.8825C233.125 87.4966 223.95 100.979 211.749 101.752" stroke="#709FFF" stroke-width="1.5" stroke-linecap="round" stroke-linejoin="round"/>
<path d="M208.983 101.71C208.198 101.632 207.406 101.505 206.603 101.317" stroke="#709FFF" stroke-width="1.5" stroke-linecap="round" stroke-linejoin="round"/>
<path d="M108.302 185.456C108.302 185.456 72.5451 182.012 73.0767 154.189" stroke="#709FFF" stroke-width="1.5" stroke-linecap="round" stroke-linejoin="round"/>
<path d="M128.699 73.0957C128.699 73.0957 95.8596 74.4191 87.3795 65.4087C78.9053 56.3983 77.5826 25.6567 117.042 26.9862" stroke="#709FFF" stroke-width="1.5" stroke-linecap="round" stroke-linejoin="round"/>
<path d="M262.932 166.354C262.932 162.777 260.032 159.876 256.457 159.876C252.881 159.876 249.982 162.777 249.982 166.354C249.982 166.656 250.012 166.953 250.048 167.243C250.683 173.105 254.143 179.45 255.702 182.061C256.046 182.635 256.88 182.635 257.224 182.061C258.782 179.456 262.243 173.111 262.877 167.243C262.92 166.953 262.944 166.656 262.944 166.354H262.932Z" fill="#709FFF"/>
<path d="M259.126 166.354C259.126 167.829 257.931 169.025 256.457 169.025C254.983 169.025 253.787 167.829 253.787 166.354C253.787 164.88 254.983 163.683 256.457 163.683C257.931 163.683 259.126 164.88 259.126 166.354Z" fill="white"/>
<path d="M254.959 161.139C252.972 161.363 251.558 163.133 251.166 165.013C250.906 166.252 251.009 167.527 251.226 168.766C251.456 170.095 251.782 171.413 252.078 172.73C252.156 173.074 252.682 172.929 252.603 172.585C252.35 171.437 252.072 170.295 251.848 169.14C251.619 167.962 251.456 166.741 251.625 165.545C251.872 163.798 253.068 161.901 254.959 161.689C255.303 161.653 255.309 161.103 254.959 161.145V161.139Z" fill="#1A58BF"/>
<path d="M233.281 82.1365C233.281 79.7616 231.355 77.8398 228.987 77.8398C226.619 77.8398 224.693 79.7676 224.693 82.1365C224.693 82.336 224.711 82.5354 224.741 82.7288C225.164 86.6206 227.459 90.8266 228.492 92.555C228.721 92.9357 229.271 92.9357 229.5 92.555C230.533 90.8266 232.835 86.6145 233.251 82.7288C233.275 82.5354 233.3 82.342 233.3 82.1365H233.281Z" fill="#003174"/>
<path d="M230.757 82.1364C230.757 83.1154 229.965 83.907 228.987 83.907C228.009 83.907 227.217 83.1154 227.217 82.1364C227.217 81.1574 228.009 80.3657 228.987 80.3657C229.965 80.3657 230.757 81.1574 230.757 82.1364Z" fill="white"/>
<path d="M228.546 78.6196C227.809 78.6559 227.115 78.946 226.577 79.4536C226.07 79.931 225.725 80.5534 225.417 81.1759C225.26 81.4901 225.731 81.7681 225.888 81.4539C226.16 80.904 226.456 80.348 226.891 79.9129C227.332 79.4717 227.918 79.2058 228.546 79.1756C228.896 79.1575 228.896 78.6136 228.546 78.6317V78.6196Z" fill="#1A58BF"/>
<path d="M227.501 88.3187C227.157 87.4727 226.849 86.6085 226.577 85.7383C226.317 84.8922 226.04 84.022 226.076 83.1276C226.088 82.7771 225.544 82.7771 225.532 83.1276C225.502 84.0401 225.762 84.9224 226.027 85.7866C226.305 86.6931 226.625 87.5875 226.982 88.4638C227.115 88.784 227.64 88.6451 227.507 88.3187H227.501Z" fill="#1A58BF"/>
<path d="M89.8193 29.3553C89.8193 25.6991 86.8536 22.7319 83.1994 22.7319C79.5452 22.7319 76.5796 25.6991 76.5796 29.3553C76.5796 29.6635 76.6098 29.9656 76.6521 30.2678C77.2984 36.2626 80.8378 42.747 82.4324 45.406C82.7827 45.9922 83.6343 45.9922 83.9846 45.406C85.5792 42.7409 89.1186 36.2566 89.7649 30.2678C89.8072 29.9717 89.8374 29.6695 89.8374 29.3553H89.8193Z" fill="#1A58BF"/>
<path d="M85.9294 29.3551C85.9294 30.8659 84.7093 32.0866 83.1993 32.0866C81.6893 32.0866 80.4692 30.8659 80.4692 29.3551C80.4692 27.8443 81.6893 26.6235 83.1993 26.6235C84.7093 26.6235 85.9294 27.8443 85.9294 29.3551Z" fill="white"/>
<path d="M88.1159 26.9442C87.5482 25.518 86.4791 24.2972 85.0053 23.7775C84.6731 23.6627 84.5342 24.1885 84.8604 24.3033C86.2012 24.7807 87.1858 25.9591 87.6569 27.2765C88.2609 28.9384 88.1038 30.7634 87.7354 32.4616C87.6629 32.806 88.1884 32.9511 88.2609 32.6066C88.6595 30.7574 88.8286 28.745 88.1099 26.9502L88.1159 26.9442Z" fill="#709FFF"/>
<path d="M87.4637 34.794C87.3127 34.7578 87.1798 34.8424 87.1255 34.9874C86.9503 35.495 86.7752 35.9966 86.6 36.5042C86.5517 36.6372 86.6544 36.8064 86.7933 36.8427C86.9443 36.8789 87.0772 36.7943 87.1315 36.6493C87.3067 36.1416 87.4818 35.6401 87.657 35.1324C87.7053 34.9995 87.6026 34.8303 87.4637 34.794Z" fill="#709FFF"/>
<path d="M77.6185 145.632C77.6185 143.052 75.5226 140.955 72.9435 140.955C70.3644 140.955 68.2686 143.052 68.2686 145.632C68.2686 145.85 68.2867 146.067 68.3169 146.273C68.7759 150.503 71.2765 155.084 72.3999 156.963C72.6476 157.38 73.2455 157.38 73.4992 156.963C74.6226 155.084 77.1232 150.503 77.5822 146.267C77.6124 146.055 77.6306 145.844 77.6306 145.626L77.6185 145.632Z" fill="#CF5E0E"/>
<path d="M74.8765 145.632C74.8765 146.695 74.0128 147.56 72.9497 147.56C71.8867 147.56 71.0229 146.695 71.0229 145.632C71.0229 144.568 71.8867 143.704 72.9497 143.704C74.0128 143.704 74.8765 144.568 74.8765 145.632Z" fill="white"/>
<path d="M76.477 144.629C76.1025 143.251 75.0093 142.115 73.5476 141.97C73.1973 141.934 73.2033 142.484 73.5476 142.514C74.9005 142.647 75.7945 143.855 76.024 145.112C76.3018 146.587 75.8005 148.061 75.269 149.415C75.1421 149.742 75.6676 149.887 75.7945 149.56C76.4045 148.001 76.9239 146.297 76.4709 144.623L76.477 144.629Z" fill="#FF9230"/>
<path d="M253.709 99.4624H232.484C229.475 99.4624 227.036 101.903 227.036 104.913V126.149C227.036 129.16 229.475 131.6 232.484 131.6H253.709C256.718 131.6 259.157 129.16 259.157 126.149V104.913C259.157 101.903 256.718 99.4624 253.709 99.4624Z" fill="#1A58BF"/>
<path d="M254.79 107.5C249.644 112.286 245.138 117.864 241.641 123.962C239.315 120.91 236.253 118.42 232.786 116.764C232.2 116.486 232.617 115.042 233.257 114.945C235.758 114.565 238.47 115.749 240.348 117.435C243.646 112.715 248.188 108.745 253.437 106.358C253.866 106.164 254.367 105.977 254.79 106.183C255.213 106.388 255.255 107.428 254.79 107.494V107.5Z" fill="white"/>
<path d="M100.818 84.4448H73.4995C72.1018 84.4448 70.9688 85.5785 70.9688 86.9769V106.557C70.9688 107.955 72.1018 109.089 73.4995 109.089H100.818C102.216 109.089 103.349 107.955 103.349 106.557V86.9769C103.349 85.5785 102.216 84.4448 100.818 84.4448Z" fill="#FF9230"/>
<path d="M82.197 101.849L77.0449 96.7669L82.197 91.6846H85.4224L80.2522 96.7669L85.4224 101.849H82.197Z" fill="white"/>
<path d="M88.8955 101.849L94.0657 96.7669L88.8955 91.6846H92.1209L97.273 96.7669L92.1209 101.849H88.8955Z" fill="white"/>
<path d="M262.246 58.0057C268.632 47.4928 265.291 33.7908 254.783 27.4014C244.276 21.012 230.581 24.3547 224.195 34.8676C217.809 45.3805 221.15 59.0825 231.658 65.4719C242.165 71.8613 255.86 68.5186 262.246 58.0057Z" fill="#709FFF"/>
<path d="M243.302 32.1411H243.278C235.395 32.1411 228.933 38.5227 228.933 46.3909C228.933 48.3127 229.313 50.1861 230.068 51.9567C231.53 55.3832 234.284 58.1449 237.721 59.6134C239.491 60.3688 241.363 60.7496 243.284 60.7496C251.19 60.7496 257.52 54.229 257.52 46.3909C257.52 38.5529 251.166 32.1532 243.296 32.1411H243.302ZM240.511 34.1233C239.08 35.477 237.914 37.0663 237.038 38.849H233.155C234.936 36.4983 237.528 34.788 240.517 34.1233H240.511ZM232.073 40.5109H236.32C235.734 42.1184 235.389 43.8286 235.299 45.5509H230.636C230.757 43.744 231.264 42.0278 232.073 40.5109ZM232.104 52.3677C231.27 50.8146 230.751 49.0741 230.63 47.2249H235.287C235.365 48.9835 235.716 50.7239 236.313 52.3677H232.104ZM233.179 54.0416H237.032C237.908 55.8183 239.074 57.4077 240.505 58.7613C237.54 58.0966 234.961 56.3864 233.185 54.0416H233.179ZM236.966 47.2249H242.444V52.3677H238.125C237.455 50.7541 237.056 49.0197 236.972 47.2249H236.966ZM242.444 58.2416C241.019 57.0572 239.841 55.631 238.941 54.0416H242.444V58.2416ZM242.444 45.5509H236.972C237.075 43.7984 237.467 42.1003 238.125 40.523H242.444V45.5509ZM242.444 38.843H238.941C239.841 37.2597 241.019 35.8335 242.444 34.643V38.843ZM254.391 40.517C255.195 42.0338 255.696 43.738 255.817 45.5449H251.269C251.178 43.8226 250.834 42.1245 250.248 40.517H254.391ZM253.328 38.843H249.529C248.653 37.0663 247.487 35.477 246.062 34.1233C249.01 34.7941 251.564 36.4982 253.328 38.843ZM244.117 34.643C245.543 35.8275 246.72 37.2536 247.62 38.843H244.117V34.643ZM244.117 40.517H248.442C249.094 42.0942 249.493 43.7924 249.589 45.5449H244.117V40.517ZM249.595 47.2128C249.505 49.0076 249.106 50.7541 248.442 52.3677H244.117V47.2128H249.595ZM244.117 58.2416V54.0356H247.62C246.72 55.6189 245.543 57.0572 244.117 58.2416ZM246.068 58.7613C247.494 57.4077 248.653 55.8123 249.529 54.0356H253.292C251.534 56.3743 248.991 58.0906 246.068 58.7613ZM250.248 52.3677C250.846 50.7239 251.196 48.9774 251.275 47.2128H255.817C255.696 49.062 255.182 50.8146 254.361 52.3677H250.248Z" fill="white"/>
<path d="M259.519 26.2068C255.315 22.8649 250.115 20.8828 244.758 20.5685C239.569 20.2603 234.363 21.614 229.923 24.3032C227.447 25.808 225.224 27.7176 223.382 29.9475C223.128 30.2497 223.563 30.6909 223.817 30.3827C227 26.5211 231.325 23.6566 236.108 22.2062C241.061 20.7015 246.388 20.8223 251.293 22.4419C254.107 23.3726 256.759 24.7927 259.084 26.6419C259.392 26.8897 259.833 26.4546 259.519 26.2068Z" fill="#709FFF"/>
<path d="M267.468 38.414C266.302 35.0902 264.508 32.0203 262.183 29.3734C261.917 29.0712 261.482 29.5124 261.748 29.8085C264.001 32.3708 265.746 35.3561 266.876 38.5772C267.009 38.9518 267.607 38.7887 267.474 38.414H267.468Z" fill="#709FFF"/>
<path d="M253.359 69.0531C246.207 72.8059 237.497 72.7757 230.376 68.9564C228.492 67.9472 226.752 66.6963 225.194 65.2399C224.904 64.9679 224.475 65.4151 224.765 65.6871C230.696 71.2347 239.086 73.6036 247.041 71.9599C249.354 71.4825 251.589 70.6727 253.679 69.5789C254.029 69.3915 253.703 68.8658 253.352 69.0531H253.359Z" fill="#709FFF"/>
<mask id="mask0_1_212" style="mask-type:luminance" maskUnits="userSpaceOnUse" x="12" y="-24" width="302" height="303">
<path d="M314 -24H12V278.159H314V-24Z" fill="white"/>
</mask>
<g mask="url(#mask0_1_212)">
<path d="M65.5142 278.159C65.5142 278.159 81.1578 290.705 90.6828 296.428C109.818 307.928 125.105 302.072 125.105 302.072C125.105 302.072 125.721 288.632 138.218 281.465C164.153 266.581 166.104 237.706 168.526 234.443C172.706 228.793 175.219 220.846 181.283 216.241C187.347 211.636 193.411 208.294 197.379 203.689C201.354 199.084 176.892 170.011 162.674 164.36C148.455 158.71 125.25 167.497 122.32 168.965C119.391 170.428 101.621 225.868 101.621 225.868L65.5202 278.159H65.5142Z" fill="#EAAB93"/>
<path d="M195.725 205.43C185.445 202.529 158.887 196.456 148.661 198.462C138 200.553 134.443 199.925 130.263 205.363C126.083 210.802 124.616 213.522 123.994 221.263C123.365 229.004 126.923 244.692 126.923 244.692C126.923 244.692 137.795 236.534 145.949 231.512C154.103 226.49 162.046 223.354 165.392 223.142C167.82 222.991 172.235 222.29 175.829 222.315C177.345 220.03 179.078 217.909 181.283 216.235C186.556 212.228 191.829 209.177 195.731 205.418L195.725 205.43Z" fill="#E17479"/>
<path d="M162.07 227.149C157.099 229.125 152.043 231.138 147.67 234.274C146.444 235.15 145.284 236.111 144.209 237.163C143.865 237.495 144.39 238.021 144.735 237.688C148.516 234.002 153.287 231.591 158.107 229.554C159.49 228.974 160.88 228.418 162.275 227.862C162.716 227.687 162.523 226.968 162.076 227.143L162.07 227.149Z" fill="#E17479"/>
<path d="M229.102 173.666C228.504 171.787 227.404 170.107 226.263 168.493C225.043 166.771 223.756 165.097 222.415 163.472C221.413 162.257 220.356 161.048 219.021 160.214C217.215 159.084 215.052 158.722 212.938 158.419V177.993C213.887 179.806 215.216 181.317 217.076 182.29C219.643 183.638 222.844 183.704 225.471 182.471C226.861 181.819 228.111 180.785 228.83 179.426C229.748 177.679 229.706 175.546 229.108 173.66L229.102 173.666Z" fill="#EAAB93"/>
<path d="M212.938 170.965C213.742 168.052 215.179 165.345 217.16 163.061C217.499 162.668 216.931 162.094 216.587 162.487C215.046 164.263 213.814 166.276 212.938 168.445V170.965Z" fill="#E17479"/>
<path d="M225.073 192.123C223.194 190.672 221.171 189.415 219.045 188.37C217.97 187.838 214.159 185.614 212.999 186.14C212.975 186.152 212.957 186.17 212.938 186.182V204.844C213.089 205.025 213.259 205.188 213.452 205.339C214.412 206.094 215.693 206.3 216.913 206.306C221.05 206.312 225.133 204.136 227.441 200.698C228.032 199.816 228.522 198.831 228.588 197.773C228.733 195.465 226.903 193.537 225.073 192.123Z" fill="#E17479"/>
<path d="M234.193 139.088C233.348 138.405 232.279 138.06 231.228 137.77C225.327 136.126 219.196 135.51 213.096 134.906C213.041 134.906 212.987 134.9 212.938 134.894V152.945C213.222 153.011 213.609 153.011 214.195 153.017C215.638 153.017 217.094 152.908 218.525 152.763C221.407 152.467 224.257 151.923 227.042 151.132C229.826 150.34 232.689 149.204 234.465 146.919C236.241 144.635 236.44 140.907 234.193 139.088Z" fill="#EAAB93"/>
<path d="M217.541 149.863C217.245 148.545 217.124 147.204 217.179 145.856C217.203 145.336 216.387 145.336 216.369 145.856C216.309 147.27 216.442 148.69 216.756 150.074C216.871 150.582 217.656 150.37 217.535 149.857L217.541 149.863Z" fill="#E17479"/>
<path d="M121.209 59.6196H120.104C119.697 59.6196 119.367 59.9497 119.367 60.3569V82.7469C119.367 83.1541 119.697 83.4842 120.104 83.4842H121.209C121.616 83.4842 121.946 83.1541 121.946 82.7469V60.3569C121.946 59.9497 121.616 59.6196 121.209 59.6196Z" fill="#001B40"/>
<path d="M211.628 52.9541H210.528C210.121 52.9541 209.792 53.2842 209.792 53.6914V65.5481C209.792 65.9553 210.121 66.2854 210.528 66.2854H211.628C212.035 66.2854 212.365 65.9553 212.365 65.5481V53.6914C212.365 53.2842 212.035 52.9541 211.628 52.9541Z" fill="#001B40"/>
<path d="M211.628 69.1436H210.528C210.121 69.1436 209.792 69.4736 209.792 69.8808V81.7376C209.792 82.1447 210.121 82.4748 210.528 82.4748H211.628C212.035 82.4748 212.365 82.1447 212.365 81.7376V69.8808C212.365 69.4736 212.035 69.1436 211.628 69.1436Z" fill="#001B40"/>
<path d="M196.6 34.0449H135.186C127.503 34.0449 121.275 40.276 121.275 47.9624V199.374C121.275 207.061 127.503 213.292 135.186 213.292H196.6C204.283 213.292 210.51 207.061 210.51 199.374V47.9624C210.51 40.276 204.283 34.0449 196.6 34.0449Z" fill="#333343"/>
<path d="M199.113 37.3024H189.195L188.096 41.303C187.806 42.3666 186.833 43.1099 185.728 43.1099H148.026C146.921 43.1099 145.955 42.3727 145.659 41.303L144.56 37.3024H132.667C128.167 37.3024 124.519 40.9525 124.519 45.4547V196.202C124.519 200.704 128.167 204.354 132.667 204.354H199.107C203.607 204.354 207.255 200.704 207.255 196.202V45.4486C207.255 40.9465 203.607 37.2964 199.107 37.2964L199.113 37.3024Z" fill="#FFC28A"/>
<path d="M176.324 40.1667C177.114 40.1667 177.755 39.5255 177.755 38.7345C177.755 37.9435 177.114 37.3022 176.324 37.3022C175.533 37.3022 174.892 37.9435 174.892 38.7345C174.892 39.5255 175.533 40.1667 176.324 40.1667Z" fill="#1A58BF"/>
<path d="M169.626 39.6108H154.846C154.399 39.6108 154.036 39.2482 154.036 38.801C154.036 38.3538 154.399 37.9912 154.846 37.9912H169.626C170.073 37.9912 170.435 38.3538 170.435 38.801C170.435 39.2482 170.073 39.6108 169.626 39.6108Z" fill="#001B40"/>
<path d="M196.316 20.7378H135.469C132.801 20.7378 130.637 22.9023 130.637 25.5723V64.4542C130.637 67.1243 132.801 69.2888 135.469 69.2888H196.316C198.985 69.2888 201.148 67.1243 201.148 64.4542V25.5723C201.148 22.9023 198.985 20.7378 196.316 20.7378Z" fill="#1A58BF"/>
<mask id="mask1_1_212" style="mask-type:luminance" maskUnits="userSpaceOnUse" x="130" y="20" width="72" height="50">
<path d="M196.316 20.7378H135.469C132.801 20.7378 130.637 22.9023 130.637 25.5723V64.4542C130.637 67.1243 132.801 69.2888 135.469 69.2888H196.316C198.985 69.2888 201.148 67.1243 201.148 64.4542V25.5723C201.148 22.9023 198.985 20.7378 196.316 20.7378Z" fill="white"/>
</mask>
<g mask="url(#mask1_1_212)">
<path d="M171.172 35.03C171.16 38.9944 168.762 42.4631 165.784 44.8804C162.801 47.2977 159.243 48.7783 155.842 50.5006C152.804 52.0416 149.748 53.8606 147.779 56.719C145.665 59.789 145.194 63.8802 146.565 67.349C147.821 70.5337 150.588 73.0296 153.855 74.0207C154.266 74.1476 154.689 74.2443 155.112 74.3228C155.402 74.3772 155.528 73.93 155.232 73.8756C151.868 73.2713 148.866 71.0414 147.338 67.9714C145.671 64.6054 145.937 60.4235 147.954 57.275C149.815 54.3682 152.865 52.5311 155.867 51.0022C159.183 49.3101 162.643 47.8718 165.621 45.5875C168.563 43.3273 171.021 40.1607 171.528 36.3837C171.589 35.9365 171.619 35.4833 171.619 35.03C171.619 34.7339 171.154 34.7279 171.154 35.03H171.172Z" fill="white"/>
<path d="M167.415 19.7227C166.575 18.9371 165.645 18.2603 164.643 17.6982C164.383 17.5532 164.147 17.9521 164.407 18.0971C167.832 20.0067 170.344 23.3788 171.305 27.174C171.576 28.2496 171.721 29.3495 171.727 30.4615C171.727 30.7576 172.193 30.7636 172.193 30.4615C172.162 26.4246 170.362 22.4724 167.415 19.7227Z" fill="white"/>
<path d="M175.787 18.7617C175.43 18.242 175.05 17.7344 174.651 17.2449C174.464 17.0092 174.138 17.3416 174.325 17.5712C177.629 21.6806 179.574 26.914 179.562 32.2018C179.555 37.1209 177.762 41.9857 174.542 45.7083C172.93 47.5696 170.991 49.0864 168.81 50.2225C166.582 51.3889 164.196 52.2168 161.882 53.1898C159.617 54.1446 157.377 55.2626 155.54 56.9244C153.722 58.5742 152.369 60.8827 152.847 63.4088C153.318 65.8986 155.244 67.8868 157.232 69.3069C159.352 70.8238 161.846 71.8269 164.431 72.2077C165.059 72.2983 165.688 72.3527 166.322 72.3769C166.618 72.389 166.618 71.9236 166.322 71.9115C163.688 71.8269 161.097 71.0836 158.808 69.7662C156.634 68.5153 154.447 66.6661 153.565 64.2427C153.13 63.0522 153.094 61.7832 153.517 60.5806C153.934 59.384 154.731 58.3446 155.637 57.4744C157.437 55.7521 159.708 54.6159 161.979 53.649C164.28 52.67 166.654 51.8482 168.883 50.706C171.015 49.6122 172.936 48.1739 174.548 46.3972C177.762 42.8559 179.7 38.2208 179.99 33.4467C180.298 28.2616 178.716 23.0161 175.787 18.7496V18.7617Z" fill="white"/>
<path d="M186.23 60.2001C182.346 56.7252 176.837 55.3474 171.74 56.2901C170.471 56.5258 169.227 56.9126 168.049 57.4444C166.841 57.9883 165.482 58.6711 164.745 59.8133C164.002 60.9615 163.996 62.4904 164.467 63.7414C164.975 65.089 165.971 66.1768 167.059 67.0893C169.656 69.2648 172.833 70.7092 176.173 71.2712C176.463 71.3195 176.59 70.8723 176.294 70.824C173.461 70.3526 170.755 69.2346 168.418 67.5667C166.322 66.062 163.845 63.6145 164.8 60.7621C165.247 59.4265 166.551 58.6953 167.741 58.1091C168.84 57.5652 170 57.1603 171.196 56.8884C173.6 56.3385 176.125 56.3385 178.535 56.8521C181.253 57.4323 183.82 58.6772 185.897 60.5385C186.121 60.7379 186.447 60.4116 186.223 60.2122L186.23 60.2001Z" fill="white"/>
<path d="M195.809 69.6695C194.178 67.6874 192.306 65.9167 190.24 64.3878C189.998 64.2125 189.769 64.6114 190.004 64.7866C192.034 66.2914 193.87 68.0439 195.477 69.9959C195.664 70.2255 195.996 69.8992 195.803 69.6695H195.809Z" fill="white"/>
<path d="M189.075 71.2708C188.15 71.289 187.341 70.8236 186.592 70.3281C185.771 69.7842 184.961 69.2282 184.146 68.6783C182.473 67.5422 180.794 66.4121 179.121 65.276C178.166 64.6294 177.206 63.9828 176.252 63.3301C176.004 63.1609 175.768 63.5658 176.016 63.7289C179.447 66.0495 182.859 68.4064 186.314 70.6967C187.142 71.2467 188.048 71.7483 189.068 71.7301C189.364 71.7301 189.37 71.2588 189.068 71.2648L189.075 71.2708Z" fill="white"/>
<path d="M202.097 64.7928C198.817 62.5447 195.7 60.067 192.777 57.3717C191.43 56.1329 190.053 54.8578 189.038 53.3228C187.957 51.6851 187.528 49.8419 187.498 47.896C187.432 43.8592 188.489 39.9009 189.129 35.9426C189.666 32.5947 189.902 29.2045 189.068 25.8868C188.362 23.0767 186.906 20.3633 184.478 18.6833C184.182 18.4778 183.874 18.2905 183.554 18.1213C183.288 17.9823 183.053 18.3811 183.318 18.5201C185.976 19.9403 187.631 22.5751 188.458 25.4093C189.413 28.6908 189.256 32.0871 188.742 35.435C188.132 39.3812 187.093 43.2911 187.033 47.3098C187.003 49.1953 187.262 51.0868 188.162 52.7668C189.008 54.3381 190.27 55.6434 191.551 56.8641C194.402 59.5775 197.452 62.0854 200.665 64.3637C201.064 64.6477 201.462 64.9257 201.861 65.1977C202.109 65.3669 202.338 64.962 202.097 64.7988V64.7928Z" fill="white"/>
<path d="M197.609 29.0955C197.476 27.0711 197.102 25.0647 196.504 23.1249C195.827 20.9493 194.867 18.8644 193.641 16.9366C193.484 16.6828 193.079 16.9185 193.242 17.1723C195.41 20.5867 196.751 24.5148 197.108 28.5456C197.289 30.6305 197.192 32.7154 196.896 34.7822C196.588 36.9456 196.111 39.0789 195.749 41.2303C195.344 43.6234 195.09 46.0648 195.368 48.4881C195.404 48.7842 195.87 48.7842 195.833 48.4881C195.32 44.0403 196.612 39.6953 197.277 35.3382C197.591 33.2714 197.748 31.1925 197.609 29.1016V29.0955Z" fill="white"/>
<path d="M205.298 57.8429C202.936 56.5798 200.858 54.8152 199.252 52.6699C199.077 52.4342 198.672 52.6699 198.853 52.9056C200.508 55.1174 202.628 56.9485 205.068 58.2478C205.334 58.3867 205.57 57.9879 205.304 57.8489L205.298 57.8429Z" fill="white"/>
<path d="M158.917 41.1881C156.416 42.995 153.39 43.7564 150.479 44.6266C149.023 45.0618 147.574 45.5331 146.197 46.1737C144.916 46.772 143.714 47.5334 142.627 48.4399C140.471 50.2287 138.767 52.5553 137.704 55.1478C136.605 57.8189 136.261 60.7499 136.647 63.6083C137.1 66.926 138.52 70.0866 140.736 72.5945C140.936 72.8181 141.262 72.4918 141.063 72.2682C137.197 67.899 135.91 61.5113 137.867 56.006C138.791 53.4134 140.38 51.0687 142.422 49.2255C143.442 48.3069 144.578 47.5153 145.804 46.8808C147.127 46.1979 148.54 45.7084 149.959 45.2672C153.106 44.2943 156.428 43.551 159.146 41.5869C159.388 41.4117 159.152 41.0128 158.911 41.1881H158.917Z" fill="white"/>
<path d="M161.411 21.4088C160.62 20.2485 159.684 19.1909 158.621 18.2784C158.397 18.085 158.065 18.4113 158.295 18.6047C161.997 21.7774 164.032 26.6663 163.875 31.519C163.833 32.8969 163.604 34.2626 163.193 35.58C163.102 35.8641 163.549 35.991 163.64 35.7009C165.126 30.9268 164.214 25.5302 161.411 21.4088Z" fill="white"/>
<path d="M153.692 24.4244C153.487 22.6537 153.142 20.8891 152.569 19.197C152.424 18.774 152.267 18.357 152.091 17.9521C151.977 17.6802 151.53 17.801 151.645 18.073C152.985 21.2638 153.396 24.7688 153.493 28.2074C153.577 31.3499 153.245 34.6374 151.439 37.3024C149.911 39.5626 147.543 41.1157 145.043 42.1128C143.744 42.6325 142.397 43.0193 141.032 43.3033C139.462 43.6296 137.849 43.8593 136.243 43.8532C134.461 43.8532 132.661 43.5088 131.145 42.5298C129.84 41.6898 128.807 40.4207 128.481 38.8797C128.421 38.5896 127.974 38.7105 128.034 39.0005C128.668 42.0161 131.628 43.7928 134.491 44.1916C136.23 44.4334 137.994 44.2762 139.722 44.0043C141.153 43.7807 142.572 43.4544 143.944 42.9951C146.607 42.1067 149.192 40.7168 151.041 38.5594C153.173 36.0696 153.891 32.8667 153.958 29.6578C153.994 27.9113 153.891 26.1467 153.686 24.4062L153.692 24.4244Z" fill="white"/>
<path d="M143.913 31.6337C143.654 32.6006 142.929 33.3379 142.053 33.7971C141.014 34.341 139.824 34.4196 138.677 34.2866C137.487 34.1476 136.309 33.7971 135.179 33.4043C134.225 33.072 133.289 32.6671 132.437 32.1232C131.477 31.5128 130.649 30.7151 130.106 29.7119C129.961 29.446 129.562 29.6817 129.707 29.9476C130.77 31.9056 132.782 33.0296 134.811 33.7669C137.064 34.5827 139.806 35.3744 142.101 34.2987C143.164 33.8032 144.046 32.9148 144.36 31.7666C144.439 31.4765 143.992 31.3557 143.913 31.6458V31.6337Z" fill="white"/>
<path d="M146.124 17.251C145.997 16.979 145.598 17.2147 145.725 17.4867C147.042 20.2726 147.453 23.4513 146.885 26.4729C146.831 26.763 147.278 26.8899 147.332 26.5938C147.924 23.4332 147.501 20.1517 146.124 17.2449V17.251Z" fill="white"/>
<path d="M142.446 16.9609C142.397 16.6648 141.95 16.7917 141.999 17.0818C142.288 18.8162 142.403 20.6654 142.101 22.4058C141.842 23.9227 141.147 25.3368 139.679 25.9955C138.211 26.6542 136.412 26.5877 134.896 26.1405C133.373 25.6933 132.002 24.7989 130.994 23.5661C129.864 22.1883 129.224 20.4297 129.182 18.653C129.176 18.3569 128.711 18.3508 128.717 18.653C128.795 22.1037 131 25.2159 134.237 26.4125C135.82 26.9986 137.656 27.1437 139.281 26.6421C140.078 26.3943 140.815 25.9713 141.358 25.3307C141.86 24.7385 142.192 24.0194 142.391 23.27C142.639 22.3514 142.711 21.3906 142.723 20.4418C142.735 19.2755 142.639 18.1091 142.446 16.9609Z" fill="white"/>
<path d="M134.757 49.2015C132.504 51.7518 130.885 54.8217 129.979 58.0971C129.073 61.3725 128.88 64.8473 129.435 68.2013C129.749 70.0868 130.305 71.9239 131.096 73.6583C131.217 73.9303 131.622 73.6946 131.495 73.4226C130.118 70.401 129.502 67.0652 129.598 63.7535C129.695 60.4419 130.498 57.1362 131.972 54.169C132.806 52.4951 133.845 50.9299 135.083 49.5279C135.282 49.3043 134.956 48.9719 134.757 49.2015Z" fill="white"/>
</g>
<path d="M142.657 34.9756H139.262V60.6168H142.657V34.9756Z" fill="#709FFF"/>
<path d="M147.362 47.1343H144.632V60.6166H147.362V47.1343Z" fill="white"/>
<path d="M162.529 29.2949H152.092V60.6168H162.529V29.2949Z" fill="white"/>
<path d="M174.621 34.9756H171.226V60.6168H174.621V34.9756Z" fill="#709FFF"/>
<path d="M179.326 47.1343H176.596V60.6166H179.326V47.1343Z" fill="white"/>
<path d="M194.498 29.2949H184.061V60.6168H194.498V29.2949Z" fill="white"/>
<path d="M196.316 69.2886H135.469C132.801 69.2886 130.637 71.4531 130.637 74.1231V173.521C130.637 176.192 132.801 178.356 135.469 178.356H196.316C198.985 178.356 201.148 176.192 201.148 173.521V74.1231C201.148 71.4531 198.985 69.2886 196.316 69.2886Z" fill="white"/>
<path d="M130.637 151.035V174.633C130.637 176.688 132.298 178.35 134.352 178.35H197.434C199.487 178.35 201.148 176.688 201.148 174.633V151.035H130.637Z" fill="#1A58BF"/>
<mask id="mask2_1_212" style="mask-type:luminance" maskUnits="userSpaceOnUse" x="130" y="151" width="72" height="28">
<path d="M130.637 151.035V174.633C130.637 176.688 132.298 178.35 134.352 178.35H197.434C199.487 178.35 201.148 176.688 201.148 174.633V151.035H130.637Z" fill="white"/>
</mask>
<g mask="url(#mask2_1_212)">
<path d="M187.697 160.124C186.441 158.957 184.889 158.232 183.33 157.561C181.675 156.848 179.912 156.165 178.571 154.92C177.423 153.857 176.56 152.267 176.717 150.66C176.753 150.267 176.868 149.88 177.043 149.524C177.176 149.258 176.771 149.022 176.644 149.288C175.943 150.732 176.233 152.382 177.025 153.73C177.919 155.253 179.38 156.244 180.939 157.005C182.563 157.803 184.303 158.371 185.855 159.326C187.256 160.184 188.609 161.411 189.038 163.061C189.376 164.39 188.893 165.967 187.836 166.844C187.305 167.285 186.628 167.49 185.946 167.393C185.136 167.279 184.43 166.825 183.717 166.457C183.034 166.1 182.304 165.768 181.518 165.78C180.715 165.792 179.966 166.155 179.362 166.674C178.057 167.786 177.393 169.533 177.206 171.195C176.801 174.863 178.728 178.229 181.247 180.737C181.567 181.051 181.893 181.359 182.231 181.655C182.455 181.855 182.787 181.522 182.557 181.329C179.882 178.978 177.598 175.836 177.611 172.131C177.611 170.409 178.136 168.566 179.362 167.309C179.942 166.711 180.703 166.245 181.555 166.251C182.358 166.251 183.089 166.656 183.777 167.031C184.448 167.393 185.142 167.768 185.909 167.871C186.562 167.956 187.22 167.817 187.782 167.466C188.911 166.759 189.546 165.399 189.6 164.094C189.666 162.559 188.791 161.151 187.697 160.136V160.124Z" fill="white"/>
<path d="M194.281 161.991C193.562 158.698 190.971 156.093 187.927 154.812C186.205 154.087 184.321 153.736 182.714 152.739C181.422 151.941 180.298 150.437 180.431 148.847C180.461 148.466 180.582 148.11 180.775 147.784C180.926 147.524 180.522 147.288 180.377 147.548C179.592 148.926 180.045 150.57 180.957 151.766C182.05 153.192 183.729 153.845 185.378 154.401C186.29 154.703 187.208 154.987 188.084 155.386C188.869 155.749 189.624 156.196 190.307 156.728C191.66 157.779 192.789 159.163 193.423 160.764C194.094 162.456 194.227 164.372 193.719 166.125C193.236 167.805 192.149 169.237 190.651 170.131C189.944 170.554 189.171 170.844 188.362 170.983C187.486 171.134 186.634 171.044 185.771 170.85C184.901 170.657 183.989 170.397 183.095 170.566C182.322 170.711 181.682 171.231 181.367 171.95C180.631 173.618 181.567 175.292 182.63 176.567C183.856 178.03 185.293 179.317 186.876 180.387C187.275 180.659 187.691 180.918 188.108 181.16C188.368 181.311 188.603 180.906 188.344 180.761C186.695 179.8 185.185 178.622 183.868 177.25C182.702 176.035 181.186 174.392 181.657 172.555C181.869 171.727 182.485 171.116 183.349 171.008C184.255 170.893 185.167 171.219 186.048 171.394C187.643 171.715 189.256 171.449 190.675 170.669C192.101 169.884 193.236 168.633 193.87 167.134C194.553 165.52 194.667 163.701 194.293 161.997L194.281 161.991Z" fill="white"/>
<path d="M197.428 165.919C197.126 168.814 196.159 172.004 193.423 173.485C192.813 173.811 192.173 173.962 191.502 174.113C190.923 174.246 190.325 174.422 189.884 174.845C188.845 175.848 189.352 177.419 190.161 178.38C191.225 179.637 192.716 180.598 194.214 181.25C194.486 181.371 194.722 180.966 194.45 180.852C193.109 180.271 191.853 179.456 190.82 178.41C190.319 177.909 189.859 177.292 189.775 176.567C189.696 175.896 189.956 175.262 190.56 174.923C191.116 174.615 191.78 174.549 192.384 174.391C192.994 174.234 193.58 173.968 194.106 173.618C195.169 172.917 196.014 171.908 196.6 170.778C197.379 169.273 197.718 167.593 197.893 165.919C197.923 165.623 197.458 165.623 197.428 165.919Z" fill="white"/>
<path d="M196.226 155.839C194.945 154.099 193.212 152.805 191.478 151.542C190.433 150.781 189.389 150.025 188.422 149.173C188.199 148.974 187.866 149.306 188.096 149.5C191.182 152.219 195.423 154.141 197.029 158.184C197.44 159.217 197.615 160.317 197.482 161.423C197.446 161.719 197.911 161.719 197.947 161.423C198.195 159.411 197.41 157.434 196.232 155.833L196.226 155.839Z" fill="white"/>
<path d="M182.956 161.713C181.651 161.254 180.353 160.795 179.048 160.329C177.846 159.9 176.584 159.538 175.49 158.861C174.458 158.22 173.582 157.368 172.724 156.516C171.86 155.652 170.997 154.794 170.592 153.615C170.151 152.34 170.145 150.968 170.145 149.639C170.145 149.343 169.68 149.337 169.68 149.639C169.68 150.872 169.692 152.129 170.012 153.325C170.338 154.528 171.027 155.471 171.891 156.347C172.778 157.253 173.678 158.16 174.711 158.903C175.78 159.677 176.982 160.1 178.214 160.535C179.749 161.079 181.289 161.623 182.823 162.166C183.107 162.269 183.228 161.816 182.944 161.719L182.956 161.713Z" fill="white"/>
<path d="M175.738 181.033C173.829 179.674 172.464 177.619 171.836 175.371C171.528 174.265 171.389 173.111 171.45 171.956C171.516 170.687 171.879 169.503 172.319 168.312C172.797 167.019 173.334 165.678 173.274 164.276C173.219 163.025 172.646 161.925 171.86 160.982C171.057 160.021 170.073 159.242 169.155 158.402C168.188 157.519 167.276 156.571 166.461 155.543C164.673 153.283 163.332 150.461 163.773 147.518C163.815 147.228 163.368 147.101 163.326 147.397C162.939 150.002 163.821 152.522 165.259 154.673C165.996 155.779 166.865 156.8 167.796 157.743C168.714 158.667 169.728 159.483 170.665 160.39C171.564 161.26 172.416 162.269 172.706 163.514C173.044 164.958 172.531 166.409 172.036 167.75C171.577 168.989 171.142 170.216 171.015 171.539C170.906 172.7 170.997 173.872 171.262 175.002C171.86 177.565 173.352 179.903 175.503 181.432C175.744 181.607 175.98 181.203 175.738 181.033Z" fill="white"/>
<path d="M166.527 162.19C165.754 161.326 164.89 160.559 164.141 159.67C162.583 157.827 161.321 155.718 160.439 153.47C160.191 152.841 159.974 152.201 159.78 151.554C159.563 150.817 159.352 150.068 159.442 149.288C159.478 148.992 159.013 148.992 158.977 149.288C158.899 149.971 159.044 150.648 159.225 151.306C159.382 151.881 159.563 152.449 159.762 153.005C160.161 154.11 160.65 155.186 161.212 156.22C162.36 158.317 163.839 160.154 165.531 161.828C166.388 162.674 167.391 163.689 167.264 165C167.234 165.296 167.699 165.296 167.729 165C167.832 163.906 167.222 162.97 166.521 162.19H166.527Z" fill="white"/>
<path d="M168.967 181.021C166.877 177.848 166.43 173.739 167.771 170.186C167.88 169.908 167.427 169.787 167.324 170.065C165.941 173.721 166.418 177.987 168.569 181.257C168.732 181.505 169.136 181.275 168.967 181.021Z" fill="white"/>
<path d="M162.547 180.81C161.357 179.68 161.025 177.975 161.103 176.392C161.2 174.446 161.882 172.591 162.118 170.663C162.583 166.922 161.26 163.248 159.581 159.967C158.687 158.226 157.684 156.534 156.646 154.878C155.649 153.289 154.652 151.639 153.408 150.237C152.279 148.968 150.781 147.929 149.035 147.808C147.507 147.705 146.124 148.454 145.157 149.603C144.137 150.811 143.545 152.322 143.225 153.857C142.838 155.694 142.802 157.592 143.056 159.453C143.545 163.103 145.139 166.505 147.265 169.485C147.785 170.21 148.335 170.917 148.902 171.6C149.446 172.246 149.996 172.917 150.666 173.443C151.282 173.92 152.013 174.259 152.81 174.216C153.559 174.174 154.26 173.836 154.821 173.352C156.138 172.216 156.446 170.391 156.428 168.735C156.41 166.995 156.144 165.248 155.673 163.568C155.202 161.894 154.526 160.275 153.65 158.77C153.209 158.009 152.726 157.283 152.188 156.588C151.717 155.972 151.228 155.332 150.491 155.017C149.838 154.739 149.126 154.921 148.848 155.616C148.703 155.99 148.685 156.419 148.667 156.812C148.649 157.271 148.667 157.731 148.715 158.19C148.908 160.027 149.573 161.761 150.364 163.417C150.763 164.251 151.203 165.067 151.644 165.883C151.789 166.149 152.188 165.913 152.043 165.647C151.197 164.088 150.358 162.505 149.784 160.819C149.5 159.985 149.277 159.115 149.18 158.238C149.132 157.815 149.114 157.392 149.126 156.963C149.138 156.57 149.126 156.105 149.295 155.736C149.675 154.89 150.684 155.579 151.107 156.002C151.681 156.576 152.158 157.289 152.605 157.966C153.517 159.344 154.26 160.831 154.809 162.39C155.359 163.949 155.721 165.569 155.878 167.212C156.029 168.832 156.102 170.681 155.232 172.132C154.846 172.778 154.236 173.328 153.523 173.588C152.774 173.86 152.007 173.751 151.33 173.334C150.66 172.923 150.128 172.307 149.615 171.721C149.047 171.062 148.498 170.385 147.984 169.69C145.937 166.922 144.33 163.798 143.672 160.396C143.333 158.637 143.249 156.812 143.484 155.029C143.696 153.47 144.131 151.905 144.994 150.576C145.761 149.397 146.921 148.406 148.371 148.267C150.062 148.11 151.632 149.053 152.768 150.225C153.994 151.494 154.936 153.053 155.884 154.534C156.887 156.105 157.848 157.706 158.735 159.35C160.396 162.432 161.822 165.835 161.743 169.4C161.665 172.712 159.774 176.108 161.067 179.389C161.327 180.048 161.701 180.64 162.214 181.124C162.432 181.329 162.758 181.003 162.541 180.798L162.547 180.81Z" fill="white"/>
<path d="M154.049 180.272C150.153 178.314 146.891 175.244 144.499 171.606C141.872 167.611 140.344 162.976 139.776 158.244C139.438 155.422 139.426 152.57 139.685 149.747C139.716 149.451 139.251 149.451 139.22 149.747C138.749 154.848 139.166 160.075 140.785 164.952C142.21 169.243 144.584 173.219 147.827 176.38C149.591 178.102 151.608 179.565 153.813 180.677C154.079 180.809 154.314 180.411 154.049 180.278V180.272Z" fill="white"/>
<path d="M136.617 165.073C135.463 160.909 135.077 156.534 135.506 152.231C135.626 151.053 135.82 149.856 136.309 148.768C136.43 148.496 136.031 148.261 135.91 148.533C135.047 150.473 134.938 152.709 134.884 154.8C134.829 157.017 134.986 159.241 135.343 161.435C135.548 162.704 135.826 163.955 136.17 165.194C136.249 165.484 136.696 165.357 136.617 165.073Z" fill="white"/>
<path d="M144.705 180.834C142.156 177.963 140.199 174.597 138.954 170.965C138.858 170.681 138.411 170.802 138.507 171.086C139.776 174.797 141.775 178.229 144.378 181.16C144.578 181.384 144.904 181.057 144.705 180.834Z" fill="white"/>
<path d="M138.459 180.61C136.007 176.833 134.129 172.7 132.872 168.379C131.616 164.058 130.976 159.562 130.994 155.059C131.006 152.527 131.223 149.995 131.652 147.493C131.7 147.203 131.253 147.076 131.205 147.373C130.432 151.869 130.329 156.461 130.885 160.988C131.441 165.484 132.631 169.896 134.424 174.053C135.445 176.416 136.659 178.688 138.055 180.846C138.218 181.094 138.616 180.864 138.453 180.61H138.459Z" fill="white"/>
</g>
<path d="M138.23 74.9873H136.545V86.844H138.23V74.9873Z" fill="#001B40"/>
<path d="M139.692 74.9873H138.852V86.844H139.692V74.9873Z" fill="#001B40"/>
<path d="M144.034 74.9873H143.612V86.844H144.034V74.9873Z" fill="#001B40"/>
<path d="M144.801 74.9873H144.379V86.844H144.801V74.9873Z" fill="#001B40"/>
<path d="M150.449 74.9873H150.026V86.844H150.449V74.9873Z" fill="#001B40"/>
<path d="M142.651 74.9873H140.954V86.844H142.651V74.9873Z" fill="#001B40"/>
<path d="M149.639 74.9873H148.522V86.844H149.639V74.9873Z" fill="#001B40"/>
<path d="M147.99 74.9873H145.949V86.844H147.99V74.9873Z" fill="#001B40"/>
<path d="M153.306 74.9873H151.621V86.844H153.306V74.9873Z" fill="#001B40"/>
<path d="M154.761 74.9873H153.922V86.844H154.761V74.9873Z" fill="#001B40"/>
<path d="M159.11 74.9873H158.687V86.844H159.11V74.9873Z" fill="#001B40"/>
<path d="M159.877 74.9873H159.454V86.844H159.877V74.9873Z" fill="#001B40"/>
<path d="M165.525 74.9873H165.102V86.844H165.525V74.9873Z" fill="#001B40"/>
<path d="M157.727 74.9873H156.03V86.844H157.727V74.9873Z" fill="#001B40"/>
<path d="M164.715 74.9873H163.598V86.844H164.715V74.9873Z" fill="#001B40"/>
<path d="M163.066 74.9873H161.025V86.844H163.066V74.9873Z" fill="#001B40"/>
<path d="M168.381 74.9873H166.696V86.844H168.381V74.9873Z" fill="#001B40"/>
<path d="M169.837 74.9873H168.998V86.844H169.837V74.9873Z" fill="#001B40"/>
<path d="M174.186 74.9873H173.763V86.844H174.186V74.9873Z" fill="#001B40"/>
<path d="M174.953 74.9873H174.53V86.844H174.953V74.9873Z" fill="#001B40"/>
<path d="M180.594 74.9873H180.172V86.844H180.594V74.9873Z" fill="#001B40"/>
<path d="M172.803 74.9873H171.105V86.844H172.803V74.9873Z" fill="#001B40"/>
<path d="M179.785 74.9873H178.668V86.844H179.785V74.9873Z" fill="#001B40"/>
<path d="M178.136 74.9873H176.094V86.844H178.136V74.9873Z" fill="#001B40"/>
<path d="M183.457 74.9873H181.772V86.844H183.457V74.9873Z" fill="#001B40"/>
<path d="M184.913 74.9873H184.073V86.844H184.913V74.9873Z" fill="#001B40"/>
<path d="M189.256 74.9873H188.833V86.844H189.256V74.9873Z" fill="#001B40"/>
<path d="M190.029 74.9873H189.606V86.844H190.029V74.9873Z" fill="#001B40"/>
<path d="M187.879 74.9873H186.181V86.844H187.879V74.9873Z" fill="#001B40"/>
<path d="M195.241 74.9873H193.743V86.844H195.241V74.9873Z" fill="#001B40"/>
<path d="M193.212 74.9873H191.17V86.844H193.212V74.9873Z" fill="#001B40"/>
<path d="M154.767 145.904C154.598 145.904 154.459 145.765 154.459 145.596V91.7149C154.459 91.5457 154.598 91.4067 154.767 91.4067C154.936 91.4067 155.075 91.5457 155.075 91.7149V145.596C155.075 145.765 154.936 145.904 154.767 145.904Z" fill="#E5F2FF"/>
<path d="M181.772 145.904C181.603 145.904 181.464 145.765 181.464 145.596V91.7149C181.464 91.5457 181.603 91.4067 181.772 91.4067C181.941 91.4067 182.08 91.5457 182.08 91.7149V145.596C182.08 145.765 181.941 145.904 181.772 145.904Z" fill="#E5F2FF"/>
<path d="M190.029 138.375H187.878V145.904H190.029V138.375Z" fill="#1A58BF"/>
<path d="M195.241 134.168H191.593V145.904H195.241V134.168Z" fill="#003174"/>
<path d="M190.029 119.163H187.878V126.693H190.029V119.163Z" fill="#1A58BF"/>
<path d="M195.241 114.957H191.593V126.693H195.241V114.957Z" fill="#003174"/>
<path d="M190.029 99.9517H187.878V107.481H190.029V99.9517Z" fill="#1A58BF"/>
<path d="M195.241 95.7397H191.593V107.476H195.241V95.7397Z" fill="#003174"/>
<path d="M177.762 93.2983H159.75V106.593H177.762V93.2983Z" fill="#003174"/>
<path d="M177.762 128.089H159.75V141.384H177.762V128.089Z" fill="#003174"/>
<path d="M171.667 116.722L169.42 112.83C169.233 112.503 168.768 112.503 168.581 112.83L166.334 116.722C166.147 117.048 166.382 117.447 166.757 117.447H168.001V120.758C168.001 121.042 168.23 121.272 168.514 121.272H169.487C169.77 121.272 170 121.042 170 120.758V117.447H171.244C171.619 117.447 171.848 117.042 171.667 116.722Z" fill="#1A58BF"/>
<path d="M157.485 162.583C157.201 161.919 156.797 161.296 156.265 160.813C155.74 160.317 155.093 159.949 154.411 159.755C154.048 159.658 153.68 159.61 153.312 159.616L153.336 159.586C151.56 159.616 150.805 160.051 150.805 160.051L152.381 161.459C152.412 161.163 152.587 160.782 152.78 160.438C153.777 160.595 154.61 161.121 155.19 161.834C155.722 162.493 156.048 163.302 156.138 164.142H145.967V161.375C145.967 161.145 145.78 160.958 145.55 160.958C145.321 160.958 145.133 161.145 145.133 161.375V164.142H142.874C142.633 163.357 141.914 162.783 141.05 162.783C139.993 162.783 139.136 163.641 139.136 164.698C139.136 165.756 139.993 166.614 141.05 166.614C141.914 166.614 142.633 166.04 142.874 165.254H145.133V168.022C145.133 168.252 145.321 168.439 145.55 168.439C145.78 168.439 145.967 168.252 145.967 168.022V165.254H156.138C156.042 166.094 155.71 166.898 155.178 167.551C154.592 168.264 153.759 168.778 152.762 168.929C152.575 168.59 152.406 168.222 152.381 167.938L150.805 169.346C150.805 169.346 151.524 169.745 153.179 169.805C153.589 169.823 154.012 169.781 154.423 169.672C155.112 169.473 155.758 169.104 156.283 168.602C156.821 168.113 157.219 167.484 157.503 166.82C157.775 166.149 157.908 165.424 157.914 164.705C157.902 163.985 157.769 163.26 157.497 162.589L157.485 162.583ZM141.05 165.684C140.507 165.684 140.066 165.242 140.066 164.698C140.066 164.155 140.507 163.713 141.05 163.713C141.594 163.713 142.035 164.155 142.035 164.698C142.035 165.242 141.594 165.684 141.05 165.684Z" fill="white"/>
<path d="M83.1992 254.476C83.1992 254.476 88.448 230.678 88.448 218.332C88.448 205.986 88.2366 204.318 89.4929 200.553C90.7492 196.788 97.8583 180.26 99.1086 174.193C100.365 168.125 100.782 162.475 102.243 158.922C103.705 155.368 108.936 141.765 108.936 137.166C108.936 132.567 108.307 125.66 109.147 125.031C109.987 124.403 119.602 122.729 125.455 134.864C131.308 146.998 127.756 159.339 126.083 163.943C124.41 168.548 123.154 171.268 122.948 172.73C122.737 174.193 122.737 179.003 124.41 181.306C126.083 183.608 136.327 202.849 137.372 215.401C138.417 227.953 132.981 242.596 124.41 248.874C115.839 255.147 93.0263 259.915 83.1992 254.476Z" fill="#EAAB93"/>
<path d="M112.548 140.713C113.17 140.357 111.569 126.669 110.591 125.696C110.295 125.4 109.932 125.11 109.57 124.85C109.364 124.911 109.213 124.977 109.141 125.031C108.307 125.66 108.93 132.561 108.93 137.166C108.93 138.387 108.561 140.248 107.993 142.375C109.002 142.037 112.028 141.004 112.542 140.707L112.548 140.713Z" fill="#FFE0D4"/>
<path d="M133.065 238.365C131.646 240.668 130.215 242.982 128.421 245.019C126.56 247.134 124.338 248.699 121.789 249.884C120.243 250.603 118.636 251.177 116.993 251.624C116.534 251.751 116.727 252.464 117.192 252.343C120.079 251.564 122.967 250.397 125.443 248.699C127.714 247.14 129.526 245.031 131.096 242.789C132.021 241.471 132.866 240.106 133.706 238.74C133.959 238.329 133.313 237.96 133.065 238.365Z" fill="#E17479"/>
<path d="M114.076 252.706C112.064 253.201 110.017 253.546 107.951 253.733C107.48 253.775 107.474 254.519 107.951 254.476C110.083 254.283 112.197 253.933 114.275 253.425C114.74 253.31 114.541 252.591 114.076 252.706Z" fill="#E17479"/>
<path d="M120.593 180.707C118.213 181.874 115.785 183.119 114.16 185.282C113.87 185.663 114.517 186.037 114.801 185.657C116.341 183.608 118.727 182.448 120.967 181.348C121.396 181.136 121.022 180.496 120.593 180.707Z" fill="#E17479"/>
<path d="M119.838 169.721C118.34 169.08 116.794 168.567 115.205 168.192C114.74 168.083 114.541 168.802 115.006 168.911C116.528 169.268 118.026 169.751 119.463 170.361C119.651 170.44 119.862 170.416 119.971 170.228C120.061 170.071 120.025 169.799 119.838 169.721Z" fill="#E17479"/>
<path d="M243.622 186.986C243.622 186.986 251.576 191.929 256.879 195.307C262.182 198.685 266.398 203.387 267.123 205.677C267.848 207.968 268.567 214.476 268.567 214.476C268.567 214.476 260.733 213.389 259.289 212.065C257.846 210.742 253.624 203.985 252.422 201.091C251.214 198.196 243.628 186.986 243.628 186.986H243.622Z" fill="#EAAB93"/>
<path d="M258.927 201.925C259.875 203.315 260.624 205.538 259.181 206.403C258.528 206.795 257.695 206.675 256.946 206.536C253.376 205.883 249.764 205.218 246.448 203.738C238.288 200.094 233.07 192.123 228.304 184.556C226.589 181.831 220.766 174.386 227.779 177.142C231.977 178.791 236.005 180.87 239.792 183.324C247.3 188.188 253.878 194.522 258.921 201.919L258.927 201.925Z" fill="#EAAB93"/>
<path d="M187.196 221.595C187.196 221.595 186.525 204.167 187.643 201.931C188.76 199.695 194.341 189.645 194.341 189.645L211.537 191.881L221.141 196.123C221.141 196.123 240.124 201.037 242.353 201.26C244.588 201.484 243.918 195.9 241.683 192.993C239.448 190.086 231.185 180.036 227.169 177.13C223.146 174.223 209.302 163.055 205.286 161.49C201.269 159.925 195.012 159.925 191.665 161.937C188.313 163.95 172.682 185.62 170.9 189.645C169.112 193.67 167.995 201.266 171.123 207.968C174.252 214.67 187.202 221.595 187.202 221.595H187.196Z" fill="#EAAB93"/>
<path d="M194.517 184.871L186.532 167.43C180.643 174.7 172.175 186.744 170.888 189.645C169.608 192.534 168.677 197.265 169.408 202.191C172.048 206.36 175.744 212.035 178.861 216.229C183.034 219.377 187.19 221.601 187.19 221.601C187.19 221.601 186.52 204.173 187.637 201.937C188.754 199.701 194.335 189.651 194.335 189.651L195.749 189.832C195.084 186.992 194.51 184.877 194.51 184.877L194.517 184.871Z" fill="#E17479"/>
<path d="M197.917 230.086C197.917 230.086 193.006 200.372 191.442 194.111C189.878 187.856 173.576 146.074 170.23 138.254C166.877 130.434 160.849 117.477 162.637 110.769C164.425 104.061 168.442 101.608 172.017 104.291C175.593 106.974 187.83 131.951 190.307 136.332C192.783 140.713 210.649 178.471 213.108 182.943C215.566 187.415 218.689 192.552 221.147 196.123C223.605 199.695 197.923 230.086 197.923 230.086H197.917Z" fill="#EAAB93"/>
<path d="M170.882 123.345C171.462 123.46 178.595 120.3 181.657 119.84C177.81 112.655 173.811 105.639 172.011 104.291C169.215 102.194 166.14 103.246 164.081 107.023C164.002 107.808 164.026 108.666 164.262 109.488C164.999 112.063 170.272 123.231 170.882 123.351V123.345Z" fill="#FFE0D4"/>
<path d="M220.06 194.177C215.53 185.995 211.157 177.722 206.935 169.376C205.727 166.989 204.537 164.602 203.353 162.203C203.141 161.774 202.501 162.148 202.713 162.578C206.844 170.971 211.132 179.281 215.578 187.518C216.846 189.869 218.127 192.213 219.419 194.552C219.649 194.969 220.295 194.594 220.06 194.177Z" fill="#E17479"/>
<path d="M243.827 196.377C241.025 191.059 237.401 186.176 233.112 181.964C231.892 180.762 230.618 179.62 229.295 178.538C228.926 178.236 228.401 178.761 228.769 179.064C233.384 182.859 237.407 187.361 240.644 192.389C241.556 193.809 242.402 195.265 243.187 196.758C243.41 197.181 244.051 196.806 243.827 196.383V196.377Z" fill="#E17479"/>
<path d="M259.99 202.94C257.647 199.332 254.929 195.978 251.89 192.939C251.552 192.6 251.027 193.126 251.365 193.465C254.361 196.462 257.037 199.762 259.35 203.315C259.61 203.714 260.256 203.345 259.99 202.94Z" fill="#E17479"/>
<path d="M197.917 230.086C197.917 230.086 196.932 230.847 192.704 225.282C188.476 219.716 180.02 204.354 176.904 198.341C173.787 192.328 160.88 182.756 156.428 182.085C151.977 181.414 149.084 182.532 149.531 184.091C149.977 185.65 156.875 197.362 158.47 203.617C159.805 208.868 161.103 220.163 165.108 226.176C169.112 232.189 173.564 241.985 175.569 246.886C177.574 251.787 184.248 262.024 190.699 269.82C197.15 277.616 213.995 288.729 224.686 302.876C224.686 302.876 262.152 310.484 286.614 286.3C286.614 286.3 277.488 267.82 275.93 260.918C274.371 254.017 270.312 220.393 268.561 214.494C266.809 208.596 249.227 201.919 248.115 201.024C247.004 200.136 222.077 194.57 222.077 194.57L212.951 202.807L197.911 230.104L197.917 230.086Z" fill="#EAAB93"/>
<path d="M153.197 184.593C152.11 183.892 150.388 183.717 149.5 183.674C149.488 183.807 149.488 183.94 149.531 184.085C149.905 185.397 154.87 193.93 157.37 200.323L157.751 200.752C158.077 200.752 161.592 198.438 161.592 197.574C161.592 196.709 154.707 185.572 153.197 184.593Z" fill="#FFE0D4"/>
<path d="M185.891 199.133C184.291 198.148 183.046 196.685 182.303 194.963C182.225 194.776 181.953 194.74 181.796 194.83C181.603 194.939 181.585 195.157 181.663 195.338C182.454 197.169 183.819 198.734 185.517 199.78C185.927 200.033 186.296 199.387 185.891 199.139V199.133Z" fill="#EAAB93"/>
<path d="M185.523 161.725C185.432 161.568 185.179 161.472 185.016 161.592C184.116 162.251 183.222 162.91 182.322 163.563C182.159 163.683 182.08 163.883 182.189 164.07C182.279 164.227 182.533 164.324 182.696 164.203C183.596 163.544 184.49 162.886 185.39 162.233C185.553 162.112 185.632 161.913 185.523 161.725Z" fill="#E17479"/>
<path d="M181.017 211.328C180.969 211.147 180.751 211.002 180.558 211.068C179.151 211.57 177.894 212.446 176.964 213.612C176.837 213.769 176.813 213.987 176.964 214.138C177.091 214.265 177.363 214.295 177.49 214.138C178.341 213.068 179.471 212.241 180.757 211.781C180.945 211.715 181.071 211.527 181.017 211.322V211.328Z" fill="#E17479"/>
<path d="M181.325 214.634C181.222 214.47 180.993 214.386 180.818 214.501C180.48 214.718 180.147 214.942 179.809 215.159C179.731 215.214 179.664 215.286 179.64 215.383C179.616 215.474 179.628 215.588 179.676 215.667C179.779 215.83 180.008 215.915 180.184 215.8C180.522 215.582 180.854 215.359 181.192 215.141C181.271 215.087 181.337 215.014 181.361 214.918C181.386 214.827 181.373 214.712 181.325 214.634Z" fill="#E17479"/>
<path d="M234.356 215.999C234.29 217.262 233.964 218.501 233.402 219.631C233.19 220.06 233.831 220.435 234.042 220.006C234.67 218.755 235.027 217.395 235.099 215.999C235.123 215.522 234.38 215.522 234.356 215.999Z" fill="#E17479"/>
<path d="M251.516 215.461C251.401 214.784 251.292 214.102 251.178 213.425C251.148 213.231 250.9 213.111 250.719 213.165C250.513 213.231 250.423 213.419 250.459 213.624C250.574 214.301 250.682 214.984 250.797 215.661C250.827 215.854 251.075 215.975 251.256 215.921C251.462 215.854 251.552 215.667 251.516 215.461Z" fill="#E17479"/>
<path d="M262.624 216.761C262.442 216.326 261.724 216.513 261.905 216.96C262.69 218.864 263.064 220.9 263.004 222.955C262.992 223.432 263.735 223.432 263.747 222.955C263.807 220.84 263.427 218.719 262.617 216.761H262.624Z" fill="#E17479"/>
</g>
<path d="M136.829 141.625C137.058 141.22 137.378 140.894 137.789 140.664C138.2 140.429 138.659 140.314 139.172 140.314C139.686 140.314 140.145 140.435 140.555 140.671C140.966 140.906 141.286 141.226 141.516 141.637C141.745 142.042 141.86 142.496 141.86 142.979C141.86 143.462 141.745 143.916 141.516 144.327C141.286 144.738 140.966 145.058 140.555 145.3C140.145 145.535 139.686 145.656 139.172 145.656C138.659 145.656 138.2 145.535 137.789 145.3C137.378 145.064 137.058 144.738 136.829 144.327C136.599 143.916 136.484 143.469 136.484 142.979C136.484 142.49 136.599 142.036 136.829 141.625ZM138.188 143.849C138.429 144.061 138.755 144.17 139.166 144.17C139.577 144.17 139.897 144.067 140.139 143.849C140.38 143.632 140.501 143.348 140.501 142.973C140.501 142.598 140.38 142.32 140.139 142.109C139.897 141.897 139.571 141.789 139.166 141.789C138.761 141.789 138.423 141.891 138.188 142.103C137.946 142.314 137.831 142.604 137.831 142.973C137.831 143.342 137.952 143.632 138.188 143.849Z" fill="#003174"/>
<path d="M141.806 134.815V136.271L138.882 138.199H141.806V139.656H136.575V138.199L139.535 136.271H136.575V134.815H141.806Z" fill="#003174"/>
<path d="M140.7 132.548V130.911H141.806V134.005H136.563V132.548H140.7Z" fill="#003174"/>
<path d="M136.563 128.904H141.806V130.361H136.563V128.904Z" fill="#003174"/>
<path d="M141.806 123.254V124.711L138.882 126.639H141.806V128.095H136.575V126.639L139.535 124.711H136.575V123.254H141.806Z" fill="#003174"/>
<path d="M137.729 120.988H138.592V119.29H139.698V120.988H140.646V119.072H141.806V122.45H136.563V119.072H137.723V120.988H137.729Z" fill="#003174"/>
<path d="M136.563 113.089H137.723V114.503H141.8V115.954H137.723V117.356H136.563V113.089Z" fill="#003174"/>
<path d="M136.563 111.149H141.806V112.606H136.563V111.149Z" fill="#003174"/>
<path d="M136.762 106.714C136.925 106.363 137.161 106.073 137.463 105.85C137.765 105.626 138.115 105.475 138.52 105.396V106.931C138.315 107.016 138.151 107.149 138.037 107.324C137.922 107.5 137.862 107.705 137.862 107.941C137.862 108.261 137.982 108.521 138.218 108.72C138.46 108.92 138.78 109.016 139.178 109.016C139.577 109.016 139.897 108.92 140.139 108.72C140.38 108.521 140.501 108.261 140.501 107.941C140.501 107.711 140.441 107.506 140.326 107.324C140.205 107.149 140.042 107.016 139.837 106.931V105.396C140.447 105.517 140.936 105.795 141.298 106.236C141.661 106.678 141.842 107.24 141.842 107.916C141.842 108.436 141.727 108.889 141.504 109.276C141.28 109.663 140.966 109.965 140.561 110.171C140.157 110.382 139.698 110.485 139.178 110.485C138.659 110.485 138.2 110.382 137.795 110.171C137.39 109.959 137.076 109.663 136.853 109.276C136.629 108.889 136.515 108.436 136.515 107.916C136.515 107.469 136.599 107.064 136.762 106.714Z" fill="#003174"/>
<path d="M139.124 101.91L141.806 99.8791V101.632L139.486 103.281H141.806V104.738H136.563V103.281H138.828L136.563 101.613V99.873L139.124 101.904V101.91Z" fill="#003174"/>
<path d="M137.729 97.9455H138.592V96.2473H139.698V97.9455H140.646V96.0298H141.806V99.4079H136.563V96.0298H137.723V97.9455H137.729Z" fill="#003174"/>
<path d="M136.563 91.4126H137.723V92.8267H141.8V94.2771H137.723V95.6791H136.563V91.4126Z" fill="#003174"/>
<path d="M145.212 143.843H147.61C147.906 143.843 148.136 143.928 148.305 144.091C148.468 144.254 148.552 144.484 148.552 144.78C148.552 145.1 148.462 145.348 148.274 145.529C148.087 145.711 147.827 145.801 147.489 145.801V145.27C147.67 145.27 147.809 145.233 147.912 145.155C148.015 145.076 148.063 144.961 148.063 144.798C148.063 144.653 148.021 144.544 147.936 144.472C147.852 144.405 147.743 144.369 147.61 144.369H145.212V143.837V143.843Z" fill="#1A58BF"/>
<path d="M145.647 142.689H146.65V141.468H147.06V142.689H148.087V141.329H148.522V143.221H145.212V141.329H145.641V142.689H145.647Z" fill="#1A58BF"/>
<path d="M147.803 138.833V140.229L148.522 140.483V141.057L145.267 139.836V139.22L148.522 138.005V138.579L147.803 138.833ZM147.393 138.984L145.846 139.534L147.393 140.084V138.984Z" fill="#1A58BF"/>
<path d="M148.522 134.936V135.467L146.082 137.075H148.522V137.607H145.218V137.075L147.671 135.467H145.218V134.936H148.522Z" fill="#1A58BF"/>
<path d="M148.522 131.612V132.144L146.082 133.751H148.522V134.283H145.218V133.751L147.671 132.144H145.218V131.612H148.522Z" fill="#1A58BF"/>
<path d="M145.647 130.433H146.65V129.213H147.06V130.433H148.087V129.074H148.522V130.965H145.212V129.074H145.641V130.433H145.647Z" fill="#1A58BF"/>
<path d="M147.737 124.819C147.985 124.958 148.178 125.152 148.317 125.418C148.456 125.683 148.522 125.992 148.522 126.354V127.46H145.212V126.354C145.212 125.992 145.279 125.677 145.418 125.418C145.556 125.158 145.744 124.958 145.991 124.819C146.239 124.686 146.529 124.614 146.861 124.614C147.193 124.614 147.489 124.68 147.737 124.819ZM147.731 125.478C147.525 125.266 147.236 125.158 146.867 125.158C146.499 125.158 146.209 125.266 145.997 125.478C145.792 125.689 145.689 125.998 145.689 126.39V126.922H148.039V126.39C148.039 125.992 147.936 125.689 147.731 125.478Z" fill="#1A58BF"/>
<path d="M145.387 121.707C145.532 121.459 145.732 121.266 145.991 121.121C146.251 120.976 146.541 120.909 146.867 120.909C147.193 120.909 147.483 120.982 147.743 121.121C148.003 121.26 148.202 121.459 148.347 121.707C148.492 121.955 148.564 122.233 148.564 122.541C148.564 122.849 148.492 123.127 148.347 123.375C148.202 123.623 148.003 123.822 147.743 123.961C147.483 124.1 147.193 124.179 146.867 124.179C146.541 124.179 146.251 124.106 145.991 123.961C145.732 123.816 145.532 123.623 145.387 123.375C145.242 123.127 145.17 122.849 145.17 122.541C145.17 122.233 145.242 121.955 145.387 121.707ZM145.816 123.103C145.913 123.266 146.052 123.399 146.233 123.49C146.414 123.58 146.626 123.629 146.867 123.629C147.109 123.629 147.32 123.58 147.501 123.49C147.683 123.399 147.821 123.266 147.918 123.103C148.015 122.94 148.063 122.746 148.063 122.535C148.063 122.323 148.015 122.136 147.918 121.973C147.821 121.81 147.683 121.683 147.501 121.586C147.32 121.495 147.109 121.447 146.867 121.447C146.626 121.447 146.414 121.495 146.233 121.586C146.052 121.677 145.913 121.804 145.816 121.973C145.72 122.136 145.671 122.323 145.671 122.535C145.671 122.746 145.72 122.934 145.816 123.103Z" fill="#1A58BF"/>
<path d="M145.647 119.84H146.65V118.619H147.06V119.84H148.087V118.48H148.522V120.371H145.212V118.48H145.641V119.84H145.647Z" fill="#1A58BF"/>
</g>
<defs>
<clipPath id="clip0_1_212">
<rect width="331" height="272" fill="white"/>
</clipPath>
</defs>
</svg>
