<svg width="159" height="292" viewBox="0 0 159 292" fill="none" xmlns="http://www.w3.org/2000/svg">
<g clip-path="url(#clip0_143_24151)">
<path d="M128.055 75.2773C111.783 64.2851 92.4367 60.3672 79.7553 60.3672C67.8802 60.3672 50.402 62.25 34.5847 71.2071C24.7635 76.7725 16.9203 84.3798 11.2895 93.8076C4.60417 104.98 0.992727 118.803 0.544742 134.897C0.475821 137.313 1.3649 139.597 3.04656 141.328C4.73512 143.072 6.99572 144.034 9.42173 144.034H40.5532C44.9503 144.034 48.7272 140.739 49.3406 136.378C50.719 126.57 56.5152 110.061 79.8173 109.652C97.5713 109.348 104.891 122.25 107.22 127.816C111.004 136.87 110.046 147.606 104.649 156.542C96.3652 170.262 81.1199 172.366 72.7736 172.394C63.173 172.428 55.3643 180.257 55.3643 189.844V223.499C55.3643 228.414 59.3479 232.415 64.2412 232.415H94.5801C99.4735 232.415 103.457 228.414 103.457 223.499V216.432C103.457 216.259 103.56 216.113 103.726 216.058C110.597 213.635 123.92 207.786 135.919 195.804C151.24 180.506 159 160.765 159 137.126C159 103.298 142.17 84.8228 128.055 75.2911V75.2773Z" fill="#1A58BF"/>
<path d="M78.6458 248.107H81.0924C93.1398 248.107 102.94 257.951 102.94 270.05C102.94 282.15 93.1398 291.993 81.0924 291.993H78.6458C66.5984 291.993 56.791 282.15 56.791 270.05C56.791 257.951 66.5915 248.107 78.6458 248.107Z" fill="#1A58BF"/>
<path d="M89.1005 86.4636L69.6373 29.7028C65.5296 15.4918 53.8682 6.05012 39.836 10.5633L38.561 11.0548C25.7555 16.0248 18.891 30.035 22.7919 43.2493C26.424 55.5497 30.5937 69.0893 33.13 75.4576C38.3887 88.6372 52.1521 84.9408 52.1521 84.9408C52.1797 84.9339 55.2191 93.7249 56.5424 97.6774L63.6688 104.752L66.6117 101.519L89.0867 86.4567L89.1005 86.4636Z" fill="#FFBF9D"/>
<path d="M52.1592 84.9407C52.1592 84.9407 60.664 82.2065 67.37 73.1802C67.37 73.1802 67.0667 84.74 53.448 88.6579L52.1592 84.9477V84.9407Z" fill="#1A58BF"/>
<path d="M32.3171 52.2134C32.6686 53.224 33.8057 53.764 34.8671 53.4179C35.9216 53.0718 36.5005 51.9712 36.149 50.9605C35.7976 49.9499 34.6604 49.41 33.599 49.7561C32.5376 50.1022 31.9656 51.2028 32.3102 52.2203L32.3171 52.2134Z" fill="#1A58BF"/>
<path d="M27.6371 47.375C27.9679 47.5342 28.9811 45.9144 31.0142 45.1322C33.0267 44.3223 34.922 44.793 35.0461 44.4608C35.115 44.3085 34.7015 43.9555 33.8744 43.734C33.0543 43.5124 31.793 43.4709 30.5318 43.9693C29.2705 44.4677 28.3883 45.3468 27.961 46.0598C27.5199 46.7797 27.4855 47.3127 27.644 47.375H27.6371Z" fill="#1A58BF"/>
<path d="M49.2645 45.4642C49.5953 45.6234 50.6153 44.0037 52.6416 43.2284C54.6541 42.4185 56.5494 42.8892 56.6734 42.557C56.7355 42.4047 56.3288 42.0517 55.5018 41.8301C54.6816 41.6086 53.4204 41.5671 52.1591 42.0655C50.8979 42.5639 50.0157 43.443 49.5884 44.156C49.1542 44.8758 49.1128 45.4088 49.2645 45.4711V45.4642Z" fill="#1A58BF"/>
<path d="M46.4319 58.5954C46.3974 58.4778 45.0534 58.7477 42.91 59.2738C42.3724 59.4192 41.8417 59.5092 41.6212 59.1838C41.3524 58.8585 41.3524 58.2147 41.3731 57.5087C41.3731 56.062 41.3731 54.546 41.38 52.954C41.3386 46.4957 41.0974 41.2626 40.8355 41.2695C40.5736 41.2695 40.4013 46.5165 40.4426 52.9747C40.4633 54.5599 40.484 56.0758 40.5116 57.5225C40.546 58.187 40.4633 58.99 41.0285 59.6684C41.3179 60.0006 41.8073 60.1391 42.1726 60.0975C42.5447 60.0698 42.8342 59.966 43.0961 59.876C45.1913 59.1907 46.4732 58.7062 46.4319 58.5885V58.5954Z" fill="#1A58BF"/>
<path d="M44.5782 34.0223C45.0538 34.4377 46.8113 33.1225 49.1821 32.1465C51.5392 31.1151 53.6964 30.762 53.7309 30.1321C53.7378 29.8345 53.152 29.523 52.1526 29.433C51.1533 29.3361 49.7404 29.5022 48.3206 30.1045C46.9008 30.7067 45.7981 31.6065 45.1709 32.3956C44.5369 33.1848 44.3508 33.8216 44.5713 34.0223H44.5782Z" fill="#1A58BF"/>
<path d="M25.2388 41.422C25.8315 41.7265 27.3133 40.6328 29.3052 39.8714C31.2694 39.0477 33.1027 38.8193 33.3163 38.1894C33.399 37.8917 32.9648 37.5248 32.062 37.3587C31.1729 37.1926 29.8221 37.2826 28.4643 37.8294C27.1066 38.3763 26.0728 39.2346 25.5559 39.9683C25.0252 40.709 24.97 41.2697 25.2388 41.4289V41.422Z" fill="#1A58BF"/>
<path d="M72.1182 39.2827C72.3042 39.0958 80.1474 33.0736 83.3384 42.2454C86.5364 51.4102 76.7083 52.7461 76.6049 52.49C76.4946 52.2339 72.1182 39.2896 72.1182 39.2896V39.2827Z" fill="#FFBF9D"/>
<path d="M78.1837 48.0326C78.2113 47.9911 78.3836 48.088 78.6937 48.1157C78.997 48.1434 79.4794 48.0672 79.8929 47.7211C80.7338 47.0289 81.0095 45.2015 80.4788 43.5333C80.21 42.6888 79.762 41.955 79.2382 41.4013C78.7282 40.8267 78.1286 40.5152 77.6117 40.5983C77.0879 40.6537 76.8466 41.069 76.826 41.3667C76.7915 41.6643 76.9156 41.8304 76.8742 41.8581C76.8535 41.8927 76.6261 41.7751 76.5641 41.3667C76.5365 41.1728 76.5641 40.9167 76.7226 40.6675C76.8811 40.4114 77.1706 40.2038 77.5221 40.1276C78.2457 39.9269 79.1004 40.356 79.6793 40.9652C80.2927 41.5605 80.8234 42.3773 81.1197 43.3256C81.7056 45.1946 81.3678 47.2504 80.1824 48.1018C79.5966 48.4964 78.997 48.4895 78.6455 48.3718C78.2871 48.2472 78.163 48.0603 78.1906 48.0257L78.1837 48.0326Z" fill="#1A58BF"/>
<path d="M53.3165 57.6747C52.9926 57.7647 53.6956 59.8759 52.393 61.9872C51.0973 64.0984 48.7746 64.6175 48.8504 64.9152C48.8642 65.0605 49.4845 65.1575 50.4425 64.8667C51.3798 64.5898 52.6411 63.8284 53.4337 62.5409C54.2263 61.2534 54.2883 59.8621 54.0746 58.9691C53.861 58.0554 53.4475 57.6124 53.3096 57.6747H53.3165Z" fill="#1A58BF"/>
<path d="M-0.000173891 36.8117C-0.0415263 36.2233 0.192804 35.6419 0.571868 35.185C1.39892 34.1952 2.6326 33.849 3.79046 33.4199C6.67135 32.347 9.27655 30.5888 11.3993 28.3599C10.3379 28.2214 9.30412 27.9584 8.33923 27.5015C6.34742 26.5463 4.70711 24.5873 4.68643 22.3654C4.68643 21.95 4.76225 21.4863 5.09306 21.2371C5.62375 20.8425 6.34742 21.244 6.91946 21.5624C8.81478 22.6076 10.2966 22.8153 12.2539 21.8947C13.4669 21.3201 14.5903 20.6072 15.3622 19.6381C15.3898 19.5827 15.4036 19.5273 15.4312 19.4719C15.7344 18.8143 16.0308 18.1775 16.3271 17.5614C18.5602 12.9237 20.6829 9.5111 23.2881 7.21298C27.1132 3.83501 34.3016 0.470895 39.3742 0.0486493C44.4468 -0.373596 49.9466 1.93837 52.2693 6.48616C54.0957 3.35047 58.0104 1.98682 61.6356 2.14603L61.7045 2.08373C65.6812 2.09758 69.0032 5.13636 71.3121 8.3828C71.4361 8.56278 71.5602 8.74275 71.6842 8.92272C73.5451 10.404 75.7437 11.4562 78.0732 11.9061C78.4867 11.9823 78.9622 12.093 79.1414 12.4737C79.3206 12.8475 79.107 13.2905 78.8658 13.6297C78.2317 14.5365 77.384 15.291 76.426 15.8379C77.0531 16.5854 77.7217 17.2846 78.4729 17.9145C79.107 18.4544 79.8651 19.0981 79.7686 19.9219C79.6928 20.5656 79.0794 21.0294 78.4453 21.154C77.8113 21.2786 77.1634 21.1332 76.5362 20.9879C77.2599 21.7977 77.9905 22.6007 78.7141 23.4106C77.5149 24.0889 76.1572 24.4489 74.7788 24.5112C75.213 28.1591 76.8464 34.6243 76.7844 37.227C74.379 38.1269 73.6967 38.0715 72.6216 38.9091C71.2294 39.9958 72.8145 42.5916 70.4781 42.5224C69.2858 42.4878 66.2877 39.0683 65.5572 38.1269C60.7396 31.8486 57.3005 24.5112 55.5361 16.7793C53.5236 15.734 51.3113 15.0764 49.0507 14.8618L49.2574 14.9518C45.074 14.9726 40.4011 15.1872 37.4789 18.1914C35.2114 20.5241 34.6049 23.9574 33.3505 26.9685C30.9797 32.6723 27.3889 36.5417 21.6754 38.8398C22.5713 43.0692 24.7355 49.7352 25.8658 53.5838L20.0075 47.1671V47.2017C19.6009 46.8487 19.2287 46.4818 18.8703 46.108L18.7531 45.9972V45.9834C18.1673 45.3812 17.6022 44.772 16.9405 44.2114L16.913 44.2598C15.507 46.7864 11.544 45.0905 12.378 42.3216C12.5434 41.7748 12.7846 41.2487 13.1085 40.7711C12.4883 41.9755 11.2477 42.8893 9.89684 42.9446C8.54599 43 7.16068 42.0932 6.82297 40.778C6.58864 39.8782 6.93325 38.8814 7.60178 38.2584C6.00282 38.9644 4.1971 39.1998 2.47408 38.8883C1.34378 38.6806 0.110099 38.12 0.0136102 36.8255L-0.000173891 36.8117Z" fill="#1A58BF"/>
<path d="M48.6027 9.51123C48.589 9.55276 49.2851 9.67044 50.374 10.2657C51.4492 10.861 52.8483 12.0724 53.9854 13.9898C54.5575 14.9381 55.0882 16.0387 55.5224 17.2778C55.9635 18.5099 56.3288 19.8666 56.7216 21.2926C57.1213 22.7185 57.5349 24.2275 58.162 25.7227C58.4722 26.4703 58.8375 27.2178 59.2786 27.9377C59.7128 28.6438 60.2021 29.3983 61.0085 29.8552C61.6563 30.2289 62.504 30.1943 63.1174 29.8275C63.7446 29.4744 64.2133 28.9068 64.4752 28.2631C64.9783 26.9548 64.744 25.5981 64.5648 24.4006L64.296 24.5321C65.1092 25.3835 65.9294 26.2142 66.9081 26.7679C67.873 27.3286 69.0102 27.5224 70.0026 27.2663C70.4988 27.1417 70.9537 26.8925 71.2914 26.5395C71.6429 26.1865 71.8221 25.7296 71.9048 25.2866C71.9737 24.8367 71.9324 24.3867 71.7739 23.9991C71.6085 23.6115 71.3259 23.2861 70.9813 23.1061L70.8848 23.2861C72.3252 24.096 73.6347 24.3452 74.51 24.4352C74.9511 24.4767 75.2888 24.4767 75.5232 24.4698C75.7506 24.4559 75.8678 24.449 75.8678 24.4352C75.8678 24.4283 75.7506 24.4213 75.5232 24.4144C75.2957 24.4006 74.958 24.3867 74.5238 24.3314C73.6623 24.2137 72.3804 23.9368 70.9882 23.12L70.8917 23.3C71.512 23.6184 71.829 24.449 71.6774 25.2589C71.6016 25.6604 71.4293 26.0688 71.1191 26.3803C70.8159 26.6918 70.3955 26.9133 69.9406 27.024C69.0239 27.2455 67.9626 27.0656 67.0597 26.5256C66.1362 25.9926 65.3367 25.1828 64.5303 24.3314L64.1857 23.9714L64.2615 24.4698C64.4407 25.6673 64.6475 26.9756 64.1788 28.1593C63.9445 28.7338 63.5103 29.246 62.9658 29.5575C62.4213 29.8759 61.7321 29.9036 61.1739 29.5852C60.4709 29.1976 59.9953 28.4846 59.568 27.7855C59.1407 27.0863 58.7823 26.3526 58.4722 25.6189C57.8519 24.1445 57.4315 22.6493 57.0248 21.2303C56.6251 19.8043 56.246 18.4476 55.7912 17.2016C55.3432 15.9557 54.7849 14.8412 54.1991 13.886C53.0206 11.9547 51.5663 10.7434 50.4498 10.1688C49.3264 9.5943 48.6165 9.52507 48.6165 9.52507L48.6027 9.51123Z" fill="#B9CCEB"/>
<path d="M11.8819 37.1715C11.8819 37.1715 11.9301 37.1923 12.0197 37.2269C12.13 37.2615 12.2678 37.3031 12.4401 37.3515C12.6262 37.4069 12.8537 37.4692 13.1362 37.5177C13.4119 37.5661 13.7359 37.6353 14.1011 37.663C15.5485 37.8153 17.7402 37.6976 20.1799 36.6732C22.5922 35.6625 25.2387 33.7382 27.1892 30.8309C29.181 27.9583 30.5249 24.2965 31.2968 20.3717C31.6966 18.4059 31.9033 16.4608 32.2411 14.6126C32.565 12.7644 33.0268 11.0062 33.7918 9.4764C34.543 7.93971 35.5768 6.63836 36.8174 5.7731C37.4308 5.33009 38.0993 5.03936 38.761 4.81786C39.4295 4.61712 40.1049 4.53405 40.7459 4.52021C42.0347 4.49944 43.1857 4.81094 44.123 5.21934C45.0603 5.63466 45.784 6.16074 46.3216 6.64528C47.3623 7.66282 47.6724 8.44502 47.7138 8.41041C47.7138 8.41041 47.7 8.36195 47.6517 8.27196C47.5966 8.16813 47.5277 8.03662 47.445 7.88433C47.252 7.54515 46.9143 7.08137 46.4043 6.54837C45.8736 6.04306 45.1499 5.48238 44.1988 5.03936C43.2477 4.60328 42.076 4.27102 40.7459 4.27794C40.0842 4.27794 39.3881 4.36793 38.692 4.56866C38.0028 4.78325 37.2929 5.08782 36.6589 5.53775C35.3701 6.4307 34.2949 7.76665 33.5161 9.33104C32.7235 10.8954 32.2548 12.6882 31.9171 14.5503C31.5794 16.4123 31.3658 18.3505 30.966 20.3025C30.201 24.1996 28.8777 27.8199 26.9273 30.6579C25.0251 33.5305 22.4474 35.4272 20.0766 36.4517C17.6919 37.49 15.5347 37.6423 14.1011 37.5315C12.6538 37.4138 11.8888 37.13 11.875 37.1715H11.8819Z" fill="#B9CCEB"/>
<path d="M8.60162 31.7104C8.60162 31.7104 8.80838 31.7934 9.20123 31.8765C9.58718 31.9665 10.1592 32.0495 10.876 32.098C11.5859 32.1534 12.4405 32.1395 13.3778 32.0426C14.3151 31.9319 15.3421 31.738 16.3828 31.4127C17.4235 31.0735 18.3746 30.6444 19.2016 30.1944C20.0218 29.7237 20.7317 29.2461 21.283 28.7892C21.8344 28.3393 22.2617 27.9378 22.5236 27.6402C22.7924 27.3425 22.9302 27.1764 22.9164 27.1626C22.8751 27.121 22.2686 27.7579 21.1383 28.6024C20.58 29.0315 19.8701 29.4815 19.0569 29.9245C18.2367 30.3536 17.2994 30.769 16.2794 31.0943C15.2594 31.4127 14.26 31.6134 13.3365 31.738C12.4129 31.8488 11.579 31.8834 10.876 31.8626C9.47002 31.8211 8.60851 31.6481 8.59473 31.7104H8.60162Z" fill="#B9CCEB"/>
<path d="M33.5987 127.664C33.4815 127.698 35.0391 135.555 36.5692 143.709H37.0516C35.5216 135.562 33.7159 127.629 33.5918 127.664H33.5987Z" fill="#1A58BF"/>
<path d="M40.2011 144.104C44.6258 144.104 48.699 140.906 49.3124 136.545C50.7046 126.75 56.2665 110.179 79.7202 109.77C97.5913 109.466 105.111 122.168 107.22 127.816C110.562 136.787 110.149 147.669 104.718 156.591C96.3783 170.29 81.0366 172.387 72.6283 172.422C62.9656 172.456 55.1017 180.271 55.1017 189.845V226.435L103.505 225.521V216.391C103.505 216.225 103.608 216.072 103.774 216.017C109.666 213.954 119.019 210.05 129.536 201.529L126.386 159.388C126.386 159.388 135.601 141.605 135.139 137.604C130.97 101.055 118.591 80.3723 113.56 78.441C107.916 76.2744 86.1091 77.3335 86.1091 77.3335C86.1091 77.3335 76.6877 94.8602 63.4756 96.7983C56.1218 97.8782 53.4407 88.658 53.4407 88.658L36.3622 98.7158C24.2115 104.876 21.8475 128.827 21.627 144.104H40.1873H40.2011Z" fill="#B9CCEB"/>
<g opacity="0.3">
<path d="M96.2955 165.631C106.055 168.123 115.669 171.28 125.428 173.779C126.152 173.966 126.924 174.18 127.413 174.748C128.13 175.585 127.971 176.852 127.647 177.904C126.621 181.275 124.408 184.182 121.775 186.508C119.653 188.384 117.11 189.962 114.291 190.184C111.155 190.433 108.136 188.966 105.483 187.27C98.7008 182.923 92.9115 176.568 89.2725 169.362C89.2725 169.362 91.5606 168.414 93.3112 167.48C94.9377 166.607 96.2955 165.638 96.2955 165.638V165.631Z" fill="#1A58BF"/>
</g>
<path d="M107.02 128.072C110.921 137.112 109.935 147.834 104.373 156.757C101.286 161.706 97.3571 165.237 93.0771 167.611C97.6948 172.65 102.375 177.094 107.006 180.396C111.989 183.947 123.478 182.936 127.834 175.163C133.21 165.569 133.658 141.058 133.658 141.058L134.678 126.279L104.628 121.655L104.387 122.486C105.676 124.424 106.434 126.715 107.027 128.072H107.02Z" fill="#FFBF9D"/>
<path d="M54.7025 121.863L52.9933 124.569C51.6907 125.469 50.457 124.978 49.6507 123.303L31.1523 95.0261L35.6598 92.1465L56.0878 119.26C56.0878 119.26 56.3773 120.7 54.7025 121.856V121.863Z" fill="#B9CCEB"/>
<path d="M11.9644 94.5414C8.34602 92.4856 5.30662 89.3222 3.42509 85.2521C1.10935 80.2405 0.87502 74.6267 2.77034 69.4351C4.65877 64.2505 8.4494 60.1111 13.4393 57.7853C23.736 52.9883 36.0039 57.4946 40.787 67.8431C43.1027 72.8546 43.3371 78.4684 41.4417 83.66C39.5533 88.8446 35.7627 92.984 30.7728 95.3098C24.5217 98.224 17.5469 97.7048 11.9644 94.5414ZM31.5654 59.765C26.355 56.8093 19.8489 56.3317 14.0182 59.0451C9.36605 61.2117 5.83042 65.0743 4.06605 69.9128C2.30168 74.7513 2.52222 79.9913 4.67944 84.6706C6.83666 89.343 10.6824 92.894 15.5 94.666C20.3175 96.4381 25.5348 96.2166 30.1939 94.05C34.846 91.8834 38.3817 88.0209 40.146 83.1824C41.9104 78.3438 41.6898 73.1038 39.5326 68.4245C37.782 64.6312 34.9425 61.6755 31.5654 59.7581V59.765Z" fill="#1A58BF"/>
<path d="M12.8462 93.6694C9.22786 91.6135 6.18846 88.4501 4.30692 84.38C1.99119 79.3684 1.75686 73.7546 3.65218 68.5631C5.5406 63.3785 9.33124 59.2391 14.3211 56.9133C24.6178 52.1163 36.8857 56.6225 41.6688 66.971C43.9846 71.9826 44.2189 77.5964 42.3236 82.7879C40.4351 87.9725 36.6445 92.1119 31.6546 94.4377C25.4035 97.3519 18.4288 96.8328 12.8462 93.6694ZM32.4472 58.893C27.2368 55.9373 20.7307 55.4596 14.9 58.1731C10.2479 60.3397 6.71225 64.2022 4.94788 69.0407C3.18351 73.8792 3.40406 79.1192 5.56128 83.7985C7.71849 88.4709 11.5643 92.0219 16.3818 93.794C21.1994 95.566 26.4167 95.3445 31.0757 93.1779C35.7279 91.0113 39.2635 87.1488 41.0279 82.3103C42.7922 77.4718 42.5717 72.2318 40.4145 67.5525C38.6639 63.7592 35.8243 60.8035 32.4472 58.886V58.893Z" fill="#B9CCEB"/>
<path d="M40.1118 75.9695C40.1118 75.9695 40.0981 75.8518 40.0912 75.6303C40.0774 75.4088 40.0981 75.0766 40.0498 74.6612C40.0016 73.8237 39.8155 72.6054 39.3675 71.1725C39.1469 70.4526 38.8368 69.6912 38.4646 68.8883C38.0649 68.0991 37.6238 67.2616 37.0587 66.4448C36.5004 65.621 35.8663 64.7904 35.122 64.0082C34.3845 63.2191 33.5713 62.4507 32.6477 61.7724C31.7311 61.0871 30.7662 60.5195 29.7944 60.0557C28.8157 59.6058 27.8302 59.2666 26.8791 59.0036C24.9562 58.519 23.1642 58.3875 21.6687 58.4706C20.1731 58.5536 18.9739 58.789 18.1675 59.0174C17.754 59.1074 17.4507 59.232 17.2371 59.2874C17.0234 59.3497 16.9131 59.3843 16.9062 59.3774C16.9062 59.3704 17.0096 59.3289 17.2164 59.2458C17.43 59.1766 17.7264 59.0382 18.1399 58.9343C18.9463 58.6782 20.1455 58.4221 21.6549 58.3183C23.1642 58.2075 24.9838 58.3252 26.9273 58.8097C27.8922 59.0659 28.8916 59.405 29.884 59.8619C30.8696 60.3257 31.8483 60.9071 32.7787 61.5993C33.7091 62.2846 34.5362 63.0668 35.2736 63.8698C36.018 64.6658 36.6589 65.5034 37.2172 66.3409C37.7892 67.1647 38.2234 68.0161 38.6232 68.819C38.9884 69.6358 39.2986 70.4111 39.5053 71.1379C39.9395 72.5916 40.1049 73.8237 40.1256 74.6682C40.1601 75.0904 40.1256 75.4227 40.1256 75.6442C40.1187 75.8657 40.1118 75.9834 40.1049 75.9834L40.1118 75.9695Z" fill="white"/>
<path d="M18.6221 92.8043C18.6359 92.7558 19.5801 93.1019 21.1652 93.3234C21.3651 93.3442 21.5719 93.3719 21.7855 93.3995C21.9992 93.4272 22.2266 93.4272 22.461 93.4411C22.9296 93.4826 23.4327 93.4549 23.9565 93.4411C25.011 93.3788 26.162 93.2196 27.3405 92.9081C28.5191 92.5827 29.5942 92.1397 30.5385 91.6621C31.0002 91.406 31.4482 91.1706 31.8342 90.9007C32.0271 90.7692 32.227 90.6515 32.3993 90.5269C32.5716 90.3954 32.737 90.2708 32.9024 90.1462C34.1637 89.1563 34.8046 88.3811 34.8391 88.4157C34.8529 88.4226 34.6875 88.6164 34.3911 88.9556C34.2464 89.1286 34.0534 89.3294 33.8191 89.544C33.5847 89.7585 33.3297 90.0285 32.9989 90.2638C32.8404 90.3884 32.675 90.52 32.5027 90.6584C32.3304 90.7969 32.1305 90.9145 31.9375 91.053C31.5516 91.3298 31.1036 91.5721 30.6349 91.8421C29.6838 92.3335 28.5949 92.7904 27.4026 93.1227C26.2102 93.4411 25.0386 93.5934 23.9703 93.6487C23.4327 93.6487 22.9296 93.6695 22.4541 93.628C22.2197 93.6072 21.9854 93.6072 21.7717 93.5726C21.5512 93.538 21.3444 93.5103 21.1446 93.4826C20.7448 93.4342 20.3864 93.3372 20.0763 93.268C19.7593 93.2057 19.4974 93.1227 19.2837 93.0465C18.8564 92.9081 18.6221 92.8181 18.629 92.8043H18.6221Z" fill="white"/>
<path d="M32.7922 79.5621C32.7508 79.6036 30.0629 76.904 26.7961 73.5329C23.5292 70.1619 20.9171 67.3931 20.9585 67.3515C20.9998 67.31 23.6878 70.0096 26.9546 73.3807C30.2214 76.7517 32.8335 79.5205 32.7922 79.5621Z" fill="white"/>
<path d="M29.622 84.9752C29.622 84.9752 29.5462 84.9129 29.429 84.7814C29.2912 84.6291 29.1189 84.4422 28.8983 84.2069C28.4297 83.6808 27.7749 82.954 26.9823 82.061C25.3627 80.2475 23.1228 77.7486 20.6141 75.0213C18.1054 72.2871 15.8103 69.8436 14.1424 68.0716C13.3223 67.1994 12.6537 66.4933 12.1713 65.9742C11.9507 65.7388 11.7784 65.545 11.6406 65.3996C11.5234 65.2681 11.4614 65.192 11.4683 65.1851C11.4683 65.1851 11.5441 65.2404 11.6751 65.365C11.8198 65.5035 12.0059 65.6904 12.2333 65.9119C12.7158 66.3895 13.4119 67.0886 14.2596 67.9608C15.955 69.6982 18.2708 72.1348 20.7795 74.869C23.2882 77.6032 25.5143 80.1159 27.0995 81.9572C27.8921 82.8778 28.5331 83.6254 28.9673 84.1515C29.174 84.4007 29.3325 84.6014 29.4635 84.7537C29.5738 84.8922 29.6289 84.9683 29.622 84.9752Z" fill="white"/>
<g opacity="0.3">
<path d="M12.8331 59.6475L38.1132 87.2319C38.1132 87.2319 36.0663 90.1045 34.1917 91.3574L8.38086 63.1293C8.38086 63.1293 10.2417 60.8796 12.8331 59.6475Z" fill="white"/>
</g>
<g opacity="0.3">
<path d="M6.20293 66.3135L31.0695 93.1849C31.0695 93.1849 31.297 93.3095 29.5877 93.7456L5.50684 67.6771C5.50684 67.6771 5.63089 67.0264 6.20983 66.3135H6.20293Z" fill="white"/>
</g>
<path d="M71.6633 110.649C66.3495 106.364 53.3373 95.8913 52.7446 95.6075C51.9933 95.2545 40.5387 91.1705 38.347 92.4787C36.1554 93.7939 30.2695 101.207 30.2695 101.207C30.2695 101.207 30.8278 105.818 35.9624 102.516C39.8771 99.9961 40.4836 99.6084 40.5525 99.56H40.5456L46.0041 100.847C46.0041 100.847 39.3533 103.637 37.9404 105.105C36.5344 106.572 34.3083 112.193 35.6936 113.487C37.0789 114.782 38.6916 114.892 38.6916 114.892C38.6916 114.892 35.9417 118.81 40.8144 121.178C40.8144 121.178 41.5243 124.472 43.9296 125.76C46.3349 127.047 50.8079 126.598 50.8079 126.598C50.8079 126.598 52.8824 125.365 51.3386 123.316C49.7948 121.274 46.9483 120.991 46.9483 120.991L50.4771 118.921C50.4771 118.921 52.3104 119.489 55.0327 121.593C55.0327 121.593 58.2513 117.454 61.4699 115.114C65.0814 112.49 71.6633 110.642 71.6633 110.642V110.649Z" fill="#FFBF9D"/>
<path d="M49.0848 112.394C49.0848 112.394 48.8987 112.38 48.561 112.421C48.2233 112.463 47.7477 112.56 47.1688 112.747C46.0178 113.107 44.4809 113.91 43.2127 115.287C41.9515 116.665 41.283 118.277 41.0211 119.454C40.8832 120.049 40.8281 120.534 40.8143 120.873C40.8005 121.212 40.8143 121.399 40.8281 121.399C40.8763 121.399 40.8901 120.652 41.2003 119.496C41.5035 118.347 42.1789 116.796 43.4057 115.46C44.6325 114.117 46.1143 113.314 47.2308 112.92C48.3473 112.511 49.0986 112.435 49.0848 112.387V112.394Z" fill="#1A58BF"/>
<path d="M49.3187 106.427C49.3187 106.427 49.1189 106.427 48.7605 106.468C48.5813 106.489 48.3607 106.517 48.1126 106.572C47.8645 106.628 47.575 106.676 47.2649 106.773C46.6377 106.939 45.914 107.209 45.1352 107.576C44.3702 107.957 43.5501 108.441 42.7644 109.043C41.9856 109.652 41.3101 110.324 40.745 110.968C40.1936 111.625 39.7456 112.262 39.4286 112.83C39.2563 113.107 39.1322 113.37 39.0151 113.605C38.8979 113.833 38.8083 114.041 38.7463 114.207C38.6153 114.546 38.5464 114.733 38.5671 114.74C38.6153 114.761 38.9048 114.013 39.5871 112.927C39.9248 112.38 40.3797 111.771 40.9311 111.127C41.4962 110.497 42.1579 109.846 42.9298 109.251C43.7017 108.663 44.5908 107.991 45.342 107.61C46.1001 107.237 46.7066 107.14 47.32 106.953C48.5399 106.572 49.3325 106.475 49.3256 106.427H49.3187Z" fill="#1A58BF"/>
<path d="M50.3115 99.5806C50.3115 99.5806 50.0427 99.4422 49.5671 99.4145C49.0985 99.3799 48.4299 99.456 47.7614 99.7399C46.8517 100.127 46.5346 100.508 46.2727 100.82C45.9695 101.187 45.8523 101.457 45.8799 101.47C45.9419 101.526 46.576 100.515 47.8648 99.9752C49.1398 99.4145 50.3115 99.6568 50.3115 99.5806Z" fill="#1A58BF"/>
<path d="M111.451 77.8873C111.451 77.8873 128.261 79.5071 133.595 94.1749C137.834 105.818 140.129 140.698 139.068 141.404L109.391 140.449C108.998 131.942 106.716 125.386 103.525 121.143L111.451 77.8804V77.8873Z" fill="#B9CCEB"/>
<path d="M109.853 140.456C109.853 140.456 110.073 140.552 110.438 140.781C110.804 141.009 111.314 141.362 111.927 141.819C113.161 142.726 114.794 144.09 116.441 145.758C118.095 147.419 119.446 149.06 120.377 150.278C120.838 150.887 121.204 151.392 121.438 151.752C121.679 152.112 121.796 152.313 121.783 152.327C121.741 152.361 121.156 151.614 120.184 150.437C119.212 149.26 117.834 147.661 116.193 146.007C114.553 144.353 112.961 142.975 111.775 142.02C110.59 141.065 109.825 140.504 109.859 140.456H109.853Z" fill="#1A58BF"/>
<path d="M106.317 104.579C106.413 104.592 105.869 108.317 105.104 112.892C104.332 117.468 103.629 121.164 103.533 121.15C103.436 121.136 103.981 117.412 104.752 112.837C105.524 108.261 106.227 104.565 106.324 104.579H106.317Z" fill="#1A58BF"/>
<path d="M68.9688 209.171C68.9688 209.171 69.1342 209.136 69.465 209.095C69.8234 209.06 70.2989 209.012 70.8847 208.95C72.1598 208.832 73.931 208.659 76.102 208.451C80.5061 208.029 86.5918 207.385 93.2909 206.541C99.9899 205.689 106.041 204.783 110.418 204.097C112.575 203.751 114.332 203.474 115.594 203.273C116.179 203.184 116.648 203.114 117.006 203.059C117.33 203.01 117.503 202.997 117.503 203.01C117.503 203.024 117.337 203.066 117.02 203.135L115.621 203.419C114.408 203.661 112.644 203.98 110.459 204.36C106.096 205.115 100.045 206.056 93.3391 206.915C86.6331 207.766 80.5405 208.361 76.1296 208.721C73.9241 208.901 72.1322 209.033 70.8985 209.102C70.3058 209.136 69.8372 209.157 69.4719 209.178C69.1479 209.192 68.9756 209.192 68.9756 209.178L68.9688 209.171Z" fill="#1A58BF"/>
<path d="M66.3429 204.713C66.3429 204.713 66.7771 204.651 67.5628 204.602C68.4105 204.554 69.5339 204.499 70.8985 204.422C73.7725 204.277 77.639 204.076 81.9121 203.855C86.1851 203.606 90.0516 203.384 92.9256 203.211C94.2902 203.135 95.4136 203.073 96.2614 203.024C97.047 202.983 97.4881 202.976 97.4881 203.003C97.4881 203.031 97.0539 203.087 96.2682 203.17C95.4825 203.253 94.3454 203.356 92.9394 203.474C90.1274 203.709 86.2334 203.986 81.9259 204.222C77.6252 204.457 73.7243 204.609 70.8985 204.686C69.4857 204.727 68.3416 204.748 67.5559 204.748C66.7633 204.748 66.3291 204.748 66.3291 204.72L66.3429 204.713Z" fill="#1A58BF"/>
<path d="M19.07 141.605C19.1803 141.182 19.3595 140.781 19.6076 140.421C20.1038 139.708 20.855 139.161 21.7097 138.967C23.1225 138.642 24.7077 139.307 25.4727 140.546C25.4245 139.604 26.1619 138.718 27.0717 138.469C27.9814 138.22 28.6844 138.573 29.4081 139.175C30.1318 139.777 30.3179 140.262 30.6142 141.155C31.3379 139.521 35.0527 139.722 35.5076 140.947C35.5076 140.947 38.7055 137.431 40.3389 139.161C41.0212 139.881 40.7249 140.982 40.2769 142.082C39.6773 143.557 39.2775 144.173 38.4918 145.793L35.4662 145.959C35.2112 146.914 34.6736 150.783 34.5634 151.759C34.4531 152.735 34.2532 153.732 33.7363 154.57C33.2194 155.407 32.3166 156.065 31.3379 156.051C30.3592 156.037 29.3874 155.193 29.4495 154.21C29.2427 155.02 28.8981 155.823 28.2985 156.411C27.6989 156.999 26.8167 157.339 26.0103 157.124C25.2039 156.909 24.563 156.065 24.7215 155.241C23.6394 155.989 22.0474 155.324 21.3582 154.203C20.6758 153.075 20.6552 151.676 20.6965 150.361C20.731 149.191 20.8413 147.883 20.3795 146.775C20.3106 146.602 20.1796 146.45 20.1383 146.263C20.0762 145.986 20.1176 145.675 20.0969 145.398C20.0556 144.782 19.9453 144.173 19.7316 143.598C19.6834 143.474 19.6351 143.349 19.58 143.224C19.4353 142.899 19.2147 142.622 19.0493 142.304C19.0149 142.235 18.9804 142.165 18.9735 142.089C18.9528 141.93 19.0218 141.75 19.0631 141.605H19.07Z" fill="#FFBF9D"/>
<path d="M15.6656 139.915C14.8593 139.888 13.9771 140.054 13.4326 140.663C12.7917 141.383 12.6469 143.1 12.7158 144.062C13.8392 144.276 14.4389 144.02 15.5554 144.235C15.7897 144.276 15.9896 144.221 16.1826 144.359C16.6995 144.726 16.6168 145.972 16.8235 146.574C17.1819 147.62 18.519 148.132 19.5459 147.744C20.5797 147.364 21.2413 146.256 21.2965 145.155C21.3516 144.048 20.8623 142.968 20.1593 142.124C19.0497 140.802 17.3749 139.978 15.6588 139.915H15.6656Z" fill="#FFBF9D"/>
<path d="M34.7774 150.153C34.6603 150.126 35.122 148.07 35.4184 145.502C35.5562 144.221 35.5907 143.051 35.5425 142.207C35.5011 141.362 35.3977 140.85 35.4529 140.836C35.4942 140.822 35.6803 141.328 35.7906 142.186C35.9077 143.037 35.9146 144.242 35.7699 145.543C35.632 146.845 35.3908 148.007 35.191 148.838C34.9911 149.669 34.8257 150.174 34.7774 150.16V150.153Z" fill="#1A58BF"/>
<path d="M29.3121 154.584C29.2638 154.57 29.3879 153.822 29.6153 152.618C29.8359 151.413 30.1391 149.745 30.3735 147.897C30.6078 146.049 30.6905 144.36 30.6629 143.141C30.6423 141.923 30.5596 141.169 30.6147 141.162C30.656 141.155 30.8352 141.902 30.9179 143.134C31.0075 144.367 30.9662 146.076 30.7319 147.945C30.4975 149.814 30.146 151.476 29.8635 152.673C29.5809 153.871 29.3603 154.597 29.3121 154.584Z" fill="#1A58BF"/>
<path d="M24.6872 155.373C24.6321 155.359 24.8251 154.528 25.0663 153.185C25.3075 151.842 25.5763 149.966 25.6935 147.89C25.8037 145.806 25.7417 143.917 25.6452 142.553C25.5487 141.189 25.4522 140.345 25.5074 140.338C25.5349 140.338 25.5832 140.539 25.659 140.919C25.7348 141.3 25.8175 141.847 25.9002 142.532C26.0587 143.903 26.1621 145.806 26.0518 147.911C25.9347 150.015 25.6245 151.898 25.3144 153.241C25.1628 153.912 25.018 154.452 24.9009 154.819C24.7837 155.186 24.7148 155.386 24.6872 155.38V155.373Z" fill="#1A58BF"/>
<path d="M18.5943 141.819C18.6081 141.785 19.0078 141.896 19.5385 142.297C20.0623 142.692 20.6964 143.398 21.0686 144.353C21.4407 145.301 21.4683 146.27 21.2753 146.921C21.0755 147.592 20.655 147.821 20.6413 147.779C20.5999 147.738 20.9101 147.468 21.0272 146.859C21.1444 146.263 21.0824 145.37 20.7378 144.484C20.3931 143.598 19.8349 142.913 19.3731 142.491C18.9114 142.062 18.5667 141.868 18.5943 141.819Z" fill="#1A58BF"/>
</g>
<defs>
<clipPath id="clip0_143_24151">
<rect width="159" height="292" fill="white"/>
</clipPath>
</defs>
</svg>
