<svg width="784" height="593" viewBox="0 0 784 593" fill="none" xmlns="http://www.w3.org/2000/svg">
<g clip-path="url(#clip0_2147_1211)">
<path d="M744.232 263.179L526.215 150.785C519.092 147.113 510.339 149.906 506.664 157.024L442.217 281.847C438.542 288.964 441.337 297.711 448.46 301.383L666.477 413.778C673.6 417.45 682.353 414.657 686.028 407.539L750.475 282.716C754.15 275.598 751.355 266.851 744.232 263.179Z" fill="#1A58BF"/>
<path d="M518.908 281.864C518.711 281.864 518.508 281.818 518.321 281.721L483.52 263.776C482.892 263.451 482.643 262.68 482.969 262.049C483.294 261.419 484.066 261.173 484.697 261.499L519.498 279.443C520.126 279.769 520.375 280.54 520.049 281.17C519.821 281.611 519.372 281.864 518.908 281.864Z" fill="white"/>
<path d="M571.729 309.101C571.532 309.101 571.329 309.054 571.142 308.957L536.341 291.012C535.713 290.687 535.464 289.916 535.79 289.286C536.115 288.656 536.887 288.41 537.518 288.735L572.319 306.68C572.947 307.005 573.196 307.776 572.87 308.406C572.642 308.847 572.193 309.101 571.729 309.101Z" fill="white"/>
<path d="M624.55 336.336C624.353 336.336 624.15 336.29 623.963 336.193L589.162 318.248C588.534 317.923 588.285 317.152 588.611 316.522C588.936 315.891 589.708 315.645 590.339 315.971L625.14 333.916C625.768 334.241 626.017 335.012 625.691 335.642C625.463 336.083 625.014 336.336 624.55 336.336Z" fill="white"/>
<path d="M677.371 363.57C677.174 363.57 676.971 363.524 676.784 363.427L641.983 345.482C641.355 345.157 641.106 344.386 641.432 343.755C641.757 343.125 642.529 342.879 643.16 343.205L677.961 361.149C678.589 361.475 678.838 362.246 678.512 362.876C678.284 363.317 677.835 363.57 677.371 363.57Z" fill="white"/>
<path d="M482.125 273.731L478.093 281.539L476.988 280.97L480.518 274.133L478.754 273.223L479.254 272.252L482.123 273.731H482.125Z" fill="white"/>
<path d="M485.794 284.28L485.294 285.251L479.68 282.356L480.072 281.598L484.838 280.171C486.079 279.794 486.489 279.384 486.742 278.892C487.158 278.088 486.842 277.304 485.748 276.741C484.909 276.308 484.092 276.226 483.312 276.559L482.892 275.508C483.881 275.073 485.143 275.173 486.361 275.8C487.991 276.641 488.606 278.019 487.917 279.356C487.524 280.114 486.95 280.68 485.366 281.149L481.79 282.215L485.797 284.282L485.794 284.28Z" fill="white"/>
<path d="M496.897 279.341L497.869 279.84L488.76 288.448L487.788 287.948L496.897 279.341Z" fill="white"/>
<path d="M502.137 292.708L501.637 293.679L496.023 290.784L496.415 290.026L501.181 288.599C502.422 288.222 502.832 287.812 503.086 287.321C503.501 286.516 503.185 285.732 502.091 285.169C501.253 284.736 500.435 284.654 499.655 284.987L499.235 283.937C500.224 283.501 501.486 283.601 502.704 284.229C504.334 285.069 504.949 286.447 504.26 287.784C503.867 288.543 503.293 289.109 501.709 289.577L498.133 290.643L502.14 292.71L502.137 292.708Z" fill="white"/>
<path d="M510.128 295.626L508.643 294.86L507.654 296.778L506.572 296.22L507.562 294.301L503.219 292.062L503.621 291.281L510.256 288.232L511.461 288.855L505.085 291.811L508.087 293.358L508.961 291.663L510.01 292.203L509.136 293.899L510.62 294.665L510.125 295.623L510.128 295.626Z" fill="white"/>
<path d="M526.579 208.169C527.886 207.124 529.696 206.822 531.314 207.485L532.698 204.803L525.351 201.014L522.692 206.163L526.579 208.166V208.169Z" fill="white"/>
<path d="M524.623 200.637L521.426 198.99C519.485 197.989 517.101 198.749 516.098 200.689L515.252 202.328L521.964 205.789L524.623 200.64V200.637Z" fill="white"/>
<path d="M523.177 213.866C523.571 213.103 524.146 212.496 524.822 212.065C524.784 211.266 524.943 210.444 525.338 209.68C525.512 209.345 525.722 209.042 525.958 208.768L522.315 206.891L518.352 214.563L522.723 216.817C522.556 215.844 522.687 214.809 523.174 213.864L523.177 213.866Z" fill="white"/>
<path d="M534.228 212.111L537.289 213.689L539.948 208.54L533.426 205.177L532.042 207.859C533.521 208.791 534.326 210.441 534.228 212.111Z" fill="white"/>
<path d="M538.581 215.28L534.095 212.967C534.008 213.318 533.885 213.664 533.711 213.999C533.316 214.763 532.742 215.37 532.065 215.8C532.103 216.599 531.944 217.422 531.549 218.185C530.419 220.373 527.812 221.3 525.574 220.38L525.048 221.397L531.57 224.761L531.934 224.948L533.239 225.622L538.579 215.28H538.581Z" fill="white"/>
<path d="M514.864 203.039L510.903 210.711L517.614 214.171L521.576 206.499L514.864 203.039Z" fill="white"/>
<path d="M525.579 219.481C527.486 220.465 529.84 219.714 530.824 217.808C531.137 217.204 531.283 216.525 531.25 215.841L531.226 215.367L531.626 215.111C532.203 214.742 532.672 214.227 532.985 213.625C533.97 211.719 533.218 209.368 531.311 208.384C529.404 207.4 527.05 208.151 526.066 210.057C525.753 210.661 525.607 211.34 525.64 212.024L525.663 212.498L525.263 212.754C524.687 213.123 524.217 213.638 523.905 214.24C522.92 216.146 523.671 218.498 525.579 219.481Z" fill="white"/>
<path d="M539.298 215.634L533.958 225.976L539.827 229.002L545.167 218.659L539.298 215.634Z" fill="white"/>
<path d="M529.119 231.296L533.141 233.371C535.082 234.373 537.466 233.612 538.469 231.673L539.461 229.751L531.924 225.865L529.119 231.299V231.296Z" fill="white"/>
<path d="M544.701 210.989L540.679 208.914L538.02 214.063L545.557 217.949L546.403 216.31C547.405 214.371 546.644 211.988 544.703 210.986L544.701 210.989Z" fill="white"/>
<path d="M510.538 211.456L508.167 216.046C507.164 217.985 507.926 220.368 509.866 221.37L513.063 223.017L517.247 214.914L510.535 211.453L510.538 211.456Z" fill="white"/>
<path d="M524.663 222.104L521.858 227.539L528.38 230.901L531.186 225.467L524.663 222.104Z" fill="white"/>
<path d="M523.043 217.906L517.975 215.293L513.791 223.396L521.139 227.184L524.846 220.007C524.023 219.489 523.407 218.751 523.041 217.908L523.043 217.906Z" fill="white"/>
<path d="M490.583 249.853L491.621 249.428C491.734 250.25 492.113 250.855 492.772 251.193C493.654 251.646 494.387 251.349 494.93 250.299L497.194 245.916L494.369 244.461L494.869 243.49L498.799 245.516L496.064 250.814C495.166 252.553 493.874 252.976 492.277 252.151C491.352 251.674 490.711 250.834 490.583 249.85V249.853Z" fill="white"/>
<path d="M497.871 251.18C498.781 249.418 500.732 248.841 502.506 249.758C504.28 250.673 504.931 252.592 504.021 254.352C503.111 256.111 501.165 256.706 499.391 255.791C497.617 254.877 496.961 252.943 497.871 251.18ZM502.939 253.793C503.59 252.533 503.162 251.28 502.024 250.693C500.886 250.107 499.607 250.478 498.955 251.739C498.304 252.999 498.737 254.267 499.876 254.854C501.014 255.44 502.288 255.053 502.939 253.793Z" fill="white"/>
<path d="M511.351 257.567L509.594 260.969L508.523 260.415L510.217 257.136C510.817 255.976 510.53 255.107 509.515 254.585C508.377 253.998 507.287 254.298 506.626 255.581L505.054 258.627L503.983 258.074L508.256 249.797L509.328 250.35L507.674 253.552C508.415 253.214 509.318 253.271 510.223 253.737C511.663 254.48 512.253 255.827 511.353 257.569L511.351 257.567Z" fill="white"/>
<path d="M518.952 261.486L517.196 264.888L516.124 264.334L517.818 261.055C518.418 259.895 518.131 259.027 517.116 258.504C515.978 257.917 514.888 258.217 514.227 259.5L512.655 262.546L511.584 261.993L514.637 256.081L515.665 256.611L515.204 257.502C515.95 257.123 516.888 257.169 517.826 257.653C519.267 258.396 519.857 259.744 518.957 261.486H518.952Z" fill="white"/>
<path d="M526.373 259.733L529.665 261.432C532.177 262.728 533.067 265.19 531.867 267.511C530.667 269.832 528.142 270.534 525.633 269.24L522.341 267.542L526.373 259.733ZM526.068 268.233C527.999 269.23 529.85 268.687 530.752 266.934C531.657 265.182 531.029 263.363 529.096 262.367L526.986 261.278L523.956 267.144L526.066 268.233H526.068Z" fill="white"/>
<path d="M532.388 268.976C533.298 267.214 535.249 266.637 537.023 267.554C538.797 268.471 539.448 270.388 538.538 272.147C537.628 273.907 535.682 274.502 533.908 273.587C532.134 272.673 531.477 270.738 532.388 268.976ZM537.456 271.589C538.107 270.329 537.679 269.076 536.541 268.489C535.402 267.903 534.123 268.274 533.472 269.534C532.821 270.795 533.254 272.063 534.392 272.65C535.531 273.236 536.805 272.849 537.456 271.589Z" fill="white"/>
<path d="M545.162 276.016L540.363 273.541C539.96 274.648 540.442 275.77 541.614 276.375C542.306 276.731 543.009 276.797 543.691 276.541L543.924 277.538C543.065 277.886 542.078 277.801 541.096 277.294C539.186 276.31 538.566 274.394 539.476 272.632C540.386 270.869 542.293 270.27 544.001 271.151C545.708 272.032 546.293 273.887 545.352 275.703C545.306 275.793 545.226 275.921 545.162 276.016ZM540.76 272.77L544.554 274.727C544.954 273.677 544.57 272.588 543.532 272.053C542.493 271.518 541.388 271.825 540.758 272.77H540.76Z" fill="white"/>
<path d="M526.507 129.97H525.989V75.6255C525.989 57.6064 511.371 42.9995 493.339 42.9995H295.432C277.399 42.9995 262.781 57.6064 262.781 75.6255V129.97H262.263C259.91 129.97 258 131.876 258 134.23V171.823C258 174.175 259.907 176.083 262.263 176.083H262.781V185.049H262.263C259.91 185.049 258 186.955 258 189.309V226.902C258 229.254 259.907 231.163 262.263 231.163H262.781V560.374C262.781 578.393 277.399 593 295.432 593H493.339C511.371 593 525.989 578.393 525.989 560.374V199.136H526.507C528.86 199.136 530.77 197.23 530.77 194.876V134.227C530.77 131.876 528.863 129.967 526.507 129.967V129.97Z" fill="#333343"/>
<path d="M489.97 51.0688H298.8C284.155 51.0688 272.282 62.9326 272.282 77.5672V558.432C272.282 573.066 284.155 584.93 298.8 584.93H489.97C504.616 584.93 516.488 573.066 516.488 558.432V77.5672C516.488 62.9326 504.616 51.0688 489.97 51.0688Z" fill="white"/>
<path d="M395.154 383.776C431.509 383.776 460.981 354.327 460.981 317.999C460.981 281.672 431.509 252.222 395.154 252.222C358.799 252.222 329.328 281.672 329.328 317.999C329.328 354.327 358.799 383.776 395.154 383.776Z" fill="#E5F2FF"/>
<path d="M394.385 362.993C419.253 362.993 439.413 342.849 439.413 317.999C439.413 293.15 419.253 273.005 394.385 273.005C369.517 273.005 349.357 293.15 349.357 317.999C349.357 342.849 369.517 362.993 394.385 362.993Z" fill="#F2F8FF"/>
<path d="M428.64 318.179C428.074 318.179 427.615 317.72 427.615 317.154V305.15C427.615 303.618 426.366 302.371 424.833 302.371H388.914C388.348 302.371 387.889 301.912 387.889 301.346C387.889 300.78 388.348 300.321 388.914 300.321H424.833C427.497 300.321 429.666 302.489 429.666 305.15V317.154C429.666 317.72 429.207 318.179 428.64 318.179Z" fill="#1A58BF"/>
<path d="M423.005 336.047H388.912C388.345 336.047 387.886 335.588 387.886 335.022C387.886 334.456 388.345 333.998 388.912 333.998H423.005C423.572 333.998 424.031 334.456 424.031 335.022C424.031 335.588 423.572 336.047 423.005 336.047Z" fill="#1A58BF"/>
<path d="M427.94 343.379C427.594 343.379 427.258 343.205 427.064 342.89L416.765 326.067C415.366 323.779 415.896 320.8 418.001 319.137C419.116 318.256 420.506 317.864 421.918 318.031C423.328 318.197 424.59 318.904 425.466 320.021L437.544 335.389C437.892 335.835 437.815 336.478 437.369 336.828C436.923 337.179 436.28 337.1 435.929 336.657L423.851 321.289C423.313 320.603 422.539 320.17 421.675 320.067C420.808 319.965 419.955 320.206 419.27 320.746C417.978 321.766 417.652 323.595 418.511 324.998L428.809 341.821C429.104 342.303 428.953 342.936 428.471 343.23C428.304 343.333 428.12 343.381 427.938 343.381L427.94 343.379Z" fill="#1A58BF"/>
<path d="M451.17 358.362C450.821 358.362 450.48 358.183 450.288 357.862L447.201 352.69C446.158 350.718 445.606 348.497 445.606 346.268V332.176C445.606 328.544 444.122 324.998 441.538 322.444L428.269 309.346C427.866 308.949 427.861 308.301 428.261 307.896C428.658 307.494 429.307 307.489 429.712 307.886L442.981 320.984C445.955 323.92 447.66 327.998 447.66 332.174V346.266C447.66 348.153 448.124 350.036 449.003 351.707L452.051 356.81C452.341 357.296 452.182 357.924 451.695 358.213C451.531 358.311 451.349 358.359 451.17 358.359V358.362Z" fill="#1A58BF"/>
<path d="M431.165 367.73C430.763 367.73 430.381 367.492 430.217 367.097L425.384 355.442C419.657 352.947 415.984 347.357 415.984 341.083V335.23C415.984 334.664 416.443 334.205 417.009 334.205C417.576 334.205 418.035 334.664 418.035 335.23V341.083C418.035 346.663 421.38 351.62 426.556 353.71L426.953 353.871L432.111 366.314C432.329 366.836 432.081 367.436 431.555 367.653C431.427 367.707 431.294 367.733 431.163 367.733L431.165 367.73Z" fill="#1A58BF"/>
<path d="M401.648 344.339C400.348 344.339 399.028 344.106 397.743 343.617L396.736 343.233L400.345 335.071C400.574 334.553 401.179 334.318 401.699 334.548C402.217 334.776 402.45 335.381 402.222 335.901L399.512 342.029C403.822 343.099 408.37 340.809 409.998 336.562L410.649 334.863C410.851 334.336 411.443 334.069 411.974 334.274C412.502 334.477 412.766 335.068 412.564 335.599L411.913 337.297C410.241 341.657 406.067 344.342 401.65 344.342L401.648 344.339Z" fill="#1A58BF"/>
<path d="M389.483 317.003C389.222 317.003 388.958 316.903 388.758 316.704C388.358 316.304 388.358 315.656 388.758 315.254L390.222 313.791C390.711 313.302 390.711 312.502 390.222 312.013L388.758 310.55C388.358 310.151 388.358 309.503 388.758 309.101C389.158 308.701 389.806 308.701 390.209 309.101L391.673 310.563C392.962 311.852 392.962 313.95 391.673 315.238L390.209 316.701C390.009 316.901 389.748 317.001 389.483 317.001V317.003Z" fill="#1A58BF"/>
<path d="M392.978 327.529H388.914C388.348 327.529 387.889 327.071 387.889 326.505C387.889 325.939 388.348 325.48 388.914 325.48H392.978C393.544 325.48 394.003 325.939 394.003 326.505C394.003 327.071 393.544 327.529 392.978 327.529Z" fill="#1A58BF"/>
<path d="M408.862 327.529H400.012C399.446 327.529 398.987 327.071 398.987 326.505C398.987 325.939 399.446 325.48 400.012 325.48H408.862C409.428 325.48 409.887 325.939 409.887 326.505C409.887 327.071 409.428 327.529 408.862 327.529Z" fill="#1A58BF"/>
<path d="M382.821 269.294H342.925C339.986 269.294 337.603 271.675 337.603 274.612V358.419C337.603 361.356 339.986 363.737 342.925 363.737H382.821C385.76 363.737 388.143 361.356 388.143 358.419V274.612C388.143 271.675 385.76 269.294 382.821 269.294Z" fill="white"/>
<path d="M382.818 364.761H342.923C339.423 364.761 336.575 361.915 336.575 358.418V274.612C336.575 271.115 339.423 268.269 342.923 268.269H382.818C386.317 268.269 389.166 271.115 389.166 274.612V358.418C389.166 361.915 386.317 364.761 382.818 364.761ZM342.923 270.318C340.554 270.318 338.626 272.245 338.626 274.612V358.418C338.626 360.785 340.554 362.712 342.923 362.712H382.818C385.187 362.712 387.115 360.785 387.115 358.418V274.612C387.115 272.245 385.187 270.318 382.818 270.318H342.923Z" fill="#1A58BF"/>
<path d="M369.292 274.627H356.451C355.884 274.627 355.426 274.168 355.426 273.602C355.426 273.036 355.884 272.578 356.451 272.578H369.292C369.859 272.578 370.318 273.036 370.318 273.602C370.318 274.168 369.859 274.627 369.292 274.627Z" fill="#1A58BF"/>
<path d="M362.873 359.996C363.826 359.996 364.598 359.225 364.598 358.272C364.598 357.32 363.826 356.548 362.873 356.548C361.92 356.548 361.147 357.32 361.147 358.272C361.147 359.225 361.92 359.996 362.873 359.996Z" fill="#474747"/>
<path d="M362.873 361.021C361.355 361.021 360.122 359.789 360.122 358.272C360.122 356.756 361.355 355.523 362.873 355.523C364.391 355.523 365.624 356.756 365.624 358.272C365.624 359.789 364.391 361.021 362.873 361.021ZM362.873 357.573C362.488 357.573 362.173 357.885 362.173 358.272C362.173 358.659 362.486 358.971 362.873 358.971C363.26 358.971 363.573 358.659 363.573 358.272C363.573 357.885 363.26 357.573 362.873 357.573Z" fill="#1A58BF"/>
<path d="M333.109 125.382H298.621C297.311 125.382 296.252 124.321 296.252 123.012C296.252 121.703 297.313 120.643 298.621 120.643H333.109C334.419 120.643 335.478 121.703 335.478 123.012C335.478 124.321 334.417 125.382 333.109 125.382Z" fill="#333343"/>
<path d="M385.456 125.382H350.967C349.657 125.382 348.599 124.321 348.599 123.012C348.599 121.703 349.66 120.643 350.967 120.643H385.456C386.766 120.643 387.825 121.703 387.825 123.012C387.825 124.321 386.763 125.382 385.456 125.382Z" fill="#333343"/>
<path d="M437.803 125.382H403.314C402.004 125.382 400.946 124.321 400.946 123.012C400.946 121.703 402.007 120.643 403.314 120.643H437.803C439.113 120.643 440.172 121.703 440.172 123.012C440.172 124.321 439.11 125.382 437.803 125.382Z" fill="#333343"/>
<path d="M490.15 125.382H455.661C454.351 125.382 453.292 124.321 453.292 123.012C453.292 121.703 454.354 120.643 455.661 120.643H490.15C491.46 120.643 492.518 121.703 492.518 123.012C492.518 124.321 491.457 125.382 490.15 125.382Z" fill="#333343"/>
<path d="M371.043 172.92V174.61H361.86V173.273L368.198 165.542H361.968V163.851H370.843V165.188L364.506 172.92H371.043Z" fill="#333343"/>
<path d="M379.595 169.8V174.611H377.78V173.611C377.319 174.318 376.427 174.718 375.196 174.718C373.32 174.718 372.135 173.688 372.135 172.259C372.135 170.829 373.058 169.815 375.55 169.815H377.673V169.692C377.673 168.57 376.996 167.909 375.627 167.909C374.704 167.909 373.75 168.216 373.135 168.724L372.381 167.325C373.258 166.649 374.535 166.311 375.858 166.311C378.226 166.311 379.595 167.433 379.595 169.8ZM377.673 172.044V171.091H375.688C374.381 171.091 374.027 171.583 374.027 172.182C374.027 172.874 374.612 173.319 375.596 173.319C376.581 173.319 377.35 172.889 377.673 172.044Z" fill="#333343"/>
<path d="M390.147 169.907V174.61H388.225V170.153C388.225 168.693 387.502 167.986 386.271 167.986C384.902 167.986 383.979 168.816 383.979 170.46V174.61H382.057V163.206H383.979V167.356C384.61 166.679 385.579 166.31 386.717 166.31C388.686 166.31 390.147 167.432 390.147 169.907Z" fill="#333343"/>
<path d="M392.593 163.206H394.516V174.61H392.593V163.206Z" fill="#333343"/>
<path d="M404.991 166.402V174.61H403.161V173.565C402.545 174.318 401.576 174.718 400.515 174.718C398.408 174.718 396.977 173.565 396.977 171.09V166.402H398.9V170.829C398.9 172.32 399.607 173.027 400.822 173.027C402.161 173.027 403.068 172.197 403.068 170.552V166.402H404.991Z" fill="#333343"/>
<path d="M415.604 169.907V174.611H413.682V170.153C413.682 168.693 412.959 167.986 411.728 167.986C410.359 167.986 409.436 168.816 409.436 170.461V174.611H407.513V166.403H409.344V167.463C409.975 166.71 410.974 166.311 412.174 166.311C414.143 166.311 415.604 167.433 415.604 169.907Z" fill="#333343"/>
<path d="M426.279 166.403V173.366C426.279 176.347 424.726 177.7 421.849 177.7C420.311 177.7 418.788 177.3 417.85 176.532L418.712 175.087C419.434 175.686 420.603 176.071 421.742 176.071C423.557 176.071 424.357 175.241 424.357 173.581V173.15C423.68 173.888 422.711 174.242 421.603 174.242C419.25 174.242 417.45 172.643 417.45 170.261C417.45 167.878 419.25 166.311 421.603 166.311C422.757 166.311 423.772 166.679 424.449 167.494V166.403H426.279ZM424.387 170.261C424.387 168.877 423.341 167.94 421.896 167.94C420.45 167.94 419.388 168.877 419.388 170.261C419.388 171.644 420.434 172.612 421.896 172.612C423.357 172.612 424.387 171.659 424.387 170.261Z" fill="#333343"/>
<path d="M305.789 201.101C305.789 202.32 304.886 203.017 303.092 203.017H299.79V195.844H302.887C304.486 195.844 305.409 196.521 305.409 197.689C305.409 198.508 304.968 199.052 304.312 199.318C305.235 199.523 305.789 200.127 305.789 201.101ZM300.549 196.469V199.072H302.835C303.984 199.072 304.65 198.631 304.65 197.771C304.65 196.91 303.984 196.469 302.835 196.469H300.549ZM305.03 201.039C305.03 200.107 304.343 199.697 303.081 199.697H300.549V202.392H303.081C304.343 202.392 305.03 201.982 305.03 201.039Z" fill="#333343"/>
<path d="M312.065 200.548H307.553C307.635 201.675 308.496 202.423 309.675 202.423C310.332 202.423 310.916 202.187 311.326 201.716L311.736 202.187C311.254 202.761 310.506 203.068 309.655 203.068C307.973 203.068 306.824 201.921 306.824 200.322C306.824 198.724 307.942 197.586 309.46 197.586C310.978 197.586 312.075 198.703 312.075 200.322C312.075 200.384 312.065 200.466 312.065 200.548ZM307.553 200.005H311.377C311.285 198.949 310.516 198.211 309.46 198.211C308.404 198.211 307.645 198.949 307.553 200.005Z" fill="#333343"/>
<path d="M316.402 202.689C316.115 202.945 315.684 203.068 315.264 203.068C314.249 203.068 313.685 202.494 313.685 201.5V198.242H312.721V197.627H313.685V196.449H314.413V197.627H316.053V198.242H314.413V201.459C314.413 202.095 314.741 202.443 315.346 202.443C315.643 202.443 315.941 202.351 316.146 202.166L316.402 202.689Z" fill="#333343"/>
<path d="M320.442 197.586V198.293C320.381 198.293 320.319 198.283 320.268 198.283C319.14 198.283 318.453 199 318.453 200.271V203.017H317.725V197.627H318.422V198.683C318.761 197.966 319.448 197.586 320.442 197.586Z" fill="#333343"/>
<path d="M325.816 199.677V203.017H325.118V202.177C324.79 202.73 324.154 203.068 323.262 203.068C322.042 203.068 321.293 202.433 321.293 201.501C321.293 200.671 321.827 199.974 323.375 199.974H325.088V199.646C325.088 198.724 324.565 198.222 323.56 198.222C322.862 198.222 322.206 198.468 321.765 198.857L321.437 198.314C321.981 197.853 322.78 197.586 323.631 197.586C325.026 197.586 325.816 198.283 325.816 199.677ZM325.088 201.398V200.517H323.396C322.35 200.517 322.011 200.927 322.011 201.48C322.011 202.105 322.514 202.495 323.375 202.495C324.237 202.495 324.801 202.105 325.088 201.398Z" fill="#333343"/>
<path d="M332.809 197.627V202.361C332.809 204.216 331.897 205.056 330.112 205.056C329.128 205.056 328.164 204.759 327.6 204.226L327.969 203.673C328.482 204.134 329.261 204.411 330.092 204.411C331.456 204.411 332.081 203.786 332.081 202.454V201.767C331.63 202.454 330.861 202.812 329.979 202.812C328.441 202.812 327.272 201.736 327.272 200.189C327.272 198.642 328.441 197.586 329.979 197.586C330.882 197.586 331.661 197.955 332.112 198.662V197.627H332.809ZM332.102 200.189C332.102 199.021 331.24 198.222 330.051 198.222C328.861 198.222 328.01 199.021 328.01 200.189C328.01 201.357 328.861 202.167 330.051 202.167C331.24 202.167 332.102 201.357 332.102 200.189Z" fill="#333343"/>
<path d="M339.546 200.548H335.034C335.117 201.675 335.978 202.423 337.157 202.423C337.813 202.423 338.398 202.187 338.808 201.716L339.218 202.187C338.736 202.761 337.988 203.068 337.137 203.068C335.455 203.068 334.306 201.921 334.306 200.322C334.306 198.724 335.424 197.586 336.942 197.586C338.459 197.586 339.557 198.703 339.557 200.322C339.557 200.384 339.546 200.466 339.546 200.548ZM335.034 200.005H338.859C338.767 198.949 337.998 198.211 336.942 198.211C335.886 198.211 335.127 198.949 335.034 200.005Z" fill="#333343"/>
<path d="M435.232 202.361V203.017H430.156V195.844H435.078V196.5H430.914V199.051H434.626V199.697H430.914V202.361H435.232Z" fill="#333343"/>
<path d="M441.641 197.627V203.017H440.943V202.033C440.564 202.689 439.867 203.068 439.005 203.068C437.631 203.068 436.729 202.3 436.729 200.752V197.627H437.457V200.681C437.457 201.828 438.052 202.412 439.077 202.412C440.205 202.412 440.913 201.685 440.913 200.455V197.627H441.641Z" fill="#333343"/>
<path d="M446.399 197.586V198.293C446.337 198.293 446.276 198.283 446.224 198.283C445.096 198.283 444.409 199 444.409 200.271V203.017H443.681V197.627H444.378V198.682C444.717 197.965 445.404 197.586 446.399 197.586Z" fill="#333343"/>
<path d="M447.342 198.139C447.342 197.822 447.588 197.586 447.886 197.586C448.183 197.586 448.439 197.822 448.439 198.139C448.439 198.457 448.183 198.703 447.886 198.703C447.588 198.703 447.342 198.457 447.342 198.139ZM447.342 202.504C447.342 202.187 447.588 201.951 447.886 201.951C448.183 201.951 448.439 202.187 448.439 202.504C448.439 202.822 448.183 203.068 447.886 203.068C447.588 203.068 447.342 202.822 447.342 202.504Z" fill="#333343"/>
<path d="M454.182 195.847V203.019H453.443V196.502H451.751V195.847H454.182Z" fill="#333343"/>
<path d="M455.894 199.431C455.894 197.146 457.094 195.783 458.755 195.783C460.417 195.783 461.627 197.146 461.627 199.431C461.627 201.716 460.417 203.078 458.755 203.078C457.094 203.078 455.894 201.716 455.894 199.431ZM460.868 199.431C460.868 197.514 460.006 196.459 458.755 196.459C457.504 196.459 456.643 197.514 456.643 199.431C456.643 201.347 457.504 202.402 458.755 202.402C460.006 202.402 460.868 201.347 460.868 199.431Z" fill="#333343"/>
<path d="M462.683 199.431C462.683 197.146 463.883 195.783 465.544 195.783C467.205 195.783 468.415 197.146 468.415 199.431C468.415 201.716 467.205 203.078 465.544 203.078C463.883 203.078 462.683 201.716 462.683 199.431ZM467.656 199.431C467.656 197.514 466.795 196.459 465.544 196.459C464.293 196.459 463.431 197.514 463.431 199.431C463.431 201.347 464.293 202.402 465.544 202.402C466.795 202.402 467.656 201.347 467.656 199.431Z" fill="#333343"/>
<path d="M469.369 202.505C469.369 202.187 469.615 201.951 469.912 201.951C470.21 201.951 470.466 202.187 470.466 202.505C470.466 202.822 470.21 203.068 469.912 203.068C469.615 203.068 469.369 202.822 469.369 202.505Z" fill="#333343"/>
<path d="M471.42 199.431C471.42 197.146 472.619 195.783 474.281 195.783C475.942 195.783 477.152 197.146 477.152 199.431C477.152 201.716 475.942 203.078 474.281 203.078C472.619 203.078 471.42 201.716 471.42 199.431ZM476.393 199.431C476.393 197.514 475.532 196.459 474.281 196.459C473.03 196.459 472.168 197.514 472.168 199.431C472.168 201.347 473.03 202.402 474.281 202.402C475.532 202.402 476.393 201.347 476.393 199.431Z" fill="#333343"/>
<path d="M478.208 199.431C478.208 197.146 479.408 195.783 481.069 195.783C482.731 195.783 483.941 197.146 483.941 199.431C483.941 201.716 482.731 203.078 481.069 203.078C479.408 203.078 478.208 201.716 478.208 199.431ZM483.182 199.431C483.182 197.514 482.32 196.459 481.069 196.459C479.818 196.459 478.957 197.514 478.957 199.431C478.957 201.347 479.818 202.402 481.069 202.402C482.32 202.402 483.182 201.347 483.182 199.431Z" fill="#333343"/>
<path d="M486.735 211.435H295.501C293.006 211.435 290.976 209.406 290.976 206.913V190.99C290.976 188.497 293.006 186.468 295.501 186.468H486.735C489.229 186.468 491.26 188.497 491.26 190.99V206.913C491.26 209.406 489.229 211.435 486.735 211.435ZM295.501 186.727C293.147 186.727 291.232 188.641 291.232 190.992V206.916C291.232 209.268 293.147 211.181 295.501 211.181H486.735C489.088 211.181 491.003 209.268 491.003 206.916V190.992C491.003 188.641 489.088 186.727 486.735 186.727H295.501Z" fill="#333343"/>
<path d="M389.829 416.797H301.423C299.179 416.797 297.359 418.615 297.359 420.858V444.577C297.359 446.819 299.179 448.637 301.423 448.637H389.829C392.074 448.637 393.893 446.819 393.893 444.577V420.858C393.893 418.615 392.074 416.797 389.829 416.797Z" fill="#1A58BF"/>
<path d="M491.488 449.277H403.083C400.489 449.277 398.379 447.169 398.379 444.576V420.86C398.379 418.267 400.489 416.159 403.083 416.159H491.488C494.082 416.159 496.192 418.267 496.192 420.86V444.576C496.192 447.169 494.082 449.277 491.488 449.277ZM403.083 417.437C401.197 417.437 399.661 418.972 399.661 420.857V444.574C399.661 446.459 401.197 447.994 403.083 447.994H491.488C493.374 447.994 494.91 446.459 494.91 444.574V420.857C494.91 418.972 493.374 417.437 491.488 417.437H403.083Z" fill="#1A58BF"/>
<path d="M320.24 435.167L320.619 434.368C321.152 434.849 322.065 435.198 322.988 435.198C324.229 435.198 324.762 434.716 324.762 434.091C324.762 432.339 320.414 433.445 320.414 430.781C320.414 429.675 321.275 428.732 323.162 428.732C324.003 428.732 324.875 428.957 325.47 429.367L325.131 430.187C324.506 429.787 323.798 429.603 323.162 429.603C321.942 429.603 321.419 430.115 321.419 430.74C321.419 432.493 325.767 431.396 325.767 434.03C325.767 435.126 324.885 436.069 322.988 436.069C321.891 436.069 320.814 435.7 320.24 435.167Z" fill="white"/>
<path d="M326.618 433.272C326.618 431.653 327.818 430.505 329.489 430.505C330.464 430.505 331.274 430.904 331.704 431.663L330.956 432.144C330.607 431.612 330.074 431.366 329.479 431.366C328.413 431.366 327.613 432.114 327.613 433.272C327.613 434.429 328.413 435.188 329.479 435.188C330.074 435.188 330.607 434.942 330.956 434.409L331.704 434.88C331.274 435.639 330.464 436.048 329.489 436.048C327.818 436.048 326.618 434.891 326.618 433.272Z" fill="white"/>
<path d="M337.283 432.708V435.987H336.35V435.27C336.021 435.762 335.416 436.048 334.565 436.048C333.335 436.048 332.555 435.393 332.555 434.45C332.555 433.579 333.119 432.862 334.74 432.862H336.298V432.667C336.298 431.837 335.816 431.355 334.842 431.355C334.196 431.355 333.54 431.581 333.119 431.939L332.709 431.202C333.273 430.751 334.083 430.505 334.955 430.505C336.442 430.505 337.283 431.222 337.283 432.708ZM336.298 434.327V433.569H334.781C333.806 433.569 333.53 433.948 333.53 434.409C333.53 434.952 333.981 435.29 334.729 435.29C335.478 435.29 336.052 434.952 336.298 434.327Z" fill="white"/>
<path d="M344.266 432.862V435.987H343.282V432.974C343.282 431.909 342.749 431.386 341.815 431.386C340.769 431.386 340.093 432.011 340.093 433.19V435.987H339.108V430.556H340.052V431.376C340.451 430.823 341.149 430.505 342.01 430.505C343.333 430.505 344.266 431.263 344.266 432.862Z" fill="white"/>
<path d="M348.204 433.456L347.076 434.501V435.987H346.091V428.386H347.076V433.264L350.039 430.559H351.229L348.942 432.803L351.454 435.989H350.244L348.204 433.458V433.456Z" fill="white"/>
<path d="M356.613 432.708V435.987H355.679V435.27C355.351 435.762 354.746 436.048 353.895 436.048C352.665 436.048 351.885 435.393 351.885 434.45C351.885 433.579 352.449 432.862 354.069 432.862H355.628V432.667C355.628 431.837 355.146 431.355 354.172 431.355C353.526 431.355 352.87 431.581 352.449 431.939L352.039 431.202C352.603 430.751 353.413 430.505 354.285 430.505C355.772 430.505 356.613 431.222 356.613 432.708ZM355.628 434.327V433.569H354.11C353.136 433.569 352.859 433.948 352.859 434.409C352.859 434.952 353.311 435.29 354.059 435.29C354.808 435.29 355.382 434.952 355.628 434.327Z" fill="white"/>
<path d="M361.36 430.505V431.458C361.278 431.448 361.206 431.448 361.135 431.448C360.078 431.448 359.422 432.093 359.422 433.282V435.987H358.438V430.556H359.381V431.468C359.73 430.833 360.407 430.505 361.36 430.505Z" fill="white"/>
<path d="M365.852 435.667C365.554 435.923 365.103 436.046 364.662 436.046C363.565 436.046 362.94 435.441 362.94 434.345V431.363H362.017V430.553H362.94V429.365H363.924V430.553H365.483V431.363H363.924V434.304C363.924 434.888 364.232 435.216 364.775 435.216C365.062 435.216 365.339 435.123 365.544 434.96L365.852 435.667Z" fill="white"/>
<path d="M371.748 433.599H367.339C367.462 434.552 368.231 435.188 369.308 435.188C369.943 435.188 370.477 434.973 370.876 434.532L371.42 435.167C370.928 435.741 370.179 436.048 369.277 436.048C367.523 436.048 366.354 434.891 366.354 433.272C366.354 431.653 367.513 430.505 369.082 430.505C370.651 430.505 371.769 431.632 371.769 433.302C371.769 433.384 371.758 433.507 371.748 433.599ZM367.339 432.892H370.825C370.723 431.98 370.036 431.335 369.082 431.335C368.128 431.335 367.441 431.97 367.339 432.892Z" fill="white"/>
<path d="M430.309 432.401C430.309 430.28 431.93 428.732 434.114 428.732C435.221 428.732 436.185 429.112 436.841 429.849L436.175 430.495C435.621 429.911 434.944 429.644 434.155 429.644C432.535 429.644 431.335 430.813 431.335 432.401C431.335 433.989 432.535 435.157 434.155 435.157C434.944 435.157 435.621 434.881 436.175 434.296L436.841 434.942C436.185 435.68 435.221 436.069 434.103 436.069C431.93 436.069 430.309 434.522 430.309 432.401Z" fill="#1A58BF"/>
<path d="M442.399 432.708V435.987H441.466V435.27C441.138 435.762 440.533 436.048 439.682 436.048C438.451 436.048 437.672 435.393 437.672 434.45C437.672 433.579 438.236 432.862 439.856 432.862H441.415V432.667C441.415 431.837 440.933 431.355 439.959 431.355C439.313 431.355 438.657 431.581 438.236 431.939L437.826 431.202C438.39 430.751 439.2 430.505 440.072 430.505C441.559 430.505 442.399 431.222 442.399 432.708ZM441.415 434.327V433.569H439.897C438.923 433.569 438.646 433.948 438.646 434.409C438.646 434.952 439.098 435.29 439.846 435.29C440.595 435.29 441.169 434.952 441.415 434.327Z" fill="#1A58BF"/>
<path d="M449.383 432.862V435.987H448.398V432.974C448.398 431.909 447.865 431.386 446.932 431.386C445.886 431.386 445.209 432.011 445.209 433.19V435.987H444.225V430.556H445.168V431.376C445.568 430.823 446.265 430.505 447.127 430.505C448.449 430.505 449.383 431.263 449.383 432.862Z" fill="#1A58BF"/>
<path d="M450.736 433.272C450.736 431.653 451.936 430.505 453.608 430.505C454.582 430.505 455.392 430.904 455.823 431.663L455.074 432.144C454.725 431.612 454.192 431.366 453.597 431.366C452.531 431.366 451.731 432.114 451.731 433.272C451.731 434.429 452.531 435.188 453.597 435.188C454.192 435.188 454.725 434.942 455.074 434.409L455.823 434.88C455.392 435.639 454.582 436.048 453.608 436.048C451.936 436.048 450.736 434.891 450.736 433.272Z" fill="#1A58BF"/>
<path d="M461.903 433.599H457.494C457.617 434.552 458.386 435.188 459.463 435.188C460.099 435.188 460.632 434.973 461.032 434.532L461.575 435.167C461.083 435.741 460.334 436.048 459.432 436.048C457.679 436.048 456.51 434.891 456.51 433.272C456.51 431.653 457.668 430.505 459.237 430.505C460.806 430.505 461.924 431.632 461.924 433.302C461.924 433.384 461.914 433.507 461.903 433.599ZM457.494 432.892H460.98C460.878 431.98 460.191 431.335 459.237 431.335C458.284 431.335 457.596 431.97 457.494 432.892Z" fill="#1A58BF"/>
<path d="M463.288 428.384H464.272V435.984H463.288V428.384Z" fill="#1A58BF"/>
<path d="M298.682 530.04L301.494 514.229H305.891L303.166 530.04H298.682Z" fill="#3C58BF"/>
<path d="M298.682 530.04L302.287 514.229H305.891L303.166 530.04H298.682Z" fill="#293688"/>
<path d="M319.073 514.406C318.194 514.055 316.789 513.704 315.031 513.704C310.637 513.704 307.47 515.899 307.47 519.061C307.47 521.433 309.667 522.662 311.426 523.451C313.185 524.243 313.71 524.768 313.71 525.473C313.71 526.525 312.303 527.053 311.072 527.053C309.314 527.053 308.347 526.789 306.853 526.175L306.237 525.911L305.622 529.512C306.676 529.951 308.611 530.391 310.631 530.391C315.29 530.391 318.366 528.196 318.366 524.858C318.366 523.013 317.222 521.607 314.587 520.467C313.005 519.675 312.039 519.237 312.039 518.446C312.039 517.744 312.831 517.039 314.587 517.039C316.082 517.039 317.135 517.303 317.927 517.654L318.366 517.831L319.068 514.406H319.073Z" fill="#3C58BF"/>
<path d="M319.073 514.406C318.194 514.055 316.789 513.704 315.031 513.704C310.637 513.704 308.263 515.899 308.263 519.061C308.263 521.433 309.67 522.662 311.426 523.451C313.185 524.243 313.71 524.768 313.71 525.473C313.71 526.525 312.303 527.053 311.072 527.053C309.314 527.053 308.347 526.789 306.853 526.175L306.237 525.911L305.622 529.512C306.676 529.951 308.611 530.391 310.631 530.391C315.29 530.391 318.366 528.196 318.366 524.858C318.366 523.013 317.222 521.607 314.587 520.467C313.005 519.675 312.039 519.237 312.039 518.446C312.039 517.744 312.831 517.039 314.587 517.039C316.082 517.039 317.135 517.303 317.927 517.654L318.366 517.831L319.068 514.406H319.073Z" fill="#293688"/>
<path d="M326.634 514.229C325.58 514.229 324.788 514.317 324.349 515.372L317.758 530.04H322.504L323.383 527.404H329.008L329.536 530.04H333.755L330.064 514.232H326.636L326.634 514.229ZM324.611 524.768C324.875 523.977 326.37 520.114 326.37 520.114C326.37 520.114 326.721 519.148 326.985 518.533L327.249 520.027C327.249 520.027 328.128 523.979 328.303 524.858H324.611V524.771V524.768Z" fill="#3C58BF"/>
<path d="M327.687 514.229C326.633 514.229 325.841 514.317 325.403 515.372L317.756 530.04H322.501L323.38 527.404H329.005L329.533 530.04H333.753L330.061 514.232H327.687V514.229ZM324.611 524.768C324.962 523.89 326.369 520.114 326.369 520.114C326.369 520.114 326.721 519.148 326.985 518.533L327.249 520.027C327.249 520.027 328.128 523.979 328.302 524.858H324.611V524.771V524.768Z" fill="#293688"/>
<path d="M290.596 525.296L290.158 523.013C289.366 520.377 286.818 517.48 284.005 516.074L287.961 530.127H292.706L299.826 514.319H295.08L290.596 525.298V525.296Z" fill="#3C58BF"/>
<path d="M290.596 525.296L290.158 523.013C289.366 520.377 286.818 517.48 284.005 516.074L287.961 530.127H292.706L299.826 514.319H295.957L290.596 525.298V525.296Z" fill="#293688"/>
<path d="M278.378 514.229L279.17 514.406C284.795 515.723 288.663 519.061 290.158 523.014L288.576 515.549C288.312 514.496 287.523 514.232 286.554 514.232H278.378V514.229Z" fill="#FFBC00"/>
<path d="M278.378 514.229C284.003 515.546 288.661 518.971 290.156 522.924L288.661 516.689C288.397 515.636 287.518 515.021 286.551 515.021L278.376 514.229H278.378Z" fill="#F7981D"/>
<path d="M278.378 514.229C284.003 515.546 288.661 518.971 290.155 522.924L289.102 519.499C288.838 518.446 288.487 517.391 287.256 516.953L278.378 514.229Z" fill="#ED7C00"/>
<path d="M294.991 524.768L292.001 521.781L290.594 525.119L290.243 522.924C289.451 520.288 286.902 517.39 284.09 515.984L288.046 530.037H292.791L294.988 524.768H294.991Z" fill="#051244"/>
<path d="M303.166 530.04L299.387 526.174L298.682 530.04H303.166Z" fill="#051244"/>
<path d="M313.274 524.594C313.626 524.945 313.802 525.209 313.713 525.56C313.713 526.612 312.305 527.14 311.075 527.14C309.316 527.14 308.35 526.876 306.855 526.261L306.24 525.998L305.625 529.599C306.678 530.037 308.614 530.478 310.634 530.478C313.446 530.478 315.733 529.686 317.051 528.283L313.272 524.594H313.274Z" fill="#051244"/>
<path d="M318.371 530.04H322.501L323.38 527.404H329.005L329.533 530.04H333.753L332.258 523.628L326.985 518.533L327.249 519.939C327.249 519.939 328.128 523.892 328.302 524.77H324.611C324.962 523.892 326.369 520.116 326.369 520.116C326.369 520.116 326.721 519.15 326.985 518.535" fill="#051244"/>
<path d="M403.345 518.08H399.8C399.592 518.08 399.382 518.287 399.279 518.497L397.821 527.666C397.821 527.873 397.926 527.978 398.133 527.978H400.01C400.218 527.978 400.323 527.873 400.323 527.666L400.741 525.06C400.741 524.853 400.948 524.643 401.261 524.643H402.407C404.804 524.643 406.16 523.498 406.473 521.205C406.68 520.267 406.473 519.435 406.055 518.912C405.429 518.392 404.491 518.08 403.343 518.08M403.76 521.517C403.553 522.768 402.615 522.768 401.676 522.768H401.051L401.469 520.372C401.469 520.267 401.574 520.165 401.781 520.165H401.989C402.615 520.165 403.24 520.165 403.553 520.582C403.76 520.687 403.76 521 403.76 521.52" fill="#139AD6"/>
<path d="M377.799 518.08H374.253C374.045 518.08 373.835 518.287 373.733 518.497L372.274 527.666C372.274 527.873 372.379 527.978 372.587 527.978H374.256C374.463 527.978 374.673 527.771 374.776 527.56L375.194 525.06C375.194 524.853 375.402 524.643 375.714 524.643H376.86C379.257 524.643 380.613 523.498 380.926 521.205C381.134 520.267 380.926 519.435 380.508 518.912C379.883 518.392 379.05 518.08 377.796 518.08M378.214 521.517C378.006 522.768 377.068 522.768 376.13 522.768H375.609L376.027 520.372C376.027 520.267 376.132 520.165 376.34 520.165H376.547C377.173 520.165 377.799 520.165 378.111 520.582C378.216 520.687 378.319 521 378.216 521.52" fill="#263B80"/>
<path d="M388.54 521.412H386.871C386.766 521.412 386.558 521.517 386.558 521.62L386.453 522.14L386.348 521.932C385.93 521.412 385.202 521.202 384.367 521.202C382.49 521.202 380.821 522.66 380.508 524.64C380.301 525.683 380.613 526.62 381.134 527.245C381.654 527.87 382.385 528.078 383.323 528.078C384.887 528.078 385.72 527.14 385.72 527.14L385.615 527.66C385.615 527.868 385.72 527.973 385.928 527.973H387.492C387.699 527.973 387.909 527.765 388.012 527.555L388.95 521.72C388.845 521.615 388.638 521.407 388.532 521.407M386.135 524.742C385.928 525.68 385.197 526.41 384.154 526.41C383.633 526.41 383.215 526.203 383.008 525.993C382.8 525.68 382.695 525.262 382.695 524.742C382.8 523.805 383.633 523.075 384.572 523.075C385.092 523.075 385.405 523.282 385.718 523.492C386.03 523.805 386.135 524.325 386.135 524.742Z" fill="#263B80"/>
<path d="M413.982 521.412H412.313C412.207 521.412 412 521.517 412 521.62L411.895 522.14L411.79 521.932C411.372 521.412 410.644 521.202 409.808 521.202C407.931 521.202 406.262 522.66 405.95 524.64C405.742 525.683 406.055 526.62 406.575 527.245C407.096 527.87 407.826 528.078 408.765 528.078C410.328 528.078 411.162 527.14 411.162 527.14L411.056 527.66C411.056 527.868 411.162 527.973 411.369 527.973H412.933C413.141 527.973 413.351 527.765 413.453 527.555L414.392 521.72C414.287 521.615 414.184 521.407 413.974 521.407M411.577 524.742C411.369 525.68 410.639 526.41 409.595 526.41C409.075 526.41 408.657 526.203 408.449 525.993C408.242 525.68 408.136 525.262 408.136 524.742C408.242 523.805 409.075 523.075 410.013 523.075C410.533 523.075 410.846 523.282 411.159 523.492C411.577 523.805 411.679 524.325 411.577 524.742Z" fill="#139AD6"/>
<path d="M397.61 521.412H395.839C395.631 521.412 395.526 521.517 395.421 521.62L393.127 525.162L392.083 521.827C391.978 521.62 391.875 521.515 391.563 521.515H389.894C389.686 521.515 389.581 521.722 389.581 521.932L391.458 527.455L389.686 529.955C389.581 530.163 389.686 530.475 389.894 530.475H391.563C391.77 530.475 391.875 530.37 391.981 530.268L397.715 522.037C398.028 521.725 397.821 521.412 397.61 521.412Z" fill="#263B80"/>
<path d="M415.963 518.392L414.505 527.77C414.505 527.978 414.61 528.083 414.817 528.083H416.276C416.484 528.083 416.694 527.875 416.797 527.665L418.255 518.497C418.255 518.289 418.15 518.184 417.942 518.184H416.274C416.168 518.079 416.066 518.184 415.961 518.392" fill="#139AD6"/>
<path d="M364.557 514.954C363.827 514.122 362.473 513.704 360.594 513.704H355.38C355.067 513.704 354.754 514.017 354.649 514.329L352.565 527.978C352.565 528.291 352.772 528.498 352.983 528.498H356.215L357.048 523.393V523.6C357.154 523.287 357.466 522.975 357.779 522.975H359.343C362.368 522.975 364.66 521.725 365.391 518.287V517.974C365.32 517.974 365.32 517.974 365.391 517.974C365.496 516.619 365.285 515.787 364.557 514.952" fill="#263B80"/>
<path d="M365.288 517.975V518.287C364.557 521.83 362.263 522.975 359.24 522.975H357.677C357.364 522.975 357.051 523.288 356.946 523.6L355.903 529.956C355.903 530.163 356.008 530.373 356.32 530.373H359.033C359.346 530.373 359.658 530.166 359.658 529.853V529.748L360.179 526.518V526.31C360.179 525.998 360.491 525.79 360.804 525.79H361.222C363.829 525.79 365.914 524.748 366.437 521.622C366.644 520.372 366.542 519.227 365.916 518.497C365.811 518.29 365.603 518.08 365.291 517.977" fill="#139AD6"/>
<path d="M364.557 517.662C364.452 517.662 364.35 517.557 364.245 517.557C364.139 517.557 364.037 517.557 363.932 517.452C363.514 517.347 363.099 517.347 362.576 517.347H358.51C358.405 517.347 358.302 517.347 358.197 517.452C357.989 517.557 357.884 517.764 357.884 517.972L357.051 523.39V523.597C357.156 523.285 357.469 522.972 357.782 522.972H359.345C362.371 522.972 364.662 521.722 365.393 518.284C365.393 518.179 365.393 518.077 365.498 517.972C365.291 517.867 365.185 517.764 364.978 517.764C364.769 517.694 364.63 517.659 364.56 517.659" fill="#232C65"/>
<path d="M443.925 530.478C448.56 530.478 452.318 526.723 452.318 522.091C452.318 517.459 448.56 513.704 443.925 513.704C439.289 513.704 435.531 517.459 435.531 522.091C435.531 526.723 439.289 530.478 443.925 530.478Z" fill="#EE0005"/>
<path d="M454.351 530.478C458.986 530.478 462.744 526.723 462.744 522.091C462.744 517.459 458.986 513.704 454.351 513.704C449.715 513.704 445.958 517.459 445.958 522.091C445.958 526.723 449.715 530.478 454.351 530.478Z" fill="#0098E2"/>
<path fill-rule="evenodd" clip-rule="evenodd" d="M495.169 528.303C496.638 529.656 498.612 530.478 500.76 530.478C505.372 530.478 509.105 526.72 509.105 522.099C509.105 517.478 505.372 513.704 500.76 513.704C498.612 513.704 496.638 514.524 495.169 515.879C493.482 517.419 492.416 519.637 492.416 522.099C492.416 524.561 493.482 526.779 495.169 528.306V528.303Z" fill="#FAB31E"/>
<path fill-rule="evenodd" clip-rule="evenodd" d="M497.866 521.205C497.838 520.902 497.779 520.615 497.722 520.313H492.621C492.677 520.011 492.764 519.724 492.851 519.435H497.476C497.376 519.132 497.261 518.83 497.13 518.543H493.21C493.354 518.241 493.513 517.939 493.685 517.652H496.638C496.451 517.349 496.235 517.047 496.005 516.773H494.318C494.577 516.455 494.866 516.153 495.169 515.881C493.685 514.542 491.726 513.707 489.565 513.707C484.968 513.707 481.22 517.465 481.22 522.101C481.22 526.738 484.966 530.481 489.565 530.481C491.726 530.481 493.687 529.661 495.169 528.306C495.471 528.032 495.746 527.745 496.005 527.427H494.318C494.087 527.14 493.885 526.851 493.685 526.536H496.638C496.825 526.249 496.984 525.959 497.128 525.644H493.208C493.077 525.357 492.949 525.068 492.846 524.765H497.471C497.571 524.479 497.643 524.176 497.715 523.874C497.774 523.587 497.83 523.282 497.858 522.983C497.886 522.696 497.902 522.406 497.902 522.104C497.902 521.802 497.886 521.499 497.858 521.212L497.866 521.205Z" fill="#E40520"/>
<path fill-rule="evenodd" clip-rule="evenodd" d="M507.995 524.041C507.995 523.882 508.11 523.767 508.254 523.767C508.413 523.767 508.528 523.882 508.528 524.041C508.528 524.184 508.413 524.315 508.254 524.315C508.11 524.315 507.995 524.184 507.995 524.041ZM508.254 524.243C508.369 524.243 508.469 524.156 508.469 524.041C508.469 523.925 508.369 523.838 508.254 523.838C508.154 523.838 508.051 523.925 508.051 524.041C508.051 524.156 508.151 524.243 508.254 524.243ZM508.226 524.156H508.169V523.925H508.328C508.356 523.941 508.356 523.969 508.356 523.997C508.356 524.013 508.341 524.041 508.313 524.056L508.369 524.156H508.297L508.269 524.069H508.226V524.025H508.254C508.269 524.025 508.282 524.025 508.282 524.01C508.297 524.01 508.297 523.995 508.297 523.982C508.297 523.982 508.297 523.966 508.282 523.966C508.282 523.951 508.267 523.966 508.254 523.966H508.226V524.153V524.156Z" fill="white"/>
<path fill-rule="evenodd" clip-rule="evenodd" d="M492.331 524.517C492.057 524.589 491.857 524.632 491.654 524.632C491.221 524.632 490.962 524.358 490.962 523.869C490.962 523.769 490.977 523.667 490.99 523.551L491.047 523.221L491.09 522.947L491.48 520.585H492.344L492.244 521.102H492.792L492.662 521.966H492.113L491.882 523.377C491.867 523.449 491.867 523.493 491.867 523.521C491.867 523.708 491.954 523.779 492.169 523.779C492.269 523.779 492.357 523.764 492.444 523.751L492.328 524.515L492.331 524.517Z" fill="#06326E"/>
<path fill-rule="evenodd" clip-rule="evenodd" d="M495.128 524.489C494.81 524.576 494.523 524.62 494.205 524.62C493.226 524.62 492.664 524.102 492.664 523.08C492.664 521.886 493.328 521.021 494.249 521.021C494.984 521.021 495.459 521.51 495.459 522.273C495.459 522.532 495.43 522.778 495.359 523.124H493.556C493.541 523.183 493.541 523.211 493.541 523.239C493.541 523.641 493.815 523.844 494.333 523.844C494.664 523.844 494.954 523.772 495.269 523.628L495.125 524.492L495.128 524.489ZM494.595 522.429V522.258C494.595 521.971 494.436 521.812 494.161 521.812C493.874 521.812 493.672 522.027 493.585 522.432H494.592L494.595 522.429Z" fill="#06326E"/>
<path fill-rule="evenodd" clip-rule="evenodd" d="M485.414 524.561H484.522L485.04 521.292L483.874 524.561H483.253L483.181 521.307L482.633 524.561H481.753L482.458 520.313H483.771L483.799 522.934L484.679 520.313H486.119L485.414 524.561Z" fill="#06326E"/>
<path fill-rule="evenodd" clip-rule="evenodd" d="M487.591 523.018C487.504 523.003 487.475 523.003 487.419 523.003C486.901 523.003 486.64 523.205 486.64 523.52C486.64 523.736 486.77 523.882 486.97 523.882C487.404 523.882 487.575 523.52 487.591 523.018ZM488.311 524.558H487.532L487.547 524.199C487.345 524.473 487.07 524.617 486.596 524.617C486.163 524.617 485.789 524.227 485.789 523.666C485.789 523.508 485.817 523.364 485.86 523.221C486.004 522.688 486.537 522.357 487.36 522.342C487.46 522.342 487.619 522.342 487.763 522.357C487.791 522.242 487.791 522.199 487.791 522.127C487.791 521.896 487.604 521.825 487.186 521.825C486.927 521.825 486.637 521.868 486.437 521.94L486.306 521.968L486.25 521.983L486.381 521.205C486.799 521.074 487.101 521.018 487.432 521.018C488.211 521.018 488.629 521.379 488.629 522.04C488.629 522.211 488.644 522.342 488.586 522.716L488.383 523.953L488.355 524.168L488.339 524.34L488.324 524.455L488.309 524.555L488.311 524.558Z" fill="#06326E"/>
<path fill-rule="evenodd" clip-rule="evenodd" d="M499.478 521.133C499.737 521.133 499.968 521.205 500.286 521.364L500.445 520.441C500.358 520.398 500.33 520.398 500.214 520.354L499.853 520.254C499.737 520.226 499.594 520.211 499.435 520.211C498.989 520.211 498.73 520.226 498.455 520.383C498.312 520.482 498.125 520.613 497.922 520.844L497.807 520.815L496.884 521.464L496.928 521.105H495.976L495.415 524.561H496.323L496.653 522.703C496.653 522.703 496.784 522.445 496.84 522.358C497.012 522.142 497.158 522.142 497.345 522.142H497.417C497.389 522.345 497.374 522.56 497.374 522.806C497.374 523.928 498.007 524.635 498.989 524.635C499.235 524.635 499.45 524.607 499.781 524.52L499.94 523.541C499.653 523.7 499.391 523.772 499.176 523.772C498.643 523.772 498.325 523.37 498.325 522.734C498.325 521.799 498.802 521.136 499.478 521.136V521.133Z" fill="#06326E"/>
<path fill-rule="evenodd" clip-rule="evenodd" d="M507.131 520.313L506.928 521.523C506.713 521.192 506.454 521.033 506.108 521.033C505.631 521.033 505.185 521.307 504.911 521.825V521.81L504.334 521.464L504.39 521.105H503.424L502.875 524.561H503.77L504.072 522.704C504.072 522.704 504.303 522.445 504.36 522.358C504.503 522.186 504.647 522.155 504.762 522.143C504.662 522.429 504.603 522.775 504.603 523.165C504.603 524.028 505.049 524.604 505.713 524.604C506.044 524.604 506.303 524.489 506.549 524.215L506.505 524.561H507.356L508.049 520.313H507.126H507.131ZM506.021 523.741C505.718 523.741 505.559 523.51 505.559 523.065C505.559 522.388 505.846 521.899 506.264 521.899C506.582 521.899 506.741 522.145 506.741 522.575C506.741 523.267 506.454 523.741 506.021 523.741Z" fill="#06326E"/>
<path fill-rule="evenodd" clip-rule="evenodd" d="M501.858 523.018C501.77 523.003 501.742 523.003 501.686 523.003C501.168 523.003 500.906 523.205 500.906 523.52C500.906 523.736 501.037 523.882 501.237 523.882C501.67 523.882 501.842 523.52 501.858 523.018ZM502.578 524.558H501.786L501.814 524.199C501.611 524.473 501.34 524.617 500.863 524.617C500.417 524.617 500.027 524.243 500.027 523.666C500.027 522.847 500.647 522.342 501.627 522.342C501.727 522.342 501.886 522.342 502.016 522.357C502.045 522.242 502.06 522.199 502.06 522.127C502.06 521.896 501.873 521.825 501.44 521.825C501.194 521.825 500.891 521.868 500.691 521.94L500.576 521.968L500.517 521.983L500.647 521.205C501.065 521.074 501.368 521.018 501.699 521.018C502.478 521.018 502.88 521.379 502.88 522.04C502.88 522.211 502.909 522.342 502.837 522.716L502.65 523.953L502.621 524.168L502.593 524.34L502.578 524.455V524.555V524.558Z" fill="#06326E"/>
<path fill-rule="evenodd" clip-rule="evenodd" d="M490.198 521.837C490.37 521.837 490.616 521.853 490.875 521.894L491.006 521.087C490.747 521.059 490.401 521.015 490.198 521.015C489.19 521.015 488.857 521.563 488.857 522.196C488.857 522.614 489.044 522.916 489.534 523.146C489.893 523.318 489.952 523.349 489.952 523.508C489.952 523.723 489.765 523.854 489.419 523.854C489.144 523.854 488.885 523.81 488.598 523.71L488.498 524.502L488.514 524.517L488.685 524.545C488.742 524.561 488.816 524.573 488.916 524.589C489.132 524.604 489.319 524.617 489.434 524.617C490.442 524.617 490.859 524.228 490.859 523.464C490.859 522.988 490.629 522.701 490.183 522.498C489.793 522.327 489.749 522.296 489.749 522.14C489.749 521.983 489.921 521.837 490.195 521.837H490.198Z" fill="#06326E"/>
<path fill-rule="evenodd" clip-rule="evenodd" d="M500.688 520.167L500.529 521.089C500.212 520.931 499.981 520.859 499.722 520.859C499.045 520.859 498.568 521.522 498.568 522.457C498.568 523.106 498.886 523.495 499.419 523.495C499.635 523.495 499.894 523.423 500.183 523.28L500.024 524.245C499.694 524.333 499.476 524.376 499.232 524.376C498.253 524.376 497.648 523.672 497.648 522.532C497.648 521.02 498.484 519.955 499.681 519.955C499.84 519.955 499.983 519.97 500.099 519.998L500.458 520.085C500.573 520.129 500.601 520.142 500.688 520.172V520.167Z" fill="white"/>
<path fill-rule="evenodd" clip-rule="evenodd" d="M497.779 520.802H497.692C497.389 520.802 497.215 520.946 496.943 521.363L497.03 520.831H496.21L495.648 524.286H496.556C496.887 522.17 496.974 521.809 497.407 521.809H497.463C497.551 521.392 497.666 521.089 497.81 520.815L497.781 520.8L497.779 520.802Z" fill="white"/>
<path fill-rule="evenodd" clip-rule="evenodd" d="M492.562 524.243C492.318 524.33 492.116 524.358 491.913 524.358C491.452 524.358 491.193 524.099 491.193 523.595C491.193 523.508 491.208 523.392 491.221 523.292L491.28 522.947L491.324 522.672L491.713 520.311H492.605L492.505 520.828H492.967L492.852 521.678H492.39L492.147 523.118C492.131 523.177 492.131 523.218 492.131 523.262C492.131 523.433 492.218 523.508 492.434 523.508C492.534 523.508 492.621 523.508 492.68 523.479L492.564 524.243H492.562Z" fill="white"/>
<path fill-rule="evenodd" clip-rule="evenodd" d="M489.088 521.925C489.088 522.357 489.291 522.66 489.765 522.89C490.139 523.062 490.198 523.121 490.198 523.264C490.198 523.479 490.039 523.582 489.68 523.582C489.406 523.582 489.162 523.538 488.873 523.451L488.742 524.243L488.786 524.258L488.944 524.286C489.001 524.302 489.075 524.315 489.191 524.315C489.393 524.343 489.565 524.343 489.68 524.343C490.631 524.343 491.077 523.982 491.077 523.19C491.077 522.713 490.89 522.442 490.444 522.224C490.055 522.053 490.011 522.009 490.011 521.85C490.011 521.663 490.17 521.576 490.457 521.576C490.629 521.576 490.875 521.591 491.106 521.62L491.236 520.828C491.006 520.785 490.647 520.756 490.444 520.756C489.437 520.756 489.075 521.289 489.091 521.922L489.088 521.925Z" fill="white"/>
<path fill-rule="evenodd" clip-rule="evenodd" d="M507.592 524.286H506.741L506.785 523.956C506.539 524.215 506.28 524.33 505.949 524.33C505.285 524.33 504.854 523.769 504.854 522.906C504.854 521.753 505.531 520.774 506.323 520.774C506.685 520.774 506.944 520.933 507.187 521.251L507.39 520.042H508.285L507.592 524.289V524.286ZM506.267 523.479C506.685 523.479 506.972 522.99 506.972 522.314C506.972 521.868 506.813 521.637 506.498 521.637C506.095 521.637 505.79 522.114 505.79 522.79C505.79 523.251 505.949 523.482 506.267 523.482V523.479Z" fill="white"/>
<path fill-rule="evenodd" clip-rule="evenodd" d="M495.328 524.215C495.01 524.315 494.723 524.358 494.392 524.358C493.385 524.358 492.864 523.825 492.864 522.803C492.864 521.622 493.528 520.744 494.436 520.744C495.184 520.744 495.661 521.233 495.661 521.996C495.661 522.255 495.633 522.501 495.546 522.86H493.759C493.744 522.903 493.744 522.931 493.744 522.96C493.744 523.364 494.018 523.564 494.536 523.564C494.866 523.564 495.156 523.508 495.471 523.349L495.328 524.212V524.215ZM494.823 522.155V521.984C494.823 521.697 494.664 521.538 494.39 521.538C494.102 521.538 493.9 521.753 493.813 522.158H494.82L494.823 522.155Z" fill="white"/>
<path fill-rule="evenodd" clip-rule="evenodd" d="M485.645 524.286H484.753L485.271 521.018L484.104 524.286H483.484L483.412 521.046L482.864 524.286H482.028L482.733 520.039H484.03L484.074 522.675L484.938 520.039H486.35L485.645 524.286Z" fill="white"/>
<path fill-rule="evenodd" clip-rule="evenodd" d="M487.878 522.744C487.791 522.744 487.747 522.729 487.676 522.729C487.17 522.729 486.912 522.916 486.912 523.262C486.912 523.477 487.027 523.608 487.229 523.608C487.604 523.608 487.863 523.262 487.878 522.744ZM488.542 524.284H487.793L487.809 523.923C487.578 524.21 487.276 524.34 486.858 524.34C486.368 524.34 486.037 523.966 486.037 523.405C486.037 522.555 486.614 522.066 487.622 522.066C487.722 522.066 487.852 522.081 487.996 522.094C488.024 521.978 488.024 521.935 488.024 521.879C488.024 521.648 487.865 521.561 487.447 521.561C487.188 521.561 486.899 521.589 486.699 521.648L486.568 521.692L486.481 521.707L486.612 520.928C487.058 520.797 487.36 520.754 487.693 520.754C488.473 520.754 488.891 521.1 488.891 521.763C488.891 521.935 488.875 522.066 488.819 522.455L488.616 523.679L488.588 523.895L488.573 524.066L488.557 524.197L488.542 524.284Z" fill="white"/>
<path fill-rule="evenodd" clip-rule="evenodd" d="M502.145 522.744C502.045 522.744 502.001 522.729 501.942 522.729C501.424 522.729 501.163 522.916 501.163 523.262C501.163 523.477 501.294 523.608 501.493 523.608C501.852 523.608 502.127 523.262 502.142 522.744H502.145ZM502.809 524.284H502.06L502.075 523.923C501.845 524.21 501.542 524.34 501.124 524.34C500.635 524.34 500.304 523.966 500.304 523.405C500.304 522.555 500.881 522.066 501.888 522.066C501.988 522.066 502.119 522.081 502.25 522.094C502.278 521.978 502.293 521.935 502.293 521.879C502.293 521.648 502.134 521.561 501.717 521.561C501.458 521.561 501.155 521.589 500.953 521.648L500.837 521.692L500.75 521.707L500.881 520.928C501.327 520.797 501.629 520.754 501.963 520.754C502.742 520.754 503.144 521.1 503.144 521.763C503.144 521.935 503.144 522.066 503.073 522.455L502.886 523.679L502.857 523.895L502.829 524.066L502.814 524.197V524.284H502.809Z" fill="white"/>
<path fill-rule="evenodd" clip-rule="evenodd" d="M505.229 520.802H505.141C504.839 520.802 504.667 520.946 504.393 521.363L504.48 520.831H503.66L503.111 524.286H504.006C504.336 522.17 504.424 521.809 504.857 521.809H504.916C505.003 521.392 505.118 521.089 505.262 520.815L505.234 520.8L505.229 520.802Z" fill="white"/>
<path d="M582.92 122.661L555.318 85.4282C573.295 67.8388 599.661 65.0167 611.452 65.3714L637.469 100.771C626.594 99.2416 603.053 102.771 582.92 122.661Z" fill="white"/>
<path d="M583.506 118.177L558.945 85.0456C576.39 69.1482 599.841 67.3472 610.872 67.5819L633.112 99.0795C622.978 97.7973 603.043 100.214 583.506 118.177Z" fill="#E5F2FF"/>
<path d="M603.061 97.3801L601.317 94.8243C599.961 95.4724 598.322 95.6969 597.14 95.4637L596.012 92.6828C597.239 92.8578 598.79 92.7859 600.064 92.1111C601.377 91.4134 601.721 90.1181 600.858 88.8524C600.048 87.6665 598.794 87.2858 596.761 87.4014C593.878 87.5636 591.6 87.0524 589.92 84.5997C588.37 82.332 588.433 79.9222 590.224 78.3309L588.463 75.7438L590.175 74.8318L591.849 77.2834C593.205 76.6353 594.369 76.5562 595.324 76.6189L596.417 79.3443C595.715 79.3192 594.386 79.2011 592.963 79.9616C591.501 80.738 591.628 81.9664 592.237 82.8632C592.976 83.9449 594.14 84.1538 596.53 84.1057C599.625 83.9679 601.642 84.8362 603.244 87.1837C604.775 89.4271 604.896 92.0585 602.915 93.7586L604.772 96.4751L603.06 97.3871L603.061 97.3801Z" fill="white"/>
<path d="M687.109 534.609L662.549 487.593C679.14 444.344 703.137 421.484 713.851 414.136L736.993 459.003C727.132 463.677 705.68 485.873 687.107 534.632L687.109 534.609Z" fill="white"/>
<path d="M687.701 526.283L665.847 484.442C681.927 444.545 703.264 425.483 713.287 418.397L733.057 458.935C723.867 463.533 705.709 481.321 687.701 526.283Z" fill="#E5F2FF"/>
<path d="M702.99 458.857L703.464 460.694L699.458 466.987C699.595 467.338 699.777 467.672 700.014 467.985C700.247 468.289 700.513 468.524 700.811 468.657C701.109 468.791 701.467 468.744 701.886 468.518C702.312 468.278 702.78 467.764 703.31 466.958C703.734 466.293 704.101 465.56 704.408 464.782C704.715 464.005 704.97 463.314 705.181 462.697C705.392 462.079 705.596 461.363 705.783 460.552L706.838 461.104L706.739 461.623C706.363 463.155 706.053 464.292 705.798 465.039C705.547 465.795 705.229 466.577 704.848 467.393C704.468 468.21 703.998 469.06 703.447 469.931C703.167 470.373 702.866 470.767 702.551 471.133C702.236 471.499 701.92 471.776 701.592 472.002C700.926 472.456 700.362 472.625 699.891 472.513C699.42 472.401 699.029 472.18 698.716 471.817C698.403 471.454 698.161 471.075 697.987 470.671C697.812 470.267 697.695 469.986 697.646 469.825L696.422 471.758L695.948 469.921L702.979 458.861L702.99 458.857ZM702.517 457.02L702.043 455.184L698.006 461.522C697.91 460.864 697.852 460.147 697.825 459.384C697.798 458.622 697.829 457.87 697.908 457.112C697.988 456.354 698.148 455.598 698.382 454.86C698.61 454.112 698.93 453.419 699.348 452.768C700.186 451.441 700.918 450.536 701.529 450.047L702.283 451.81L703.349 450.129L702.493 446.342L702.03 446.698C701.722 446.938 701.282 447.373 700.72 448.024C700.153 448.665 699.57 449.468 698.969 450.402C698.297 451.464 697.74 452.605 697.298 453.826C696.857 455.047 696.54 456.198 696.339 457.316C696.134 458.424 696.02 459.588 696.003 460.793C695.987 461.998 696.046 463.196 696.181 464.389L695.021 466.207L695.495 468.043L702.526 456.983L702.517 457.02Z" fill="white"/>
</g>
<g clip-path="url(#clip1_2147_1211)">
<path d="M768.514 169.137C759.966 169.137 753.028 162.199 753.028 153.651C753.028 106.975 715.055 68.972 668.349 68.972C659.801 68.972 652.863 62.0341 652.863 53.4857C652.863 44.9373 659.801 37.9995 668.349 37.9995C732.121 37.9995 784 89.8784 784 153.651C784 162.199 777.062 169.137 768.514 169.137Z" fill="#E5F2FF"/>
<path d="M721.095 169.137C712.547 169.137 705.609 162.199 705.609 153.65C705.609 133.085 688.884 116.36 668.318 116.36C659.77 116.36 652.832 109.422 652.832 100.873C652.832 92.325 659.77 85.3872 668.318 85.3872C705.95 85.3872 736.581 116.019 736.581 153.65C736.581 162.199 729.643 169.137 721.095 169.137Z" fill="#E5F2FF"/>
<path d="M668.349 174C679.587 174 688.698 164.889 688.698 153.651C688.698 142.412 679.587 133.302 668.349 133.302C657.111 133.302 648 142.412 648 153.651C648 164.889 657.111 174 668.349 174Z" fill="#E5F2FF"/>
</g>
<path d="M180.072 130.285L176.193 78.4726C203.771 72.5606 230.446 85.6622 241.407 93.0632L244.877 142.186C235.484 134.23 211.048 123.483 180.062 130.283L180.072 130.285Z" fill="white"/>
<path d="M183.31 126.388L179.858 80.2806C205.911 75.6485 229.211 87.986 239.531 94.8064L241.762 137.973C232.926 130.695 212.582 121.052 183.31 126.388Z" fill="#E5F2FF"/>
<path d="M214.334 103.134C215.701 103.257 217.069 103.369 218.436 103.491C218.408 104.154 218.361 104.814 218.285 105.46C217.047 105.357 215.81 105.244 214.562 105.14C214.674 105.541 214.706 105.94 214.638 106.324C214.515 107.084 214.156 107.87 213.573 108.663C212.979 109.464 212.105 110.244 210.941 111.001C211.717 110.884 212.389 110.852 212.968 110.898C213.706 110.967 214.498 111.146 215.355 111.435C216.76 111.916 217.733 112.172 218.281 112.223C218.94 112.28 219.893 112.129 221.101 111.752C221.117 112.462 221.113 113.169 221.081 113.862C220.125 114.104 219.376 114.246 218.882 114.304C218.38 114.351 217.911 114.372 217.463 114.326C217.085 114.29 216.722 114.216 216.361 114.122C216.138 114.058 215.632 113.862 214.832 113.53C214.032 113.199 213.507 112.99 213.265 112.914C212.876 112.815 212.462 112.744 212.043 112.702C211.394 112.646 210.662 112.678 209.842 112.82C209.012 112.959 208.214 113.164 207.434 113.442C207.489 112.733 207.504 112.017 207.503 111.279C208.546 110.929 209.53 110.357 210.393 109.585C211.266 108.815 211.85 107.81 212.084 106.571C212.184 106.04 212.205 105.487 212.128 104.92C211.27 104.843 210.412 104.766 209.552 104.699C209.649 104.046 209.716 103.389 209.754 102.727C210.423 102.786 211.091 102.845 211.76 102.904C211.528 101.878 211.345 101.134 211.253 100.665C211.161 100.196 211.107 99.7435 211.071 99.3034C210.936 97.4232 211.316 96.0238 212.363 95.0976C213.21 94.3641 214.338 94.0564 215.825 94.1863C217.341 94.3207 218.746 94.873 219.976 95.8443C221.205 96.8256 222.115 98.1233 222.558 99.7663C221.811 99.8271 221.055 99.8767 220.298 99.9361C220.057 98.8387 219.52 97.9603 218.762 97.2815C218.003 96.6027 217.17 96.2261 216.29 96.1561C215.352 96.0774 214.648 96.3266 214.135 96.9177C213.623 97.5089 213.432 98.2489 213.509 99.16C213.604 100.155 213.912 101.484 214.325 103.123L214.334 103.134Z" fill="white"/>
<path d="M184.985 318.803L152.297 290.584C165.054 270.925 188.456 262.977 199.248 260.9L230.124 287.779C219.921 288.609 199.24 296.617 184.985 318.803Z" fill="white"/>
<path d="M184.609 314.602L155.523 289.486C168.147 271.475 189.098 265.054 199.177 263.013L225.824 287.12C216.349 288.017 198.717 294.285 184.619 314.603L184.609 314.602Z" fill="#E5F2FF"/>
<path d="M180.701 218.309L139.611 231.606C129.433 210.491 134.784 186.375 138.611 176.066L177.611 163.631C173.026 172.787 169.135 194.622 180.709 218.32L180.701 218.309Z" fill="white"/>
<path d="M176.922 216.453L140.357 228.279C131.509 208.151 136.9 186.902 140.389 177.23L174.82 166.967C170.677 175.532 166.874 193.852 176.922 216.453Z" fill="#E5F2FF"/>
<path d="M161.16 192.639C159.955 192.854 158.749 193.079 157.574 193.299C157.697 194.783 158.045 196.321 158.625 197.863C158.165 197.967 157.716 198.062 157.266 198.167C156.635 196.627 156.238 195.082 156.065 193.591C155.545 193.685 155.034 193.791 154.535 193.889C154.755 195.398 155.213 196.942 155.885 198.477C155.413 198.589 154.943 198.691 154.473 198.793C153.871 197.541 153.424 196.261 153.134 195.015C151.027 197.017 149.457 199.079 148.455 200.993C147.943 200.29 147.474 199.563 147.067 198.835C148.056 197.415 149.346 195.949 150.894 194.511C151.421 194.023 151.932 193.644 152.371 193.345C151.97 193.255 151.35 193.072 150.502 192.794C148.563 192.163 146.637 191.523 144.728 190.895C144.7 190.133 144.729 189.389 144.815 188.674C147.398 189.594 150.028 190.54 152.687 191.491C152.684 190.288 152.824 189.136 153.106 188.056C153.695 187.971 154.292 187.898 154.891 187.815C154.499 189.092 154.312 190.489 154.349 191.94C154.878 191.847 155.409 191.744 155.949 191.652C155.961 190.209 156.195 188.838 156.633 187.589C157.199 187.521 157.775 187.455 158.343 187.378C157.858 188.6 157.576 189.953 157.516 191.38C158.75 191.169 159.993 190.969 161.247 190.761C161.167 191.366 161.136 191.988 161.143 192.616L161.16 192.639Z" fill="white"/>
<path d="M178.599 416.329L157.364 453.927C135.568 445.281 123.184 423.909 119.013 413.736L139.298 378.18C142.122 388.022 154.043 406.727 178.599 416.329Z" fill="white"/>
<path d="M174.561 417.518L155.658 450.984C135.516 442.159 125.098 422.869 121.117 413.391L139.502 382.527C142.252 391.64 151.857 407.696 174.559 417.528L174.561 417.518Z" fill="#E5F2FF"/>
<path d="M149.446 408.753L147.929 411.207C148.997 412.114 149.803 413.426 150.054 414.525L148.117 416.542C147.796 415.433 147.16 414.136 146.09 413.309C144.994 412.449 143.761 412.65 143.013 413.874C142.308 415.012 142.463 416.218 143.323 417.913C144.556 420.3 144.985 422.446 143.534 424.799C142.19 426.975 140.111 427.829 138.083 426.921L136.552 429.403L135.129 428.292L136.581 425.939C135.512 425.032 135.009 424.068 134.698 423.233L136.607 421.272C136.851 421.875 137.252 423.057 138.439 423.981C139.652 424.93 140.647 424.36 141.179 423.498C141.819 422.461 141.553 421.391 140.61 419.37C139.326 416.783 139.296 414.737 140.692 412.487C142.022 410.339 144.217 409.24 146.409 410.273L148.021 407.662L149.443 408.773L149.446 408.753Z" fill="white"/>
<path d="M186.724 281.17L193.355 290.91C193.626 290.718 193.859 290.51 194.032 290.303C194.685 289.511 194.98 288.614 194.909 287.593C194.849 286.573 194.376 285.603 193.514 284.666L195.427 282.817C196.622 284.228 197.238 285.735 197.272 287.337C197.307 288.94 196.79 290.379 195.741 291.659C195.433 292.028 195.058 292.376 194.615 292.705L198.008 297.768L196.59 298.741L193.134 293.688C191.994 294.216 190.709 294.359 189.271 294.105C187.843 293.852 186.385 293.12 184.926 291.913C183.576 290.792 182.598 289.616 181.994 288.374C181.39 287.131 181.215 285.862 181.457 284.573C181.699 283.285 182.206 282.187 182.959 281.268C183.181 280.998 183.527 280.645 183.986 280.208L180.643 275.283L182.039 274.328L185.393 279.244C186.344 278.758 187.255 278.55 188.137 278.6C189.019 278.65 189.947 278.94 190.9 279.465L189.565 281.714C188.548 281.209 187.603 281.038 186.71 281.199L186.724 281.17ZM185.204 281.945C184.979 282.165 184.81 282.352 184.699 282.487C184.182 283.108 183.872 283.83 183.769 284.664C183.667 285.488 183.863 286.346 184.371 287.21C184.868 288.083 185.605 288.91 186.559 289.699C187.514 290.487 188.503 291.11 189.395 291.434C190.287 291.759 191.084 291.837 191.787 291.668L185.194 281.944L185.204 281.945Z" fill="white"/>
<defs>
<clipPath id="clip0_2147_1211">
<rect width="494.068" height="550" fill="white" transform="translate(258 42.9995)"/>
</clipPath>
<clipPath id="clip1_2147_1211">
<rect width="136" height="136" fill="white" transform="translate(648 37.9995)"/>
</clipPath>
</defs>
</svg>
