<svg width="80" height="80" viewBox="0 0 80 80" fill="none" xmlns="http://www.w3.org/2000/svg">
<rect y="-0.000976562" width="80" height="80" rx="16" fill="#E5F2FF"/>
<path fill-rule="evenodd" clip-rule="evenodd" d="M55.9297 21.939C56.4897 22.269 57.0997 22.439 57.7697 22.439C58.4397 22.439 59.0497 22.269 59.5997 21.939C60.1497 21.6089 60.5997 21.1592 60.9297 20.5889C61.2597 20.019 61.4297 19.4092 61.4297 18.7192C61.4297 18.0288 61.2597 17.3989 60.9297 16.8389C60.5997 16.2788 60.1497 15.8291 59.5997 15.499C59.0497 15.1689 58.4397 14.999 57.7697 14.999C57.0997 14.999 56.4897 15.1689 55.9297 15.499C55.3697 15.8291 54.9197 16.2788 54.5797 16.8389C54.2397 17.3989 54.0697 18.0391 54.0697 18.7192C54.0697 19.3989 54.2397 20.019 54.5797 20.5889C54.9197 21.1592 55.3697 21.6089 55.9297 21.939ZM59.1897 21.1592C58.7797 21.439 58.2997 21.5791 57.7697 21.5791C57.2397 21.5791 56.7597 21.439 56.3397 21.1592C55.9197 20.8789 55.5897 20.519 55.3397 20.0889C55.0897 19.6592 54.9697 19.1992 54.9697 18.7192C54.9697 18.2393 55.0897 17.7788 55.3397 17.3389C55.5897 16.8989 55.9197 16.5391 56.3397 16.269C56.7597 15.999 57.2397 15.8589 57.7697 15.8589C58.2997 15.8589 58.7797 15.999 59.1897 16.2788C59.5997 16.5591 59.9297 16.9189 60.1697 17.3491C60.4097 17.7788 60.5297 18.249 60.5297 18.7192C60.5297 19.189 60.4097 19.6392 60.1697 20.0791C59.9297 20.519 59.5997 20.8789 59.1897 21.1592ZM67.8097 15.2393L55.5097 30.1392H56.7297L69.0297 15.2393H67.8097ZM65.0497 29.8789C65.6097 30.209 66.2197 30.3789 66.8897 30.3789C67.5597 30.3789 68.1697 30.209 68.7197 29.8789C69.2697 29.5488 69.7197 29.0991 70.0497 28.5391C70.3797 27.979 70.5497 27.3491 70.5497 26.6592C70.5497 25.9692 70.3797 25.3389 70.0497 24.7788C69.7197 24.2192 69.2697 23.769 68.7197 23.439C68.1697 23.1089 67.5597 22.939 66.8897 22.939C66.2197 22.939 65.6097 23.1089 65.0497 23.439C64.4897 23.769 64.0397 24.2192 63.6997 24.7788C63.3597 25.3389 63.1897 25.9692 63.1897 26.6592C63.1897 27.3491 63.3597 27.979 63.6997 28.5391C64.0397 29.0991 64.4897 29.5488 65.0497 29.8789ZM68.3097 29.0991C67.8997 29.3789 67.4197 29.519 66.8897 29.519C66.3597 29.519 65.8797 29.3789 65.4597 29.0991C65.0397 28.8188 64.7097 28.459 64.4597 28.0288C64.2097 27.5991 64.0897 27.1392 64.0897 26.6592C64.0897 26.1792 64.2097 25.7192 64.4597 25.2788C64.7097 24.8389 65.0397 24.479 65.4597 24.209C65.8797 23.939 66.3597 23.7988 66.8897 23.7988C67.4197 23.7988 67.8997 23.939 68.3097 24.2192C68.7197 24.499 69.0497 24.8589 69.2897 25.2891C69.5297 25.7192 69.6497 26.189 69.6497 26.6592C69.6497 27.1289 69.5297 27.5791 69.2897 28.019C69.0497 28.459 68.7197 28.8188 68.3097 29.0991ZM19.4098 62.7588C22.3798 64.8687 25.7998 65.9287 29.6698 65.9287V65.9385C33.6298 65.9385 37.0798 64.8687 40.0298 62.7388C42.9798 60.6089 45.2798 57.6387 46.9298 53.8286C48.5798 50.0186 49.3998 45.5889 49.3998 40.5288C49.3998 35.4688 48.5798 31.0386 46.9298 27.2285C45.2798 23.4189 42.9698 20.4585 39.9998 18.3486C37.0198 16.2388 33.4698 15.1787 29.5998 15.1787C25.7298 15.1787 22.3198 16.2285 19.3498 18.3389C16.3798 20.4487 14.0798 23.4087 12.4498 27.2188C10.8198 31.0288 10.0098 35.4585 10.0098 40.5186C10.0098 45.5786 10.8298 50.0186 12.4798 53.8486C14.1298 57.6787 16.4398 60.6489 19.4098 62.7588ZM37.5898 53.1289C35.6998 56.2085 33.0598 57.7485 29.6698 57.7485C26.3298 57.7485 23.7098 56.2085 21.8198 53.1289C19.9298 50.0488 18.9798 45.8389 18.9798 40.5186C18.9798 35.1987 19.9298 31.0088 21.8198 27.9487C23.7098 24.8887 26.2298 23.3589 29.6098 23.3589C32.9898 23.3589 35.6497 24.8887 37.5598 27.9487C39.4698 31.0088 40.4298 35.1885 40.4298 40.5186C40.4298 45.8486 39.4798 50.0488 37.5898 53.1289Z" fill="#1A58BF"/>
</svg>
