<svg width="605" height="588" viewBox="0 0 605 588" fill="none" xmlns="http://www.w3.org/2000/svg">
<circle cx="417.116" cy="173.116" r="27.1656" transform="rotate(37.8143 417.116 173.116)" fill="#E5F2FF"/>
<circle cx="417.116" cy="173.116" r="27.1656" transform="rotate(37.8143 417.116 173.116)" fill="#E5F2FF"/>
<circle cx="417.116" cy="173.116" r="23.6472" transform="rotate(37.8143 417.116 173.116)" fill="#E5F2FF" stroke="white"/>
<path d="M405.266 178.375L419.053 160.61L430.618 169.585L428.675 172.089L419.9 165.279L415.755 170.62L423.576 176.69L421.633 179.194L413.811 173.124L408.056 180.54L405.266 178.375ZM405.524 174.104L406.967 172.244L416.434 179.591L414.99 181.451L405.524 174.104Z" fill="white"/>
<g clip-path="url(#clip0_2024_1212)">
<path d="M432.598 352.828L487.199 312.332C489.865 310.355 490.421 306.587 488.441 303.917L446.545 247.427C444.564 244.757 440.797 244.195 438.131 246.172L383.53 286.668C380.864 288.645 380.308 292.413 382.289 295.084L424.184 351.573C426.165 354.243 429.932 354.805 432.598 352.828Z" fill="#E5F2FF"/>
<path d="M457.083 261.636L392.827 309.292L382.28 295.072C380.301 292.404 380.858 288.631 383.521 286.656L438.122 246.16C440.786 244.185 444.558 244.747 446.536 247.415L457.083 261.636Z" fill="#F3F9FF"/>
<path d="M451.645 291.257L460.218 284.898C460.736 284.514 460.845 283.78 460.459 283.261L454.09 274.674C453.705 274.154 452.972 274.045 452.453 274.429L443.88 280.788C443.361 281.173 443.253 281.906 443.639 282.425L450.007 291.012C450.393 291.532 451.126 291.641 451.645 291.257Z" fill="white"/>
<path d="M439.374 300.358L447.947 293.999C448.465 293.615 448.574 292.881 448.188 292.362L441.819 283.775C441.434 283.255 440.701 283.146 440.182 283.531L431.609 289.889C431.09 290.274 430.982 291.007 431.368 291.526L437.736 300.113C438.122 300.633 438.855 300.742 439.374 300.358Z" fill="white"/>
<path d="M399.205 282.704C398.028 283.577 396.35 283.326 395.475 282.147L389.839 274.549C388.965 273.369 389.213 271.69 390.39 270.817C391.567 269.944 393.246 270.195 394.12 271.374L399.756 278.972C400.63 280.151 400.382 281.831 399.205 282.704Z" fill="#E5F2FF"/>
<path d="M410.058 274.673C408.881 275.546 407.202 275.296 406.328 274.117L400.692 266.518C399.818 265.339 400.057 263.648 401.234 262.775C402.411 261.902 404.09 262.152 404.964 263.331L410.6 270.93C411.474 272.109 411.226 273.788 410.049 274.661L410.058 274.673Z" fill="#E5F2FF"/>
<path d="M420.382 266.998C419.205 267.871 417.527 267.62 416.652 266.441L411.016 258.843C410.142 257.663 410.39 255.984 411.567 255.111C412.744 254.238 414.423 254.489 415.297 255.668L420.933 263.266C421.807 264.445 421.559 266.124 420.382 266.998Z" fill="#E5F2FF"/>
<path d="M427.031 309.512L435.604 303.153C436.123 302.768 436.231 302.035 435.846 301.516L429.477 292.929C429.092 292.409 428.359 292.3 427.84 292.684L419.267 299.043C418.748 299.427 418.64 300.161 419.025 300.68L425.394 309.267C425.78 309.787 426.513 309.896 427.031 309.512Z" fill="white"/>
<path d="M414.76 318.612L423.333 312.254C423.852 311.869 423.96 311.136 423.575 310.616L417.206 302.029C416.821 301.51 416.088 301.4 415.569 301.785L406.996 308.143C406.477 308.528 406.369 309.261 406.754 309.781L413.123 318.368C413.509 318.888 414.242 318.997 414.76 318.612Z" fill="white"/>
<path d="M460.197 302.987L468.77 296.629C469.289 296.244 469.397 295.511 469.012 294.991L462.643 286.404C462.258 285.885 461.525 285.775 461.006 286.16L452.433 292.518C451.914 292.903 451.806 293.636 452.191 294.156L458.56 302.743C458.945 303.263 459.678 303.372 460.197 302.987Z" fill="white"/>
<path d="M447.938 312.079L456.511 305.721C457.03 305.336 457.138 304.603 456.753 304.083L450.384 295.496C449.999 294.976 449.266 294.867 448.747 295.252L440.174 301.61C439.655 301.995 439.547 302.728 439.932 303.248L446.301 311.835C446.686 312.354 447.419 312.464 447.938 312.079Z" fill="white"/>
<path d="M435.584 321.242L444.157 314.884C444.676 314.499 444.784 313.766 444.398 313.246L438.03 304.659C437.644 304.139 436.911 304.03 436.392 304.415L427.819 310.773C427.301 311.158 427.193 311.891 427.578 312.411L433.947 320.998C434.332 321.517 435.065 321.627 435.584 321.242Z" fill="white"/>
<path d="M423.325 330.334L431.898 323.975C432.417 323.591 432.525 322.858 432.139 322.338L425.771 313.751C425.385 313.231 424.652 313.122 424.133 313.507L415.56 319.865C415.042 320.25 414.933 320.983 415.319 321.502L421.688 330.09C422.073 330.609 422.806 330.719 423.325 330.334Z" fill="white"/>
<path d="M468.841 314.816L477.414 308.457C477.933 308.073 478.041 307.339 477.656 306.82L471.287 298.233C470.902 297.713 470.169 297.604 469.65 297.989L461.077 304.347C460.558 304.732 460.45 305.465 460.835 305.984L467.204 314.572C467.589 315.091 468.322 315.2 468.841 314.816Z" fill="white"/>
<path d="M456.57 323.917L465.143 317.558C465.662 317.174 465.77 316.441 465.385 315.921L459.016 307.334C458.631 306.814 457.898 306.705 457.379 307.09L448.806 313.448C448.287 313.833 448.179 314.566 448.564 315.085L454.933 323.673C455.318 324.192 456.051 324.302 456.57 323.917Z" fill="white"/>
<path d="M444.228 333.071L452.801 326.712C453.319 326.328 453.428 325.594 453.042 325.075L446.673 316.488C446.288 315.968 445.555 315.859 445.036 316.243L436.463 322.602C435.944 322.986 435.836 323.72 436.222 324.239L442.59 332.826C442.976 333.346 443.709 333.455 444.228 333.071Z" fill="white"/>
<path d="M431.969 342.163L440.542 335.805C441.06 335.42 441.169 334.687 440.783 334.167L434.414 325.58C434.029 325.06 433.296 324.951 432.777 325.336L424.204 331.694C423.685 332.079 423.577 332.812 423.963 333.332L430.331 341.919C430.717 342.438 431.45 342.548 431.969 342.163Z" fill="white"/>
<path d="M430.751 259.308C429.574 260.181 427.895 259.93 427.02 258.751L421.385 251.153C420.51 249.973 420.746 248.303 421.935 247.421C423.124 246.54 424.791 246.799 425.665 247.978L431.301 255.576C432.176 256.756 431.928 258.435 430.751 259.308Z" fill="#E5F2FF"/>
</g>
<g clip-path="url(#clip1_2024_1212)">
<path d="M154.58 127.26C154.56 116.89 148.07 107.48 136.35 106.1C141.55 84.6801 120.31 65.7501 98.2501 79.5401C94.2301 67.5801 82.9101 58.9701 69.6001 59.0001C52.9401 59.0401 39.4701 72.5701 39.5101 89.2301C39.5101 89.5201 39.5201 89.8101 39.5301 90.1001C36.8601 89.3701 34.0601 88.9701 31.1601 88.9801C13.9101 89.0201 -0.0399142 103.04 8.58068e-05 120.29C0.0400858 137.54 14.0601 151.49 31.3101 151.45L131.48 151.21V151.13C143.83 150.14 154.61 139.86 154.58 127.26ZM61.8101 110.68L71.3901 120.26V87.9401H83.1801V120.27L92.7601 110.69L101.09 119.02L77.0601 143.09L53.4701 119.02L61.8001 110.69L61.8101 110.68Z" fill="#E5F2FF"/>
</g>
<g clip-path="url(#clip2_2024_1212)">
<path d="M390.733 105.607H390.215V48.9903C390.215 30.2177 375.585 15 357.537 15H159.463C141.415 15 126.785 30.2177 126.785 48.9903V105.607H126.267C123.912 105.607 122 107.593 122 110.045V149.211C122 151.661 123.909 153.649 126.267 153.649H126.785V162.99H126.267C123.912 162.99 122 164.975 122 167.428V206.593C122 209.043 123.909 211.032 126.267 211.032H126.785V554.01C126.785 572.782 141.415 588 159.463 588H357.537C375.585 588 390.215 572.782 390.215 554.01V177.666H390.733C393.089 177.666 395 175.68 395 173.228V110.043C395 107.593 393.091 105.604 390.733 105.604V105.607Z" fill="#333343"/>
<path d="M354.165 23.4067H162.834C148.177 23.4067 136.294 35.7666 136.294 51.0132V551.986C136.294 567.233 148.177 579.593 162.834 579.593H354.165C368.823 579.593 380.706 567.233 380.706 551.986V51.0132C380.706 35.7666 368.823 23.4067 354.165 23.4067Z" fill="white"/>
<path d="M380.706 427.894H136.294V428.022H380.706V427.894Z" fill="#ECECEC"/>
<path d="M353.278 435.225H324.002V435.353H353.278V435.225Z" fill="#ECECEC"/>
<path d="M301.957 432.473H276.26V432.601H301.957V432.473Z" fill="#ECECEC"/>
<path d="M321.357 435.161H313.364V435.289H321.357V435.161Z" fill="#ECECEC"/>
<path d="M187.512 432.409H163.722V432.537H187.512V432.409Z" fill="#ECECEC"/>
<path d="M194.784 432.409H189.685V432.537H194.784V432.409Z" fill="#ECECEC"/>
<path d="M235.197 433.503H218.748V433.632H235.197V433.503Z" fill="#ECECEC"/>
<path d="M252.152 405.219H157.762C156.222 405.219 154.973 403.917 154.973 402.318V264.304C154.973 262.703 156.225 261.403 157.762 261.403H252.152C253.689 261.403 254.941 262.706 254.941 264.304V402.315C254.941 403.917 253.689 405.216 252.152 405.216V405.219ZM157.762 261.529C156.292 261.529 155.093 262.772 155.093 264.304V402.315C155.093 403.845 156.289 405.091 157.762 405.091H252.152C253.622 405.091 254.821 403.847 254.821 402.315V264.304C254.821 262.775 253.625 261.529 252.152 261.529H157.762Z" fill="#ECECEC"/>
<path d="M357.883 405.219H263.493C261.956 405.219 260.704 403.917 260.704 402.318V264.304C260.704 262.703 261.956 261.403 263.493 261.403H357.883C359.423 261.403 360.672 262.706 360.672 264.304V402.315C360.672 403.917 359.42 405.216 357.883 405.216V405.219ZM263.493 261.531C262.023 261.531 260.824 262.775 260.824 264.307V402.318C260.824 403.847 262.02 405.094 263.493 405.094H357.883C359.353 405.094 360.552 403.85 360.552 402.318V264.304C360.552 262.775 359.356 261.529 357.883 261.529H263.493V261.531Z" fill="#ECECEC"/>
<path d="M380.706 58.5127H136.294V83.1888H380.706V58.5127Z" fill="#E5F2FF"/>
<path d="M380.706 86.0205H136.294V110.697H380.706V86.0205Z" fill="#E5F2FF"/>
<path d="M380.706 113.528H136.294V138.204H380.706V113.528Z" fill="#E5F2FF"/>
<path d="M380.706 141.039H136.294V165.715H380.706V141.039Z" fill="#E5F2FF"/>
<path d="M380.706 168.546H136.294V193.222H380.706V168.546Z" fill="#E5F2FF"/>
<path d="M380.706 195.55H136.294V220.226H380.706V195.55Z" fill="#E5F2FF"/>
<path d="M380.706 222.553H136.294V247.229H380.706V222.553Z" fill="#E5F2FF"/>
<path d="M364.426 274.67H305.128V370.015H364.426V274.67Z" fill="#E7E7E7"/>
<path d="M367.359 274.67H306.498V370.015H367.359V274.67Z" fill="#F0F0F0"/>
<path d="M364.426 370.015H305.128V372.433H365.796L364.426 370.015Z" fill="#E7E7E7"/>
<path d="M372.244 370.015H311.383L312.381 372.433H373.116L372.244 370.015Z" fill="#F0F0F0"/>
<path d="M363.251 365.744V278.94H310.601V365.744H363.251Z" fill="#FAFAFA"/>
<path d="M317.082 365.744L334.216 278.94H345.591L328.459 365.744H317.082Z" fill="white"/>
<path d="M330.901 365.744L348.036 278.94H352.469L335.335 365.744H330.901Z" fill="white"/>
<path d="M363.253 365.744V278.94H362.733V365.744H363.253Z" fill="#E7E7E7"/>
<path d="M299.186 427.128H148.687V438.38H299.186V427.128Z" fill="#E5F2FF"/>
<path d="M299.186 402.361H148.687V427.125H299.186V402.361Z" fill="#F5FAFF"/>
<path d="M273.997 278.014H148.687V402.361H299.188L273.997 278.014Z" fill="#F5FAFF"/>
<path d="M268.022 407.026H179.856V415.465H268.022V407.026Z" fill="white"/>
<path d="M300.253 400.586H147.619V404.138H300.253V400.586Z" fill="#E5F2FF"/>
<path d="M298.478 421.014H149.397C148.141 421.014 147.122 422.074 147.122 423.381V430.872C147.122 432.18 148.141 433.24 149.397 433.24H298.478C299.734 433.24 300.753 432.18 300.753 430.872V423.381C300.753 422.074 299.734 421.014 298.478 421.014Z" fill="#ECECEC"/>
<path d="M274.316 267.355H148.795C148.146 267.355 147.619 267.902 147.619 268.577V278.788C147.619 279.463 148.146 280.011 148.795 280.011H274.316C274.965 280.011 275.491 279.463 275.491 278.788V268.577C275.491 267.902 274.965 267.355 274.316 267.355Z" fill="#E5F2FF"/>
<path d="M271.285 284.011H152.53V317.465H278.062L271.285 284.011Z" fill="#E5F2FF"/>
<path d="M279.098 322.576H152.53V356.03H285.874L279.098 322.576Z" fill="#E5F2FF"/>
<path d="M286.911 361.138H152.53V394.592H293.687L286.911 361.138Z" fill="#E5F2FF"/>
<path d="M176.874 295.49H166.373V317.465H176.874V295.49Z" fill="#FAFAFA"/>
<path d="M161.939 317.468H166.373V295.493H161.939V317.468Z" fill="#F0F0F0"/>
<path d="M187.62 343.724H173.849V356.03H187.62V343.724Z" fill="#FAFAFA"/>
<path d="M168.035 356.03H173.849V343.724H168.035V356.03Z" fill="#F0F0F0"/>
<path d="M209.868 343.724H196.097V356.03H209.868V343.724Z" fill="#FAFAFA"/>
<path d="M190.281 356.03H196.095V343.724H190.281V356.03Z" fill="#F0F0F0"/>
<path d="M198.986 331.42H185.216V343.726H198.986V331.42Z" fill="#FAFAFA"/>
<path d="M179.402 343.724H185.216V331.418H179.402V343.724Z" fill="#F0F0F0"/>
<path d="M239.439 343.724H225.668V356.03H239.439V343.724Z" fill="#FAFAFA"/>
<path d="M219.851 356.03H225.666V343.724H219.851V356.03Z" fill="#F0F0F0"/>
<path d="M261.687 343.724H247.916V356.03H261.687V343.724Z" fill="#FAFAFA"/>
<path d="M242.102 356.03H247.916V343.724H242.102V356.03Z" fill="#F0F0F0"/>
<path d="M250.805 331.42H237.034V343.726H250.805V331.42Z" fill="#FAFAFA"/>
<path d="M231.22 343.724H237.034V331.418H231.22V343.724Z" fill="#F0F0F0"/>
<path d="M194.514 299.138H184.012V317.468H194.514V299.138Z" fill="#FAFAFA"/>
<path d="M179.579 317.465H184.012V299.136H179.579V317.465Z" fill="#F0F0F0"/>
<path d="M212.157 295.49H201.655V317.465H212.157V295.49Z" fill="#FAFAFA"/>
<path d="M197.221 317.468H201.655V295.493H197.221V317.468Z" fill="#F0F0F0"/>
<path d="M229.796 299.138H219.295V317.468H229.796V299.138Z" fill="#FAFAFA"/>
<path d="M214.861 317.465H219.295V299.136H214.861V317.465Z" fill="#F0F0F0"/>
<path d="M247.436 295.49H236.935V317.465H247.436V295.49Z" fill="#FAFAFA"/>
<path d="M232.503 317.468H236.937V295.493H232.503V317.468Z" fill="#F0F0F0"/>
<path d="M265.079 299.138H254.577V317.468H265.079V299.138Z" fill="#FAFAFA"/>
<path d="M250.141 317.465H254.574V299.136H250.141V317.465Z" fill="#F0F0F0"/>
<path d="M183.143 391.128C182.735 387.784 182.068 382.782 181.383 379.649C180.638 376.233 178.619 371.413 175.525 370.044V368.782C175.525 368.55 175.34 368.357 175.117 368.357H172.487C172.264 368.357 172.079 368.55 172.079 368.782V370.004C171.532 370.218 170.965 370.533 170.378 370.97C165.2 374.848 168.374 379.98 169.795 383.415C168.767 385.745 168.495 389.03 168.448 391.438C168.415 393.17 169.747 394.595 171.414 394.595H180.2C181.985 394.595 183.368 392.969 183.143 391.125V391.128ZM172.343 382.908C171.807 383.108 171.214 382.817 171.022 382.259L169.146 376.831C168.954 376.273 169.234 375.657 169.77 375.457C169.885 375.414 170.003 375.39 170.119 375.39C170.545 375.39 170.94 375.667 171.091 376.105L172.967 381.533C173.159 382.091 172.879 382.71 172.343 382.908Z" fill="#FAFAFA"/>
<path d="M175.44 367.546H172.164C171.916 367.546 171.715 367.755 171.715 368.013V369.193C171.715 369.451 171.916 369.66 172.164 369.66H175.44C175.688 369.66 175.889 369.451 175.889 369.193V368.013C175.889 367.755 175.688 367.546 175.44 367.546Z" fill="#F0F0F0"/>
<path d="M202.119 391.128C201.711 387.784 201.044 382.782 200.359 379.649C199.615 376.233 197.596 371.413 194.504 370.044V368.782C194.504 368.55 194.319 368.357 194.096 368.357H191.466C191.243 368.357 191.058 368.55 191.058 368.782V370.004C190.512 370.218 189.945 370.533 189.357 370.97C184.179 374.848 187.353 379.98 188.775 383.415C187.746 385.745 187.474 389.03 187.428 391.438C187.394 393.17 188.726 394.595 190.394 394.595H199.179C200.965 394.595 202.348 392.969 202.122 391.125L202.119 391.128ZM191.32 382.908C190.784 383.108 190.191 382.817 189.999 382.259L188.123 376.831C187.931 376.273 188.21 375.657 188.746 375.457C188.862 375.414 188.98 375.39 189.095 375.39C189.521 375.39 189.916 375.667 190.068 376.105L191.943 381.533C192.136 382.091 191.856 382.71 191.32 382.908Z" fill="#FAFAFA"/>
<path d="M194.419 367.546H191.143C190.895 367.546 190.694 367.755 190.694 368.013V369.193C190.694 369.451 190.895 369.66 191.143 369.66H194.419C194.667 369.66 194.868 369.451 194.868 369.193V368.013C194.868 367.755 194.667 367.546 194.419 367.546Z" fill="#F0F0F0"/>
<path d="M221.098 391.128C220.691 387.784 220.023 382.782 219.338 379.649C218.594 376.233 216.575 371.413 213.481 370.044V368.782C213.481 368.55 213.296 368.357 213.073 368.357H210.443C210.22 368.357 210.035 368.55 210.035 368.782V370.004C209.488 370.218 208.921 370.533 208.334 370.97C203.156 374.848 206.33 379.98 207.751 383.415C206.722 385.745 206.45 389.03 206.404 391.438C206.371 393.17 207.702 394.595 209.37 394.595H218.156C219.941 394.595 221.324 392.969 221.098 391.125V391.128ZM210.299 382.908C209.763 383.108 209.17 382.817 208.978 382.259L207.102 376.831C206.91 376.273 207.189 375.657 207.726 375.457C207.841 375.414 207.959 375.39 208.075 375.39C208.5 375.39 208.896 375.667 209.047 376.105L210.923 381.533C211.115 382.091 210.835 382.71 210.299 382.908Z" fill="#FAFAFA"/>
<path d="M213.399 367.546H210.122C209.874 367.546 209.673 367.755 209.673 368.013V369.193C209.673 369.451 209.874 369.66 210.122 369.66H213.399C213.647 369.66 213.848 369.451 213.848 369.193V368.013C213.848 367.755 213.647 367.546 213.399 367.546Z" fill="#F0F0F0"/>
<path d="M240.078 391.128C239.67 387.784 239.003 382.782 238.317 379.649C237.573 376.233 235.554 371.413 232.462 370.044V368.782C232.462 368.55 232.278 368.357 232.054 368.357H229.424C229.201 368.357 229.016 368.55 229.016 368.782V370.004C228.47 370.218 227.903 370.533 227.315 370.97C222.138 374.848 225.311 379.98 226.733 383.415C225.704 385.745 225.432 389.03 225.386 391.438C225.353 393.17 226.684 394.595 228.352 394.595H237.137C238.923 394.595 240.306 392.969 240.08 391.125L240.078 391.128ZM229.278 382.908C228.742 383.108 228.149 382.817 227.957 382.259L226.081 376.831C225.889 376.273 226.168 375.657 226.705 375.457C226.82 375.414 226.938 375.39 227.054 375.39C227.48 375.39 227.875 375.667 228.026 376.105L229.902 381.533C230.094 382.091 229.814 382.71 229.278 382.908Z" fill="#FAFAFA"/>
<path d="M232.378 367.546H229.101C228.853 367.546 228.652 367.755 228.652 368.013V369.193C228.652 369.451 228.853 369.66 229.101 369.66H232.378C232.626 369.66 232.827 369.451 232.827 369.193V368.013C232.827 367.755 232.626 367.546 232.378 367.546Z" fill="#F0F0F0"/>
<path d="M259.057 391.128C258.649 387.784 257.982 382.782 257.297 379.649C256.553 376.233 254.533 371.413 251.439 370.044V368.782C251.439 368.55 251.254 368.357 251.031 368.357H248.401C248.178 368.357 247.993 368.55 247.993 368.782V370.004C247.447 370.218 246.879 370.533 246.292 370.97C241.114 374.848 244.288 379.98 245.709 383.415C244.681 385.745 244.409 389.03 244.362 391.438C244.329 393.17 245.661 394.595 247.328 394.595H256.114C257.9 394.595 259.282 392.969 259.057 391.125V391.128ZM248.257 382.908C247.721 383.108 247.128 382.817 246.936 382.259L245.06 376.831C244.868 376.273 245.148 375.657 245.684 375.457C245.799 375.414 245.917 375.39 246.033 375.39C246.459 375.39 246.854 375.667 247.005 376.105L248.881 381.533C249.073 382.091 248.794 382.71 248.257 382.908Z" fill="#FAFAFA"/>
<path d="M251.357 367.546H248.08C247.832 367.546 247.631 367.755 247.631 368.013V369.193C247.631 369.451 247.832 369.66 248.08 369.66H251.357C251.605 369.66 251.806 369.451 251.806 369.193V368.013C251.806 367.755 251.605 367.546 251.357 367.546Z" fill="#F0F0F0"/>
<path d="M278.036 391.128C277.628 387.784 276.961 382.782 276.276 379.649C275.532 376.233 273.512 371.413 270.421 370.044V368.782C270.421 368.55 270.236 368.357 270.013 368.357H267.383C267.159 368.357 266.975 368.55 266.975 368.782V370.004C266.428 370.218 265.861 370.533 265.274 370.97C260.096 374.848 263.27 379.98 264.691 383.415C263.662 385.745 263.39 389.03 263.344 391.438C263.311 393.17 264.642 394.595 266.31 394.595H275.095C276.881 394.595 278.264 392.969 278.038 391.125L278.036 391.128ZM267.236 382.908C266.7 383.108 266.107 382.817 265.915 382.259L264.039 376.831C263.847 376.273 264.127 375.657 264.663 375.457C264.778 375.414 264.896 375.39 265.012 375.39C265.438 375.39 265.833 375.667 265.984 376.105L267.86 381.533C268.052 382.091 267.773 382.71 267.236 382.908Z" fill="#FAFAFA"/>
<path d="M270.336 367.546H267.059C266.811 367.546 266.61 367.755 266.61 368.013V369.193C266.61 369.451 266.811 369.66 267.059 369.66H270.336C270.584 369.66 270.785 369.451 270.785 369.193V368.013C270.785 367.755 270.584 367.546 270.336 367.546Z" fill="#F0F0F0"/>
<path d="M267.981 464.369C327.226 464.369 375.254 461.451 375.254 457.851C375.254 454.252 327.226 451.334 267.981 451.334C208.735 451.334 160.708 454.252 160.708 457.851C160.708 461.451 208.735 464.369 267.981 464.369Z" fill="#F5FAFF"/>
<path d="M335.561 380.783C335.322 380.783 335.084 380.671 334.927 380.455L331.497 375.731C331.232 375.368 331.302 374.85 331.651 374.575C332 374.3 332.497 374.372 332.759 374.735L336.19 379.459C336.454 379.822 336.385 380.34 336.036 380.615C335.892 380.727 335.725 380.78 335.558 380.78L335.561 380.783Z" fill="#678BC9"/>
<path d="M332.13 376.059H310.924C310.485 376.059 310.131 375.691 310.131 375.234C310.131 374.778 310.485 374.41 310.924 374.41H332.13C332.569 374.41 332.923 374.778 332.923 375.234C332.923 375.691 332.569 376.059 332.13 376.059Z" fill="#A31D1D"/>
<path d="M362.009 353.673L362.907 345.949L350.25 343.587L350.081 353.748L362.009 353.673Z" fill="#C9E3F4"/>
<path d="M350.25 343.587L338.353 349.486L339.192 357.028L350.081 353.748L350.25 343.587Z" fill="#B5CEE2"/>
<path d="M362.345 363.008L363.808 353.969L350.045 351.105L348.978 360.067L362.345 363.008Z" fill="#DD6862"/>
<path d="M350.045 351.105L336.341 357.58L335.433 365.216L348.977 360.067L350.045 351.105Z" fill="#D8504A"/>
<path d="M335.433 365.216L349.778 367.065L362.345 363.008L348.977 360.067L335.433 365.216Z" fill="#AF3A2E"/>
<path d="M367.685 372.68L368.906 362.168L353.686 360.676L353.486 372.768L367.685 372.68Z" fill="#F9AE40"/>
<path d="M353.686 360.676L339.302 365.715L340.611 372.584L353.486 372.768L353.686 360.676Z" fill="#DD9033"/>
<path d="M368.631 405.782L371.087 373.484L363.867 370.655L335.977 372.616L334.258 403.249L358.466 406.372L368.631 405.782Z" fill="#B5CEE2"/>
<path d="M363.867 370.655L360.472 406.254L368.631 405.782L371.087 373.484L363.867 370.655Z" fill="#C9E3F4"/>
<path d="M330.283 370.26L344.675 374.314V405.035L328.846 401.194L330.283 370.26Z" fill="#D8504A"/>
<path d="M344.675 374.314L351.348 372.486L354.286 402.689L344.675 405.035V374.314Z" fill="#DD6862"/>
<path d="M330.283 370.26L336.762 368.979L351.348 372.486L344.674 374.314L330.283 370.26Z" fill="#AF3A2E"/>
<path d="M341.254 375.752C341.254 375.752 341.231 375.752 341.221 375.752C340.967 375.734 340.775 375.504 340.795 375.237C341.262 368.653 340.934 361.586 339.579 361.148C339.497 361.124 339.379 361.106 339.197 361.223C337.58 362.251 336.097 369.155 335.661 371.728C335.617 371.989 335.384 372.165 335.127 372.117C334.878 372.072 334.709 371.824 334.753 371.562C334.919 370.572 336.454 361.842 338.714 360.404C339.081 360.172 339.474 360.11 339.851 360.23C342.581 361.108 341.886 372.942 341.716 375.307C341.698 375.56 341.496 375.752 341.257 375.752H341.254Z" fill="#AF3A2E"/>
<path d="M342.109 362.259C342.055 362.259 342.001 362.248 341.947 362.229C341.709 362.136 341.588 361.861 341.678 361.613C341.698 361.554 343.687 355.8 341.175 354.759C338.517 353.662 334.85 358.304 334.814 358.349C334.653 358.557 334.36 358.586 334.165 358.418C333.968 358.25 333.937 357.949 334.098 357.743C334.265 357.53 338.247 352.51 341.516 353.865C344.903 355.269 342.64 361.674 342.542 361.947C342.473 362.139 342.296 362.259 342.109 362.259Z" fill="#135E8C"/>
<path d="M327.684 354.925L340.403 357.511L331.581 384.821L315.378 378.846L327.684 354.925Z" fill="#B5CEE2"/>
<path d="M340.402 357.511L345.529 362.205L336.505 390.367L331.581 384.821L340.402 357.511Z" fill="#C9E3F4"/>
<path d="M315.378 378.846L318.455 383.967L336.505 390.367L331.581 384.821L315.378 378.846Z" fill="#7DB0D3"/>
<path d="M337.939 358.525C337.778 358.525 337.621 358.437 337.539 358.282C337.413 358.05 337.493 357.759 337.714 357.628C339.179 356.769 341.301 355.112 341.201 354.29C341.162 353.967 340.608 353.761 340.279 353.668C336.664 352.64 331.923 356.668 331.877 356.708C331.679 356.876 331.389 356.849 331.227 356.644C331.066 356.441 331.094 356.137 331.289 355.968C331.497 355.79 336.441 351.581 340.526 352.742C341.503 353.019 342.04 353.5 342.119 354.17C342.33 355.926 338.866 358.053 338.17 358.461C338.099 358.504 338.019 358.522 337.942 358.522L337.939 358.525Z" fill="#2C83AF"/>
<path d="M317.862 441.302L317.262 445.177C317.228 445.398 317.044 445.561 316.828 445.561C316.613 445.561 316.428 445.398 316.395 445.177L315.815 441.304H317.862V441.302Z" fill="#678BC9"/>
<path d="M314.627 445.017C314.627 444.259 314.929 443.592 315.391 443.181V442.756H316.448C317.454 442.756 318.27 443.768 318.27 445.017C318.27 446.266 317.454 447.277 316.448 447.277C316.433 447.277 316.42 447.272 316.407 447.272L315.391 447.277V446.853C314.929 446.442 314.627 445.775 314.627 445.017Z" fill="#678BC9"/>
<path d="M315.394 442.756C316.4 442.756 317.216 443.768 317.216 445.017C317.216 446.266 316.4 447.277 315.394 447.277C314.388 447.277 313.572 446.266 313.572 445.017C313.572 443.768 314.388 442.756 315.394 442.756Z" fill="#C7DBFF"/>
<path d="M316.276 441.302L315.676 445.177C315.643 445.398 315.458 445.561 315.242 445.561C315.027 445.561 314.842 445.398 314.809 445.177L314.229 441.304H316.276V441.302Z" fill="#A4BEF4"/>
<path d="M335.299 441.302L334.699 445.177C334.665 445.398 334.481 445.561 334.265 445.561C334.05 445.561 333.865 445.398 333.832 445.177L333.252 441.304H335.299V441.302Z" fill="#678BC9"/>
<path d="M332.066 445.017C332.066 444.259 332.369 443.592 332.831 443.181V442.756H333.888C334.894 442.756 335.71 443.768 335.71 445.017C335.71 446.266 334.894 447.277 333.888 447.277C333.873 447.277 333.86 447.272 333.847 447.272L332.831 447.277V446.853C332.369 446.442 332.066 445.775 332.066 445.017Z" fill="#678BC9"/>
<path d="M332.831 442.756C333.837 442.756 334.653 443.768 334.653 445.017C334.653 446.266 333.837 447.277 332.831 447.277C331.825 447.277 331.009 446.266 331.009 445.017C331.009 443.768 331.825 442.756 332.831 442.756Z" fill="#A4BEF4"/>
<path d="M333.714 441.302L333.113 445.177C333.08 445.398 332.895 445.561 332.68 445.561C332.464 445.561 332.279 445.398 332.246 445.177L331.666 441.304H333.714V441.302Z" fill="#678BC9"/>
<path d="M356.965 441.302L356.364 445.177C356.331 445.398 356.146 445.561 355.931 445.561C355.715 445.561 355.53 445.398 355.497 445.177L354.917 441.304H356.965V441.302Z" fill="#678BC9"/>
<path d="M353.729 445.017C353.729 444.259 354.032 443.592 354.494 443.181V442.756H355.551C356.557 442.756 357.373 443.768 357.373 445.017C357.373 446.266 356.557 447.277 355.551 447.277C355.536 447.277 355.523 447.272 355.51 447.272L354.494 447.277V446.853C354.032 446.442 353.729 445.775 353.729 445.017Z" fill="#678BC9"/>
<path d="M354.494 442.756C355.5 442.756 356.316 443.768 356.316 445.017C356.316 446.266 355.5 447.277 354.494 447.277C353.488 447.277 352.672 446.266 352.672 445.017C352.672 443.768 353.488 442.756 354.494 442.756Z" fill="#C7DBFF"/>
<path d="M355.379 441.302L354.779 445.177C354.745 445.398 354.561 445.561 354.345 445.561C354.13 445.561 353.945 445.398 353.911 445.177L353.332 441.304H355.379V441.302Z" fill="#A4BEF4"/>
<path d="M374.402 441.302L373.801 445.177C373.768 445.398 373.583 445.561 373.368 445.561C373.152 445.561 372.967 445.398 372.934 445.177L372.354 441.304H374.402V441.302Z" fill="#678BC9"/>
<path d="M371.166 445.017C371.166 444.259 371.469 443.592 371.931 443.181V442.756H372.988C373.994 442.756 374.81 443.768 374.81 445.017C374.81 446.266 373.994 447.277 372.988 447.277C372.973 447.277 372.96 447.272 372.947 447.272L371.931 447.277V446.853C371.469 446.442 371.166 445.775 371.166 445.017Z" fill="#678BC9"/>
<path d="M371.934 442.756C372.939 442.756 373.755 443.768 373.755 445.017C373.755 446.266 372.939 447.277 371.934 447.277C370.928 447.277 370.112 446.266 370.112 445.017C370.112 443.768 370.928 442.756 371.934 442.756Z" fill="#A4BEF4"/>
<path d="M372.816 441.302L372.216 445.177C372.182 445.398 371.998 445.561 371.782 445.561C371.567 445.561 371.382 445.398 371.348 445.177L370.769 441.304H372.816V441.302Z" fill="#678BC9"/>
<path d="M375.148 441.987H331.715C331.453 441.987 331.209 441.854 331.061 441.63C330.914 441.406 330.881 441.12 330.976 440.867L340.115 416.441C340.872 414.418 342.709 413.111 344.798 413.111H365.56C368.036 413.111 370.053 411.016 370.053 408.437C370.053 407.984 370.407 407.613 370.846 407.613C371.284 407.613 371.639 407.981 371.639 408.437C371.639 411.923 368.914 414.757 365.563 414.757H344.8C343.371 414.757 342.111 415.651 341.593 417.039L332.875 440.343H375.148C375.585 440.343 375.941 440.712 375.941 441.168C375.941 441.624 375.587 441.993 375.148 441.993V441.987Z" fill="#678BC9"/>
<path d="M351.571 409.26H324.289C323.946 409.26 323.64 409.028 323.535 408.689L314.727 380.21C314.65 379.959 314.691 379.684 314.84 379.473C314.988 379.26 315.227 379.134 315.481 379.134H354.384C354.82 379.134 355.176 379.503 355.176 379.959C355.176 380.415 354.822 380.784 354.384 380.784H316.569L324.867 407.613H351.571C352.008 407.613 352.364 407.982 352.364 408.438C352.364 408.894 352.01 409.263 351.571 409.263V409.26Z" fill="#678BC9"/>
<path d="M329.662 409.26C329.318 409.26 329 409.025 328.9 408.665L321.028 380.186C320.908 379.748 321.152 379.291 321.57 379.166C321.991 379.038 322.429 379.291 322.55 379.729L330.422 408.208C330.542 408.646 330.299 409.102 329.88 409.228C329.806 409.249 329.734 409.26 329.662 409.26Z" fill="#678BC9"/>
<path d="M335.561 409.26C335.207 409.26 334.883 409.011 334.794 408.635L327.933 380.156C327.828 379.716 328.084 379.267 328.507 379.158C328.931 379.048 329.362 379.315 329.47 379.758L336.331 408.237C336.436 408.678 336.179 409.126 335.756 409.236C335.692 409.252 335.628 409.26 335.563 409.26H335.561Z" fill="#678BC9"/>
<path d="M337.098 388.112H317.749C317.31 388.112 316.956 387.744 316.956 387.288C316.956 386.831 317.31 386.463 317.749 386.463H337.098C337.536 386.463 337.891 386.831 337.891 387.288C337.891 387.744 337.536 388.112 337.098 388.112Z" fill="#678BC9"/>
<path d="M338.642 395.021H319.884C319.445 395.021 319.091 394.653 319.091 394.197C319.091 393.74 319.445 393.372 319.884 393.372H338.642C339.081 393.372 339.435 393.74 339.435 394.197C339.435 394.653 339.081 395.021 338.642 395.021Z" fill="#678BC9"/>
<path d="M340.19 402.169H322.093C321.654 402.169 321.3 401.801 321.3 401.344C321.3 400.888 321.654 400.52 322.093 400.52H340.19C340.628 400.52 340.982 400.888 340.982 401.344C340.982 401.801 340.628 402.169 340.19 402.169Z" fill="#678BC9"/>
<path d="M371.651 409.26H341.727C341.357 409.26 341.036 408.993 340.954 408.616L334.789 380.137C334.735 379.894 334.794 379.638 334.943 379.443C335.094 379.249 335.32 379.134 335.561 379.134H374.463C374.687 379.134 374.902 379.233 375.051 379.406C375.202 379.579 375.274 379.812 375.251 380.041L372.439 408.52C372.398 408.939 372.057 409.26 371.651 409.26ZM342.36 407.613H370.936L373.583 380.783H336.549L342.358 407.613H342.36Z" fill="#678BC9"/>
<path d="M347.841 409.26C347.461 409.26 347.125 408.974 347.061 408.574L342.44 380.095C342.368 379.646 342.658 379.222 343.089 379.145C343.52 379.07 343.928 379.371 344.002 379.82L348.623 408.299C348.695 408.747 348.405 409.172 347.974 409.249C347.931 409.257 347.884 409.26 347.841 409.26Z" fill="#678BC9"/>
<path d="M365.665 409.26C365.65 409.26 365.635 409.26 365.619 409.26C365.183 409.233 364.85 408.844 364.875 408.39L366.458 379.911C366.484 379.457 366.848 379.105 367.295 379.137C367.731 379.163 368.064 379.553 368.039 380.007L366.456 408.486C366.433 408.924 366.081 409.263 365.665 409.263V409.26Z" fill="#678BC9"/>
<path d="M359.813 409.26C359.384 409.26 359.033 408.905 359.02 408.456L358.361 379.977C358.35 379.523 358.697 379.144 359.133 379.134C359.569 379.134 359.933 379.483 359.944 379.937L360.603 408.416C360.613 408.87 360.267 409.249 359.831 409.26H359.81H359.813Z" fill="#678BC9"/>
<path d="M353.693 409.26C353.288 409.26 352.942 408.937 352.906 408.507L350.53 380.028C350.491 379.575 350.815 379.174 351.251 379.137C351.679 379.094 352.072 379.433 352.108 379.887L354.484 408.366C354.522 408.82 354.199 409.22 353.763 409.257C353.74 409.257 353.716 409.26 353.693 409.26Z" fill="#678BC9"/>
<path d="M373.801 388.112H337.098C336.659 388.112 336.305 387.744 336.305 387.288C336.305 386.831 336.659 386.463 337.098 386.463H373.801C374.238 386.463 374.594 386.831 374.594 387.288C374.594 387.744 374.24 388.112 373.801 388.112Z" fill="#678BC9"/>
<path d="M373.057 395.021H338.645C338.206 395.021 337.852 394.653 337.852 394.197C337.852 393.74 338.206 393.372 338.645 393.372H373.057C373.494 393.372 373.85 393.74 373.85 394.197C373.85 394.653 373.496 395.021 373.057 395.021Z" fill="#678BC9"/>
<path d="M372.352 402.169H340.192C339.753 402.169 339.399 401.801 339.399 401.344C339.399 400.888 339.753 400.52 340.192 400.52H372.352C372.788 400.52 373.145 400.888 373.145 401.344C373.145 401.801 372.791 402.169 372.352 402.169Z" fill="#678BC9"/>
<path d="M315.481 380.783C315.278 380.783 315.076 380.703 314.922 380.543L310.365 375.819C310.054 375.499 310.054 374.976 310.365 374.653C310.673 374.33 311.176 374.33 311.486 374.653L316.043 379.377C316.353 379.697 316.353 380.22 316.043 380.543C315.889 380.703 315.686 380.786 315.481 380.786V380.783Z" fill="#678BC9"/>
<path d="M314.424 380.783H354.563C355.002 380.783 355.356 380.415 355.356 379.958C355.356 379.502 355.002 379.134 354.563 379.134H314.424C313.988 379.134 313.631 379.502 313.631 379.958C313.631 380.415 313.985 380.783 314.424 380.783Z" fill="#6D0606"/>
<path d="M355.174 379.958C355.174 380.412 354.822 380.786 354.386 380.786H350.589L350.527 380.031C350.489 379.577 350.81 379.179 351.246 379.139H354.384C354.82 379.139 355.171 379.505 355.171 379.958H355.174Z" fill="#A4BEF4"/>
<path d="M375.251 380.046L374.564 387.06L374.502 387.674L373.85 394.202C373.85 394.258 373.843 394.314 373.835 394.37L373.147 401.344C373.147 401.4 373.14 401.456 373.132 401.512L372.444 408.526C372.398 408.947 372.062 409.265 371.657 409.265H353.701C353.296 409.265 352.944 408.939 352.913 408.51L352.836 407.618H370.938L371.474 402.174L371.636 400.527L372.18 395.027L372.349 393.38L372.87 388.117L373.032 386.47L373.591 380.794H350.599L350.538 380.038C350.499 379.585 350.82 379.187 351.256 379.147H374.471C374.694 379.147 374.907 379.243 375.061 379.417C375.208 379.593 375.282 379.822 375.261 380.054L375.251 380.046Z" fill="#A4BEF4"/>
<path d="M365.665 409.259C365.65 409.259 365.635 409.259 365.619 409.259C365.183 409.233 364.85 408.843 364.875 408.389L366.458 379.91C366.484 379.457 366.848 379.104 367.295 379.136C367.731 379.163 368.064 379.553 368.039 380.006L366.456 408.486C366.433 408.923 366.081 409.262 365.665 409.262V409.259Z" fill="#A4BEF4"/>
<path d="M359.813 409.26C359.384 409.26 359.033 408.905 359.02 408.456L358.361 379.977C358.35 379.523 358.697 379.144 359.133 379.134C359.569 379.134 359.933 379.483 359.944 379.937L360.603 408.416C360.613 408.87 360.267 409.249 359.831 409.26H359.81H359.813Z" fill="#A4BEF4"/>
<path d="M354.486 408.363C354.525 408.817 354.204 409.215 353.768 409.255C353.745 409.263 353.722 409.263 353.699 409.263C353.293 409.263 352.942 408.937 352.911 408.508L352.834 407.616L352.382 402.172L352.244 400.525L351.785 395.025L351.646 393.378L351.202 388.115L351.064 386.468L350.589 380.792L350.527 380.036C350.489 379.583 350.81 379.185 351.246 379.145H351.315C351.713 379.145 352.064 379.463 352.103 379.892L352.18 380.792L352.654 386.468L352.793 388.115L353.229 393.378L353.368 395.025L353.827 400.525L353.965 402.172L354.425 407.616L354.486 408.363Z" fill="#A4BEF4"/>
<path d="M374.592 387.29C374.592 387.426 374.561 387.559 374.499 387.671C374.369 387.933 374.109 388.109 373.804 388.109H351.202L351.063 386.462H373.804C374.163 386.462 374.463 386.716 374.561 387.06C374.584 387.132 374.592 387.212 374.592 387.292V387.29Z" fill="#A4BEF4"/>
<path d="M373.85 394.199C373.85 394.255 373.843 394.311 373.835 394.367C373.758 394.741 373.437 395.021 373.055 395.021H351.785L351.646 393.375H373.055C373.491 393.375 373.85 393.748 373.85 394.202V394.199Z" fill="#A4BEF4"/>
<path d="M373.147 401.341C373.147 401.397 373.14 401.453 373.132 401.509C373.055 401.883 372.734 402.171 372.352 402.171H352.382L352.244 400.524H372.349C372.786 400.524 373.145 400.89 373.145 401.344L373.147 401.341Z" fill="#A4BEF4"/>
<path d="M349.963 380.783H375.7C376.139 380.783 376.493 380.415 376.493 379.958C376.493 379.502 376.139 379.134 375.7 379.134H349.963C349.524 379.134 349.17 379.502 349.17 379.958C349.17 380.415 349.524 380.783 349.963 380.783Z" fill="#A31D1D"/>
<path d="M356.59 441.987H313.156C312.895 441.987 312.651 441.854 312.502 441.63C312.356 441.406 312.323 441.12 312.418 440.867L321.557 416.441C322.314 414.418 324.151 413.111 326.239 413.111H347.946C350.422 413.111 352.439 411.016 352.439 408.437C352.439 407.984 352.793 407.613 353.232 407.613C353.67 407.613 354.024 407.981 354.024 408.437C354.024 411.923 351.299 414.757 347.949 414.757H326.242C324.813 414.757 323.553 415.651 323.035 417.039L314.316 440.343H356.59C357.026 440.343 357.383 440.712 357.383 441.168C357.383 441.624 357.029 441.993 356.59 441.993V441.987Z" fill="#A4BEF4"/>
<path d="M301.944 234.616C301.944 223.349 293.164 214.216 282.331 214.216C271.498 214.216 262.718 223.349 262.718 234.616C262.718 243.915 268.702 251.756 276.879 254.211L282.331 259.882L287.783 254.211C295.961 251.753 301.944 243.915 301.944 234.616Z" fill="#A6D1FF"/>
<path opacity="0.6" d="M283.273 220.963H281.387V247.873H283.273C290.416 247.873 296.207 241.849 296.207 234.419C296.207 226.989 290.416 220.966 283.273 220.966V220.963Z" fill="#FAFAFA"/>
<path d="M290.532 243.931C295.583 238.677 295.583 230.159 290.532 224.905C285.481 219.651 277.291 219.651 272.24 224.905C267.189 230.159 267.189 238.677 272.24 243.931C277.291 249.185 285.481 249.185 290.532 243.931Z" fill="#FAFAFA"/>
<path opacity="0.2" d="M288.738 227.304C286.947 225.569 284.543 224.504 281.898 224.504C276.358 224.504 271.86 229.183 271.86 234.95C271.86 237.651 272.853 240.117 274.47 241.972C272.551 240.082 271.352 237.395 271.352 234.419C271.352 228.649 275.842 223.973 281.39 223.973C284.289 223.973 286.904 225.252 288.741 227.304H288.738Z" fill="#1A58BF"/>
<path d="M236.811 301.866C238.194 295.562 235.182 292.02 230.569 290C225.953 287.98 216.652 288.858 217.496 297.318C217.671 299.079 218.066 300.459 218.584 301.546C216.429 304.777 216.932 309.736 221.091 310.766C225.799 311.935 236.527 310.449 239.724 308.605C237.645 309.002 235.718 306.865 236.814 301.866H236.811Z" fill="#1A2E35"/>
<path d="M239.88 308.06C239.262 308.06 238.687 307.823 238.215 307.369C237.558 306.734 236.55 305.108 237.158 301.343C238.056 295.797 235.816 292.114 230.312 290.085C230.276 290.072 230.258 290.032 230.271 289.995C230.284 289.957 230.323 289.939 230.358 289.952C235.934 292.007 238.202 295.743 237.291 301.369C236.693 305.068 237.671 306.651 238.305 307.265C238.9 307.841 239.675 308.044 240.483 307.841C240.522 307.831 240.557 307.855 240.568 307.895C240.575 307.932 240.555 307.972 240.516 307.983C240.301 308.039 240.085 308.065 239.875 308.065L239.88 308.06Z" fill="#1A2E35"/>
<path d="M220.439 310.374H220.431C218.889 310.209 217.655 309.109 217.127 307.433C216.567 305.65 216.819 303.088 218.64 301.377C218.669 301.351 218.712 301.353 218.738 301.383C218.764 301.412 218.761 301.457 218.733 301.484C216.957 303.152 216.711 305.65 217.257 307.388C217.776 309.034 218.935 310.07 220.444 310.23C220.483 310.235 220.511 310.27 220.506 310.31C220.503 310.347 220.472 310.374 220.436 310.374H220.439Z" fill="#1A2E35"/>
<path d="M241.481 322.619C241.602 323.993 241.761 325.493 241.961 326.929C242.169 328.375 242.364 329.827 242.636 331.258C243.162 334.124 243.847 336.94 244.75 339.624L245.114 340.615L245.281 341.068C245.286 341.095 245.281 341.09 245.24 341.05C245.176 340.967 244.912 340.836 244.837 340.857C244.758 340.868 244.868 340.895 245.042 340.857C245.412 340.785 245.963 340.532 246.497 340.217C247.041 339.905 247.598 339.523 248.15 339.112C249.253 338.293 250.356 337.372 251.418 336.401C252.486 335.437 253.558 334.423 254.585 333.422L256.422 335.037C254.679 337.593 252.786 339.939 250.502 342.136C249.92 342.675 249.312 343.203 248.632 343.705C247.939 344.196 247.203 344.677 246.171 345.029C245.645 345.192 245.022 345.338 244.221 345.24C243.829 345.197 243.385 345.053 242.985 344.837C242.574 344.618 242.225 344.306 241.948 343.985C241.671 343.66 241.476 343.329 241.325 343.014C241.278 342.921 241.263 342.88 241.242 342.835L241.183 342.696L241.063 342.421L240.586 341.317C239.403 338.351 238.543 335.312 237.922 332.25C237.604 330.719 237.324 329.184 237.119 327.636C236.914 326.075 236.729 324.572 236.639 322.928L241.484 322.613L241.481 322.619Z" fill="#FFC3BD"/>
<path d="M239.644 316.926C241.322 317.372 242.266 328.901 242.266 328.901L237.81 331.69C237.81 331.69 235.115 323.174 235.526 319.493C235.824 316.822 238.384 316.592 239.644 316.926Z" fill="#FFC3BD"/>
<path d="M254.528 333.115L257.091 328.901L258.546 333.689C258.546 333.689 256.442 335.984 254.541 335.437L254.528 333.115Z" fill="#FFC3BD"/>
<path d="M260.853 327.508L261.861 331.586L258.549 333.689L257.094 328.901L260.853 327.508Z" fill="#FFC3BD"/>
<path d="M230.117 452.426H234.861L236.878 434.291H230.364L230.117 452.426Z" fill="#FFC3BD"/>
<path d="M200.305 445.762L204.901 447L211.962 430.357L205.598 428.486L200.305 445.762Z" fill="#FFC3BD"/>
<path d="M205.632 446.204L200.723 444.035C200.544 443.955 200.346 444.021 200.249 444.192L198.04 447.985C197.811 448.377 197.996 448.927 198.409 449.103C200.133 449.829 201.001 450.088 203.158 451.043C204.485 451.63 206.368 452.631 208.2 453.442C209.994 454.235 210.902 452.409 210.209 451.902C207.099 449.623 206.989 448.329 206.248 446.81C206.114 446.535 205.894 446.325 205.632 446.207V446.204Z" fill="#1A2E35"/>
<path d="M235.025 451.855H229.694C229.499 451.855 229.342 451.996 229.314 452.191L228.706 456.579C228.642 457.035 229.019 457.465 229.468 457.457C231.328 457.425 232.224 457.31 234.569 457.31C236.011 457.31 238.995 457.465 240.988 457.465C242.982 457.465 243.087 455.415 242.258 455.231C238.538 454.398 237.075 453.251 235.821 452.156C235.595 451.959 235.31 451.852 235.028 451.852L235.025 451.855Z" fill="#1A2E35"/>
<path d="M239.939 316.918C239.939 316.918 242.2 317.745 237.671 346.718H218.394C218.717 338.557 218.728 333.524 214.977 316.777C214.977 316.777 219.015 315.864 223.164 315.656C226.407 315.493 229.065 315.386 231.918 315.656C235.677 316.013 239.942 316.921 239.942 316.921L239.939 316.918Z" fill="#333343"/>
<path d="M224.031 305.399C224.583 308.33 225.134 313.697 223.164 315.653C223.164 315.653 226.181 319.291 231.654 322.421C234.389 317.815 231.916 315.653 231.916 315.653C228.775 314.874 228.855 312.448 229.404 310.174L224.031 305.402V305.399Z" fill="#FFC3BD"/>
<path opacity="0.2" d="M226.22 307.348L229.401 310.171C229.27 310.71 229.168 311.258 229.132 311.789C227.931 311.607 226.284 310.238 226.156 308.93C226.091 308.279 226.117 307.652 226.22 307.348Z" fill="black"/>
<path d="M221.06 300.027C222.163 304.791 222.535 306.832 225.294 308.871C229.445 311.941 234.828 309.488 235.113 304.479C235.369 299.968 233.522 292.936 228.662 291.855C223.875 290.79 219.954 295.263 221.06 300.027Z" fill="#FFC3BD"/>
<path d="M237.671 346.716C237.671 346.716 241.414 384.749 241.104 399.804C240.781 415.465 237.756 434.833 237.756 434.833H229.507C229.507 434.833 229.861 416.381 229.294 401C228.675 384.232 223.554 346.716 223.554 346.716H237.671Z" fill="#1A58BF"/>
<path d="M228.798 435.695H238.13L238.815 433.197L228.365 432.89L228.798 435.695Z" fill="#1A2E35"/>
<path opacity="0.2" d="M229.355 356.179C234.089 366.086 230.307 384.162 228.632 390.885C227.772 380.786 226.325 368.44 225.196 359.377C225.914 354.247 227.172 351.613 229.355 356.179Z" fill="black"/>
<path d="M232.58 346.716C232.58 346.716 228.213 386.255 224.916 398.95C221.001 414.021 212.996 430.661 212.996 430.661L204.719 428.225C204.719 428.225 209.373 407.912 212.367 399.973C218.756 383.028 213.288 357.773 218.394 346.716H232.58Z" fill="#1A58BF"/>
<path d="M204.208 429.538L212.813 432.023L214.361 429.725L204.816 426.418L204.208 429.538Z" fill="#1A2E35"/>
<path d="M228.796 300.123C228.862 300.515 229.116 300.796 229.363 300.75C229.609 300.705 229.755 300.35 229.689 299.958C229.622 299.565 229.368 299.285 229.122 299.331C228.875 299.376 228.729 299.731 228.796 300.123Z" fill="#1A2E35"/>
<path d="M233.058 299.338C233.124 299.731 233.378 300.011 233.625 299.966C233.871 299.92 234.017 299.565 233.951 299.173C233.884 298.781 233.63 298.5 233.383 298.546C233.137 298.591 232.991 298.946 233.058 299.338Z" fill="#1A2E35"/>
<path d="M233.276 298.586L234.135 298.148C234.135 298.148 233.796 298.97 233.276 298.586Z" fill="#1A2E35"/>
<path d="M231.849 300.174C231.849 300.174 232.775 301.743 233.62 302.429C233.204 303.003 232.321 302.939 232.321 302.939L231.849 300.174Z" fill="#FF847F"/>
<path d="M230.325 304.788C230.528 304.788 230.741 304.77 230.966 304.73C231.028 304.719 231.069 304.657 231.056 304.593C231.046 304.529 230.989 304.487 230.925 304.5C229.273 304.807 228.293 303.745 228.283 303.734C228.239 303.686 228.17 303.683 228.123 303.729C228.077 303.774 228.075 303.846 228.118 303.894C228.157 303.937 228.945 304.791 230.322 304.791L230.325 304.788Z" fill="#1A2E35"/>
<path d="M226.574 290.926C229.524 291.724 231.213 292.151 232.175 293.037C234.954 295.594 224.698 295.93 225.006 296.338C226.512 302.148 222.761 306.531 220.58 301.703C218.397 296.875 216.86 294.542 220.395 292.527C223.931 290.512 226.574 290.929 226.574 290.929V290.926Z" fill="#1A2E35"/>
<path d="M220.865 303.617C221.234 304.556 221.986 305.234 222.73 305.546C223.852 306.016 224.542 305.007 224.342 303.835C224.162 302.781 223.361 301.268 222.184 301.297C221.024 301.327 220.444 302.544 220.865 303.619V303.617Z" fill="#FFC3BD"/>
<path d="M227.143 297.5C227.202 297.5 227.261 297.476 227.308 297.428C227.998 296.672 228.814 296.816 228.821 296.819C228.942 296.84 229.06 296.758 229.083 296.632C229.106 296.504 229.024 296.384 228.904 296.36C228.86 296.352 227.839 296.168 226.982 297.107C226.897 297.201 226.9 297.35 226.989 297.438C227.033 297.481 227.09 297.502 227.143 297.502V297.5Z" fill="#1A2E35"/>
<path d="M234.12 296.899C234.176 296.899 234.233 296.878 234.276 296.835C234.366 296.747 234.369 296.597 234.284 296.504C233.424 295.57 232.403 295.754 232.36 295.765C232.236 295.789 232.157 295.912 232.18 296.037C232.203 296.162 232.321 296.248 232.442 296.224C232.483 296.216 233.276 296.082 233.961 296.827C234.004 296.875 234.063 296.899 234.122 296.899H234.12Z" fill="#1A2E35"/>
<path d="M217.386 323.961C216.429 326.561 215.51 329.296 214.699 331.984C213.912 334.687 213.198 337.417 212.811 340.084C212.752 340.42 212.721 340.746 212.688 341.074L212.636 341.565L212.613 341.773C212.611 341.757 212.606 341.754 212.603 341.76C212.567 341.824 212.726 342.349 212.993 342.827C213.542 343.831 214.389 344.904 215.269 345.928C217.047 347.994 219.092 349.974 221.111 351.901L219.716 353.938C217.209 352.422 214.879 350.724 212.636 348.717C211.526 347.69 210.443 346.62 209.463 345.17C208.991 344.421 208.47 343.62 208.267 342.227C208.246 342.051 208.234 341.864 208.236 341.666C208.236 341.546 208.239 341.541 208.241 341.477L208.249 341.327L208.275 340.727C208.293 340.327 208.308 339.924 208.354 339.539C208.639 336.409 209.298 333.457 210.081 330.564C210.866 327.66 211.78 324.874 212.893 322.05L217.386 323.961Z" fill="#FFC3BD"/>
<path d="M214.997 316.774C213.106 317.577 210.738 328.343 210.738 328.343L214.761 331.773C214.761 331.773 218.545 323.748 218.715 320.046C218.843 317.262 216.67 316.061 214.997 316.771V316.774Z" fill="#FFC3BD"/>
<path d="M207.797 447.76C207.964 447.675 208.08 447.52 208.136 447.293C208.185 447.101 208.118 446.973 208.054 446.901C207.643 446.437 205.953 446.741 205.76 446.778C205.717 446.786 205.681 446.821 205.67 446.866C205.66 446.912 205.678 446.96 205.714 446.986C206.222 447.376 207.161 447.998 207.731 447.79C207.754 447.782 207.774 447.771 207.797 447.76ZM206.071 446.96C206.751 446.858 207.672 446.813 207.89 447.056C207.918 447.085 207.946 447.133 207.921 447.229C207.874 447.408 207.787 447.518 207.659 447.566C207.351 447.678 206.769 447.451 206.073 446.957L206.071 446.96Z" fill="#1A58BF"/>
<path d="M206.55 446.744C207.043 446.495 207.548 446.114 207.618 445.762C207.638 445.655 207.638 445.455 207.392 445.308C207.235 445.214 207.069 445.198 206.894 445.257C206.242 445.484 205.701 446.792 205.678 446.845C205.663 446.882 205.668 446.928 205.691 446.96C205.714 446.992 205.755 447.011 205.793 447.005C205.983 446.984 206.263 446.885 206.548 446.741L206.55 446.744ZM206.902 445.508C206.925 445.497 206.945 445.487 206.969 445.479C207.079 445.441 207.182 445.449 207.282 445.508C207.407 445.583 207.41 445.657 207.4 445.711C207.333 446.05 206.535 446.568 205.981 446.728C206.171 446.327 206.535 445.689 206.902 445.503V445.508Z" fill="#1A58BF"/>
<path d="M236.806 452.716C237.278 452.716 237.714 452.642 237.958 452.412C238.112 452.268 238.181 452.076 238.161 451.844C238.148 451.705 238.084 451.596 237.971 451.531C237.389 451.201 235.498 452.204 235.285 452.321C235.241 452.345 235.218 452.393 235.226 452.442C235.233 452.49 235.269 452.53 235.315 452.54C235.718 452.623 236.288 452.716 236.809 452.716H236.806ZM237.653 451.694C237.74 451.694 237.812 451.708 237.863 451.737C237.909 451.764 237.932 451.804 237.938 451.862C237.95 452.02 237.909 452.143 237.807 452.236C237.519 452.506 236.737 452.554 235.685 452.369C236.337 452.044 237.201 451.692 237.65 451.692L237.653 451.694Z" fill="#1A58BF"/>
<path d="M235.336 452.543C235.351 452.543 235.367 452.541 235.382 452.533C235.947 452.266 237.068 451.201 236.978 450.643C236.957 450.51 236.868 450.347 236.555 450.312C236.324 450.291 236.113 450.355 235.931 450.515C235.336 451.033 235.226 452.362 235.22 452.418C235.218 452.458 235.236 452.498 235.267 452.522C235.287 452.535 235.308 452.543 235.331 452.543H235.336ZM236.467 450.542C236.491 450.542 236.511 450.542 236.534 450.544C236.739 450.566 236.752 450.651 236.757 450.68C236.811 451.017 236.049 451.855 235.474 452.218C235.528 451.831 235.687 451.033 236.08 450.694C236.198 450.592 236.326 450.542 236.467 450.542Z" fill="#1A58BF"/>
<path d="M218.104 345.541L217.612 347.337C217.545 347.476 217.704 347.618 217.925 347.618H237.766C237.94 347.618 238.084 347.53 238.094 347.415L238.269 345.619C238.282 345.493 238.13 345.389 237.94 345.389H218.42C218.276 345.389 218.15 345.451 218.107 345.539L218.104 345.541Z" fill="#1A58BF"/>
<path opacity="0.8" d="M218.104 345.541L217.612 347.337C217.545 347.476 217.704 347.618 217.925 347.618H237.766C237.94 347.618 238.084 347.53 238.094 347.415L238.269 345.619C238.282 345.493 238.13 345.389 237.94 345.389H218.42C218.276 345.389 218.15 345.451 218.107 345.539L218.104 345.541Z" fill="white"/>
<path d="M220.726 347.81H220.203C220.098 347.81 220.018 347.754 220.026 347.687L220.272 345.355C220.28 345.285 220.37 345.232 220.475 345.232H220.998C221.104 345.232 221.181 345.288 221.175 345.355L220.929 347.687C220.921 347.757 220.832 347.81 220.726 347.81Z" fill="#1A58BF"/>
<path d="M236.298 347.81H235.775C235.67 347.81 235.59 347.754 235.598 347.687L235.844 345.355C235.852 345.285 235.941 345.232 236.047 345.232H236.57C236.675 345.232 236.755 345.288 236.747 345.355L236.501 347.687C236.493 347.757 236.403 347.81 236.298 347.81Z" fill="#1A58BF"/>
<path d="M228.511 347.81H227.988C227.882 347.81 227.805 347.754 227.811 347.687L228.057 345.355C228.065 345.285 228.154 345.232 228.26 345.232H228.783C228.888 345.232 228.965 345.288 228.96 345.355L228.714 347.687C228.706 347.757 228.616 347.81 228.511 347.81Z" fill="#1A58BF"/>
<path d="M219.449 381.055L242.99 381.456L239.056 346.718L240.147 331.103L237.473 328.303C237.75 318.519 236.39 316.122 236.39 316.122L234.499 315.81C236.136 318.351 235.882 325.378 235.595 327.775C231.687 327.054 226.12 327.775 226.12 327.775C225.83 320.678 221.558 315.487 221.558 315.487C221.558 315.487 221.083 315.567 219.885 315.784C223.667 320.291 224.426 328.268 224.426 328.268L220.413 332.074L220.96 335.762C220.572 335.877 219.561 336.115 218.143 335.928L218.25 337.543C218.25 337.543 219.833 337.951 221.183 337.265L222.551 346.505L219.449 381.055Z" fill="white"/>
<path d="M220.59 351.477L225.699 351.933L222.284 355.483C222.284 355.483 219.356 354.6 218.948 352.59L220.59 351.477Z" fill="#FFC3BD"/>
<path d="M228.621 354.762L225.607 357.572L221.56 355.2L225.699 351.933L228.621 354.762Z" fill="#FFC3BD"/>
<path d="M229.016 299.373L229.876 298.936C229.876 298.936 229.537 299.758 229.016 299.373Z" fill="#1A2E35"/>
<path d="M192.823 355.16H282.488C284.707 355.16 286.508 357.033 286.508 359.342V457.873H192.823V355.16Z" fill="#C7E2FF"/>
<path d="M214.746 355.16H192.823V457.873H214.746V355.16Z" fill="#A6D1FF"/>
<path opacity="0.3" d="M286.511 358.319H192.823V361.479H286.511V358.319Z" fill="black"/>
<path d="M284.122 355.16H192.823V359.432H288.232C288.232 357.073 286.393 355.16 284.125 355.16H284.122Z" fill="#1A2E35"/>
<path d="M259.765 340.889H245.966C238.389 340.889 232.247 347.278 232.247 355.159H259.762V340.889H259.765Z" fill="#1A58BF"/>
<path opacity="0.5" d="M259.765 340.889H245.966C238.389 340.889 232.247 347.278 232.247 355.159H259.762V340.889H259.765Z" fill="white"/>
<path d="M259.765 340.889H275.29C275.578 340.889 275.814 341.132 275.814 341.434V355.159H259.765V340.889Z" fill="#1A58BF"/>
<path opacity="0.7" d="M259.765 340.889H275.29C275.578 340.889 275.814 341.132 275.814 341.434V355.159H259.765V340.889Z" fill="white"/>
<path d="M255.665 338.973H272.794C273.813 338.973 274.639 339.832 274.639 340.892H253.823C253.823 339.832 254.649 338.973 255.667 338.973H255.665Z" fill="#1A58BF"/>
<path opacity="0.3" d="M255.667 338.973C255.159 338.973 254.7 339.187 254.367 339.531C254.028 339.883 253.825 340.361 253.825 340.889H259.467C259.467 340.361 259.678 339.883 260.009 339.531C260.34 339.187 260.807 338.973 261.315 338.973H255.665H255.667Z" fill="black"/>
<path d="M269.064 327.473L274.836 335.154C275.061 335.454 275.477 335.507 275.765 335.273L279.372 332.341C279.66 332.107 279.711 331.674 279.485 331.374L273.714 323.693C273.489 323.393 273.073 323.34 272.784 323.574L269.178 326.506C268.89 326.74 268.839 327.173 269.064 327.473Z" fill="#1A58BF"/>
<path d="M271.065 324.974L277.652 333.741L278.863 332.756L272.275 323.99L271.065 324.974Z" fill="#1A2E35"/>
<path d="M270.004 327.252L272.086 330.023L273.297 329.039L271.215 326.268L270.004 327.252Z" fill="white"/>
<path d="M330.609 319.958C330.747 320.171 330.819 320.289 330.909 320.443L331.155 320.873C331.317 321.159 331.456 321.442 331.597 321.727C331.874 322.296 332.136 322.867 332.369 323.441C332.844 324.591 333.231 325.768 333.567 326.95C334.25 329.315 334.665 331.738 334.878 334.164L334.922 334.618C334.93 334.682 334.935 334.786 334.94 334.893L334.953 335.202C334.96 335.61 334.94 336.016 334.886 336.398C334.781 337.169 334.583 337.882 334.337 338.541C333.839 339.854 333.157 340.967 332.423 341.981C330.922 344.001 329.218 345.619 327.273 347.052L325.749 345.194C327.117 343.55 328.441 341.727 329.423 339.905C329.924 338.997 330.306 338.06 330.545 337.188C330.658 336.75 330.717 336.331 330.727 335.955C330.74 335.763 330.727 335.586 330.709 335.421L330.691 335.298C330.686 335.261 330.683 335.218 330.668 335.141L330.599 334.735C330.237 332.576 329.742 330.452 329.095 328.402C328.777 327.374 328.384 326.382 327.984 325.405C327.787 324.914 327.568 324.441 327.345 323.977L327.001 323.302L326.832 322.982L326.691 322.731L330.606 319.955L330.609 319.958Z" fill="#FF8B7B"/>
<path d="M325.444 347.092L327.448 351.493L329.036 347.773C329.036 347.773 327.628 344.549 325.724 344.845L325.444 347.095V347.092Z" fill="#FF8B7B"/>
<path d="M330.627 351.49L332.218 348.779L329.036 347.77L327.448 351.49H330.627Z" fill="#FF8B7B"/>
<path d="M319.879 453.237C320.307 453.237 320.774 453.144 321.103 453.064C321.146 453.053 321.177 453.018 321.185 452.973C321.193 452.928 321.175 452.882 321.136 452.858C320.977 452.749 319.571 451.804 319.03 452.058C318.945 452.098 318.837 452.186 318.811 452.378C318.778 452.634 318.837 452.837 318.994 452.984C319.191 453.171 319.52 453.235 319.876 453.235L319.879 453.237ZM320.792 452.901C319.987 453.069 319.379 453.04 319.145 452.818C319.045 452.725 319.009 452.591 319.032 452.413C319.045 452.317 319.089 452.285 319.125 452.269C319.409 452.132 320.22 452.543 320.795 452.904L320.792 452.901Z" fill="#1A58BF"/>
<path d="M321.077 453.066C321.095 453.066 321.116 453.061 321.134 453.05C321.167 453.029 321.187 452.991 321.187 452.951C321.187 452.893 321.182 451.505 320.677 451.041C320.543 450.918 320.387 450.864 320.212 450.888C319.938 450.923 319.863 451.102 319.843 451.206C319.738 451.75 320.582 452.789 321.023 453.05C321.041 453.061 321.059 453.066 321.077 453.066ZM320.289 451.113C320.379 451.113 320.459 451.145 320.533 451.211C320.833 451.489 320.936 452.268 320.962 452.73C320.52 452.364 319.994 451.582 320.058 451.251C320.069 451.198 320.1 451.131 320.238 451.115C320.256 451.115 320.271 451.113 320.287 451.113H320.289Z" fill="#1A58BF"/>
<path d="M291.029 451.105C291.068 451.105 291.103 451.083 291.124 451.048C291.147 451.006 291.144 450.955 291.114 450.918C290.965 450.734 289.677 449.156 289.017 449.156C289.002 449.156 288.989 449.156 288.974 449.156C288.848 449.17 288.751 449.242 288.689 449.362C288.586 449.565 288.579 449.765 288.668 449.954C288.958 450.587 290.259 450.944 291.008 451.099C291.016 451.099 291.024 451.099 291.029 451.099V451.105ZM289.023 449.386C289.387 449.386 290.182 450.17 290.731 450.808C289.718 450.563 289.03 450.216 288.866 449.861C288.81 449.735 288.815 449.61 288.884 449.474C288.91 449.42 288.946 449.394 288.997 449.388C289.005 449.388 289.015 449.388 289.023 449.388V449.386Z" fill="#1A58BF"/>
<path d="M291.029 451.105C291.029 451.105 291.044 451.105 291.052 451.102C291.091 451.094 291.121 451.065 291.132 451.025C291.147 450.971 291.527 449.73 291.175 449.034C291.067 448.82 290.903 448.676 290.685 448.61C290.393 448.516 290.252 448.631 290.185 448.743C289.905 449.213 290.531 450.609 290.944 451.07C290.965 451.094 290.996 451.105 291.024 451.105H291.029ZM290.495 448.804C290.529 448.804 290.572 448.81 290.626 448.828C290.785 448.879 290.903 448.981 290.983 449.141C291.214 449.6 291.07 450.379 290.98 450.75C290.59 450.198 290.208 449.146 290.375 448.863C290.385 448.847 290.411 448.804 290.493 448.804H290.495Z" fill="#1A58BF"/>
<path d="M320.744 303.099C320.205 305.96 318.994 312.2 320.918 314.108C320.918 314.108 320.166 317.009 315.058 317.009C309.439 317.009 312.371 314.108 312.371 314.108C315.438 313.347 315.358 310.98 314.824 308.757L320.744 303.099Z" fill="#FF8B7B"/>
<path d="M311.381 296.352C311.414 296.352 311.448 296.344 311.478 296.328C311.586 296.272 311.63 296.133 311.576 296.021C311.032 294.892 310.026 294.762 309.983 294.756C309.862 294.74 309.754 294.831 309.739 294.956C309.726 295.082 309.811 295.194 309.931 295.21C309.965 295.215 310.747 295.325 311.181 296.227C311.219 296.307 311.296 296.352 311.378 296.352H311.381Z" fill="#1A2E35"/>
<path d="M309.706 298.853C309.706 298.853 308.879 300.433 308.089 301.145C308.523 301.684 309.38 301.575 309.38 301.575L309.703 298.853H309.706Z" fill="#FF5551"/>
<path d="M310.116 298.231C310.07 298.618 309.836 298.904 309.593 298.874C309.349 298.842 309.19 298.506 309.236 298.119C309.282 297.732 309.516 297.446 309.759 297.476C310.003 297.508 310.162 297.844 310.116 298.231Z" fill="#1A2E35"/>
<path d="M309.865 297.513L309.005 297.131C309.005 297.131 309.377 297.913 309.865 297.513Z" fill="#1A2E35"/>
<path d="M295.94 452.917L291.424 451.831L293.541 440.883L298.057 441.97L295.94 452.917Z" fill="#FF8B7B"/>
<path d="M326.465 452.952H321.832L322.196 441.791H326.83L326.465 452.952Z" fill="#FF8B7B"/>
<path d="M321.464 452.394H326.67C326.86 452.394 327.014 452.53 327.04 452.722L327.633 457.006C327.694 457.451 327.327 457.87 326.888 457.862C325.074 457.83 324.2 457.718 321.908 457.718C320.5 457.718 318.442 457.87 316.497 457.87C314.552 457.87 314.447 455.869 315.258 455.687C318.888 454.876 319.463 453.755 320.687 452.685C320.908 452.493 321.185 452.389 321.462 452.389L321.464 452.394Z" fill="#1A2E35"/>
<path d="M291.514 450.598L296.322 452.674C296.497 452.749 296.589 452.938 296.543 453.125L295.512 457.318C295.404 457.753 294.911 457.996 294.508 457.814C292.843 457.062 292.076 456.611 289.962 455.695C288.661 455.135 285.913 454.113 284.117 453.336C282.359 452.578 282.962 450.672 283.776 450.827C287.429 451.524 289.161 451.059 290.685 450.56C290.96 450.47 291.255 450.486 291.509 450.595L291.514 450.598Z" fill="#1A2E35"/>
<path opacity="0.2" d="M293.541 440.886L292.407 446.752L296.966 447.617L298.059 441.972L293.541 440.886Z" fill="black"/>
<path opacity="0.2" d="M326.83 441.793H322.193L322.009 447.547H326.645L326.83 441.793Z" fill="black"/>
<path d="M328.911 315.202C330.835 315.64 332.893 322.845 332.893 322.845L327.448 328.866C327.448 328.866 322.932 322.101 323.851 319.613C324.808 317.022 326.635 314.684 328.908 315.205L328.911 315.202Z" fill="#1A58BF"/>
<path opacity="0.4" d="M325.86 319.787C324.887 318.861 324.228 319.136 323.779 319.873C323.335 322.013 325.96 326.497 327.014 328.194C327.502 326.168 328.061 321.893 325.857 319.787H325.86Z" fill="black"/>
<path d="M304.538 315.344C304.538 315.344 302.331 316.152 306.752 344.437H325.575C325.259 336.467 325.249 331.554 328.91 315.202C328.91 315.202 324.967 314.311 320.918 314.108C317.752 313.95 315.155 313.844 312.371 314.108C308.7 314.457 304.538 315.344 304.538 315.344Z" fill="#1A58BF"/>
<path d="M309.86 313.507C310.601 313.112 316.448 311.893 320.808 312.085C323.297 312.194 324.728 312.525 325.806 313.166C326.886 313.809 325.439 317.249 324.649 317.687C325.123 318.976 323.42 320.686 322.429 321.506C322.129 322.739 318.024 323.991 315.263 321.442C313.144 319.483 307.74 314.639 309.86 313.507Z" fill="#333343"/>
<path opacity="0.4" d="M304.371 326.198C304.492 327.572 304.654 329.12 304.864 330.871C306.406 329.427 307.666 325.319 307.204 322.923C306.126 323.758 305.128 325.047 304.371 326.198Z" fill="black"/>
<path d="M306.38 321.912C305.339 324.647 304.189 327.249 302.893 329.846C302.254 331.143 301.575 332.429 300.833 333.695C300.102 334.965 299.296 336.217 298.347 337.444L297.988 337.903L297.895 338.018L297.744 338.192C297.644 338.309 297.533 338.416 297.418 338.522C296.961 338.947 296.42 339.278 295.878 339.481C294.783 339.886 293.777 339.868 292.907 339.758C291.163 339.513 289.777 338.861 288.451 338.186C285.844 336.748 283.588 335.045 281.464 333.057L282.89 331.119C284.012 331.808 285.195 332.499 286.367 333.115C287.537 333.745 288.73 334.316 289.916 334.765C291.083 335.226 292.299 335.568 293.282 335.608C293.767 335.629 294.165 335.544 294.347 335.432C294.444 335.381 294.49 335.331 294.537 335.269L294.916 334.714C296.317 332.624 297.536 330.132 298.703 327.66C299.85 325.173 300.948 322.592 301.985 320.073L306.38 321.912Z" fill="#FF8B7B"/>
<path d="M304.538 315.343C302.234 315.928 299.401 322.506 299.401 322.506L304.181 329.811C304.181 329.811 310.547 321.476 309.79 318.93C309.003 316.277 307.332 314.636 304.538 315.343Z" fill="#1A58BF"/>
<path d="M282.506 333.438L278.113 333.491L279.368 329.558C279.368 329.558 282.811 330.043 283.899 331.695L282.506 333.438Z" fill="#FF8B7B"/>
<path d="M274.836 332.982L275.678 329.555H279.368L278.113 333.489L274.836 332.982Z" fill="#FF8B7B"/>
<path d="M322.747 298.514C321.903 303.216 321.644 305.226 319.053 307.364C315.155 310.577 309.788 308.471 309.262 303.6C308.789 299.216 310.249 292.263 314.932 290.95C319.548 289.658 323.589 293.811 322.745 298.514H322.747Z" fill="#FF8B7B"/>
<path d="M312.951 298.402C312.061 299.584 305.77 307.129 309.377 310.054C320.649 309.144 323.858 313.203 326.989 307.417C330.116 301.631 330.596 291.655 321.898 289.96C313.2 288.265 308.435 290.377 312.954 298.402H312.951Z" fill="#1A2E35"/>
<path d="M311.217 298.188C310.562 298.903 310.273 299.867 310.288 300.678C310.314 301.901 311.422 302.141 312.335 301.49C313.156 300.905 314.134 299.563 313.667 298.487C313.208 297.425 311.966 297.374 311.214 298.188H311.217Z" fill="#FF8B7B"/>
<path d="M311.722 344.437C311.722 344.437 314.411 377.522 317.203 396.169C319.455 411.23 321.234 446.434 321.234 446.434H327.553C327.553 446.434 329.801 412.284 328.656 397.386C325.762 359.694 332.218 356.622 325.572 344.439H311.722V344.437Z" fill="#333343"/>
<path opacity="0.4" d="M316.98 355.48C315.32 357.965 314.214 360.954 313.488 364.01C314.024 369.593 314.655 375.766 315.34 381.707C317.1 376.759 319.025 366.732 316.977 355.483L316.98 355.48Z" fill="black"/>
<path d="M306.752 344.437C306.752 344.437 301.528 381.558 299.694 396.135C297.785 411.299 292.204 445.298 292.204 445.298L298.398 446.282C298.398 446.282 308.959 413.989 310.922 399.1C313.062 382.868 321.136 344.434 321.136 344.434H306.75L306.752 344.437Z" fill="#333343"/>
<path d="M291.293 445.327L299.229 446.728L300.13 443.613L291.637 442.103L291.293 445.327Z" fill="#1A58BF"/>
<path d="M320.369 446.562H328.418L328.841 443.624L320.323 443.325L320.369 446.562Z" fill="#1A58BF"/>
<path d="M325.855 343.286L326.704 345.04C326.771 345.176 326.614 345.315 326.399 345.315H306.66C306.491 345.315 306.35 345.229 306.339 345.117L306.17 343.364C306.157 343.241 306.306 343.14 306.491 343.14H325.549C325.69 343.14 325.814 343.198 325.855 343.286Z" fill="#ECECEC"/>
<path d="M323.297 345.504H323.807C323.91 345.504 323.987 345.451 323.979 345.384L323.74 343.107C323.733 343.041 323.646 342.987 323.543 342.987H323.032C322.93 342.987 322.853 343.041 322.86 343.107L323.099 345.384C323.107 345.451 323.194 345.504 323.297 345.504Z" fill="#1A2E35"/>
<path d="M310.922 345.504H311.432C311.535 345.504 311.612 345.451 311.604 345.384L311.365 343.107C311.358 343.041 311.271 342.987 311.168 342.987H310.657C310.555 342.987 310.478 343.041 310.485 343.107L310.724 345.384C310.732 345.451 310.819 345.504 310.922 345.504Z" fill="#1A2E35"/>
<path d="M256.966 327.393L263.254 316.44C263.537 315.947 264.081 315.685 264.625 315.778L269.733 316.659C270.664 316.819 271.149 317.906 270.664 318.749L264.463 329.512C264.188 329.987 263.67 330.249 263.144 330.18L257.948 329.488C256.991 329.36 256.473 328.255 256.968 327.393H256.966Z" fill="#1A2E35"/>
<path d="M261.861 331.637L263.062 330.049C263.714 329.187 263.598 327.943 262.8 327.225C261.977 326.486 260.737 326.579 260.022 327.431L257.984 329.862L261.859 331.637H261.861Z" fill="#FFC3BD"/>
<path d="M284.45 236.839L285.543 237.933C284.702 238.974 283.411 239.535 281.897 239.535C279.568 239.535 277.723 238.123 277.158 236.028H275.657V235.07H276.987C276.974 234.92 276.974 234.768 276.974 234.605C276.974 234.443 276.974 234.29 276.987 234.138H275.657V233.18H277.158C277.725 231.085 279.568 229.673 281.897 229.673C283.411 229.673 284.702 230.234 285.543 231.275L284.45 232.356C283.778 231.603 282.949 231.232 281.987 231.232C280.579 231.232 279.46 231.985 278.96 233.178H282.739V234.136H278.711C278.698 234.285 278.685 234.437 278.685 234.603C278.685 234.768 278.698 234.918 278.711 235.067H282.739V236.025H278.96C279.46 237.215 280.579 237.971 281.987 237.971C282.949 237.971 283.778 237.6 284.45 236.834V236.839Z" fill="#1A58BF"/>
<path d="M342.188 499.461H174.814C171.575 499.461 168.949 502.193 168.949 505.562V530.577C168.949 533.947 171.575 536.678 174.814 536.678H342.188C345.428 536.678 348.054 533.947 348.054 530.577V505.562C348.054 502.193 345.428 499.461 342.188 499.461Z" fill="#1A58BF"/>
<path d="M233.163 513.408H233.979V520.707H238.305V521.441H233.163V513.408Z" fill="white"/>
<path d="M238.823 518.426C238.823 516.635 240.08 515.362 241.779 515.362C243.477 515.362 244.724 516.635 244.724 518.426C244.724 520.216 243.477 521.5 241.779 521.5C240.08 521.5 238.823 520.214 238.823 518.426ZM243.931 518.426C243.931 517.014 243.015 516.072 241.781 516.072C240.547 516.072 239.618 517.014 239.618 518.426C239.618 519.837 240.545 520.777 241.781 520.777C243.018 520.777 243.931 519.835 243.931 518.426Z" fill="white"/>
<path d="M245.52 520.753L245.874 520.11C246.338 520.489 247.121 520.788 247.937 520.788C249.04 520.788 249.492 520.398 249.492 519.8C249.492 518.228 245.73 519.467 245.73 517.081C245.73 516.093 246.546 515.359 248.024 515.359C248.773 515.359 249.592 515.578 250.077 515.923L249.735 516.576C249.227 516.208 248.622 516.059 248.024 516.059C246.977 516.059 246.513 516.483 246.513 517.057C246.513 518.687 250.274 517.457 250.274 519.776C250.274 520.82 249.392 521.498 247.88 521.498C246.921 521.498 245.994 521.177 245.52 520.753Z" fill="white"/>
<path d="M259.983 515.407V520.71C259.983 522.787 259 523.729 257.081 523.729C256.021 523.729 254.985 523.395 254.379 522.8L254.777 522.181C255.329 522.696 256.168 523.008 257.061 523.008C258.528 523.008 259.2 522.309 259.2 520.817V520.048C258.716 520.817 257.887 521.22 256.94 521.22C255.285 521.22 254.028 520.016 254.028 518.282C254.028 516.547 255.285 515.367 256.94 515.367C257.91 515.367 258.749 515.781 259.234 516.574V515.415H259.983V515.407ZM259.221 518.276C259.221 516.968 258.295 516.072 257.014 516.072C255.734 516.072 254.818 516.966 254.818 518.276C254.818 519.587 255.734 520.491 257.014 520.491C258.295 520.491 259.221 519.584 259.221 518.276Z" fill="white"/>
<path d="M267.231 518.677H262.377C262.464 519.939 263.393 520.777 264.66 520.777C265.366 520.777 265.995 520.513 266.436 519.984L266.877 520.513C266.359 521.156 265.553 521.5 264.637 521.5C262.829 521.5 261.592 520.214 261.592 518.426C261.592 516.638 262.795 515.362 264.427 515.362C266.059 515.362 267.239 516.614 267.239 518.426C267.239 518.495 267.229 518.586 267.229 518.679L267.231 518.677ZM262.377 518.068H266.492C266.392 516.886 265.566 516.058 264.43 516.058C263.293 516.058 262.477 516.886 262.377 518.068Z" fill="white"/>
<path d="M274.182 517.943V521.444H273.399V518.026C273.399 516.752 272.761 516.099 271.657 516.099C270.41 516.099 269.628 516.902 269.628 518.279V521.447H268.845V512.931H269.628V516.464C270.059 515.765 270.818 515.362 271.801 515.362C273.212 515.362 274.185 516.211 274.185 517.943H274.182Z" fill="white"/>
<path d="M279.368 521.076C279.06 521.364 278.595 521.5 278.144 521.5C277.051 521.5 276.445 520.857 276.445 519.744V516.096H275.409V515.407H276.445V514.086H277.228V515.407H278.993V516.096H277.228V519.699C277.228 520.412 277.582 520.801 278.231 520.801C278.552 520.801 278.87 520.697 279.091 520.492L279.368 521.076Z" fill="white"/>
<path d="M279.986 520.753L280.34 520.11C280.804 520.489 281.587 520.788 282.403 520.788C283.506 520.788 283.958 520.398 283.958 519.8C283.958 518.228 280.196 519.467 280.196 517.081C280.196 516.093 281.012 515.359 282.49 515.359C283.239 515.359 284.058 515.578 284.543 515.923L284.201 516.576C283.693 516.208 283.088 516.059 282.49 516.059C281.443 516.059 280.979 516.483 280.979 517.057C280.979 518.687 284.74 517.457 284.74 519.776C284.74 520.82 283.858 521.498 282.346 521.498C281.387 521.498 280.461 521.177 279.986 520.753Z" fill="white"/>
</g>
<circle cx="564.516" cy="40.4812" r="40.4812" fill="#E5F2FF"/>
<circle cx="564.516" cy="40.4812" r="40.4812" fill="#E5F2FF"/>
<circle cx="564.516" cy="40.4813" r="35.4833" fill="#E5F2FF" stroke="white"/>
<path d="M575.107 54.3941C573.237 55.4736 571.3 56.1071 569.296 56.2945C567.277 56.456 565.301 56.2119 563.368 55.5622C561.42 54.8865 559.596 53.8271 557.897 52.3841C556.184 50.9152 554.697 49.09 553.438 46.9087C552.178 44.7273 551.335 42.5478 550.909 40.3701C550.509 38.1775 550.503 36.0687 550.892 34.0436C551.281 32.0185 552.058 30.1852 553.222 28.5435C554.412 26.8868 555.955 25.5112 557.851 24.4167C560.422 22.9324 563.071 22.3032 565.798 22.5291C568.537 22.714 570.962 23.7372 573.076 25.5986L569.93 29.596C568.444 28.3418 566.836 27.6255 565.106 27.4473C563.402 27.254 561.758 27.6147 560.173 28.5293C558.589 29.4438 557.418 30.7434 556.659 32.4279C555.912 34.0715 555.633 35.9287 555.825 37.9995C556.016 40.0703 556.727 42.1704 557.956 44.2999C559.186 46.4293 560.644 48.1151 562.33 49.3573C564.002 50.5735 565.744 51.2818 567.556 51.482C569.354 51.6562 571.07 51.2711 572.706 50.3265C574.316 49.3969 575.464 48.1458 576.148 46.5732C576.844 44.9596 577.028 43.2089 576.7 41.3209L581.734 40.5955C582.1 42.4275 582.072 44.2092 581.652 45.9406C581.232 47.672 580.475 49.2691 579.38 50.7319C578.271 52.1688 576.846 53.3895 575.107 54.3941ZM552.646 53.183L550.914 50.1836L568.287 40.1533L570.019 43.1527L552.646 53.183ZM549.34 47.4569L547.585 44.4186L564.958 34.3882L566.713 37.4266L549.34 47.4569Z" fill="white"/>
<circle cx="460.687" cy="81.6872" r="28.8087" transform="rotate(-6.05599 460.687 81.6872)" fill="#E5F2FF"/>
<circle cx="460.687" cy="81.6872" r="28.8087" transform="rotate(-6.05599 460.687 81.6872)" fill="#E5F2FF"/>
<circle cx="460.687" cy="81.6875" r="25.1077" transform="rotate(-6.05599 460.687 81.6875)" fill="#E5F2FF" stroke="white"/>
<path d="M462.345 94.0759C460.86 94.2335 459.451 94.1039 458.119 93.6873C456.785 93.2494 455.621 92.5897 454.626 91.7081C453.631 90.8265 452.854 89.7716 452.294 88.5434L455.336 86.8688C456.064 88.2722 457.021 89.308 458.208 89.9761C459.395 90.6442 460.71 90.9017 462.153 90.7486C463.002 90.6585 463.731 90.4524 464.341 90.1302C464.948 89.7868 465.395 89.353 465.683 88.8289C465.992 88.3026 466.113 87.7211 466.045 87.0845C465.953 86.2144 465.636 85.5507 465.094 85.0931C464.552 84.6356 463.787 84.309 462.801 84.1132L458.196 83.1854C456.355 82.8228 454.908 82.1287 453.855 81.103C452.8 80.0562 452.191 78.7688 452.029 77.2409C451.887 75.904 452.092 74.702 452.644 73.6348C453.194 72.5464 454.011 71.655 455.096 70.9604C456.203 70.2637 457.499 69.8365 458.984 69.6789C460.406 69.528 461.727 69.6454 462.949 70.0308C464.167 70.3951 465.237 70.9683 466.157 71.7506C467.098 72.5306 467.82 73.4733 468.324 74.5786L465.35 76.2783C464.75 75.0758 463.915 74.188 462.846 73.6147C461.798 73.0392 460.626 72.8201 459.332 72.9575C458.547 73.0408 457.872 73.2519 457.307 73.5908C456.74 73.9085 456.313 74.34 456.028 74.8853C455.761 75.4071 455.663 75.997 455.733 76.6548C455.814 77.4188 456.13 78.0719 456.681 78.6143C457.232 79.1567 458.022 79.5236 459.051 79.7148L463.327 80.5809C465.277 80.9535 466.786 81.6303 467.856 82.6112C468.924 83.5709 469.542 84.8466 469.711 86.4381C469.85 87.7538 469.624 88.9581 469.032 90.051C468.461 91.1416 467.602 92.0482 466.455 92.7707C465.307 93.472 463.937 93.907 462.345 94.0759ZM461.178 97.0323L457.987 66.952L460.533 66.6819L463.724 96.7622L461.178 97.0323Z" fill="white"/>
<defs>
<clipPath id="clip0_2024_1212">
<rect width="80" height="91" fill="white" transform="translate(373.553 283.305) rotate(-36.5629)"/>
</clipPath>
<clipPath id="clip1_2024_1212">
<rect width="154.58" height="92.45" fill="white" transform="translate(0 59)"/>
</clipPath>
<clipPath id="clip2_2024_1212">
<rect width="273" height="573" fill="white" transform="translate(122 15)"/>
</clipPath>
</defs>
</svg>
