<svg width="685" height="580" viewBox="0 0 685 580" fill="none" xmlns="http://www.w3.org/2000/svg">
<rect y="-0.000976562" width="685" height="580" fill="white"/>
<path d="M228.143 434.224C228.143 433.374 229.025 432.608 230.807 432.255H235.336C237.117 432.608 237.998 433.376 237.998 434.245C237.998 435.114 237.115 435.864 235.336 436.235H230.807C229.025 435.861 228.143 435.114 228.143 434.224Z" fill="#E5F2FF"/>
<path d="M184.415 434.224C184.415 433.374 186.37 432.608 190.324 432.255H200.374C204.324 432.608 206.279 433.376 206.279 434.245C206.279 435.114 204.324 435.864 200.374 436.235H190.324C186.37 435.861 184.415 435.114 184.415 434.224Z" fill="#E5F2FF"/>
<path d="M140.689 434.224C140.689 433.374 142.644 432.608 146.599 432.255H156.648C160.598 432.608 162.553 433.376 162.553 434.245C162.553 435.114 160.598 435.864 156.648 436.235H146.599C142.644 435.861 140.689 435.114 140.689 434.224Z" fill="#E5F2FF"/>
<path d="M108.989 424.381C109.839 424.381 110.604 426.145 110.956 429.714V432.255H113.498C117.058 432.608 118.823 433.376 118.823 434.245C118.823 435.115 117.06 435.864 113.498 436.235H106.978V429.714C107.351 426.145 108.097 424.381 108.987 424.381H108.989Z" fill="#E5F2FF"/>
<path d="M108.989 383.866C109.839 383.866 110.604 385.677 110.956 389.342V398.652C110.604 402.312 109.836 404.123 108.968 404.123C108.1 404.123 107.353 402.312 106.98 398.652V389.342C107.353 385.677 108.1 383.866 108.989 383.866Z" fill="#E5F2FF"/>
<path d="M118.825 353.765C118.825 354.615 117.062 355.381 113.498 355.733H110.958V358.278C110.606 361.841 109.839 363.608 108.97 363.608C108.102 363.608 107.356 361.844 106.982 358.278V351.751H113.5C117.065 352.125 118.827 352.872 118.827 353.762L118.825 353.765Z" fill="#E5F2FF"/>
<path d="M146.8 353.765C146.8 354.615 145.55 355.381 143.02 355.734H136.591C134.064 355.381 132.813 354.613 132.813 353.744C132.813 352.874 134.064 352.125 136.591 351.754H143.02C145.55 352.127 146.8 352.874 146.8 353.765Z" fill="#E5F2FF"/>
<path d="M170.622 363.608C169.772 363.608 169.007 361.844 168.655 358.275V355.734H166.113C162.553 355.381 160.791 354.613 160.791 353.744C160.791 352.874 162.553 352.125 166.113 351.754H172.633V358.275C172.26 361.844 171.514 363.608 170.624 363.608H170.622Z" fill="#E5F2FF"/>
<path d="M170.622 407.824C169.772 407.824 169.007 405.846 168.655 401.847V391.687C169.007 387.693 169.775 385.715 170.643 385.715C171.511 385.715 172.258 387.693 172.631 391.687V401.847C172.258 405.846 171.511 407.824 170.622 407.824Z" fill="#E5F2FF"/>
<path d="M170.622 452.036C169.772 452.036 169.007 450.06 168.655 446.062V435.901C169.007 431.908 169.775 429.93 170.643 429.93C171.511 429.93 172.258 431.905 172.631 435.901V446.062C172.258 450.06 171.511 452.036 170.622 452.036Z" fill="#E5F2FF"/>
<path d="M160.788 483.988C160.788 483.138 162.551 482.37 166.116 482.017H168.655V479.473C169.007 475.909 169.775 474.145 170.643 474.145C171.511 474.145 172.258 475.909 172.631 479.473V485.999H166.113C162.548 485.626 160.786 484.879 160.786 483.988H160.788Z" fill="#E5F2FF"/>
<path d="M124.202 483.988C124.202 483.138 125.838 482.369 129.147 482.017H137.554C140.858 482.369 142.494 483.138 142.494 484.009C142.494 484.881 140.858 485.626 137.554 485.999H129.147C125.838 485.626 124.202 484.878 124.202 483.988Z" fill="#E5F2FF"/>
<path d="M87.6157 483.988C87.6157 483.138 89.2515 482.369 92.5607 482.017H100.967C104.272 482.369 105.908 483.138 105.908 484.009C105.908 484.881 104.272 485.626 100.967 485.999H92.5607C89.2515 485.626 87.6157 484.878 87.6157 483.988Z" fill="#E5F2FF"/>
<path d="M59.4876 474.143C60.3372 474.143 61.1023 475.907 61.4544 479.475V482.017H63.9961C67.5564 482.37 69.3189 483.138 69.3189 484.009C69.3189 484.881 67.5564 485.626 63.9961 485.999H57.4763V479.475C57.8495 475.907 58.5958 474.143 59.4853 474.143H59.4876Z" fill="#E5F2FF"/>
<path d="M59.4877 437.125C60.3373 437.125 61.1024 438.782 61.4545 442.129V450.636C61.1024 453.979 60.335 455.635 59.4666 455.635C58.5982 455.635 57.8519 453.979 57.4788 450.636V442.129C57.8519 438.782 58.5982 437.125 59.4877 437.125Z" fill="#E5F2FF"/>
<path d="M59.4877 400.111C60.3373 400.111 61.1024 401.767 61.4545 405.115V413.621C61.1024 416.964 60.335 418.621 59.4666 418.621C58.5982 418.621 57.8519 416.964 57.4788 413.621V405.115C57.8519 401.767 58.5982 400.111 59.4877 400.111Z" fill="#E5F2FF"/>
<path d="M59.4877 363.094C60.3373 363.094 61.1024 364.75 61.4545 368.098V376.604C61.1024 379.947 60.335 381.603 59.4666 381.603C58.5982 381.603 57.8519 379.947 57.4788 376.604V368.098C57.8519 364.75 58.5982 363.094 59.4877 363.094Z" fill="#E5F2FF"/>
<path d="M59.4877 326.077C60.3373 326.077 61.1024 327.733 61.4545 331.081V339.587C61.1024 342.93 60.335 344.586 59.4666 344.586C58.5982 344.586 57.8519 342.93 57.4788 339.587V331.081C57.8519 327.733 58.5982 326.077 59.4877 326.077Z" fill="#E5F2FF"/>
<path d="M59.4877 289.06C60.3373 289.06 61.1024 290.716 61.4545 294.062V302.568C61.1024 305.911 60.335 307.567 59.4666 307.567C58.5982 307.567 57.8519 305.911 57.4788 302.568V294.062C57.8519 290.714 58.5982 289.06 59.4877 289.06Z" fill="#E5F2FF"/>
<path d="M59.4877 252.043C60.3373 252.043 61.1024 253.699 61.4545 257.047V265.553C61.1024 268.896 60.335 270.553 59.4666 270.553C58.5982 270.553 57.8519 268.896 57.4788 265.553V257.047C57.8519 253.699 58.5982 252.043 59.4877 252.043Z" fill="#E5F2FF"/>
<path d="M59.4877 215.026C60.3373 215.026 61.1024 216.682 61.4545 220.03V228.536C61.1024 231.879 60.335 233.536 59.4666 233.536C58.5982 233.536 57.8519 231.879 57.4788 228.536V220.03C57.8519 216.682 58.5982 215.026 59.4877 215.026Z" fill="#E5F2FF"/>
<path d="M59.488 186.654C60.3376 186.654 61.1027 187.538 61.4547 189.321V193.855C61.1027 195.638 60.3352 196.519 59.4669 196.519C58.5985 196.519 57.8522 195.635 57.479 193.855V189.321C57.8522 187.538 58.5985 186.654 59.488 186.654Z" fill="#E5F2FF"/>
<path d="M7.13233 116.999H119.205C123.141 116.999 126.338 120.199 126.338 124.138V235.387C126.338 239.326 123.141 242.526 119.205 242.526H7.13233C3.19652 242.526 0 239.326 0 235.387V124.138C0 120.199 3.19652 116.999 7.13233 116.999Z" fill="#E5F2FF"/>
<path d="M80.3542 196.272V229.159H113.209V196.272H80.3542ZM84.3863 200.308H109.172V225.125H84.3863V200.308Z" fill="white"/>
<path d="M105.077 204.407H88.4817V221.026H105.077V204.407Z" fill="white"/>
<path d="M13.0303 130.496V163.385H45.8873V130.496H13.0303ZM17.0623 134.532H41.8482V159.349H17.0623V134.532Z" fill="white"/>
<path d="M37.7529 138.631H21.1577V155.249H37.7529V138.631Z" fill="white"/>
<path d="M80.3542 130.496V163.385H113.209V130.496H80.3542ZM84.3863 134.532H109.172V159.349H84.3863V134.532Z" fill="white"/>
<path d="M105.077 138.631H88.4817V155.249H105.077V138.631Z" fill="white"/>
<path d="M56.5704 134.598H65.2283V129.753H51.7334V143.976H56.5704V134.598Z" fill="white"/>
<path d="M46.3216 195.668H41.21V200.51H46.3216V195.668Z" fill="white"/>
<path d="M51.7336 167.59H36.4128V172.432H41.8155V177.274H46.2817V182.278H36.7109V187.119H51.1187V181.946H59.4879V177.105H46.6525V172.432H56.5706V158.252H60.9477V153.41H56.5706V146.936H51.7336V167.59Z" fill="white"/>
<path d="M41.21 205.215H36.4128V210.057H41.21V205.215Z" fill="white"/>
<path d="M18.2709 204.811H26.2293V220.009H37.1144V224.489H31.1719V229.33H41.9514V224.989H46.2815V229.161H51.1185V219.137H70.9783V224.489H65.2283V229.33H75.8153V210.365H70.9783V214.295H51.1185V206.021H46.2815V220.145H41.9514V215.167H31.0663V199.97H18.2709V196.272H13.4338V209.557H18.2709V204.811Z" fill="white"/>
<path d="M18.271 214.295H13.0303V219.137H18.271V214.295Z" fill="white"/>
<path d="M21.0943 224.489H13.0303V229.33H25.9314V220.549H21.0943V224.489Z" fill="white"/>
<path d="M18.2709 172.432H25.7224V167.59H13.4338V177.273H18.2709V172.432Z" fill="white"/>
<path d="M36.3072 172.796H31.4702V177.276H36.3072V172.796Z" fill="white"/>
<path d="M40.9446 190.486H31.2682V177.87H26.4311V181.81H13.4338V190.655H18.2709V186.652H26.4311V195.327H31.0804V205.417H35.9198V195.327H40.9446V190.486Z" fill="white"/>
<path d="M102.373 172.432H113.211V167.59H97.5361V176.564H102.373V172.432Z" fill="white"/>
<path d="M102.559 186.45H108.471V191.155H113.308V178.646H108.471V181.608H102.559V186.45Z" fill="white"/>
<path d="M75.8155 186.652H78.0333V181.81H70.5114V172.796H65.672V181.81H61.4077V195.668H56.1271V191.092H51.29V200.51H65.2285V200.775H65.9396V205.215H56.5307V210.057H70.7766V205.215H74.9448V195.934H66.2447V186.652H70.9784V190.655H75.8155V186.652Z" fill="white"/>
<path d="M75.2099 129.753H70.5747V134.595H75.2099V129.753Z" fill="white"/>
<path d="M102.561 186.854H97.2476V191.696H102.561V186.854Z" fill="white"/>
<path d="M70.469 166.878H75.3084V138.631H62.1726V143.475H70.469V158.202H65.9394V163.047H70.469V166.878Z" fill="white"/>
<path d="M66.6951 147.203H60.9475V152.045H66.6951V147.203Z" fill="white"/>
<path d="M65.2284 167.59H59.4878V172.432H65.2284V167.59Z" fill="white"/>
<path d="M75.1794 177.184H78.2985V181.946H88.111V186.854H83.9828V191.695H92.9481V181.946H97.2476V177.104H86.2335V172.432H91.4014V167.59H80.3544V172.342H75.1794V177.184Z" fill="white"/>
<path d="M47.6615 226.135H44.0449V229.755H47.6615V226.135Z" fill="white"/>
<g clip-path="url(#clip0_2152_1220)">
<path d="M474.308 101.969H473.788V47.6227C473.788 29.6085 459.179 14.999 441.165 14.999H243.402C225.388 14.999 210.778 29.6085 210.778 47.6227V101.969H210.258C207.903 101.969 206 103.873 206 106.227V143.816C206 146.171 207.903 148.074 210.258 148.074H210.778V157.042H210.258C207.903 157.042 206 158.945 206 161.3V198.888C206 201.243 207.903 203.147 210.258 203.147H210.778V532.366C210.778 550.38 225.388 564.989 243.402 564.989H441.165C459.179 564.989 473.788 550.38 473.788 532.366V171.131H474.308C476.663 171.131 478.567 169.228 478.567 166.873V106.227C478.567 103.873 476.663 101.969 474.308 101.969Z" fill="#333343"/>
<path d="M437.799 23.0642H246.777C232.141 23.0642 220.276 34.9292 220.276 49.5654V530.423C220.276 545.059 232.141 556.924 246.777 556.924H437.799C452.436 556.924 464.301 545.059 464.301 530.423V49.5654C464.301 34.9292 452.436 23.0642 437.799 23.0642Z" fill="white"/>
<path d="M281.049 97.3774H246.591C245.286 97.3774 244.226 96.3177 244.226 95.0128C244.226 93.7079 245.286 92.6482 246.591 92.6482H281.049C282.354 92.6482 283.414 93.7079 283.414 95.0128C283.414 96.3177 282.354 97.3774 281.049 97.3774Z" fill="#333343"/>
<path d="M333.365 97.3774H298.906C297.601 97.3774 296.542 96.3177 296.542 95.0128C296.542 93.7079 297.601 92.6482 298.906 92.6482H333.365C334.669 92.6482 335.729 93.7079 335.729 95.0128C335.729 96.3177 334.669 97.3774 333.365 97.3774Z" fill="#333343"/>
<path d="M385.67 97.3774H351.212C349.907 97.3774 348.847 96.3177 348.847 95.0128C348.847 93.7079 349.907 92.6482 351.212 92.6482H385.67C386.975 92.6482 388.035 93.7079 388.035 95.0128C388.035 96.3177 386.975 97.3774 385.67 97.3774Z" fill="#333343"/>
<path d="M437.976 97.3774H403.518C402.213 97.3774 401.153 96.3177 401.153 95.0128C401.153 93.7079 402.213 92.6482 403.518 92.6482H437.976C439.281 92.6482 440.341 93.7079 440.341 95.0128C440.341 96.3177 439.281 97.3774 437.976 97.3774Z" fill="#333343"/>
<path d="M318.716 129.51C318.716 131.365 317.264 132.454 314.477 132.454H309.091V121.622H314.173C316.773 121.622 318.166 122.721 318.166 124.438C318.166 125.556 317.607 126.371 316.773 126.822C317.931 127.195 318.726 128.107 318.726 129.52L318.716 129.51ZM311.102 123.192V126.174H313.947C315.341 126.174 316.126 125.684 316.126 124.693C316.126 123.702 315.341 123.192 313.947 123.192H311.102ZM316.695 129.304C316.695 128.225 315.87 127.744 314.359 127.744H311.112V130.874H314.359C315.88 130.874 316.695 130.393 316.695 129.314V129.304Z" fill="#333343"/>
<path d="M327.605 127.607V132.454H325.78V131.443C325.319 132.159 324.416 132.562 323.18 132.562C321.296 132.562 320.099 131.522 320.099 130.089C320.099 128.657 321.031 127.626 323.533 127.626H325.672V127.499C325.672 126.371 324.995 125.703 323.612 125.703C322.68 125.703 321.728 126.017 321.1 126.528L320.344 125.115C321.227 124.438 322.513 124.094 323.847 124.094C326.231 124.094 327.605 125.223 327.605 127.607ZM325.672 129.863V128.902H323.671C322.356 128.902 322.003 129.393 322.003 130.001C322.003 130.697 322.591 131.149 323.582 131.149C324.573 131.149 325.348 130.717 325.672 129.863Z" fill="#333343"/>
<path d="M338.221 127.715V132.454H336.288V127.96C336.288 126.488 335.562 125.782 334.326 125.782C332.952 125.782 332.02 126.616 332.02 128.274V132.454H330.087V124.192H331.932V125.262C332.57 124.506 333.571 124.104 334.777 124.104C336.759 124.104 338.231 125.232 338.231 127.724L338.221 127.715Z" fill="#333343"/>
<path d="M344.069 128.902L342.627 130.266V132.444H340.694V120.955H342.627V127.891L346.64 124.173H348.965L345.511 127.636L349.289 132.434H346.934L344.069 128.892V128.902Z" fill="#333343"/>
<path d="M364.065 125.468C364.065 127.852 362.299 129.324 359.453 129.324H357.01V132.454H354.999V121.622H359.453C362.299 121.622 364.065 123.074 364.065 125.478V125.468ZM362.034 125.468C362.034 124.104 361.121 123.319 359.355 123.319H357.001V127.627H359.355C361.121 127.627 362.034 126.842 362.034 125.478V125.468Z" fill="#333343"/>
<path d="M372.739 127.607V132.454H370.914V131.443C370.452 132.159 369.55 132.562 368.314 132.562C366.43 132.562 365.233 131.522 365.233 130.089C365.233 128.657 366.165 127.626 368.667 127.626H370.806V127.499C370.806 126.371 370.129 125.703 368.745 125.703C367.813 125.703 366.861 126.017 366.233 126.528L365.478 125.115C366.361 124.438 367.646 124.094 368.981 124.094C371.365 124.094 372.739 125.223 372.739 127.607ZM370.806 129.863V128.902H368.804C367.489 128.902 367.136 129.393 367.136 130.001C367.136 130.697 367.725 131.149 368.716 131.149C369.707 131.149 370.482 130.717 370.806 129.863Z" fill="#333343"/>
<path d="M382.805 124.183L378.939 133.111C378.184 134.985 377.124 135.554 375.751 135.554C374.926 135.554 374.063 135.28 373.533 134.799L374.308 133.376C374.681 133.729 375.211 133.945 375.731 133.945C376.408 133.945 376.81 133.621 377.183 132.797L377.32 132.473L373.71 124.173H375.721L378.321 130.285L380.941 124.173H382.795L382.805 124.183Z" fill="#333343"/>
<path d="M286.956 158.288L287.387 157.366C287.996 157.915 289.045 158.317 290.105 158.317C291.528 158.317 292.136 157.768 292.136 157.052C292.136 155.04 287.152 156.306 287.152 153.254C287.152 151.989 288.143 150.9 290.301 150.9C291.263 150.9 292.264 151.155 292.951 151.626L292.558 152.568C291.842 152.106 291.027 151.9 290.301 151.9C288.898 151.9 288.3 152.489 288.3 153.205C288.3 155.217 293.284 153.961 293.284 156.983C293.284 158.239 292.274 159.328 290.095 159.328C288.839 159.328 287.603 158.906 286.946 158.298L286.956 158.288Z" fill="#C90000"/>
<path d="M294.275 156.11C294.275 154.255 295.649 152.931 297.572 152.931C298.69 152.931 299.622 153.392 300.113 154.255L299.25 154.805C298.847 154.196 298.239 153.912 297.552 153.912C296.326 153.912 295.413 154.775 295.413 156.1C295.413 157.424 296.336 158.298 297.552 158.298C298.239 158.298 298.847 158.013 299.25 157.405L300.113 157.944C299.622 158.818 298.69 159.289 297.572 159.289C295.649 159.289 294.275 157.954 294.275 156.1V156.11Z" fill="#C90000"/>
<path d="M306.52 155.462V159.23H305.451V158.406C305.078 158.975 304.381 159.298 303.4 159.298C301.987 159.298 301.094 158.543 301.094 157.464C301.094 156.463 301.742 155.639 303.596 155.639H305.382V155.413C305.382 154.461 304.832 153.902 303.714 153.902C302.968 153.902 302.223 154.157 301.732 154.569L301.261 153.725C301.909 153.205 302.841 152.921 303.841 152.921C305.549 152.921 306.51 153.745 306.51 155.452L306.52 155.462ZM305.392 157.316V156.443H303.655C302.537 156.443 302.223 156.875 302.223 157.405C302.223 158.033 302.743 158.415 303.596 158.415C304.45 158.415 305.117 158.023 305.392 157.307V157.316Z" fill="#C90000"/>
<path d="M314.536 155.639V159.23H313.408V155.766C313.408 154.54 312.799 153.941 311.73 153.941C310.533 153.941 309.748 154.658 309.748 156.012V159.22H308.62V152.98H309.699V153.922C310.16 153.284 310.955 152.921 311.946 152.921C313.467 152.921 314.536 153.794 314.536 155.629V155.639Z" fill="#C90000"/>
<path d="M331.598 150.998L328.841 159.24H327.605L325.358 152.666L323.111 159.24H321.855L319.098 150.998H320.315L322.542 157.689L324.858 150.998H325.937L328.204 157.729L330.47 150.998H331.589H331.598Z" fill="#C90000"/>
<path d="M332.697 151.066C332.697 150.654 333.031 150.321 333.463 150.321C333.894 150.321 334.228 150.635 334.228 151.037C334.228 151.459 333.914 151.793 333.463 151.793C333.011 151.793 332.697 151.479 332.697 151.066ZM332.893 152.999H334.022V159.24H332.893V152.999Z" fill="#C90000"/>
<path d="M339.683 158.867C339.34 159.161 338.82 159.298 338.319 159.298C337.064 159.298 336.337 158.602 336.337 157.346V153.922H335.278V152.99H336.337V151.626H337.466V152.99H339.252V153.922H337.466V157.297C337.466 157.964 337.819 158.347 338.447 158.347C338.781 158.347 339.095 158.239 339.33 158.052L339.683 158.867Z" fill="#C90000"/>
<path d="M346.973 155.639V159.23H345.845V155.766C345.845 154.54 345.237 153.941 344.167 153.941C342.97 153.941 342.185 154.657 342.185 156.011V159.22H341.057V150.488H342.185V153.863C342.656 153.264 343.431 152.921 344.383 152.921C345.904 152.921 346.973 153.794 346.973 155.629V155.639Z" fill="#C90000"/>
<path d="M351.732 155.119C351.732 152.685 353.596 150.909 356.098 150.909C357.364 150.909 358.473 151.341 359.228 152.195L358.463 152.931C357.825 152.263 357.05 151.949 356.147 151.949C354.283 151.949 352.909 153.294 352.909 155.119C352.909 156.944 354.283 158.288 356.147 158.288C357.05 158.288 357.825 157.974 358.463 157.297L359.228 158.033C358.473 158.876 357.364 159.328 356.088 159.328C353.596 159.328 351.732 157.552 351.732 155.119Z" fill="#C90000"/>
<path d="M365.606 155.462V159.23H364.536V158.406C364.163 158.975 363.467 159.298 362.485 159.298C361.073 159.298 360.18 158.543 360.18 157.464C360.18 156.463 360.827 155.639 362.682 155.639H364.467V155.413C364.467 154.461 363.918 153.902 362.799 153.902C362.054 153.902 361.308 154.157 360.817 154.569L360.346 153.725C360.994 153.205 361.926 152.921 362.927 152.921C364.634 152.921 365.596 153.745 365.596 155.452L365.606 155.462ZM364.477 157.316V156.443H362.741C361.622 156.443 361.308 156.875 361.308 157.405C361.308 158.033 361.828 158.415 362.682 158.415C363.535 158.415 364.202 158.023 364.477 157.307V157.316Z" fill="#C90000"/>
<path d="M378.066 155.639V159.23H376.938V155.766C376.938 154.54 376.349 153.941 375.329 153.941C374.201 153.941 373.455 154.658 373.455 156.012V159.22H372.327V155.757C372.327 154.53 371.738 153.932 370.717 153.932C369.589 153.932 368.843 154.648 368.843 156.002V159.21H367.715V152.97H368.794V153.902C369.246 153.264 370.011 152.911 370.943 152.911C371.875 152.911 372.699 153.284 373.111 154.059C373.582 153.353 374.456 152.911 375.515 152.911C377.036 152.911 378.066 153.784 378.066 155.619V155.639Z" fill="#C90000"/>
<path d="M385.798 156.492H380.735C380.872 157.591 381.755 158.317 382.992 158.317C383.718 158.317 384.336 158.072 384.787 157.562L385.415 158.288C384.846 158.945 383.993 159.298 382.953 159.298C380.941 159.298 379.597 157.964 379.597 156.11C379.597 154.255 380.921 152.931 382.727 152.931C384.532 152.931 385.808 154.226 385.808 156.139C385.808 156.237 385.798 156.375 385.788 156.482L385.798 156.492ZM380.735 155.678H384.738C384.62 154.628 383.836 153.892 382.737 153.892C381.638 153.892 380.853 154.618 380.735 155.678Z" fill="#C90000"/>
<path d="M390.753 152.94V154.039C390.655 154.03 390.576 154.03 390.498 154.03C389.281 154.03 388.535 154.775 388.535 156.139V159.249H387.407V153.009H388.486V154.059C388.889 153.333 389.664 152.95 390.753 152.95V152.94Z" fill="#C90000"/>
<path d="M397.071 155.462V159.23H396.002V158.406C395.629 158.975 394.932 159.298 393.951 159.298C392.538 159.298 391.646 158.543 391.646 157.464C391.646 156.463 392.293 155.639 394.147 155.639H395.933V155.413C395.933 154.461 395.384 153.902 394.265 153.902C393.52 153.902 392.774 154.157 392.283 154.569L391.812 153.725C392.46 153.205 393.392 152.921 394.393 152.921C396.1 152.921 397.062 153.745 397.062 155.452L397.071 155.462ZM395.943 157.316V156.443H394.206C393.088 156.443 392.774 156.875 392.774 157.405C392.774 158.033 393.294 158.415 394.147 158.415C395.001 158.415 395.668 158.023 395.943 157.307V157.316Z" fill="#C90000"/>
<path d="M407.02 192.972H277.556C269.84 192.972 263.584 199.227 263.584 206.944V390.745C263.584 398.461 269.84 404.716 277.556 404.716H407.02C414.737 404.716 420.992 398.461 420.992 390.745V206.944C420.992 199.227 414.737 192.972 407.02 192.972Z" fill="#E5F2FF"/>
<path d="M304.626 262.311V285.937H328.253V262.311H304.626ZM323.121 280.805H309.768V267.452H323.121V280.805Z" fill="#333343"/>
<path d="M319.265 276.95V271.298H313.614V276.95H319.265Z" fill="#333343"/>
<path d="M356.088 262.311V285.937H379.715V262.311H356.088ZM374.583 280.805H361.23V267.452H374.583V280.805Z" fill="#333343"/>
<path d="M370.727 276.95V271.298H365.076V276.95H370.727Z" fill="#333343"/>
<path d="M304.587 311.349V334.975H328.214V311.349H304.587ZM323.082 329.844H309.728V316.49H323.082V329.844Z" fill="#333343"/>
<path d="M319.236 325.998V320.346H313.584V325.998H319.236Z" fill="#333343"/>
<path d="M309.728 290.607H304.587V306.463H309.728V290.607Z" fill="#333343"/>
<path d="M328.223 290.607H323.082V301.204H328.223V290.607Z" fill="#333343"/>
<path d="M352.242 262.291H343.441V267.432H352.242V262.291Z" fill="#333343"/>
<path d="M379.852 289.842H371.051V294.983H379.852V289.842Z" fill="#333343"/>
<path d="M371.051 325.988H360.906V331.129H371.051V325.988Z" fill="#333343"/>
<path d="M379.911 330.04H374.77V335.182H379.911V330.04Z" fill="#333343"/>
<path d="M376.192 318.61H371.051V323.427H376.192V318.61Z" fill="#333343"/>
<path d="M350.829 311.349V320.15H355.971V311.349H350.829Z" fill="#333343"/>
<path d="M347.229 297.672V306.473H352.37V297.672H347.229Z" fill="#333343"/>
<path d="M332.717 267.432V276.675H337.986V267.432H332.717Z" fill="#333343"/>
<path d="M313.575 290.862V296.004H318.716V290.862H313.575Z" fill="#333343"/>
<path d="M333.1 280.717V285.859H338.241V280.717H333.1Z" fill="#333343"/>
<path d="M368.804 304.157V309.299H379.911V304.157H368.804Z" fill="#333343"/>
<path d="M340.027 301.008V306.149H345.168V301.008H340.027Z" fill="#333343"/>
<path d="M360.906 331.129V334.985H366.047V331.129H360.906Z" fill="#333343"/>
<path d="M307.158 296.965V302.106H312.299V296.965H307.158Z" fill="#333343"/>
<path d="M355.961 325.988H347.229V331.129H355.961V325.988Z" fill="#333343"/>
<path d="M374.711 316.481V326.753H379.98V316.481H374.711Z" fill="#333343"/>
<path d="M371.247 311.339V316.48H379.98V311.339H371.247Z" fill="#333343"/>
<path d="M342.853 271.416V280.658H348.121V271.416H342.853Z" fill="#333343"/>
<path d="M352.232 271.475H332.717V276.675H352.232V271.475Z" fill="#333343"/>
<path d="M337.976 301.204H318.461V306.404H337.976V301.204Z" fill="#333343"/>
<path d="M361.357 294.915L361.23 289.773H355.961L356.088 294.915V300.115H361.357H375.613V294.915H361.357Z" fill="#333343"/>
<path d="M361.23 309.171L356.088 309.043V303.775L361.23 303.902H366.43V309.171V323.418H361.23V309.171Z" fill="#333343"/>
<path d="M347.356 290.607L347.483 285.476H352.752L352.625 290.607V295.807H347.356H333.1V290.607H347.356Z" fill="#333343"/>
<path d="M332.59 311.349V316.49H342.097V329.844H332.59V334.985H347.229V311.359H332.59V311.349Z" fill="#333343"/>
<path d="M338.241 320.337H332.59V325.988H338.241V320.337Z" fill="#333343"/>
<path d="M312.534 254.609H299.809H296.954V257.464V270.199H299.809V257.464H312.534V254.609Z" fill="#333343"/>
<path d="M387.397 270.199V257.464V254.609H384.542H371.806V257.464H384.542V270.199H387.397Z" fill="#333343"/>
<path d="M312.76 343.07H300.025H297.169V340.225V327.489H300.025V340.225H312.76V343.07Z" fill="#333343"/>
<path d="M387.613 327.489V340.225V343.07H384.758H372.032V340.225H384.758V327.489H387.613Z" fill="#333343"/>
<path d="M411.75 446.71L412.377 447.328C411.759 448.035 410.827 448.408 409.758 448.408C408.031 448.408 406.657 447.377 406.245 445.847H405.127V445.297H406.147C406.137 445.17 406.127 445.032 406.127 444.895C406.127 444.758 406.128 444.62 406.147 444.493H405.127V443.943H406.245C406.657 442.413 408.031 441.383 409.758 441.383C410.827 441.383 411.759 441.746 412.377 442.452L411.75 443.07C411.22 442.511 410.562 442.256 409.807 442.256C408.6 442.256 407.648 442.933 407.285 443.943H410.396V444.493H407.148C407.128 444.62 407.118 444.758 407.118 444.895C407.118 445.032 407.128 445.17 407.148 445.297H410.396V445.847H407.285C407.648 446.857 408.6 447.534 409.807 447.534C410.562 447.534 411.22 447.27 411.75 446.71Z" fill="#333343"/>
<path d="M418 441.471V448.339H417.028V442.325H415.478V441.471H418Z" fill="#333343"/>
<path d="M424.318 447.476V448.329H419.383V447.662L422.179 444.964C422.905 444.257 423.043 443.826 423.043 443.394C423.043 442.688 422.542 442.256 421.581 442.256C420.845 442.256 420.246 442.491 419.824 443.001L419.157 442.423C419.687 441.765 420.6 441.383 421.669 441.383C423.101 441.383 424.024 442.118 424.024 443.296C424.024 443.963 423.828 444.562 422.895 445.454L420.796 447.476H424.318Z" fill="#333343"/>
<path d="M425.103 444.895C425.103 442.658 426.3 441.383 427.909 441.383C429.518 441.383 430.706 442.658 430.706 444.895C430.706 447.132 429.509 448.408 427.909 448.408C426.31 448.408 425.103 447.132 425.103 444.895ZM429.725 444.895C429.725 443.139 428.979 442.256 427.909 442.256C426.84 442.256 426.084 443.139 426.084 444.895C426.084 446.651 426.83 447.534 427.909 447.534C428.989 447.534 429.725 446.651 429.725 444.895Z" fill="#333343"/>
<path d="M431.51 447.711C431.51 447.319 431.814 447.044 432.177 447.044C432.54 447.044 432.825 447.319 432.825 447.711C432.825 448.104 432.531 448.388 432.177 448.388C431.824 448.388 431.51 448.104 431.51 447.711Z" fill="#333343"/>
<path d="M433.639 444.895C433.639 442.658 434.836 441.383 436.445 441.383C438.054 441.383 439.242 442.658 439.242 444.895C439.242 447.132 438.045 448.408 436.445 448.408C434.846 448.408 433.639 447.132 433.639 444.895ZM438.26 444.895C438.26 443.139 437.515 442.256 436.445 442.256C435.376 442.256 434.62 443.139 434.62 444.895C434.62 446.651 435.366 447.534 436.445 447.534C437.525 447.534 438.26 446.651 438.26 444.895Z" fill="#333343"/>
<path d="M440.184 444.895C440.184 442.658 441.381 441.383 442.99 441.383C444.599 441.383 445.786 442.658 445.786 444.895C445.786 447.132 444.589 448.408 442.99 448.408C441.39 448.408 440.184 447.132 440.184 444.895ZM444.805 444.895C444.805 443.139 444.059 442.256 442.99 442.256C441.92 442.256 441.165 443.139 441.165 444.895C441.165 446.651 441.91 447.534 442.99 447.534C444.069 447.534 444.805 446.651 444.805 444.895Z" fill="#333343"/>
<path d="M246.296 464.332C246.296 465.823 245.217 466.726 243.431 466.726H241.734V468.806H240.753V461.938H243.431C245.217 461.938 246.296 462.84 246.296 464.332ZM245.315 464.332C245.315 463.351 244.658 462.791 243.402 462.791H241.734V465.872H243.402C244.658 465.872 245.315 465.313 245.315 464.332Z" fill="#333343"/>
<path d="M250.319 463.557V464.469C250.241 464.469 250.172 464.469 250.103 464.469C249.093 464.469 248.465 465.087 248.465 466.225V468.816H247.523V463.616H248.425V464.489C248.759 463.88 249.407 463.566 250.319 463.566V463.557Z" fill="#333343"/>
<path d="M250.947 466.206C250.947 464.656 252.095 463.557 253.655 463.557C255.215 463.557 256.353 464.656 256.353 466.206C256.353 467.756 255.215 468.865 253.655 468.865C252.095 468.865 250.947 467.756 250.947 466.206ZM255.401 466.206C255.401 465.097 254.656 464.381 253.655 464.381C252.654 464.381 251.899 465.097 251.899 466.206C251.899 467.314 252.654 468.041 253.655 468.041C254.656 468.041 255.401 467.314 255.401 466.206Z" fill="#333343"/>
<path d="M262.564 461.526V468.806H261.661V467.982C261.239 468.57 260.572 468.865 259.807 468.865C258.286 468.865 257.177 467.795 257.177 466.206C257.177 464.616 258.286 463.557 259.807 463.557C260.543 463.557 261.19 463.831 261.622 464.391V461.526H262.564ZM261.632 466.206C261.632 465.097 260.876 464.381 259.885 464.381C258.894 464.381 258.129 465.097 258.129 466.206C258.129 467.314 258.884 468.041 259.885 468.041C260.886 468.041 261.632 467.314 261.632 466.206Z" fill="#333343"/>
<path d="M269.197 463.606V468.806H268.304V468.021C267.921 468.561 267.273 468.865 266.538 468.865C265.193 468.865 264.301 468.129 264.301 466.598V463.606H265.242V466.49C265.242 467.511 265.753 468.021 266.646 468.021C267.627 468.021 268.255 467.413 268.255 466.294V463.606H269.197Z" fill="#333343"/>
<path d="M270.511 466.206C270.511 464.656 271.659 463.557 273.258 463.557C274.191 463.557 274.966 463.939 275.378 464.665L274.662 465.126C274.328 464.616 273.818 464.381 273.249 464.381C272.228 464.381 271.463 465.097 271.463 466.206C271.463 467.314 272.228 468.041 273.249 468.041C273.818 468.041 274.328 467.805 274.662 467.295L275.378 467.746C274.966 468.472 274.191 468.865 273.258 468.865C271.659 468.865 270.511 467.756 270.511 466.206Z" fill="#333343"/>
<path d="M279.587 468.502C279.302 468.747 278.871 468.865 278.449 468.865C277.399 468.865 276.801 468.286 276.801 467.236V464.381H275.917V463.606H276.801V462.468H277.742V463.606H279.234V464.381H277.742V467.197C277.742 467.756 278.037 468.07 278.557 468.07C278.832 468.07 279.096 467.982 279.293 467.825L279.587 468.502Z" fill="#333343"/>
<path d="M283.502 461.938H284.483V468.806H283.502V461.938Z" fill="#333343"/>
<path d="M286.543 461.938H289.438C291.646 461.938 293.147 463.331 293.147 465.372C293.147 467.413 291.646 468.806 289.438 468.806H286.543V461.938ZM289.379 467.952C291.076 467.952 292.166 466.912 292.166 465.372C292.166 463.831 291.076 462.791 289.379 462.791H287.525V467.952H289.379Z" fill="#333343"/>
<path d="M356.736 461.938V468.806H355.931L351.811 463.684V468.806H350.829V461.938H351.634L355.755 467.059V461.938H356.736Z" fill="#333343"/>
<path d="M358.188 466.206C358.188 464.656 359.336 463.557 360.896 463.557C362.456 463.557 363.594 464.656 363.594 466.206C363.594 467.756 362.456 468.865 360.896 468.865C359.336 468.865 358.188 467.756 358.188 466.206ZM362.642 466.206C362.642 465.097 361.897 464.381 360.896 464.381C359.895 464.381 359.14 465.097 359.14 466.206C359.14 467.314 359.895 468.041 360.896 468.041C361.897 468.041 362.642 467.314 362.642 466.206Z" fill="#333343"/>
<path d="M369.354 463.606L367.077 468.806H366.116L363.84 463.606H364.821L366.606 467.776L368.431 463.606H369.354Z" fill="#333343"/>
<path d="M374.191 465.666V468.806H373.298V468.119C372.984 468.59 372.405 468.865 371.591 468.865C370.413 468.865 369.668 468.237 369.668 467.334C369.668 466.5 370.207 465.813 371.758 465.813H373.249V465.627C373.249 464.832 372.788 464.371 371.856 464.371C371.238 464.371 370.61 464.587 370.207 464.93L369.815 464.224C370.355 463.792 371.13 463.557 371.964 463.557C373.386 463.557 374.191 464.243 374.191 465.666ZM373.249 467.216V466.49H371.797C370.865 466.49 370.6 466.853 370.6 467.295C370.6 467.815 371.032 468.139 371.748 468.139C372.464 468.139 373.013 467.815 373.249 467.216Z" fill="#333343"/>
<path d="M375.937 461.526H376.879V468.806H375.937V461.526Z" fill="#333343"/>
<path d="M383.6 465.813V468.806H382.658V465.921C382.658 464.901 382.148 464.4 381.255 464.4C380.254 464.4 379.607 464.999 379.607 466.127V468.806H378.665V463.606H379.567V464.391C379.95 463.861 380.617 463.557 381.441 463.557C382.707 463.557 383.6 464.283 383.6 465.813Z" fill="#333343"/>
<path d="M390.066 466.52H385.847C385.965 467.432 386.701 468.041 387.731 468.041C388.339 468.041 388.849 467.834 389.232 467.413L389.752 468.021C389.281 468.57 388.565 468.865 387.701 468.865C386.024 468.865 384.905 467.756 384.905 466.206C384.905 464.656 386.014 463.557 387.515 463.557C389.016 463.557 390.086 464.636 390.086 466.235C390.086 466.314 390.086 466.431 390.066 466.52ZM385.847 465.843H389.183C389.085 464.97 388.427 464.351 387.515 464.351C386.602 464.351 385.945 464.96 385.847 465.843Z" fill="#333343"/>
<path d="M394.314 468.502C394.03 468.747 393.598 468.865 393.176 468.865C392.126 468.865 391.528 468.286 391.528 467.236V464.381H390.645V463.606H391.528V462.468H392.47V463.606H393.961V464.381H392.47V467.197C392.47 467.756 392.764 468.07 393.284 468.07C393.559 468.07 393.824 467.982 394.02 467.825L394.314 468.502Z" fill="#333343"/>
<path d="M399.593 462.791H397.238V461.938H402.919V462.791H400.564V468.806H399.593V462.791Z" fill="#333343"/>
<path d="M407.992 466.52H403.773C403.89 467.432 404.626 468.041 405.657 468.041C406.265 468.041 406.775 467.834 407.158 467.413L407.678 468.021C407.207 468.57 406.491 468.865 405.627 468.865C403.949 468.865 402.831 467.756 402.831 466.206C402.831 464.656 403.94 463.557 405.441 463.557C406.942 463.557 408.011 464.636 408.011 466.235C408.011 466.314 408.011 466.431 407.992 466.52ZM403.773 465.843H407.109C407.011 464.97 406.353 464.351 405.441 464.351C404.528 464.351 403.871 464.96 403.773 465.843Z" fill="#333343"/>
<path d="M408.659 468.256L409.051 467.511C409.493 467.825 410.199 468.05 410.876 468.05C411.75 468.05 412.113 467.785 412.113 467.344C412.113 466.176 408.826 467.187 408.826 465.117C408.826 464.185 409.66 463.557 410.994 463.557C411.671 463.557 412.436 463.733 412.888 464.028L412.485 464.773C412.015 464.469 411.494 464.361 410.984 464.361C410.16 464.361 409.758 464.665 409.758 465.077C409.758 466.304 413.055 465.303 413.055 467.324C413.055 468.266 412.191 468.865 410.808 468.865C409.944 468.865 409.091 468.6 408.659 468.256Z" fill="#333343"/>
<path d="M417.156 468.502C416.871 468.747 416.44 468.865 416.018 468.865C414.968 468.865 414.369 468.286 414.369 467.236V464.381H413.486V463.606H414.369V462.468H415.311V463.606H416.803V464.381H415.311V467.197C415.311 467.756 415.606 468.07 416.126 468.07C416.4 468.07 416.665 467.982 416.862 467.825L417.156 468.502Z" fill="#333343"/>
<path d="M420.315 466.382L419.236 467.383V468.806H418.294V461.526H419.236V466.196L422.071 463.606H423.21L421.022 465.754L423.425 468.806H422.268L420.315 466.382Z" fill="#333343"/>
<path d="M423.641 466.206C423.641 464.656 424.789 463.557 426.349 463.557C427.909 463.557 429.048 464.656 429.048 466.206C429.048 467.756 427.909 468.865 426.349 468.865C424.789 468.865 423.641 467.756 423.641 466.206ZM428.096 466.206C428.096 465.097 427.35 464.381 426.349 464.381C425.349 464.381 424.593 465.097 424.593 466.206C424.593 467.314 425.349 468.041 426.349 468.041C427.35 468.041 428.096 467.314 428.096 466.206Z" fill="#333343"/>
<path d="M435.278 465.813V468.806H434.336V465.921C434.336 464.901 433.826 464.4 432.933 464.4C431.932 464.4 431.285 464.999 431.285 466.127V468.806H430.343V463.606H431.245V464.391C431.628 463.861 432.295 463.557 433.119 463.557C434.385 463.557 435.278 464.283 435.278 465.813Z" fill="#333343"/>
<path d="M439.958 468.502C439.674 468.747 439.242 468.865 438.82 468.865C437.77 468.865 437.172 468.286 437.172 467.236V464.381H436.289V463.606H437.172V462.468H438.114V463.606H439.605V464.381H438.114V467.197C438.114 467.756 438.408 468.07 438.928 468.07C439.203 468.07 439.468 467.982 439.664 467.825L439.958 468.502Z" fill="#333343"/>
<path d="M440.439 466.206C440.439 464.656 441.587 463.557 443.147 463.557C444.707 463.557 445.845 464.656 445.845 466.206C445.845 467.756 444.707 468.865 443.147 468.865C441.587 468.865 440.439 467.756 440.439 466.206ZM444.893 466.206C444.893 465.097 444.148 464.381 443.147 464.381C442.146 464.381 441.391 465.097 441.391 466.206C441.391 467.314 442.146 468.041 443.147 468.041C444.148 468.041 444.893 467.314 444.893 466.206Z" fill="#333343"/>
<path d="M242.126 484.21H239.771V483.357H245.452V484.21H243.098V490.225H242.126V484.21Z" fill="#333343"/>
<path d="M250.231 487.085V490.225H249.338V489.538C249.024 490.009 248.445 490.284 247.631 490.284C246.453 490.284 245.708 489.656 245.708 488.753C245.708 487.919 246.247 487.232 247.797 487.232H249.289V487.046C249.289 486.251 248.828 485.79 247.896 485.79C247.277 485.79 246.649 486.006 246.247 486.349L245.855 485.643C246.394 485.211 247.169 484.976 248.003 484.976C249.426 484.976 250.231 485.662 250.231 487.085ZM249.289 488.635V487.909H247.837C246.905 487.909 246.64 488.272 246.64 488.714C246.64 489.234 247.071 489.558 247.788 489.558C248.504 489.558 249.053 489.234 249.289 488.635Z" fill="#333343"/>
<path d="M254.773 484.976V485.888C254.695 485.888 254.626 485.888 254.558 485.888C253.547 485.888 252.919 486.506 252.919 487.644V490.235H251.977V485.034H252.88V485.908C253.213 485.299 253.861 484.985 254.773 484.985V484.976Z" fill="#333343"/>
<path d="M255.764 483.415C255.764 483.072 256.039 482.797 256.402 482.797C256.765 482.797 257.04 483.062 257.04 483.396C257.04 483.749 256.775 484.024 256.402 484.024C256.029 484.024 255.764 483.759 255.764 483.415ZM255.931 485.025H256.873V490.225H255.931V485.025Z" fill="#333343"/>
<path d="M259.728 484.573V485.025H261.239V485.8H259.748V490.225H258.806V485.8H257.923V485.025H258.806V484.564C258.806 483.553 259.414 482.886 260.523 482.886C260.925 482.886 261.318 482.984 261.583 483.19L261.298 483.906C261.102 483.759 260.847 483.661 260.572 483.661C260.013 483.661 259.728 483.975 259.728 484.573Z" fill="#333343"/>
<path d="M267.852 487.232V490.225H266.91V487.34C266.91 486.32 266.4 485.819 265.507 485.819C264.506 485.819 263.859 486.418 263.859 487.546V490.225H262.917V485.025H263.82V485.81C264.202 485.28 264.87 484.976 265.694 484.976C266.959 484.976 267.852 485.702 267.852 487.232Z" fill="#333343"/>
<path d="M274.446 485.025V490.225H273.553V489.44C273.17 489.98 272.523 490.284 271.787 490.284C270.443 490.284 269.55 489.548 269.55 488.017V485.025H270.492V487.909C270.492 488.93 271.002 489.44 271.895 489.44C272.876 489.44 273.504 488.832 273.504 487.713V485.025H274.446Z" fill="#333343"/>
<path d="M284.866 487.232V490.225H283.924V487.34C283.924 486.32 283.433 485.819 282.58 485.819C281.638 485.819 281.02 486.418 281.02 487.546V490.225H280.078V487.34C280.078 486.32 279.587 485.819 278.733 485.819C277.791 485.819 277.173 486.418 277.173 487.546V490.225H276.231V485.025H277.134V485.8C277.507 485.27 278.145 484.976 278.93 484.976C279.715 484.976 280.392 485.29 280.735 485.937C281.127 485.348 281.853 484.976 282.737 484.976C284.002 484.976 284.866 485.702 284.866 487.232Z" fill="#333343"/>
<path d="M295.237 487.232V490.225H294.295V487.34C294.295 486.32 293.804 485.819 292.95 485.819C292.008 485.819 291.39 486.418 291.39 487.546V490.225H290.448V487.34C290.448 486.32 289.958 485.819 289.104 485.819C288.162 485.819 287.544 486.418 287.544 487.546V490.225H286.602V485.025H287.505V485.8C287.878 485.27 288.516 484.976 289.3 484.976C290.085 484.976 290.762 485.29 291.106 485.937C291.498 485.348 292.224 484.976 293.107 484.976C294.373 484.976 295.237 485.702 295.237 487.232Z" fill="#333343"/>
<path d="M301.693 487.939H297.474C297.591 488.851 298.327 489.46 299.357 489.46C299.966 489.46 300.476 489.253 300.859 488.832L301.379 489.44C300.908 489.989 300.191 490.284 299.328 490.284C297.65 490.284 296.532 489.175 296.532 487.625C296.532 486.074 297.64 484.976 299.142 484.976C300.643 484.976 301.712 486.055 301.712 487.654C301.712 487.733 301.712 487.85 301.693 487.939ZM297.474 487.262H300.81C300.711 486.388 300.054 485.77 299.142 485.77C298.229 485.77 297.572 486.379 297.474 487.262Z" fill="#333343"/>
<path d="M305.813 484.976V485.888C305.735 485.888 305.666 485.888 305.598 485.888C304.587 485.888 303.959 486.506 303.959 487.644V490.235H303.017V485.034H303.92V485.908C304.253 485.299 304.901 484.985 305.813 484.985V484.976Z" fill="#333343"/>
<path d="M385.592 483.356V490.225H384.787L380.666 485.103V490.225H379.685V483.356H380.49L384.611 488.478V483.356H385.592Z" fill="#333343"/>
<path d="M387.044 487.624C387.044 486.074 388.192 484.975 389.752 484.975C391.312 484.975 392.45 486.074 392.45 487.624C392.45 489.175 391.312 490.283 389.752 490.283C388.192 490.283 387.044 489.175 387.044 487.624ZM391.498 487.624C391.498 486.516 390.753 485.8 389.752 485.8C388.751 485.8 387.996 486.516 387.996 487.624C387.996 488.733 388.751 489.459 389.752 489.459C390.753 489.459 391.498 488.733 391.498 487.624Z" fill="#333343"/>
<path d="M398.2 485.024L395.924 490.225H394.962L392.686 485.024H393.667L395.453 489.194L397.278 485.024H398.2Z" fill="#333343"/>
<path d="M403.047 487.085V490.225H402.154V489.538C401.84 490.009 401.261 490.283 400.447 490.283C399.269 490.283 398.524 489.655 398.524 488.753C398.524 487.919 399.063 487.232 400.614 487.232H402.105V487.046C402.105 486.251 401.644 485.79 400.712 485.79C400.094 485.79 399.466 486.006 399.063 486.349L398.671 485.643C399.21 485.211 399.986 484.975 400.82 484.975C402.242 484.975 403.047 485.662 403.047 487.085ZM402.105 488.635V487.909H400.653C399.721 487.909 399.456 488.272 399.456 488.714C399.456 489.234 399.887 489.557 400.604 489.557C401.32 489.557 401.869 489.234 402.105 488.635Z" fill="#333343"/>
<path d="M404.793 482.944H405.735V490.225H404.793V482.944Z" fill="#333343"/>
<path d="M412.456 487.232V490.225H411.514V487.34C411.514 486.32 411.004 485.819 410.111 485.819C409.11 485.819 408.463 486.418 408.463 487.546V490.225H407.521V485.024H408.423V485.809C408.806 485.28 409.473 484.975 410.297 484.975C411.563 484.975 412.456 485.701 412.456 487.232Z" fill="#333343"/>
<path d="M418.912 487.938H414.693C414.811 488.851 415.547 489.459 416.577 489.459C417.185 489.459 417.695 489.253 418.078 488.831L418.598 489.44C418.127 489.989 417.411 490.283 416.548 490.283C414.87 490.283 413.751 489.175 413.751 487.624C413.751 486.074 414.86 484.975 416.361 484.975C417.862 484.975 418.932 486.055 418.932 487.654C418.932 487.732 418.932 487.85 418.912 487.938ZM414.693 487.261H418.029C417.931 486.388 417.274 485.77 416.361 485.77C415.449 485.77 414.791 486.378 414.693 487.261Z" fill="#333343"/>
<path d="M423.17 489.92C422.886 490.166 422.454 490.283 422.032 490.283C420.982 490.283 420.384 489.705 420.384 488.655V485.799H419.501V485.024H420.384V483.886H421.326V485.024H422.817V485.799H421.326V488.615C421.326 489.175 421.62 489.489 422.14 489.489C422.415 489.489 422.68 489.4 422.876 489.243L423.17 489.92Z" fill="#333343"/>
<path d="M428.449 484.21H426.094V483.356H431.775V484.21H429.42V490.225H428.449V484.21Z" fill="#333343"/>
<path d="M436.838 487.938H432.619C432.737 488.851 433.473 489.459 434.503 489.459C435.111 489.459 435.621 489.253 436.004 488.831L436.524 489.44C436.053 489.989 435.337 490.283 434.473 490.283C432.796 490.283 431.677 489.175 431.677 487.624C431.677 486.074 432.786 484.975 434.287 484.975C435.788 484.975 436.858 486.055 436.858 487.654C436.858 487.732 436.858 487.85 436.838 487.938ZM432.619 487.261H435.955C435.857 486.388 435.199 485.77 434.287 485.77C433.374 485.77 432.717 486.378 432.619 487.261Z" fill="#333343"/>
<path d="M437.515 489.675L437.907 488.929C438.349 489.243 439.055 489.469 439.732 489.469C440.606 489.469 440.969 489.204 440.969 488.763C440.969 487.595 437.682 488.606 437.682 486.535C437.682 485.603 438.516 484.975 439.85 484.975C440.527 484.975 441.292 485.152 441.744 485.446L441.341 486.192C440.87 485.888 440.35 485.78 439.84 485.78C439.016 485.78 438.614 486.084 438.614 486.496C438.614 487.723 441.91 486.722 441.91 488.743C441.91 489.685 441.047 490.283 439.664 490.283C438.8 490.283 437.947 490.019 437.515 489.675Z" fill="#333343"/>
<path d="M446.012 489.92C445.727 490.166 445.296 490.283 444.874 490.283C443.824 490.283 443.225 489.705 443.225 488.655V485.799H442.342V485.024H443.225V483.886H444.167V485.024H445.659V485.799H444.167V488.615C444.167 489.175 444.462 489.489 444.982 489.489C445.256 489.489 445.521 489.4 445.717 489.243L446.012 489.92Z" fill="#333343"/>
<path d="M541.145 547.76C541.959 544.866 544.638 542.893 547.65 542.992L550.623 543.09C566.302 546.847 574.475 555.943 577.703 560.407C577.831 560.584 577.713 560.829 577.497 560.849C572.552 561.251 561.053 562.046 551.32 561.771C544.824 561.585 541.361 561.339 539.624 560.623C539.654 555.55 540.35 550.576 541.145 547.76Z" fill="#333343"/>
<path d="M551.212 561.427C544.716 561.241 541.361 560.486 539.624 559.769C539.624 560.417 539.624 561.074 539.644 561.751C539.664 562.477 540.203 563.056 540.87 563.056L576.516 562.831C577.654 562.831 578.321 561.506 577.821 560.456C573.151 560.839 561.239 561.702 551.202 561.427H551.212Z" fill="#333343"/>
<path d="M555.637 532.856L553.145 544.846C552.958 545.729 552.291 546.386 551.467 546.455C550.466 546.553 549.043 546.602 547.611 546.396C546.326 546.21 545.433 544.905 545.658 543.502L547.385 532.856H555.627H555.637Z" fill="url(#paint0_linear_2152_1220)"/>
<path d="M504.047 561.428C510.543 561.241 513.898 560.486 515.635 559.77C515.635 560.417 515.635 561.074 515.615 561.751C515.596 562.478 515.056 563.056 514.389 563.056L478.743 562.831C477.605 562.831 476.938 561.506 477.438 560.456C482.109 560.839 494.02 561.702 504.057 561.428H504.047Z" fill="#333343"/>
<path d="M477.429 560.456C477.468 560.368 477.507 560.27 477.566 560.191C480.715 555.796 488.731 547.034 504.577 543.237L512.181 543.001C512.181 543.001 515.566 548.888 515.625 559.779C513.888 560.486 510.533 561.251 504.038 561.437C494 561.722 482.099 560.859 477.419 560.466L477.429 560.456Z" fill="#333343"/>
<path d="M513.594 531.473C513.506 532.042 512.466 540.647 512.063 543.992C511.965 544.787 511.396 545.395 510.67 545.484C509.375 545.641 507.285 545.778 505.45 545.405C504.459 545.199 503.743 544.257 503.743 543.149V529.628L513.594 531.473Z" fill="url(#paint1_linear_2152_1220)"/>
<path d="M519.687 374.32C519.687 374.32 501.359 443.992 501.683 531.669C501.683 533.268 502.811 534.652 504.371 534.976C506.677 535.456 510.062 536.035 512.868 535.957C514.369 535.917 515.615 534.809 515.87 533.327C518.441 518.257 533.198 433.327 541.596 419.542C541.596 419.542 547.13 495.18 545.354 534.416C545.315 535.388 546.021 536.241 546.993 536.349C548.465 536.516 550.819 536.653 553.812 536.33C554.95 536.212 555.862 535.348 556.029 534.22C557.864 521.465 568.402 445.523 567.95 390.813C567.921 387.733 559.797 374.31 559.797 374.31H519.677L519.687 374.32Z" fill="#333343"/>
<path d="M449.102 319.434C444.991 297.054 450.554 257.964 450.554 257.964L459.895 265.166C459.895 265.166 460.288 298.614 466.017 311.074C462.25 311.526 454.94 313.204 449.102 319.434Z" fill="url(#paint2_linear_2152_1220)"/>
<path d="M466.018 311.074C467.097 313.429 468.333 315.156 469.746 315.921C474.917 318.757 484.944 302.568 492.421 288.527C497.797 278.441 501.859 269.463 501.859 269.463C507.236 263.39 520.551 262.556 532.933 263.331C545.825 264.136 557.697 266.667 558.551 266.853C558.59 266.853 558.6 266.853 558.6 266.853C564.536 267.638 569.687 268.286 573.416 268.767C577.772 269.316 581.746 271.465 584.62 274.791C596.002 287.958 620.972 324.026 591.577 360.358C587.819 358.268 582.472 354.923 578.841 351.047C582.089 341.883 582.364 330.168 575.545 315.794C575.309 316.942 575.025 318.06 574.671 319.179C565.272 348.937 564.771 373.712 564.801 379.412C564.801 380.197 564.34 380.894 563.614 381.178C551.251 386.133 527.448 383.18 519.461 381.993C517.99 381.777 517.009 380.413 517.205 378.941C519.589 361.683 513.084 337.644 506.432 318.816C467.362 357.532 453.41 342.913 449.093 319.424C454.93 313.194 462.24 311.506 466.008 311.065L466.018 311.074Z" fill="#1A58BF"/>
<path d="M557.001 376.037C560.395 374.134 573.553 365.96 578.841 351.057C582.472 354.932 587.819 358.278 591.577 360.368C585.955 367.314 578.36 374.271 568.294 381.07C567.941 388.812 561.985 391.687 560.621 394.188C559.257 396.7 561.19 396.121 560.337 399.281C559.473 402.43 550.446 394.267 548.298 392.403C546.149 390.539 547.434 385.378 547.434 385.378C547.434 385.378 547.287 384.298 546.718 382.15C546.149 380.001 556.961 376.047 557.001 376.037Z" fill="url(#paint3_linear_2152_1220)"/>
<path d="M552.085 244.502L554.469 268.845C554.469 268.845 540.772 272.966 530.813 265.941L537.819 243.816L552.095 244.502H552.085Z" fill="url(#paint4_linear_2152_1220)"/>
<path d="M528.841 223.751C528.675 224.173 527.988 254.098 527.988 254.098L545.08 254.128L549.946 225.861C549.946 225.861 531.559 216.677 528.841 223.751Z" fill="url(#paint5_linear_2152_1220)"/>
<path d="M544.089 229.402C544.648 229.922 544.923 230.668 544.854 231.424L543.48 246.288C543.461 246.514 543.412 246.73 543.323 246.946C542.872 248.103 541.126 251.694 537.485 249.703C534.385 248.005 531.51 246.494 529.175 246.416C527.811 246.377 526.693 247.466 526.663 248.829C526.604 251.636 526.614 257.307 527.33 262.34C527.507 263.606 528.635 264.508 529.911 264.43C533.266 264.214 539.811 263.606 545.06 261.918C545.923 261.643 546.561 260.917 546.728 260.025C547.454 256.1 549.524 245.111 550.594 242.099C551.585 239.302 555.421 238.331 557.217 238.027C557.894 237.909 558.492 237.526 558.875 236.948C560.013 235.221 561.651 231.483 557.148 228.647C556.029 227.941 555.706 226.439 556.383 225.311C557.599 223.28 558.482 220.14 554.921 217.462C551.32 214.744 547.827 216.029 545.688 217.393C544.746 218.001 543.47 217.962 542.636 217.207C542.264 216.873 541.753 216.677 541.067 216.853C539.762 217.187 538.457 216.471 538.113 215.166C537.534 212.929 535.955 210.417 531.824 210.191C524.259 209.779 521.591 217.658 522.434 222.829C523.278 227.999 531.51 227.98 535.974 226.488C539.251 225.39 542.578 227.95 544.108 229.393L544.089 229.402Z" fill="#1A2E35"/>
<path d="M549.25 247.338C549.25 247.338 548.945 238.518 552.487 237.164C556.029 235.81 560.347 237.919 557.952 243.767C554.98 251.037 549.24 247.338 549.24 247.338H549.25Z" fill="url(#paint6_linear_2152_1220)"/>
<path opacity="0.4" d="M506.147 318.001C506.147 318.001 506.186 318.001 506.196 318.001C506.431 317.972 506.598 317.756 506.569 317.521C506.549 317.334 504.224 298.535 505.49 293.119C505.539 292.884 505.401 292.658 505.166 292.599C504.94 292.54 504.705 292.687 504.646 292.923C503.351 298.486 505.617 316.844 505.715 317.629C505.745 317.844 505.931 318.001 506.137 318.001H506.147Z" fill="black"/>
<path opacity="0.4" d="M576.84 313.733C581.824 300.095 580.019 283.631 579.999 283.464L578.626 283.621C578.645 283.778 580.411 299.938 575.545 313.262L576.84 313.733Z" fill="black"/>
<path d="M453.537 263.115V216.608C453.537 214.93 455.127 213.704 456.755 214.126L473.111 218.462C474.24 218.757 475.015 219.777 475.015 220.945V266.844C475.015 268.492 473.484 269.709 471.885 269.345L455.529 265.617C454.361 265.352 453.537 264.312 453.537 263.115Z" fill="#1A2E35"/>
<path d="M472.464 267.442C472.464 267.442 472.376 267.442 472.326 267.422L455.97 263.704C455.696 263.645 455.5 263.4 455.5 263.115V216.608C455.5 216.235 455.813 216.01 456.098 216.01C456.147 216.01 456.206 216.01 456.255 216.029L472.611 220.366C472.876 220.435 473.062 220.67 473.062 220.945V266.844C473.062 267.216 472.758 267.442 472.464 267.442Z" fill="white"/>
<path d="M459.709 235.584V239.018L462.574 239.656V236.261L459.709 235.574V235.584ZM461.956 238.782L460.337 238.419V236.486L461.956 236.869V238.792V238.782Z" fill="#333343"/>
<path d="M460.798 237.968V237.144L461.485 237.311V238.125L460.798 237.968Z" fill="#333343"/>
<path d="M465.959 237.075V240.411L468.824 241.049V237.752L465.959 237.065V237.075ZM468.206 240.195L466.587 239.832V237.948L468.206 238.331V240.195Z" fill="#333343"/>
<path d="M467.048 239.391V238.596L467.735 238.763V239.548L467.048 239.391Z" fill="#333343"/>
<path d="M459.709 242.717V246.151L462.574 246.7V243.305L459.709 242.717ZM461.956 245.837L460.337 245.523V243.59L461.956 243.924V245.847V245.837Z" fill="#333343"/>
<path d="M460.798 245.062V244.238L461.485 244.375V245.189L460.798 245.062Z" fill="#333343"/>
<path d="M460.327 242.138L459.709 242.001V239.705L460.327 239.842V242.138Z" fill="#333343"/>
<path d="M462.574 241.853L461.946 241.716V240.195L462.574 240.333V241.853Z" fill="#333343"/>
<path d="M464.418 237.438L465.488 237.693V236.957L464.418 236.712V237.438Z" fill="#333343"/>
<path d="M467.774 242.089L468.834 242.315V241.598L467.774 241.363V242.089Z" fill="#333343"/>
<path d="M466.538 246.916L467.774 247.152V246.435L466.538 246.19V246.916Z" fill="#333343"/>
<path d="M468.225 247.809L468.843 247.927V247.211L468.225 247.093V247.809Z" fill="#333343"/>
<path d="M467.774 246.072L468.392 246.2V245.523L467.774 245.396V246.072Z" fill="#333343"/>
<path d="M465.939 245.248V244.002L465.321 243.875V245.121L465.939 245.248Z" fill="#333343"/>
<path d="M465.507 243.217V241.971L464.879 241.844V243.09L465.507 243.217Z" fill="#333343"/>
<path d="M463.761 238.606V237.281L463.123 237.134V238.459L463.761 238.606Z" fill="#333343"/>
<path d="M461.416 240.853V240.117L460.798 239.979V240.725L461.416 240.853Z" fill="#333343"/>
<path d="M463.79 239.921V239.185L463.162 239.047V239.783L463.79 239.921Z" fill="#333343"/>
<path d="M468.843 244.316V243.6L467.499 243.315V244.041L468.843 244.316Z" fill="#333343"/>
<path d="M464.634 242.992V242.266L464.006 242.128V242.864L464.634 242.992Z" fill="#333343"/>
<path d="M467.166 247.574V247.034L466.538 246.916V247.456L467.166 247.574Z" fill="#333343"/>
<path d="M460.641 241.569V240.823L460.023 240.696V241.441L460.641 241.569Z" fill="#333343"/>
<path d="M465.939 246.799L464.879 246.593V245.866L465.939 246.072V246.799Z" fill="#333343"/>
<path d="M468.853 245.317V246.759L468.215 246.632V245.189L468.853 245.317Z" fill="#333343"/>
<path d="M468.853 245.317V244.601L467.793 244.385V245.111L468.853 245.317Z" fill="#333343"/>
<path d="M464.987 239.449V238.135L464.35 237.988V239.302L464.987 239.449Z" fill="#333343"/>
<path d="M463.123 238.459L465.488 238.998V238.262L463.123 237.713V238.459Z" fill="#333343"/>
<path d="M461.386 242.354L463.761 242.844V242.109L461.386 241.598V242.354Z" fill="#333343"/>
<path d="M466.597 241.824L466.577 241.098L465.939 240.951L465.959 241.687V242.422L466.597 242.55L468.323 242.923V242.197L466.597 241.824Z" fill="#333343"/>
<path d="M466.577 243.825L465.959 243.678V242.933L466.577 243.09L467.205 243.217V243.963V245.964L466.577 245.837V243.825Z" fill="#333343"/>
<path d="M464.899 240.843L464.909 240.117L465.547 240.254L465.537 240.98V241.716L464.899 241.579L463.162 241.206V240.46L464.899 240.843Z" fill="#333343"/>
<path d="M463.104 243.414V244.149L464.261 244.385V246.288L463.104 246.063V246.799L464.879 247.142V243.786L463.104 243.423V243.414Z" fill="#333343"/>
<path d="M463.79 244.846V245.65L463.104 245.513V244.699L463.79 244.846Z" fill="#333343"/>
<path d="M460.67 234.701L459.13 234.328L458.777 234.24V234.661V236.516L459.13 236.594V234.74L460.67 235.113V234.701Z" fill="#333343"/>
<path d="M469.756 239.077V237.31V236.908L469.412 236.83L467.862 236.447V236.849L469.412 237.222V238.998L469.756 239.077Z" fill="#333343"/>
<path d="M460.7 247.505L459.15 247.22L458.806 247.161V246.739V244.885L459.15 244.954V246.808L460.7 247.093V247.505Z" fill="#333343"/>
<path d="M469.785 247.034V248.81V249.202L469.432 249.134L467.892 248.849V248.447L469.432 248.741V246.975L469.785 247.034Z" fill="#333343"/>
<path d="M447.395 242.589C449.377 241.853 453.272 235.132 454.008 237.34C454.754 239.558 453.694 242.589 454.008 243.521C454.322 244.463 456.471 249.693 455.509 252.097C454.813 253.833 453.655 259.171 453.076 262.016C452.88 262.958 452.772 264.185 451.81 264.185C450.849 264.185 449.966 262.988 449.77 262.046C449.691 261.663 445.413 243.315 447.395 242.579V242.589Z" fill="url(#paint7_linear_2152_1220)"/>
<path d="M245.138 446.612H241.489L240.733 448.329H239.722L242.833 441.461H243.804L246.924 448.329H245.894L245.138 446.612ZM244.795 445.827L243.313 442.462L241.832 445.827H244.795Z" fill="#333343"/>
<path d="M256.432 445.346V448.339H255.49V445.454C255.49 444.434 254.999 443.933 254.145 443.933C253.204 443.933 252.585 444.532 252.585 445.66V448.339H251.644V445.454C251.644 444.434 251.153 443.933 250.299 443.933C249.357 443.933 248.739 444.532 248.739 445.66V448.339H247.797V443.139H248.7V443.914C249.073 443.384 249.711 443.09 250.496 443.09C251.28 443.09 251.957 443.404 252.301 444.051C252.693 443.462 253.419 443.09 254.302 443.09C255.568 443.09 256.432 443.816 256.432 445.346Z" fill="#333343"/>
<path d="M257.727 445.729C257.727 444.179 258.875 443.08 260.435 443.08C261.995 443.08 263.133 444.179 263.133 445.729C263.133 447.279 261.995 448.388 260.435 448.388C258.875 448.388 257.727 447.279 257.727 445.729ZM262.181 445.729C262.181 444.62 261.436 443.904 260.435 443.904C259.434 443.904 258.679 444.62 258.679 445.729C258.679 446.838 259.434 447.564 260.435 447.564C261.436 447.564 262.181 446.838 262.181 445.729Z" fill="#333343"/>
<path d="M269.285 443.139V448.339H268.392V447.554C268.009 448.094 267.362 448.398 266.626 448.398C265.282 448.398 264.389 447.662 264.389 446.131V443.139H265.331V446.023C265.331 447.044 265.841 447.554 266.734 447.554C267.715 447.554 268.343 446.946 268.343 445.827V443.139H269.285Z" fill="#333343"/>
<path d="M276.016 445.346V448.339H275.074V445.454C275.074 444.434 274.563 443.933 273.671 443.933C272.67 443.933 272.022 444.532 272.022 445.66V448.339H271.08V443.139H271.983V443.924C272.366 443.394 273.033 443.09 273.857 443.09C275.123 443.09 276.016 443.816 276.016 445.346Z" fill="#333343"/>
<path d="M280.686 448.025C280.401 448.27 279.97 448.388 279.548 448.388C278.498 448.388 277.899 447.809 277.899 446.759V443.904H277.016V443.129H277.899V441.991H278.841V443.129H280.333V443.904H278.841V446.72C278.841 447.279 279.136 447.593 279.656 447.593C279.93 447.593 280.195 447.505 280.392 447.348L280.686 448.025Z" fill="#333343"/>
</g>
<defs>
<linearGradient id="paint0_linear_2152_1220" x1="548.671" y1="521.318" x2="553.733" y2="565.558" gradientUnits="userSpaceOnUse">
<stop stop-color="#FF928E"/>
<stop offset="1" stop-color="#FEB3B1"/>
</linearGradient>
<linearGradient id="paint1_linear_2152_1220" x1="507.373" y1="526.047" x2="512.446" y2="570.288" gradientUnits="userSpaceOnUse">
<stop stop-color="#FF928E"/>
<stop offset="1" stop-color="#FEB3B1"/>
</linearGradient>
<linearGradient id="paint2_linear_2152_1220" x1="1476.5" y1="728.696" x2="1407.61" y2="699.173" gradientUnits="userSpaceOnUse">
<stop stop-color="#FF928E"/>
<stop offset="1" stop-color="#FEB3B1"/>
</linearGradient>
<linearGradient id="paint3_linear_2152_1220" x1="676.123" y1="345.376" x2="623.778" y2="360.132" gradientUnits="userSpaceOnUse">
<stop stop-color="#FF928E"/>
<stop offset="1" stop-color="#FEB3B1"/>
</linearGradient>
<linearGradient id="paint4_linear_2152_1220" x1="537.466" y1="237.988" x2="556.824" y2="321.632" gradientUnits="userSpaceOnUse">
<stop stop-color="#FF928E"/>
<stop offset="1" stop-color="#FEB3B1"/>
</linearGradient>
<linearGradient id="paint5_linear_2152_1220" x1="643.274" y1="224.143" x2="591.381" y2="230.855" gradientUnits="userSpaceOnUse">
<stop stop-color="#FF928E"/>
<stop offset="1" stop-color="#FEB3B1"/>
</linearGradient>
<linearGradient id="paint6_linear_2152_1220" x1="568.473" y1="277.641" x2="553.13" y2="241.852" gradientUnits="userSpaceOnUse">
<stop stop-color="#FF928E"/>
<stop offset="1" stop-color="#FEB3B1"/>
</linearGradient>
<linearGradient id="paint7_linear_2152_1220" x1="1490.74" y1="695.464" x2="1421.85" y2="665.941" gradientUnits="userSpaceOnUse">
<stop stop-color="#FF928E"/>
<stop offset="1" stop-color="#FEB3B1"/>
</linearGradient>
<clipPath id="clip0_2152_1220">
<rect width="399.382" height="550" fill="white" transform="translate(206 14.999)"/>
</clipPath>
</defs>
</svg>
