<svg width="605" height="565" viewBox="0 0 605 565" fill="none" xmlns="http://www.w3.org/2000/svg">
<circle cx="417.116" cy="173.116" r="27.1656" transform="rotate(37.8143 417.116 173.116)" fill="#E5F2FF"/>
<circle cx="417.116" cy="173.116" r="27.1656" transform="rotate(37.8143 417.116 173.116)" fill="#E5F2FF"/>
<circle cx="417.116" cy="173.116" r="23.6472" transform="rotate(37.8143 417.116 173.116)" fill="#E5F2FF" stroke="white"/>
<path d="M405.266 178.375L419.053 160.61L430.618 169.585L428.675 172.089L419.9 165.279L415.755 170.62L423.576 176.69L421.633 179.194L413.811 173.124L408.056 180.54L405.266 178.375ZM405.524 174.104L406.967 172.244L416.434 179.591L414.99 181.451L405.524 174.104Z" fill="white"/>
<g clip-path="url(#clip0_2024_1212)">
<path d="M432.598 352.828L487.199 312.332C489.865 310.355 490.421 306.587 488.441 303.917L446.545 247.427C444.564 244.757 440.797 244.195 438.131 246.172L383.53 286.668C380.864 288.645 380.308 292.413 382.289 295.084L424.184 351.573C426.165 354.243 429.932 354.805 432.598 352.828Z" fill="#E5F2FF"/>
<path d="M457.083 261.636L392.827 309.292L382.28 295.072C380.301 292.404 380.858 288.631 383.521 286.656L438.122 246.16C440.786 244.185 444.558 244.747 446.536 247.415L457.083 261.636Z" fill="#F3F9FF"/>
<path d="M451.644 291.257L460.217 284.898C460.736 284.514 460.844 283.78 460.459 283.261L454.09 274.674C453.705 274.154 452.972 274.045 452.453 274.429L443.88 280.788C443.361 281.173 443.253 281.906 443.638 282.425L450.007 291.012C450.393 291.532 451.126 291.641 451.644 291.257Z" fill="white"/>
<path d="M439.373 300.358L447.946 293.999C448.465 293.615 448.573 292.881 448.188 292.362L441.819 283.775C441.434 283.255 440.701 283.146 440.182 283.531L431.609 289.889C431.09 290.274 430.982 291.007 431.367 291.526L437.736 300.113C438.122 300.633 438.855 300.742 439.373 300.358Z" fill="white"/>
<path d="M399.205 282.704C398.028 283.577 396.35 283.326 395.475 282.147L389.839 274.549C388.965 273.369 389.213 271.69 390.39 270.817C391.567 269.944 393.246 270.195 394.12 271.374L399.756 278.972C400.63 280.151 400.382 281.831 399.205 282.704Z" fill="#E5F2FF"/>
<path d="M410.058 274.673C408.881 275.546 407.203 275.296 406.328 274.117L400.693 266.518C399.818 265.339 400.057 263.648 401.234 262.775C402.411 261.902 404.09 262.152 404.964 263.331L410.6 270.93C411.474 272.109 411.227 273.788 410.05 274.661L410.058 274.673Z" fill="#E5F2FF"/>
<path d="M420.382 266.998C419.205 267.871 417.526 267.62 416.652 266.441L411.016 258.843C410.142 257.663 410.389 255.984 411.567 255.111C412.744 254.238 414.422 254.489 415.297 255.668L420.932 263.266C421.807 264.445 421.559 266.124 420.382 266.998Z" fill="#E5F2FF"/>
<path d="M427.031 309.512L435.604 303.153C436.123 302.768 436.231 302.035 435.846 301.516L429.477 292.929C429.092 292.409 428.359 292.3 427.84 292.684L419.267 299.043C418.748 299.427 418.64 300.161 419.025 300.68L425.394 309.267C425.779 309.787 426.512 309.896 427.031 309.512Z" fill="white"/>
<path d="M414.76 318.612L423.333 312.254C423.852 311.869 423.96 311.136 423.575 310.616L417.206 302.029C416.821 301.51 416.088 301.4 415.569 301.785L406.996 308.143C406.477 308.528 406.369 309.261 406.754 309.781L413.123 318.368C413.508 318.888 414.241 318.997 414.76 318.612Z" fill="white"/>
<path d="M460.197 302.987L468.77 296.629C469.289 296.244 469.397 295.511 469.012 294.991L462.643 286.404C462.258 285.885 461.525 285.775 461.006 286.16L452.433 292.518C451.914 292.903 451.806 293.636 452.191 294.156L458.56 302.743C458.945 303.263 459.678 303.372 460.197 302.987Z" fill="white"/>
<path d="M447.938 312.079L456.511 305.721C457.03 305.336 457.138 304.603 456.752 304.083L450.384 295.496C449.998 294.976 449.265 294.867 448.746 295.252L440.173 301.61C439.655 301.995 439.547 302.728 439.932 303.248L446.301 311.835C446.686 312.354 447.419 312.464 447.938 312.079Z" fill="white"/>
<path d="M435.584 321.242L444.157 314.884C444.676 314.499 444.784 313.766 444.398 313.246L438.03 304.659C437.644 304.139 436.911 304.03 436.392 304.415L427.819 310.773C427.301 311.158 427.193 311.891 427.578 312.411L433.947 320.998C434.332 321.517 435.065 321.627 435.584 321.242Z" fill="white"/>
<path d="M423.325 330.334L431.898 323.975C432.416 323.591 432.524 322.858 432.139 322.338L425.77 313.751C425.385 313.231 424.652 313.122 424.133 313.507L415.56 319.865C415.041 320.25 414.933 320.983 415.319 321.502L421.687 330.09C422.073 330.609 422.806 330.719 423.325 330.334Z" fill="white"/>
<path d="M468.841 314.816L477.414 308.457C477.933 308.073 478.041 307.339 477.656 306.82L471.287 298.233C470.902 297.713 470.169 297.604 469.65 297.989L461.077 304.347C460.558 304.732 460.45 305.465 460.835 305.984L467.204 314.572C467.589 315.091 468.322 315.2 468.841 314.816Z" fill="white"/>
<path d="M456.57 323.917L465.143 317.558C465.662 317.174 465.77 316.441 465.385 315.921L459.016 307.334C458.631 306.814 457.898 306.705 457.379 307.09L448.806 313.448C448.287 313.833 448.179 314.566 448.564 315.085L454.933 323.673C455.318 324.192 456.051 324.302 456.57 323.917Z" fill="white"/>
<path d="M444.228 333.071L452.801 326.712C453.32 326.328 453.428 325.594 453.042 325.075L446.674 316.488C446.288 315.968 445.555 315.859 445.037 316.243L436.463 322.602C435.945 322.986 435.837 323.72 436.222 324.239L442.591 332.826C442.976 333.346 443.709 333.455 444.228 333.071Z" fill="white"/>
<path d="M431.969 342.163L440.542 335.805C441.06 335.42 441.169 334.687 440.783 334.167L434.414 325.58C434.029 325.06 433.296 324.951 432.777 325.336L424.204 331.694C423.685 332.079 423.577 332.812 423.963 333.332L430.331 341.919C430.717 342.438 431.45 342.548 431.969 342.163Z" fill="white"/>
<path d="M430.751 259.308C429.574 260.181 427.895 259.93 427.02 258.751L421.385 251.153C420.51 249.973 420.746 248.303 421.935 247.421C423.124 246.54 424.791 246.799 425.665 247.978L431.301 255.576C432.176 256.756 431.928 258.435 430.751 259.308Z" fill="#E5F2FF"/>
</g>
<g clip-path="url(#clip1_2024_1212)">
<path d="M154.58 127.26C154.56 116.89 148.07 107.48 136.35 106.1C141.55 84.6801 120.31 65.7501 98.2501 79.5401C94.2301 67.5801 82.9101 58.9701 69.6001 59.0001C52.9401 59.0401 39.4701 72.5701 39.5101 89.2301C39.5101 89.5201 39.5201 89.8101 39.5301 90.1001C36.8601 89.3701 34.0601 88.9701 31.1601 88.9801C13.9101 89.0201 -0.0399142 103.04 8.58068e-05 120.29C0.0400858 137.54 14.0601 151.49 31.3101 151.45L131.48 151.21V151.13C143.83 150.14 154.61 139.86 154.58 127.26ZM61.8101 110.68L71.3901 120.26V87.9401H83.1801V120.27L92.7601 110.69L101.09 119.02L77.0601 143.09L53.4701 119.02L61.8001 110.69L61.8101 110.68Z" fill="#E5F2FF"/>
</g>
<g clip-path="url(#clip2_2024_1212)">
<path d="M390.272 101.97H389.754V47.626C389.754 29.6069 375.149 15 357.133 15H159.399C141.382 15 126.777 29.6069 126.777 47.626V101.97H126.26C123.908 101.97 122 103.876 122 106.23V143.823C122 146.175 123.906 148.084 126.26 148.084H126.777V157.05H126.26C123.908 157.05 122 158.956 122 161.31V198.903C122 201.255 123.906 203.163 126.26 203.163H126.777V532.374C126.777 550.393 141.382 565 159.399 565H357.133C375.149 565 389.754 550.393 389.754 532.374V171.136H390.272C392.623 171.136 394.531 169.231 394.531 166.876V106.228C394.531 103.876 392.626 101.968 390.272 101.968V101.97Z" fill="#333343"/>
<path d="M353.767 23.0693H162.765C148.132 23.0693 136.27 34.9331 136.27 49.5677V530.432C136.27 545.067 148.132 556.93 162.765 556.93H353.767C368.4 556.93 380.262 545.067 380.262 530.432V49.5677C380.262 34.9331 368.4 23.0693 353.767 23.0693Z" fill="white"/>
<path d="M380.262 411.32H136.27V411.443H380.262V411.32Z" fill="#ECECEC"/>
<path d="M352.881 418.357H323.655V418.48H352.881V418.357Z" fill="#ECECEC"/>
<path d="M301.648 415.716H275.996V415.839H301.648V415.716Z" fill="#ECECEC"/>
<path d="M321.015 418.295H313.036V418.418H321.015V418.295Z" fill="#ECECEC"/>
<path d="M187.4 415.654H163.651V415.777H187.4V415.654Z" fill="#ECECEC"/>
<path d="M194.659 415.654H189.569V415.777H194.659V415.654Z" fill="#ECECEC"/>
<path d="M235.004 416.705H218.583V416.828H235.004V416.705Z" fill="#ECECEC"/>
<path d="M251.929 389.556H157.701C156.164 389.556 154.917 388.306 154.917 386.771V254.297C154.917 252.76 156.166 251.513 157.701 251.513H251.929C253.463 251.513 254.713 252.763 254.713 254.297V386.769C254.713 388.306 253.463 389.553 251.929 389.553V389.556ZM157.701 251.633C156.233 251.633 155.037 252.827 155.037 254.297V386.769C155.037 388.236 156.23 389.433 157.701 389.433H251.929C253.397 389.433 254.593 388.239 254.593 386.769V254.297C254.593 252.829 253.399 251.633 251.929 251.633H157.701Z" fill="#ECECEC"/>
<path d="M357.478 389.556H263.25C261.716 389.556 260.466 388.306 260.466 386.771V254.297C260.466 252.76 261.716 251.513 263.25 251.513H357.478C359.015 251.513 360.263 252.763 360.263 254.297V386.769C360.263 388.306 359.013 389.553 357.478 389.553V389.556ZM263.25 251.636C261.782 251.636 260.586 252.829 260.586 254.3V386.771C260.586 388.239 261.78 389.435 263.25 389.435H357.478C358.946 389.435 360.142 388.242 360.142 386.771V254.297C360.142 252.829 358.949 251.633 357.478 251.633H263.25V251.636Z" fill="#ECECEC"/>
<path d="M380.262 56.7661H136.27V80.4517H380.262V56.7661Z" fill="#E5F2FF"/>
<path d="M380.262 83.1699H136.27V106.856H380.262V83.1699Z" fill="#E5F2FF"/>
<path d="M380.262 109.573H136.27V133.259H380.262V109.573Z" fill="#E5F2FF"/>
<path d="M380.262 135.979H136.27V159.665H380.262V135.979Z" fill="#E5F2FF"/>
<path d="M380.262 162.383H136.27V186.069H380.262V162.383Z" fill="#E5F2FF"/>
<path d="M380.262 188.303H136.27V211.988H380.262V188.303Z" fill="#E5F2FF"/>
<path d="M380.262 214.222H136.27V237.908H380.262V214.222Z" fill="#E5F2FF"/>
<path d="M364.01 264.247H304.814V355.764H364.01V264.247Z" fill="#E7E7E7"/>
<path d="M366.938 264.247H306.182V355.764H366.938V264.247Z" fill="#F0F0F0"/>
<path d="M364.01 355.764H304.814V358.085H365.378L364.01 355.764Z" fill="#E7E7E7"/>
<path d="M371.815 355.764H311.059L312.055 358.085H372.686L371.815 355.764Z" fill="#F0F0F0"/>
<path d="M362.837 351.665V268.346H310.277V351.665H362.837Z" fill="#FAFAFA"/>
<path d="M316.748 351.665L333.852 268.346H345.207L328.105 351.665H316.748Z" fill="white"/>
<path d="M330.543 351.665L347.648 268.346H352.074L334.969 351.665H330.543Z" fill="white"/>
<path d="M362.84 351.665V268.346H362.32V351.665H362.84Z" fill="#E7E7E7"/>
<path d="M298.882 410.585H148.641V421.385H298.882V410.585Z" fill="#E5F2FF"/>
<path d="M298.882 386.812H148.641V410.583H298.882V386.812Z" fill="#F5FAFF"/>
<path d="M273.737 267.457H148.641V386.812H298.884L273.737 267.457Z" fill="#F5FAFF"/>
<path d="M267.771 391.291H179.757V399.391H267.771V391.291Z" fill="white"/>
<path d="M299.947 385.109H147.576V388.519H299.947V385.109Z" fill="#E5F2FF"/>
<path d="M298.175 404.716H149.351C148.096 404.716 147.079 405.734 147.079 406.989V414.179C147.079 415.434 148.096 416.452 149.351 416.452H298.175C299.43 416.452 300.447 415.434 300.447 414.179V406.989C300.447 405.734 299.43 404.716 298.175 404.716Z" fill="#ECECEC"/>
<path d="M274.054 257.226H148.749C148.101 257.226 147.576 257.751 147.576 258.399V268.2C147.576 268.848 148.101 269.373 148.749 269.373H274.054C274.702 269.373 275.227 268.848 275.227 268.2V258.399C275.227 257.751 274.702 257.226 274.054 257.226Z" fill="#E5F2FF"/>
<path d="M271.029 273.213H152.478V305.324H277.794L271.029 273.213Z" fill="#E5F2FF"/>
<path d="M278.829 310.23H152.478V342.341H285.593L278.829 310.23Z" fill="#E5F2FF"/>
<path d="M286.628 347.244H152.478V379.355H293.393L286.628 347.244Z" fill="#E5F2FF"/>
<path d="M176.781 284.231H166.297V305.324H176.781V284.231Z" fill="#FAFAFA"/>
<path d="M161.871 305.327H166.297V284.234H161.871V305.327Z" fill="#F0F0F0"/>
<path d="M187.508 330.529H173.761V342.341H187.508V330.529Z" fill="#FAFAFA"/>
<path d="M167.957 342.341H173.761V330.529H167.957V342.341Z" fill="#F0F0F0"/>
<path d="M209.717 330.529H195.97V342.341H209.717V330.529Z" fill="#FAFAFA"/>
<path d="M190.164 342.341H195.968V330.529H190.164V342.341Z" fill="#F0F0F0"/>
<path d="M198.855 318.719H185.108V330.531H198.855V318.719Z" fill="#FAFAFA"/>
<path d="M179.304 330.529H185.108V318.717H179.304V330.529Z" fill="#F0F0F0"/>
<path d="M239.237 330.529H225.49V342.341H239.237V330.529Z" fill="#FAFAFA"/>
<path d="M219.684 342.341H225.488V330.529H219.684V342.341Z" fill="#F0F0F0"/>
<path d="M261.447 330.529H247.7V342.341H261.447V330.529Z" fill="#FAFAFA"/>
<path d="M241.896 342.341H247.7V330.529H241.896V342.341Z" fill="#F0F0F0"/>
<path d="M250.584 318.719H236.837V330.531H250.584V318.719Z" fill="#FAFAFA"/>
<path d="M231.033 330.529H236.837V318.717H231.033V330.529Z" fill="#F0F0F0"/>
<path d="M194.39 287.733H183.906V305.327H194.39V287.733Z" fill="#FAFAFA"/>
<path d="M179.48 305.324H183.906V287.73H179.48V305.324Z" fill="#F0F0F0"/>
<path d="M212.002 284.231H201.519V305.324H212.002V284.231Z" fill="#FAFAFA"/>
<path d="M197.092 305.327H201.519V284.234H197.092V305.327Z" fill="#F0F0F0"/>
<path d="M229.612 287.733H219.128V305.327H229.612V287.733Z" fill="#FAFAFA"/>
<path d="M214.702 305.324H219.128V287.73H214.702V305.324Z" fill="#F0F0F0"/>
<path d="M247.221 284.231H236.737V305.324H247.221V284.231Z" fill="#FAFAFA"/>
<path d="M232.314 305.327H236.74V284.234H232.314V305.327Z" fill="#F0F0F0"/>
<path d="M264.833 287.733H254.35V305.327H264.833V287.733Z" fill="#FAFAFA"/>
<path d="M249.921 305.324H254.347V287.73H249.921V305.324Z" fill="#F0F0F0"/>
<path d="M183.038 376.03C182.63 372.821 181.965 368.02 181.281 365.012C180.538 361.733 178.522 357.107 175.433 355.793V354.581C175.433 354.358 175.249 354.174 175.026 354.174H172.4C172.177 354.174 171.993 354.358 171.993 354.581V355.754C171.447 355.959 170.881 356.262 170.295 356.682C165.126 360.404 168.294 365.33 169.713 368.627C168.686 370.863 168.415 374.017 168.369 376.328C168.335 377.99 169.665 379.358 171.33 379.358H180.1C181.883 379.358 183.263 377.798 183.038 376.028V376.03ZM172.257 368.14C171.722 368.332 171.13 368.053 170.938 367.518L169.065 362.307C168.873 361.772 169.152 361.18 169.688 360.988C169.803 360.947 169.921 360.924 170.036 360.924C170.461 360.924 170.856 361.19 171.007 361.61L172.879 366.821C173.071 367.356 172.792 367.951 172.257 368.14Z" fill="#FAFAFA"/>
<path d="M175.349 353.395H172.078C171.83 353.395 171.629 353.596 171.629 353.843V354.976C171.629 355.223 171.83 355.424 172.078 355.424H175.349C175.596 355.424 175.797 355.223 175.797 354.976V353.843C175.797 353.596 175.596 353.395 175.349 353.395Z" fill="#F0F0F0"/>
<path d="M201.982 376.03C201.575 372.821 200.909 368.02 200.225 365.012C199.482 361.733 197.466 357.107 194.38 355.793V354.581C194.38 354.358 194.195 354.174 193.972 354.174H191.347C191.124 354.174 190.94 354.358 190.94 354.581V355.754C190.394 355.959 189.828 356.262 189.242 356.682C184.073 360.404 187.241 365.33 188.66 368.627C187.633 370.863 187.362 374.017 187.315 376.328C187.282 377.99 188.612 379.358 190.276 379.358H199.047C200.829 379.358 202.21 377.798 201.984 376.028L201.982 376.03ZM191.201 368.14C190.666 368.332 190.074 368.053 189.882 367.518L188.01 362.307C187.817 361.772 188.097 361.18 188.632 360.988C188.747 360.947 188.865 360.924 188.98 360.924C189.406 360.924 189.8 361.19 189.951 361.61L191.823 366.821C192.016 367.356 191.736 367.951 191.201 368.14Z" fill="#FAFAFA"/>
<path d="M194.295 353.395H191.024C190.777 353.395 190.576 353.596 190.576 353.843V354.976C190.576 355.223 190.777 355.424 191.024 355.424H194.295C194.543 355.424 194.744 355.223 194.744 354.976V353.843C194.744 353.596 194.543 353.395 194.295 353.395Z" fill="#F0F0F0"/>
<path d="M220.928 376.03C220.521 372.821 219.855 368.02 219.171 365.012C218.428 361.733 216.413 357.107 213.324 355.793V354.581C213.324 354.358 213.139 354.174 212.916 354.174H210.291C210.068 354.174 209.884 354.358 209.884 354.581V355.754C209.338 355.959 208.772 356.262 208.185 356.682C203.017 360.404 206.185 365.33 207.604 368.627C206.577 370.863 206.305 374.017 206.259 376.328C206.226 377.99 207.555 379.358 209.22 379.358H217.99C219.773 379.358 221.154 377.798 220.928 376.028V376.03ZM210.147 368.14C209.612 368.332 209.02 368.053 208.828 367.518L206.956 362.307C206.764 361.772 207.043 361.18 207.578 360.988C207.694 360.947 207.811 360.924 207.927 360.924C208.352 360.924 208.746 361.19 208.898 361.61L210.77 366.821C210.962 367.356 210.683 367.951 210.147 368.14Z" fill="#FAFAFA"/>
<path d="M213.242 353.395H209.971C209.723 353.395 209.522 353.596 209.522 353.843V354.976C209.522 355.223 209.723 355.424 209.971 355.424H213.242C213.489 355.424 213.69 355.223 213.69 354.976V353.843C213.69 353.596 213.489 353.395 213.242 353.395Z" fill="#F0F0F0"/>
<path d="M239.875 376.03C239.468 372.821 238.802 368.02 238.118 365.012C237.375 361.733 235.359 357.107 232.273 355.793V354.581C232.273 354.358 232.088 354.174 231.866 354.174H229.24C229.017 354.174 228.833 354.358 228.833 354.581V355.754C228.287 355.959 227.721 356.262 227.135 356.682C221.966 360.404 225.134 365.33 226.553 368.627C225.526 370.863 225.255 374.017 225.209 376.328C225.175 377.99 226.505 379.358 228.169 379.358H236.94C238.722 379.358 240.103 377.798 239.878 376.028L239.875 376.03ZM229.094 368.14C228.559 368.332 227.967 368.053 227.775 367.518L225.903 362.307C225.711 361.772 225.99 361.18 226.525 360.988C226.64 360.947 226.758 360.924 226.873 360.924C227.299 360.924 227.693 361.19 227.844 361.61L229.717 366.821C229.909 367.356 229.629 367.951 229.094 368.14Z" fill="#FAFAFA"/>
<path d="M232.188 353.395H228.917C228.67 353.395 228.469 353.596 228.469 353.843V354.976C228.469 355.223 228.67 355.424 228.917 355.424H232.188C232.436 355.424 232.637 355.223 232.637 354.976V353.843C232.637 353.596 232.436 353.395 232.188 353.395Z" fill="#F0F0F0"/>
<path d="M258.821 376.03C258.414 372.821 257.748 368.02 257.064 365.012C256.321 361.733 254.306 357.107 251.217 355.793V354.581C251.217 354.358 251.032 354.174 250.809 354.174H248.184C247.961 354.174 247.777 354.358 247.777 354.581V355.754C247.231 355.959 246.665 356.262 246.079 356.682C240.91 360.404 244.078 365.33 245.497 368.627C244.47 370.863 244.198 374.017 244.152 376.328C244.119 377.99 245.448 379.358 247.113 379.358H255.884C257.666 379.358 259.047 377.798 258.821 376.028V376.03ZM248.041 368.14C247.505 368.332 246.914 368.053 246.721 367.518L244.849 362.307C244.657 361.772 244.936 361.18 245.471 360.988C245.587 360.947 245.705 360.924 245.82 360.924C246.245 360.924 246.639 361.19 246.791 361.61L248.663 366.821C248.855 367.356 248.576 367.951 248.041 368.14Z" fill="#FAFAFA"/>
<path d="M251.135 353.395H247.864C247.616 353.395 247.416 353.596 247.416 353.843V354.976C247.416 355.223 247.616 355.424 247.864 355.424H251.135C251.382 355.424 251.583 355.223 251.583 354.976V353.843C251.583 353.596 251.382 353.395 251.135 353.395Z" fill="#F0F0F0"/>
<path d="M277.768 376.03C277.361 372.821 276.695 368.02 276.011 365.012C275.268 361.733 273.252 357.107 270.166 355.793V354.581C270.166 354.358 269.981 354.174 269.759 354.174H267.133C266.91 354.174 266.726 354.358 266.726 354.581V355.754C266.18 355.959 265.614 356.262 265.028 356.682C259.859 360.404 263.027 365.33 264.446 368.627C263.419 370.863 263.148 374.017 263.102 376.328C263.068 377.99 264.398 379.358 266.063 379.358H274.833C276.615 379.358 277.996 377.798 277.771 376.028L277.768 376.03ZM266.987 368.14C266.452 368.332 265.86 368.053 265.668 367.518L263.796 362.307C263.604 361.772 263.883 361.18 264.418 360.988C264.533 360.947 264.651 360.924 264.766 360.924C265.192 360.924 265.586 361.19 265.737 361.61L267.61 366.821C267.802 367.356 267.523 367.951 266.987 368.14Z" fill="#FAFAFA"/>
<path d="M270.081 353.395H266.811C266.563 353.395 266.362 353.596 266.362 353.843V354.976C266.362 355.223 266.563 355.424 266.811 355.424H270.081C270.329 355.424 270.53 355.223 270.53 354.976V353.843C270.53 353.596 270.329 353.395 270.081 353.395Z" fill="#F0F0F0"/>
<path d="M267.73 446.331C326.874 446.331 374.819 443.53 374.819 440.076C374.819 436.621 326.874 433.82 267.73 433.82C208.586 433.82 160.641 436.621 160.641 440.076C160.641 443.53 208.586 446.331 267.73 446.331Z" fill="#F5FAFF"/>
<path d="M335.195 366.101C334.956 366.101 334.718 365.994 334.562 365.786L331.137 361.252C330.874 360.904 330.943 360.407 331.291 360.143C331.639 359.879 332.136 359.948 332.398 360.296L335.822 364.831C336.086 365.179 336.017 365.676 335.668 365.94C335.525 366.047 335.359 366.099 335.192 366.099L335.195 366.101Z" fill="#678BC9"/>
<path d="M331.77 361.567H310.6C310.162 361.567 309.809 361.214 309.809 360.775C309.809 360.337 310.162 359.984 310.6 359.984H331.77C332.208 359.984 332.561 360.337 332.561 360.775C332.561 361.214 332.208 361.567 331.77 361.567Z" fill="#A31D1D"/>
<path d="M361.597 340.079L362.494 332.666L349.859 330.398L349.689 340.151L361.597 340.079Z" fill="#C9E3F4"/>
<path d="M349.859 330.398L337.981 336.06L338.819 343.299L349.69 340.151L349.859 330.398Z" fill="#B5CEE2"/>
<path d="M361.933 349.04L363.393 340.363L349.654 337.615L348.588 346.217L361.933 349.04Z" fill="#DD6862"/>
<path d="M349.654 337.615L335.974 343.829L335.067 351.159L348.588 346.217L349.654 337.615Z" fill="#D8504A"/>
<path d="M335.067 351.158L349.388 352.934L361.933 349.04L348.588 346.217L335.067 351.158Z" fill="#AF3A2E"/>
<path d="M367.263 358.324L368.482 348.233L353.288 346.801L353.088 358.408L367.263 358.324Z" fill="#F9AE40"/>
<path d="M353.288 346.801L338.929 351.638L340.236 358.232L353.089 358.408L353.288 346.801Z" fill="#DD9033"/>
<path d="M368.208 390.097L370.66 359.095L363.452 356.379L335.61 358.262L333.894 387.666L358.06 390.663L368.208 390.097Z" fill="#B5CEE2"/>
<path d="M363.452 356.379L360.063 390.55L368.208 390.097L370.659 359.095L363.452 356.379Z" fill="#C9E3F4"/>
<path d="M329.926 356L344.292 359.892V389.38L328.491 385.693L329.926 356Z" fill="#D8504A"/>
<path d="M344.292 359.891L350.955 358.137L353.887 387.128L344.292 389.379V359.891Z" fill="#DD6862"/>
<path d="M329.926 356.001L336.393 354.771L350.955 358.137L344.293 359.892L329.926 356.001Z" fill="#AF3A2E"/>
<path d="M340.878 361.272C340.878 361.272 340.855 361.272 340.845 361.272C340.591 361.254 340.399 361.034 340.42 360.778C340.886 354.458 340.558 347.675 339.206 347.255C339.124 347.232 339.006 347.214 338.824 347.326C337.21 348.313 335.73 354.94 335.294 357.409C335.251 357.66 335.018 357.829 334.762 357.783C334.513 357.74 334.344 357.502 334.388 357.251C334.554 356.3 336.086 347.921 338.342 346.54C338.709 346.317 339.101 346.258 339.477 346.374C342.202 347.216 341.508 358.575 341.339 360.845C341.321 361.088 341.119 361.272 340.881 361.272H340.878Z" fill="#AF3A2E"/>
<path d="M341.731 348.32C341.677 348.32 341.624 348.31 341.57 348.292C341.332 348.202 341.211 347.939 341.301 347.7C341.321 347.644 343.306 342.121 340.799 341.122C338.145 340.069 334.485 344.524 334.449 344.567C334.288 344.767 333.996 344.795 333.801 344.634C333.604 344.473 333.573 344.183 333.735 343.986C333.901 343.781 337.876 338.962 341.139 340.264C344.52 341.611 342.261 347.759 342.164 348.021C342.095 348.205 341.918 348.32 341.731 348.32Z" fill="#135E8C"/>
<path d="M327.331 341.281L340.028 343.763L331.222 369.977L315.047 364.241L327.331 341.281Z" fill="#B5CEE2"/>
<path d="M340.028 343.763L345.146 348.269L336.137 375.3L331.222 369.977L340.028 343.763Z" fill="#C9E3F4"/>
<path d="M315.047 364.241L318.118 369.157L336.137 375.3L331.222 369.977L315.047 364.241Z" fill="#7DB0D3"/>
<path d="M337.569 344.737C337.408 344.737 337.252 344.652 337.17 344.503C337.044 344.281 337.123 344.001 337.344 343.876C338.806 343.051 340.925 341.46 340.825 340.671C340.786 340.361 340.233 340.164 339.905 340.074C336.296 339.088 331.563 342.954 331.517 342.992C331.319 343.153 331.03 343.128 330.869 342.931C330.707 342.736 330.735 342.444 330.93 342.282C331.138 342.111 336.073 338.071 340.151 339.185C341.127 339.452 341.662 339.913 341.742 340.556C341.952 342.241 338.494 344.283 337.8 344.675C337.728 344.716 337.649 344.734 337.572 344.734L337.569 344.737Z" fill="#2C83AF"/>
<path d="M317.526 424.19L316.927 427.91C316.893 428.123 316.709 428.279 316.494 428.279C316.279 428.279 316.094 428.123 316.061 427.91L315.482 424.193H317.526V424.19Z" fill="#678BC9"/>
<path d="M314.296 427.756C314.296 427.029 314.598 426.388 315.059 425.994V425.586H316.114C317.119 425.586 317.933 426.557 317.933 427.756C317.933 428.955 317.119 429.926 316.114 429.926C316.099 429.926 316.086 429.921 316.074 429.921L315.059 429.926V429.519C314.598 429.124 314.296 428.484 314.296 427.756Z" fill="#678BC9"/>
<path d="M315.062 425.586C316.066 425.586 316.88 426.557 316.88 427.756C316.88 428.955 316.066 429.926 315.062 429.926C314.058 429.926 313.243 428.955 313.243 427.756C313.243 426.557 314.058 425.586 315.062 425.586Z" fill="#C7DBFF"/>
<path d="M315.943 424.19L315.344 427.91C315.31 428.123 315.126 428.279 314.911 428.279C314.696 428.279 314.511 428.123 314.478 427.91L313.899 424.193H315.943V424.19Z" fill="#A4BEF4"/>
<path d="M334.933 424.19L334.334 427.91C334.3 428.123 334.116 428.279 333.901 428.279C333.686 428.279 333.501 428.123 333.468 427.91L332.889 424.193H334.933V424.19Z" fill="#678BC9"/>
<path d="M331.706 427.756C331.706 427.029 332.008 426.388 332.469 425.994V425.586H333.524C334.528 425.586 335.343 426.557 335.343 427.756C335.343 428.955 334.528 429.926 333.524 429.926C333.509 429.926 333.496 429.921 333.483 429.921L332.469 429.926V429.519C332.008 429.124 331.706 428.484 331.706 427.756Z" fill="#678BC9"/>
<path d="M332.469 425.586C333.473 425.586 334.288 426.557 334.288 427.756C334.288 428.955 333.473 429.926 332.469 429.926C331.465 429.926 330.65 428.955 330.65 427.756C330.65 426.557 331.465 425.586 332.469 425.586Z" fill="#A4BEF4"/>
<path d="M333.35 424.19L332.751 427.91C332.717 428.123 332.533 428.279 332.318 428.279C332.103 428.279 331.918 428.123 331.885 427.91L331.306 424.193H333.35V424.19Z" fill="#678BC9"/>
<path d="M356.562 424.19L355.962 427.91C355.929 428.123 355.744 428.279 355.529 428.279C355.314 428.279 355.13 428.123 355.096 427.91L354.518 424.193H356.562V424.19Z" fill="#678BC9"/>
<path d="M353.332 427.756C353.332 427.029 353.634 426.388 354.095 425.994V425.586H355.15C356.154 425.586 356.969 426.557 356.969 427.756C356.969 428.955 356.154 429.926 355.15 429.926C355.135 429.926 355.122 429.921 355.109 429.921L354.095 429.926V429.519C353.634 429.124 353.332 428.484 353.332 427.756Z" fill="#678BC9"/>
<path d="M354.095 425.586C355.099 425.586 355.914 426.557 355.914 427.756C355.914 428.955 355.099 429.926 354.095 429.926C353.091 429.926 352.276 428.955 352.276 427.756C352.276 426.557 353.091 425.586 354.095 425.586Z" fill="#C7DBFF"/>
<path d="M354.979 424.19L354.379 427.91C354.346 428.123 354.161 428.279 353.946 428.279C353.731 428.279 353.547 428.123 353.513 427.91L352.935 424.193H354.979V424.19Z" fill="#A4BEF4"/>
<path d="M373.969 424.19L373.369 427.91C373.336 428.123 373.152 428.279 372.937 428.279C372.721 428.279 372.537 428.123 372.504 427.91L371.925 424.193H373.969V424.19Z" fill="#678BC9"/>
<path d="M370.739 427.756C370.739 427.029 371.041 426.388 371.502 425.994V425.586H372.557C373.561 425.586 374.376 426.557 374.376 427.756C374.376 428.955 373.561 429.926 372.557 429.926C372.542 429.926 372.529 429.921 372.516 429.921L371.502 429.926V429.519C371.041 429.124 370.739 428.484 370.739 427.756Z" fill="#678BC9"/>
<path d="M371.505 425.586C372.509 425.586 373.323 426.557 373.323 427.756C373.323 428.955 372.509 429.926 371.505 429.926C370.501 429.926 369.686 428.955 369.686 427.756C369.686 426.557 370.501 425.586 371.505 425.586Z" fill="#A4BEF4"/>
<path d="M372.386 424.19L371.786 427.91C371.753 428.123 371.569 428.279 371.354 428.279C371.138 428.279 370.954 428.123 370.921 427.91L370.342 424.193H372.386V424.19Z" fill="#678BC9"/>
<path d="M374.714 424.849H331.355C331.093 424.849 330.85 424.721 330.701 424.506C330.555 424.29 330.522 424.016 330.617 423.773L339.741 400.328C340.496 398.386 342.33 397.131 344.415 397.131H365.142C367.614 397.131 369.627 395.12 369.627 392.646C369.627 392.21 369.98 391.854 370.418 391.854C370.856 391.854 371.21 392.208 371.21 392.646C371.21 395.991 368.49 398.712 365.144 398.712H344.418C342.991 398.712 341.733 399.57 341.216 400.902L332.512 423.271H374.714C375.149 423.271 375.505 423.624 375.505 424.062C375.505 424.5 375.152 424.854 374.714 424.854V424.849Z" fill="#678BC9"/>
<path d="M351.177 393.435H323.942C323.599 393.435 323.294 393.212 323.189 392.886L314.396 365.55C314.319 365.31 314.36 365.046 314.509 364.843C314.657 364.638 314.895 364.518 315.149 364.518H353.985C354.42 364.518 354.776 364.872 354.776 365.31C354.776 365.748 354.423 366.101 353.985 366.101H316.235L324.518 391.854H351.177C351.613 391.854 351.969 392.208 351.969 392.646C351.969 393.084 351.615 393.437 351.177 393.437V393.435Z" fill="#678BC9"/>
<path d="M329.306 393.434C328.962 393.434 328.645 393.209 328.545 392.863L320.687 365.527C320.566 365.107 320.81 364.669 321.227 364.549C321.647 364.426 322.085 364.669 322.205 365.089L330.064 392.425C330.184 392.845 329.941 393.283 329.523 393.404C329.449 393.424 329.377 393.434 329.306 393.434Z" fill="#678BC9"/>
<path d="M335.194 393.434C334.841 393.434 334.518 393.196 334.428 392.835L327.579 365.499C327.474 365.076 327.73 364.646 328.153 364.541C328.576 364.436 329.006 364.692 329.113 365.117L335.963 392.453C336.068 392.876 335.811 393.306 335.389 393.411C335.325 393.427 335.261 393.434 335.197 393.434H335.194Z" fill="#678BC9"/>
<path d="M336.728 373.135H317.413C316.975 373.135 316.622 372.782 316.622 372.344C316.622 371.906 316.975 371.552 317.413 371.552H336.728C337.166 371.552 337.52 371.906 337.52 372.344C337.52 372.782 337.166 373.135 336.728 373.135Z" fill="#678BC9"/>
<path d="M338.271 379.768H319.544C319.106 379.768 318.753 379.414 318.753 378.976C318.753 378.538 319.106 378.185 319.544 378.185H338.271C338.709 378.185 339.062 378.538 339.062 378.976C339.062 379.414 338.709 379.768 338.271 379.768Z" fill="#678BC9"/>
<path d="M339.815 386.628H321.749C321.311 386.628 320.958 386.275 320.958 385.836C320.958 385.398 321.311 385.045 321.749 385.045H339.815C340.253 385.045 340.606 385.398 340.606 385.836C340.606 386.275 340.253 386.628 339.815 386.628Z" fill="#678BC9"/>
<path d="M371.223 393.434H341.349C340.981 393.434 340.66 393.178 340.578 392.817L334.423 365.481C334.37 365.248 334.429 365.002 334.577 364.815C334.728 364.628 334.954 364.518 335.194 364.518H374.03C374.253 364.518 374.468 364.612 374.617 364.779C374.768 364.945 374.84 365.168 374.816 365.389L372.009 392.725C371.968 393.127 371.628 393.434 371.223 393.434ZM341.982 391.854H370.508L373.152 366.101H336.18L341.979 391.854H341.982Z" fill="#678BC9"/>
<path d="M347.453 393.434C347.074 393.434 346.738 393.16 346.674 392.776L342.061 365.44C341.989 365.01 342.279 364.602 342.709 364.528C343.14 364.456 343.547 364.746 343.621 365.176L348.234 392.512C348.306 392.943 348.016 393.35 347.586 393.424C347.543 393.432 347.496 393.434 347.453 393.434Z" fill="#678BC9"/>
<path d="M365.247 393.435C365.231 393.435 365.216 393.435 365.201 393.435C364.765 393.409 364.432 393.035 364.458 392.599L366.038 365.263C366.064 364.828 366.428 364.49 366.873 364.52C367.309 364.546 367.642 364.92 367.616 365.356L366.036 392.692C366.013 393.112 365.662 393.437 365.247 393.437V393.435Z" fill="#678BC9"/>
<path d="M359.405 393.434C358.977 393.434 358.626 393.093 358.613 392.663L357.955 365.327C357.945 364.892 358.29 364.528 358.726 364.518C359.161 364.518 359.525 364.853 359.535 365.289L360.193 392.625C360.204 393.06 359.858 393.424 359.422 393.434H359.402H359.405Z" fill="#678BC9"/>
<path d="M353.296 393.435C352.891 393.435 352.545 393.125 352.509 392.712L350.137 365.376C350.099 364.941 350.422 364.556 350.857 364.521C351.285 364.48 351.677 364.805 351.713 365.24L354.084 392.576C354.123 393.012 353.8 393.396 353.365 393.432C353.342 393.432 353.319 393.435 353.296 393.435Z" fill="#678BC9"/>
<path d="M373.369 373.135H336.728C336.29 373.135 335.937 372.782 335.937 372.344C335.937 371.906 336.29 371.552 336.728 371.552H373.369C373.805 371.552 374.161 371.906 374.161 372.344C374.161 372.782 373.807 373.135 373.369 373.135Z" fill="#678BC9"/>
<path d="M372.626 379.768H338.273C337.835 379.768 337.481 379.414 337.481 378.976C337.481 378.538 337.835 378.185 338.273 378.185H372.626C373.062 378.185 373.418 378.538 373.418 378.976C373.418 379.414 373.064 379.768 372.626 379.768Z" fill="#678BC9"/>
<path d="M371.922 386.628H339.818C339.38 386.628 339.026 386.275 339.026 385.836C339.026 385.398 339.38 385.045 339.818 385.045H371.922C372.358 385.045 372.714 385.398 372.714 385.836C372.714 386.275 372.36 386.628 371.922 386.628Z" fill="#678BC9"/>
<path d="M315.149 366.101C314.947 366.101 314.744 366.024 314.591 365.871L310.042 361.336C309.732 361.029 309.732 360.527 310.042 360.217C310.349 359.907 310.851 359.907 311.161 360.217L315.71 364.751C316.02 365.059 316.02 365.561 315.71 365.871C315.556 366.024 315.354 366.104 315.149 366.104V366.101Z" fill="#678BC9"/>
<path d="M314.094 366.101H354.164C354.602 366.101 354.955 365.748 354.955 365.31C354.955 364.872 354.602 364.518 354.164 364.518H314.094C313.658 364.518 313.302 364.872 313.302 365.31C313.302 365.748 313.656 366.101 314.094 366.101Z" fill="#6D0606"/>
<path d="M354.774 365.31C354.774 365.745 354.423 366.104 353.987 366.104H350.196L350.135 365.379C350.097 364.944 350.417 364.562 350.852 364.523H353.985C354.42 364.523 354.771 364.874 354.771 365.31H354.774Z" fill="#A4BEF4"/>
<path d="M374.816 365.394L374.13 372.126L374.069 372.715L373.418 378.981C373.418 379.035 373.41 379.089 373.403 379.143L372.716 385.837C372.716 385.89 372.708 385.944 372.701 385.998L372.014 392.73C371.968 393.135 371.633 393.44 371.228 393.44H353.303C352.899 393.44 352.548 393.127 352.517 392.715L352.44 391.859H370.511L371.046 386.633L371.207 385.053L371.75 379.773L371.92 378.192L372.44 373.141L372.601 371.56L373.159 366.111H350.207L350.145 365.386C350.107 364.951 350.427 364.569 350.862 364.531H374.038C374.261 364.531 374.473 364.623 374.627 364.789C374.773 364.959 374.847 365.179 374.827 365.402L374.816 365.394Z" fill="#A4BEF4"/>
<path d="M365.247 393.435C365.232 393.435 365.217 393.435 365.201 393.435C364.766 393.409 364.433 393.035 364.458 392.599L366.039 365.263C366.064 364.828 366.428 364.49 366.874 364.52C367.309 364.546 367.642 364.92 367.617 365.356L366.036 392.692C366.013 393.112 365.662 393.437 365.247 393.437V393.435Z" fill="#A4BEF4"/>
<path d="M359.405 393.435C358.977 393.435 358.626 393.094 358.613 392.664L357.955 365.328C357.945 364.892 358.29 364.528 358.726 364.518C359.161 364.518 359.525 364.854 359.535 365.289L360.193 392.625C360.204 393.061 359.858 393.424 359.422 393.435H359.402H359.405Z" fill="#A4BEF4"/>
<path d="M354.087 392.574C354.126 393.01 353.805 393.392 353.37 393.43C353.347 393.438 353.324 393.438 353.301 393.438C352.896 393.438 352.545 393.125 352.514 392.713L352.438 391.857L351.987 386.631L351.849 385.051L351.39 379.771L351.252 378.19L350.809 373.139L350.67 371.558L350.196 366.109L350.135 365.384C350.097 364.949 350.417 364.567 350.852 364.529H350.921C351.318 364.529 351.669 364.834 351.708 365.246L351.784 366.109L352.258 371.558L352.397 373.139L352.832 378.19L352.97 379.771L353.429 385.051L353.567 386.631L354.026 391.857L354.087 392.574Z" fill="#A4BEF4"/>
<path d="M374.158 372.347C374.158 372.478 374.128 372.606 374.066 372.713C373.935 372.964 373.677 373.133 373.372 373.133H350.809L350.67 371.553H373.372C373.731 371.553 374.03 371.796 374.128 372.127C374.151 372.196 374.158 372.273 374.158 372.349V372.347Z" fill="#A4BEF4"/>
<path d="M373.418 378.979C373.418 379.033 373.41 379.087 373.403 379.14C373.326 379.499 373.006 379.768 372.624 379.768H351.39L351.252 378.188H372.624C373.06 378.188 373.418 378.546 373.418 378.982V378.979Z" fill="#A4BEF4"/>
<path d="M372.716 385.834C372.716 385.888 372.709 385.942 372.701 385.996C372.624 386.354 372.304 386.631 371.922 386.631H351.987L351.849 385.05H371.92C372.355 385.05 372.714 385.401 372.714 385.837L372.716 385.834Z" fill="#A4BEF4"/>
<path d="M349.571 366.101H375.265C375.703 366.101 376.056 365.748 376.056 365.31C376.056 364.872 375.703 364.518 375.265 364.518H349.571C349.133 364.518 348.78 364.872 348.78 365.31C348.78 365.748 349.133 366.101 349.571 366.101Z" fill="#A31D1D"/>
<path d="M356.187 424.849H312.828C312.567 424.849 312.324 424.721 312.175 424.506C312.029 424.29 311.996 424.016 312.091 423.773L321.214 400.328C321.97 398.386 323.804 397.131 325.889 397.131H347.558C350.03 397.131 352.043 395.12 352.043 392.646C352.043 392.21 352.396 391.854 352.834 391.854C353.272 391.854 353.626 392.208 353.626 392.646C353.626 395.991 350.906 398.712 347.561 398.712H325.891C324.465 398.712 323.207 399.57 322.69 400.902L313.986 423.271H356.187C356.623 423.271 356.979 423.624 356.979 424.062C356.979 424.5 356.625 424.854 356.187 424.854V424.849Z" fill="#A4BEF4"/>
<path d="M301.635 225.801C301.635 214.985 292.87 206.219 282.056 206.219C271.242 206.219 262.477 214.985 262.477 225.801C262.477 234.726 268.45 242.252 276.613 244.609L282.056 250.053L287.499 244.609C295.662 242.25 301.635 234.726 301.635 225.801Z" fill="#A6D1FF"/>
<path opacity="0.6" d="M282.996 212.695H281.113V238.525H282.996C290.127 238.525 295.908 232.743 295.908 225.611C295.908 218.48 290.127 212.698 282.996 212.698V212.695Z" fill="#FAFAFA"/>
<path d="M290.242 234.742C295.285 229.699 295.285 221.522 290.242 216.479C285.2 211.436 277.025 211.436 271.982 216.479C266.94 221.522 266.94 229.699 271.982 234.742C277.025 239.785 285.2 239.785 290.242 234.742Z" fill="#FAFAFA"/>
<path opacity="0.2" d="M288.452 218.781C286.664 217.116 284.264 216.094 281.623 216.094C276.093 216.094 271.603 220.585 271.603 226.121C271.603 228.713 272.594 231.08 274.208 232.861C272.292 231.047 271.096 228.467 271.096 225.611C271.096 220.073 275.578 215.584 281.116 215.584C284.01 215.584 286.62 216.812 288.454 218.781H288.452Z" fill="#1A58BF"/>
<path d="M236.615 290.351C237.995 284.3 234.988 280.901 230.383 278.962C225.775 277.022 216.49 277.865 217.332 285.986C217.507 287.676 217.901 289.001 218.419 290.044C216.267 293.146 216.769 297.905 220.921 298.894C225.621 300.016 236.33 298.589 239.522 296.819C237.447 297.201 235.523 295.149 236.617 290.351H236.615Z" fill="#1A2E35"/>
<path d="M239.678 296.296C239.061 296.296 238.487 296.068 238.016 295.633C237.36 295.023 236.353 293.463 236.96 289.849C237.857 284.525 235.621 280.99 230.127 279.043C230.091 279.031 230.073 278.992 230.086 278.956C230.098 278.92 230.137 278.902 230.173 278.915C235.739 280.888 238.003 284.474 237.094 289.874C236.497 293.425 237.473 294.944 238.105 295.533C238.7 296.086 239.473 296.281 240.28 296.086C240.318 296.076 240.354 296.099 240.365 296.138C240.372 296.174 240.352 296.212 240.313 296.222C240.098 296.276 239.883 296.302 239.673 296.302L239.678 296.296Z" fill="#1A2E35"/>
<path d="M220.27 298.517H220.263C218.723 298.359 217.491 297.303 216.964 295.694C216.405 293.983 216.656 291.524 218.475 289.882C218.503 289.856 218.547 289.859 218.572 289.887C218.598 289.915 218.595 289.959 218.567 289.984C216.795 291.585 216.549 293.983 217.094 295.651C217.612 297.232 218.77 298.225 220.276 298.379C220.314 298.384 220.342 298.418 220.337 298.456C220.335 298.492 220.304 298.517 220.268 298.517H220.27Z" fill="#1A2E35"/>
<path d="M241.276 310.271C241.397 311.59 241.555 313.03 241.755 314.408C241.963 315.796 242.157 317.19 242.429 318.563C242.954 321.314 243.638 324.017 244.539 326.594L244.903 327.544L245.07 327.98C245.075 328.006 245.07 328 245.029 327.962C244.965 327.883 244.701 327.757 244.627 327.777C244.547 327.788 244.657 327.813 244.831 327.777C245.2 327.708 245.751 327.465 246.284 327.163C246.827 326.863 247.383 326.497 247.933 326.102C249.035 325.316 250.136 324.432 251.196 323.499C252.262 322.575 253.333 321.601 254.357 320.641L256.191 322.19C254.452 324.645 252.562 326.896 250.282 329.005C249.701 329.522 249.094 330.029 248.415 330.511C247.723 330.982 246.988 331.443 245.958 331.781C245.433 331.938 244.811 332.079 244.012 331.984C243.62 331.943 243.177 331.805 242.777 331.597C242.367 331.387 242.019 331.087 241.742 330.78C241.466 330.467 241.271 330.15 241.12 329.847C241.074 329.758 241.058 329.719 241.038 329.676L240.979 329.543L240.859 329.279L240.382 328.218C239.201 325.372 238.343 322.454 237.724 319.516C237.406 318.046 237.127 316.573 236.922 315.087C236.717 313.588 236.533 312.146 236.443 310.568L241.279 310.266L241.276 310.271Z" fill="#FFC3BD"/>
<path d="M239.442 304.807C241.117 305.234 242.06 316.301 242.06 316.301L237.611 318.978C237.611 318.978 234.921 310.804 235.331 307.271C235.628 304.707 238.184 304.486 239.442 304.807Z" fill="#FFC3BD"/>
<path d="M254.301 320.346L256.86 316.301L258.312 320.897C258.312 320.897 256.212 323.1 254.314 322.575L254.301 320.346Z" fill="#FFC3BD"/>
<path d="M260.615 314.964L261.621 318.878L258.315 320.897L256.862 316.301L260.615 314.964Z" fill="#FFC3BD"/>
<path d="M229.932 434.867H234.668L236.681 417.46H230.178L229.932 434.867Z" fill="#FFC3BD"/>
<path d="M200.171 428.471L204.758 429.659L211.807 413.684L205.455 411.889L200.171 428.471Z" fill="#FFC3BD"/>
<path d="M205.489 428.896L200.589 426.814C200.409 426.737 200.212 426.801 200.115 426.965L197.909 430.605C197.681 430.981 197.866 431.509 198.278 431.678C199.999 432.375 200.865 432.624 203.019 433.541C204.344 434.104 206.224 435.065 208.052 435.844C209.843 436.604 210.75 434.852 210.058 434.366C206.954 432.178 206.843 430.935 206.103 429.478C205.97 429.214 205.75 429.012 205.489 428.899V428.896Z" fill="#1A2E35"/>
<path d="M234.832 434.319H229.509C229.315 434.319 229.158 434.455 229.13 434.642L228.523 438.854C228.459 439.292 228.836 439.704 229.284 439.696C231.141 439.666 232.035 439.556 234.376 439.556C235.816 439.556 238.794 439.704 240.785 439.704C242.775 439.704 242.88 437.737 242.052 437.56C238.338 436.761 236.878 435.659 235.626 434.609C235.401 434.419 235.116 434.317 234.834 434.317L234.832 434.319Z" fill="#1A2E35"/>
<path d="M239.737 304.799C239.737 304.799 241.993 305.593 237.472 333.403H218.229C218.551 325.569 218.562 320.738 214.817 304.663C214.817 304.663 218.849 303.787 222.99 303.587C226.228 303.431 228.881 303.328 231.73 303.587C235.482 303.93 239.739 304.801 239.739 304.801L239.737 304.799Z" fill="#333343"/>
<path d="M223.856 293.743C224.407 296.555 224.957 301.707 222.99 303.585C222.99 303.585 226.002 307.076 231.466 310.081C234.196 305.66 231.727 303.585 231.727 303.585C228.592 302.837 228.671 300.508 229.22 298.326L223.856 293.745V293.743Z" fill="#FFC3BD"/>
<path opacity="0.2" d="M226.041 295.613L229.217 298.323C229.086 298.841 228.984 299.366 228.948 299.875C227.749 299.701 226.105 298.387 225.977 297.132C225.913 296.507 225.938 295.905 226.041 295.613Z" fill="black"/>
<path d="M220.89 288.586C221.992 293.159 222.363 295.118 225.117 297.076C229.261 300.022 234.635 297.667 234.919 292.859C235.175 288.53 233.331 281.78 228.48 280.742C223.7 279.72 219.786 284.013 220.89 288.586Z" fill="#FFC3BD"/>
<path d="M237.473 333.4C237.473 333.4 241.21 369.907 240.9 384.358C240.577 399.39 237.557 417.98 237.557 417.98H229.322C229.322 417.98 229.676 400.269 229.11 385.506C228.492 369.41 223.38 333.4 223.38 333.4H237.473Z" fill="#1A58BF"/>
<path d="M228.615 418.808H237.931L238.615 416.41L228.183 416.116L228.615 418.808Z" fill="#1A2E35"/>
<path opacity="0.2" d="M229.171 342.484C233.897 351.993 230.121 369.344 228.449 375.797C227.591 366.103 226.146 354.253 225.019 345.553C225.736 340.63 226.991 338.101 229.171 342.484Z" fill="black"/>
<path d="M232.391 333.4C232.391 333.4 228.031 371.352 224.74 383.538C220.831 398.004 212.84 413.977 212.84 413.977L204.577 411.638C204.577 411.638 209.223 392.14 212.212 384.519C218.59 368.255 213.132 344.014 218.229 333.4H232.391Z" fill="#1A58BF"/>
<path d="M204.067 412.898L212.658 415.283L214.202 413.077L204.674 409.903L204.067 412.898Z" fill="#1A2E35"/>
<path d="M228.613 288.678C228.679 289.055 228.933 289.324 229.179 289.28C229.425 289.236 229.571 288.896 229.504 288.519C229.438 288.143 229.184 287.874 228.938 287.917C228.692 287.961 228.546 288.301 228.613 288.678Z" fill="#1A2E35"/>
<path d="M232.867 287.925C232.934 288.302 233.187 288.571 233.433 288.527C233.679 288.484 233.825 288.143 233.759 287.766C233.692 287.39 233.438 287.121 233.192 287.164C232.947 287.208 232.801 287.549 232.867 287.925Z" fill="#1A2E35"/>
<path d="M233.085 287.202L233.943 286.782C233.943 286.782 233.605 287.571 233.085 287.202Z" fill="#1A2E35"/>
<path d="M231.661 288.727C231.661 288.727 232.585 290.233 233.428 290.891C233.013 291.442 232.132 291.38 232.132 291.38L231.661 288.727Z" fill="#FF847F"/>
<path d="M230.139 293.156C230.342 293.156 230.554 293.138 230.78 293.1C230.841 293.089 230.882 293.031 230.869 292.969C230.859 292.908 230.803 292.867 230.739 292.879C229.089 293.174 228.111 292.154 228.1 292.144C228.057 292.098 227.988 292.095 227.942 292.139C227.895 292.183 227.893 292.252 227.936 292.298C227.975 292.339 228.761 293.159 230.137 293.159L230.139 293.156Z" fill="#1A2E35"/>
<path d="M226.395 279.85C229.34 280.616 231.026 281.026 231.986 281.877C234.76 284.331 224.522 284.654 224.83 285.046C226.333 290.622 222.589 294.829 220.411 290.195C218.232 285.561 216.697 283.322 220.227 281.387C223.756 279.453 226.395 279.853 226.395 279.853V279.85Z" fill="#1A2E35"/>
<path d="M220.695 292.031C221.064 292.933 221.815 293.584 222.557 293.883C223.677 294.334 224.366 293.366 224.166 292.241C223.987 291.229 223.187 289.777 222.012 289.805C220.854 289.833 220.275 291.001 220.695 292.034V292.031Z" fill="#FFC3BD"/>
<path d="M226.963 286.16C227.022 286.16 227.081 286.137 227.127 286.091C227.816 285.366 228.631 285.504 228.638 285.507C228.759 285.527 228.876 285.448 228.9 285.328C228.923 285.205 228.841 285.089 228.72 285.066C228.677 285.059 227.657 284.882 226.802 285.784C226.717 285.873 226.72 286.017 226.809 286.101C226.853 286.142 226.909 286.163 226.963 286.163V286.16Z" fill="#1A2E35"/>
<path d="M233.928 285.584C233.984 285.584 234.04 285.563 234.084 285.522C234.174 285.438 234.176 285.294 234.092 285.204C233.234 284.308 232.214 284.485 232.171 284.495C232.048 284.518 231.968 284.636 231.991 284.756C232.014 284.877 232.132 284.958 232.253 284.935C232.294 284.928 233.085 284.8 233.769 285.514C233.812 285.56 233.871 285.584 233.93 285.584H233.928Z" fill="#1A2E35"/>
<path d="M217.222 311.559C216.267 314.054 215.35 316.68 214.54 319.26C213.754 321.855 213.042 324.475 212.655 327.035C212.596 327.357 212.566 327.67 212.532 327.985L212.481 328.456L212.458 328.656C212.455 328.641 212.45 328.638 212.448 328.643C212.412 328.705 212.571 329.209 212.837 329.668C213.385 330.631 214.23 331.661 215.109 332.645C216.884 334.628 218.925 336.528 220.941 338.378L219.548 340.332C217.045 338.877 214.72 337.248 212.481 335.322C211.372 334.335 210.291 333.308 209.313 331.917C208.841 331.197 208.321 330.429 208.119 329.092C208.098 328.923 208.086 328.743 208.088 328.554C208.088 328.438 208.091 328.433 208.093 328.372L208.101 328.228L208.127 327.652C208.145 327.268 208.16 326.881 208.206 326.512C208.49 323.507 209.149 320.674 209.93 317.897C210.714 315.11 211.625 312.435 212.737 309.725L217.222 311.559Z" fill="#FFC3BD"/>
<path d="M214.837 304.661C212.95 305.432 210.585 315.766 210.585 315.766L214.602 319.058C214.602 319.058 218.38 311.355 218.549 307.801C218.677 305.13 216.507 303.977 214.837 304.658V304.661Z" fill="#FFC3BD"/>
<path d="M207.65 430.39C207.817 430.308 207.932 430.159 207.988 429.941C208.037 429.757 207.97 429.634 207.906 429.565C207.496 429.119 205.809 429.411 205.616 429.447C205.573 429.455 205.537 429.488 205.527 429.531C205.517 429.575 205.534 429.621 205.57 429.647C206.077 430.021 207.015 430.618 207.584 430.418C207.607 430.41 207.627 430.4 207.65 430.39ZM205.926 429.621C206.605 429.524 207.525 429.48 207.742 429.713C207.771 429.741 207.799 429.788 207.773 429.88C207.727 430.051 207.64 430.156 207.512 430.203C207.204 430.31 206.623 430.092 205.929 429.618L205.926 429.621Z" fill="#1A58BF"/>
<path d="M206.406 429.414C206.897 429.175 207.402 428.809 207.471 428.471C207.492 428.368 207.492 428.176 207.246 428.035C207.089 427.946 206.923 427.93 206.749 427.987C206.098 428.204 205.558 429.46 205.535 429.511C205.519 429.547 205.524 429.59 205.547 429.621C205.571 429.652 205.612 429.67 205.65 429.665C205.839 429.644 206.119 429.549 206.403 429.411L206.406 429.414ZM206.756 428.227C206.779 428.217 206.8 428.207 206.823 428.199C206.933 428.163 207.036 428.171 207.136 428.227C207.261 428.299 207.264 428.371 207.253 428.422C207.187 428.747 206.39 429.244 205.837 429.398C206.026 429.014 206.39 428.402 206.756 428.222V428.227Z" fill="#1A58BF"/>
<path d="M236.61 435.147C237.081 435.147 237.516 435.075 237.76 434.855C237.913 434.716 237.982 434.532 237.962 434.309C237.949 434.176 237.885 434.071 237.772 434.009C237.191 433.692 235.303 434.655 235.091 434.768C235.047 434.791 235.024 434.837 235.032 434.883C235.039 434.929 235.075 434.967 235.121 434.978C235.524 435.057 236.092 435.147 236.612 435.147H236.61ZM237.455 434.166C237.542 434.166 237.614 434.178 237.665 434.207C237.711 434.232 237.734 434.271 237.739 434.327C237.752 434.478 237.711 434.596 237.608 434.686C237.322 434.944 236.54 434.99 235.49 434.814C236.141 434.501 237.004 434.163 237.452 434.163L237.455 434.166Z" fill="#1A58BF"/>
<path d="M235.142 434.98C235.157 434.98 235.173 434.978 235.188 434.97C235.751 434.714 236.871 433.692 236.781 433.156C236.761 433.028 236.671 432.872 236.359 432.839C236.128 432.818 235.918 432.88 235.736 433.033C235.142 433.53 235.032 434.806 235.027 434.86C235.024 434.898 235.042 434.937 235.073 434.96C235.093 434.973 235.114 434.98 235.137 434.98H235.142ZM236.271 433.059C236.294 433.059 236.315 433.059 236.338 433.062C236.543 433.082 236.556 433.164 236.561 433.192C236.615 433.515 235.854 434.319 235.28 434.668C235.334 434.296 235.493 433.53 235.885 433.205C236.002 433.108 236.131 433.059 236.271 433.059Z" fill="#1A58BF"/>
<path d="M217.939 332.273L217.447 333.998C217.381 334.131 217.54 334.266 217.76 334.266H237.567C237.741 334.266 237.885 334.182 237.895 334.072L238.069 332.348C238.082 332.227 237.931 332.127 237.741 332.127H218.254C218.111 332.127 217.985 332.186 217.942 332.271L217.939 332.273Z" fill="#1A58BF"/>
<path opacity="0.8" d="M217.939 332.273L217.447 333.998C217.381 334.131 217.54 334.266 217.76 334.266H237.567C237.741 334.266 237.885 334.182 237.895 334.072L238.069 332.348C238.082 332.227 237.931 332.127 237.741 332.127H218.254C218.111 332.127 217.985 332.186 217.942 332.271L217.939 332.273Z" fill="white"/>
<path d="M220.557 334.451H220.035C219.93 334.451 219.85 334.397 219.858 334.333L220.104 332.094C220.112 332.027 220.201 331.976 220.306 331.976H220.829C220.934 331.976 221.011 332.03 221.005 332.094L220.76 334.333C220.752 334.399 220.662 334.451 220.557 334.451Z" fill="#1A58BF"/>
<path d="M236.102 334.451H235.58C235.475 334.451 235.395 334.397 235.403 334.333L235.649 332.094C235.656 332.027 235.746 331.976 235.851 331.976H236.374C236.479 331.976 236.558 332.03 236.55 332.094L236.304 334.333C236.297 334.399 236.207 334.451 236.102 334.451Z" fill="#1A58BF"/>
<path d="M228.328 334.451H227.806C227.701 334.451 227.624 334.397 227.629 334.333L227.875 332.094C227.883 332.027 227.972 331.976 228.077 331.976H228.6C228.705 331.976 228.782 332.03 228.777 332.094L228.531 334.333C228.523 334.399 228.433 334.451 228.328 334.451Z" fill="#1A58BF"/>
<path d="M219.282 366.362L242.782 366.746L238.856 333.403L239.944 318.414L237.276 315.727C237.552 306.336 236.195 304.035 236.195 304.035L234.307 303.736C235.941 306.174 235.687 312.919 235.401 315.22C231.5 314.528 225.941 315.22 225.941 315.22C225.652 308.408 221.387 303.426 221.387 303.426C221.387 303.426 220.913 303.503 219.717 303.71C223.493 308.037 224.251 315.694 224.251 315.694L220.245 319.347L220.79 322.887C220.404 322.997 219.394 323.225 217.978 323.046L218.086 324.596C218.086 324.596 219.666 324.988 221.013 324.329L222.378 333.198L219.282 366.362Z" fill="white"/>
<path d="M220.422 337.971L225.521 338.409L222.112 341.816C222.112 341.816 219.189 340.968 218.782 339.039L220.422 337.971Z" fill="#FFC3BD"/>
<path d="M228.439 341.124L225.429 343.822L221.39 341.544L225.521 338.409L228.439 341.124Z" fill="#FFC3BD"/>
<path d="M228.833 287.958L229.691 287.538C229.691 287.538 229.353 288.327 228.833 287.958Z" fill="#1A2E35"/>
<path d="M192.702 341.505H282.212C284.428 341.505 286.226 343.304 286.226 345.52V440.095H192.702V341.505Z" fill="#C7E2FF"/>
<path d="M214.587 341.505H192.702V440.095H214.587V341.505Z" fill="#A6D1FF"/>
<path opacity="0.3" d="M286.229 344.539H192.702V347.572H286.229V344.539Z" fill="black"/>
<path d="M283.844 341.505H192.702V345.607H287.947C287.947 343.342 286.111 341.505 283.846 341.505H283.844Z" fill="#1A2E35"/>
<path d="M259.528 327.808H245.753C238.19 327.808 232.058 333.941 232.058 341.506H259.526V327.808H259.528Z" fill="#1A58BF"/>
<path opacity="0.5" d="M259.528 327.808H245.753C238.19 327.808 232.058 333.941 232.058 341.506H259.526V327.808H259.528Z" fill="white"/>
<path d="M259.528 327.808H275.027C275.314 327.808 275.55 328.041 275.55 328.331V341.506H259.528V327.808Z" fill="#1A58BF"/>
<path opacity="0.7" d="M259.528 327.808H275.027C275.314 327.808 275.55 328.041 275.55 328.331V341.506H259.528V327.808Z" fill="white"/>
<path d="M255.435 325.969H272.535C273.552 325.969 274.377 326.794 274.377 327.811H253.596C253.596 326.794 254.421 325.969 255.438 325.969H255.435Z" fill="#1A58BF"/>
<path opacity="0.3" d="M255.438 325.969C254.931 325.969 254.472 326.174 254.139 326.504C253.801 326.842 253.599 327.301 253.599 327.808H259.231C259.231 327.301 259.441 326.842 259.772 326.504C260.102 326.174 260.568 325.969 261.075 325.969H255.435H255.438Z" fill="black"/>
<path d="M268.811 314.93L274.573 322.303C274.798 322.591 275.213 322.642 275.501 322.417L279.101 319.603C279.389 319.378 279.439 318.963 279.215 318.675L273.453 311.302C273.228 311.014 272.813 310.964 272.525 311.188L268.925 314.003C268.637 314.227 268.586 314.643 268.811 314.93Z" fill="#1A58BF"/>
<path d="M270.809 312.532L277.384 320.946L278.593 320.001L272.017 311.587L270.809 312.532Z" fill="#1A2E35"/>
<path d="M269.749 314.718L271.828 317.378L273.037 316.433L270.958 313.773L269.749 314.718Z" fill="white"/>
<path d="M330.251 307.717C330.389 307.922 330.461 308.035 330.55 308.183L330.796 308.596C330.958 308.87 331.096 309.141 331.237 309.415C331.513 309.961 331.775 310.509 332.008 311.06C332.482 312.164 332.868 313.294 333.204 314.429C333.885 316.698 334.3 319.024 334.513 321.353L334.556 321.788C334.564 321.85 334.569 321.95 334.574 322.052L334.587 322.349C334.595 322.741 334.574 323.131 334.521 323.497C334.416 324.237 334.218 324.921 333.972 325.554C333.475 326.814 332.794 327.883 332.062 328.856C330.563 330.795 328.862 332.348 326.921 333.723L325.399 331.94C326.765 330.362 328.086 328.613 329.067 326.863C329.567 325.992 329.948 325.093 330.187 324.255C330.299 323.835 330.358 323.433 330.369 323.072C330.381 322.887 330.369 322.718 330.351 322.559L330.333 322.442C330.328 322.406 330.325 322.365 330.31 322.291L330.24 321.901C329.879 319.829 329.385 317.79 328.739 315.822C328.422 314.836 328.03 313.883 327.63 312.945C327.433 312.474 327.215 312.021 326.993 311.575L326.649 310.927L326.48 310.619L326.339 310.379L330.248 307.714L330.251 307.717Z" fill="#FF8B7B"/>
<path d="M325.095 333.762L327.095 337.986L328.681 334.415C328.681 334.415 327.274 331.321 325.374 331.605L325.095 333.764V333.762Z" fill="#FF8B7B"/>
<path d="M330.268 337.984L331.856 335.381L328.68 334.413L327.095 337.984H330.268Z" fill="#FF8B7B"/>
<path d="M319.539 435.646C319.967 435.646 320.433 435.557 320.761 435.48C320.804 435.469 320.835 435.436 320.843 435.393C320.85 435.349 320.832 435.306 320.794 435.282C320.635 435.177 319.232 434.271 318.691 434.514C318.607 434.552 318.499 434.637 318.473 434.821C318.44 435.067 318.499 435.262 318.655 435.403C318.852 435.582 319.18 435.644 319.536 435.644L319.539 435.646ZM320.451 435.323C319.646 435.485 319.039 435.457 318.806 435.244C318.706 435.154 318.671 435.026 318.694 434.855C318.706 434.762 318.75 434.732 318.786 434.716C319.07 434.586 319.88 434.98 320.453 435.326L320.451 435.323Z" fill="#1A58BF"/>
<path d="M320.735 435.482C320.753 435.482 320.774 435.477 320.791 435.467C320.825 435.447 320.845 435.411 320.845 435.372C320.845 435.316 320.84 433.984 320.336 433.538C320.202 433.42 320.046 433.369 319.872 433.392C319.598 433.425 319.524 433.597 319.503 433.697C319.398 434.22 320.241 435.216 320.681 435.467C320.699 435.477 320.717 435.482 320.735 435.482ZM319.949 433.607C320.038 433.607 320.118 433.638 320.192 433.702C320.492 433.968 320.594 434.717 320.62 435.16C320.179 434.809 319.654 434.058 319.718 433.741C319.729 433.689 319.759 433.625 319.898 433.61C319.915 433.61 319.931 433.607 319.946 433.607H319.949Z" fill="#1A58BF"/>
<path d="M290.738 433.6C290.777 433.6 290.813 433.579 290.833 433.546C290.856 433.505 290.854 433.456 290.823 433.42C290.674 433.243 289.389 431.729 288.73 431.729C288.715 431.729 288.702 431.729 288.687 431.729C288.561 431.742 288.464 431.811 288.402 431.927C288.3 432.121 288.292 432.314 288.382 432.495C288.671 433.103 289.97 433.446 290.718 433.594C290.726 433.594 290.733 433.594 290.738 433.594V433.6ZM288.735 431.95C289.099 431.95 289.893 432.703 290.441 433.315C289.43 433.08 288.743 432.746 288.579 432.406C288.523 432.285 288.528 432.165 288.597 432.034C288.623 431.983 288.659 431.957 288.71 431.952C288.718 431.952 288.728 431.952 288.735 431.952V431.95Z" fill="#1A58BF"/>
<path d="M290.739 433.6C290.739 433.6 290.754 433.6 290.762 433.597C290.8 433.589 290.831 433.561 290.841 433.523C290.857 433.471 291.236 432.28 290.885 431.612C290.777 431.407 290.613 431.268 290.396 431.204C290.104 431.115 289.963 431.225 289.896 431.332C289.617 431.783 290.242 433.123 290.654 433.566C290.675 433.589 290.706 433.6 290.734 433.6H290.739ZM290.206 431.391C290.239 431.391 290.283 431.397 290.337 431.414C290.496 431.463 290.613 431.56 290.693 431.714C290.923 432.155 290.78 432.903 290.69 433.259C290.301 432.729 289.919 431.719 290.086 431.448C290.096 431.432 290.122 431.391 290.204 431.391H290.206Z" fill="#1A58BF"/>
<path d="M320.402 291.535C319.864 294.281 318.655 300.27 320.576 302.102C320.576 302.102 319.826 304.886 314.726 304.886C309.117 304.886 312.044 302.102 312.044 302.102C315.105 301.372 315.026 299.099 314.493 296.965L320.402 291.535Z" fill="#FF8B7B"/>
<path d="M311.056 285.059C311.089 285.059 311.122 285.051 311.153 285.036C311.261 284.982 311.304 284.849 311.25 284.741C310.707 283.657 309.703 283.532 309.66 283.527C309.539 283.511 309.432 283.598 309.416 283.719C309.404 283.839 309.488 283.947 309.608 283.962C309.642 283.967 310.423 284.072 310.856 284.938C310.894 285.015 310.971 285.059 311.053 285.059H311.056Z" fill="#1A2E35"/>
<path d="M309.383 287.459C309.383 287.459 308.558 288.976 307.77 289.66C308.202 290.177 309.058 290.072 309.058 290.072L309.381 287.459H309.383Z" fill="#FF5551"/>
<path d="M309.793 286.862C309.747 287.233 309.514 287.507 309.27 287.479C309.027 287.448 308.868 287.126 308.914 286.754C308.96 286.383 309.193 286.109 309.437 286.137C309.68 286.167 309.839 286.49 309.793 286.862Z" fill="#1A2E35"/>
<path d="M309.542 286.173L308.684 285.807C308.684 285.807 309.055 286.557 309.542 286.173Z" fill="#1A2E35"/>
<path d="M295.641 435.339L291.133 434.296L293.246 423.788L297.754 424.831L295.641 435.339Z" fill="#FF8B7B"/>
<path d="M326.114 435.372H321.488L321.852 424.659H326.478L326.114 435.372Z" fill="#FF8B7B"/>
<path d="M321.122 434.837H326.319C326.508 434.837 326.662 434.967 326.688 435.152L327.279 439.263C327.341 439.691 326.975 440.093 326.537 440.086C324.726 440.055 323.852 439.947 321.565 439.947C320.159 439.947 318.105 440.093 316.163 440.093C314.222 440.093 314.117 438.172 314.926 437.998C318.55 437.219 319.124 436.143 320.346 435.116C320.566 434.931 320.843 434.832 321.119 434.832L321.122 434.837Z" fill="#1A2E35"/>
<path d="M291.223 433.113L296.023 435.106C296.197 435.178 296.289 435.36 296.243 435.539L295.213 439.563C295.106 439.981 294.614 440.214 294.212 440.04C292.55 439.317 291.784 438.884 289.673 438.006C288.375 437.468 285.631 436.487 283.838 435.741C282.084 435.014 282.686 433.185 283.498 433.333C287.145 434.002 288.874 433.556 290.396 433.077C290.67 432.99 290.964 433.005 291.218 433.11L291.223 433.113Z" fill="#1A2E35"/>
<path opacity="0.2" d="M293.246 423.791L292.114 429.421L296.666 430.251L297.757 424.833L293.246 423.791Z" fill="black"/>
<path opacity="0.2" d="M326.478 424.662H321.849L321.665 430.185H326.293L326.478 424.662Z" fill="black"/>
<path d="M328.555 303.152C330.476 303.572 332.53 310.488 332.53 310.488L327.095 316.268C327.095 316.268 322.587 309.774 323.504 307.386C324.459 304.899 326.283 302.655 328.552 303.154L328.555 303.152Z" fill="#1A58BF"/>
<path opacity="0.4" d="M325.51 307.553C324.539 306.664 323.881 306.928 323.432 307.635C322.989 309.689 325.609 313.993 326.662 315.622C327.149 313.678 327.707 309.574 325.507 307.553H325.51Z" fill="black"/>
<path d="M304.225 303.287C304.225 303.287 302.022 304.064 306.435 331.213H325.225C324.91 323.563 324.9 318.847 328.555 303.152C328.555 303.152 324.618 302.296 320.576 302.101C317.416 301.95 314.824 301.848 312.044 302.101C308.379 302.437 304.225 303.287 304.225 303.287Z" fill="#1A58BF"/>
<path d="M309.537 301.525C310.277 301.146 316.114 299.975 320.466 300.16C322.951 300.265 324.38 300.582 325.456 301.197C326.534 301.815 325.089 305.117 324.301 305.537C324.774 306.774 323.074 308.416 322.085 309.203C321.785 310.386 317.687 311.587 314.931 309.141C312.815 307.261 307.421 302.611 309.537 301.525Z" fill="#333343"/>
<path opacity="0.4" d="M304.058 313.706C304.178 315.025 304.339 316.511 304.549 318.192C306.089 316.806 307.346 312.863 306.885 310.563C305.81 311.365 304.813 312.602 304.058 313.706Z" fill="black"/>
<path d="M306.064 309.592C305.024 312.218 303.876 314.716 302.583 317.208C301.945 318.453 301.266 319.688 300.526 320.902C299.796 322.122 298.992 323.323 298.044 324.501L297.685 324.942L297.593 325.052L297.442 325.219C297.342 325.331 297.232 325.434 297.117 325.536C296.661 325.944 296.12 326.261 295.58 326.456C294.486 326.845 293.482 326.827 292.614 326.722C290.872 326.487 289.489 325.862 288.165 325.214C285.562 323.833 283.311 322.198 281.19 320.29L282.614 318.43C283.733 319.091 284.914 319.754 286.085 320.346C287.253 320.951 288.444 321.499 289.627 321.929C290.793 322.373 292.007 322.7 292.988 322.739C293.472 322.759 293.869 322.677 294.051 322.57C294.148 322.521 294.194 322.472 294.24 322.414L294.619 321.881C296.018 319.875 297.234 317.482 298.4 315.11C299.545 312.723 300.641 310.245 301.676 307.827L306.064 309.592Z" fill="#FF8B7B"/>
<path d="M304.224 303.287C301.924 303.848 299.096 310.163 299.096 310.163L303.868 317.174C303.868 317.174 310.223 309.174 309.467 306.73C308.681 304.184 307.013 302.609 304.224 303.287Z" fill="#1A58BF"/>
<path d="M282.23 320.656L277.845 320.707L279.097 316.931C279.097 316.931 282.535 317.397 283.621 318.983L282.23 320.656Z" fill="#FF8B7B"/>
<path d="M274.574 320.218L275.414 316.929H279.097L277.845 320.705L274.574 320.218Z" fill="#FF8B7B"/>
<path d="M322.402 287.134C321.56 291.647 321.301 293.576 318.714 295.628C314.823 298.713 309.465 296.691 308.94 292.016C308.468 287.807 309.926 281.134 314.6 279.874C319.208 278.634 323.242 282.62 322.4 287.134H322.402Z" fill="#FF8B7B"/>
<path d="M312.623 287.026C311.735 288.161 305.454 295.403 309.055 298.21C320.308 297.337 323.512 301.233 326.637 295.679C329.759 290.126 330.238 280.55 321.555 278.923C312.872 277.296 308.115 279.323 312.626 287.026H312.623Z" fill="#1A2E35"/>
<path d="M310.892 286.821C310.239 287.507 309.949 288.432 309.964 289.211C309.99 290.384 311.097 290.615 312.008 289.99C312.828 289.429 313.804 288.14 313.338 287.108C312.879 286.088 311.64 286.04 310.889 286.821H310.892Z" fill="#FF8B7B"/>
<path d="M311.396 331.213C311.396 331.213 314.08 362.97 316.867 380.869C319.116 395.325 320.891 429.116 320.891 429.116H327.2C327.2 429.116 329.444 396.337 328.301 382.037C325.412 345.858 331.856 342.91 325.222 331.215H311.396V331.213Z" fill="#333343"/>
<path opacity="0.4" d="M316.644 341.813C314.987 344.198 313.883 347.068 313.158 350.001C313.694 355.36 314.324 361.285 315.008 366.987C316.765 362.238 318.686 352.614 316.642 341.816L316.644 341.813Z" fill="black"/>
<path d="M306.435 331.213C306.435 331.213 301.22 366.844 299.388 380.836C297.483 395.392 291.912 428.025 291.912 428.025L298.095 428.971C298.095 428.971 308.637 397.974 310.597 383.682C312.733 368.102 320.794 331.21 320.794 331.21H306.432L306.435 331.213Z" fill="#333343"/>
<path d="M291.002 428.054L298.925 429.398L299.824 426.409L291.346 424.959L291.002 428.054Z" fill="#1A58BF"/>
<path d="M320.028 429.239H328.063L328.486 426.419L319.982 426.132L320.028 429.239Z" fill="#1A58BF"/>
<path d="M325.504 330.109L326.352 331.792C326.419 331.922 326.262 332.056 326.047 332.056H306.343C306.173 332.056 306.033 331.974 306.022 331.866L305.853 330.183C305.841 330.065 305.989 329.968 306.173 329.968H325.199C325.34 329.968 325.463 330.024 325.504 330.109Z" fill="#ECECEC"/>
<path d="M322.951 332.237H323.46C323.563 332.237 323.64 332.186 323.632 332.122L323.394 329.937C323.386 329.873 323.299 329.822 323.196 329.822H322.687C322.584 329.822 322.507 329.873 322.515 329.937L322.753 332.122C322.761 332.186 322.848 332.237 322.951 332.237Z" fill="#1A2E35"/>
<path d="M310.597 332.237H311.107C311.209 332.237 311.286 332.186 311.278 332.122L311.04 329.937C311.033 329.873 310.945 329.822 310.843 329.822H310.333C310.231 329.822 310.154 329.873 310.162 329.937L310.4 332.122C310.408 332.186 310.495 332.237 310.597 332.237Z" fill="#1A2E35"/>
<path d="M256.734 314.854L263.012 304.34C263.294 303.866 263.837 303.615 264.38 303.705L269.479 304.55C270.409 304.704 270.893 305.747 270.409 306.556L264.218 316.888C263.944 317.344 263.427 317.595 262.902 317.528L257.715 316.865C256.759 316.742 256.242 315.681 256.736 314.854H256.734Z" fill="#1A2E35"/>
<path d="M261.621 318.927L262.82 317.403C263.471 316.575 263.355 315.381 262.559 314.692C261.736 313.983 260.499 314.072 259.785 314.89L257.751 317.223L261.619 318.927H261.621Z" fill="#FFC3BD"/>
<path d="M284.171 227.935L285.263 228.985C284.422 229.984 283.134 230.522 281.623 230.522C279.297 230.522 277.455 229.167 276.892 227.156H275.394V226.236H276.72C276.708 226.093 276.708 225.947 276.708 225.791C276.708 225.634 276.708 225.488 276.72 225.342H275.394V224.423H276.892C277.458 222.412 279.297 221.057 281.623 221.057C283.134 221.057 284.422 221.595 285.263 222.594L284.171 223.631C283.5 222.909 282.673 222.553 281.712 222.553C280.306 222.553 279.19 223.275 278.69 224.42H282.463V225.34H278.442C278.429 225.483 278.416 225.629 278.416 225.788C278.416 225.947 278.429 226.09 278.442 226.234H282.463V227.154H278.69C279.19 228.296 280.306 229.021 281.712 229.021C282.673 229.021 283.5 228.665 284.171 227.93V227.935Z" fill="#1A58BF"/>
<path d="M341.81 480.015H174.723C171.49 480.015 168.868 482.637 168.868 485.871V509.882C168.868 513.116 171.49 515.738 174.723 515.738H341.81C345.044 515.738 347.666 513.116 347.666 509.882V485.871C347.666 482.637 345.044 480.015 341.81 480.015Z" fill="#1A58BF"/>
<path d="M232.972 493.403H233.787V500.409H238.105V501.114H232.972V493.403Z" fill="white"/>
<path d="M238.623 498.219C238.623 496.5 239.878 495.278 241.573 495.278C243.269 495.278 244.514 496.5 244.514 498.219C244.514 499.938 243.269 501.17 241.573 501.17C239.878 501.17 238.623 499.935 238.623 498.219ZM243.722 498.219C243.722 496.864 242.808 495.959 241.576 495.959C240.344 495.959 239.417 496.864 239.417 498.219C239.417 499.574 240.341 500.476 241.576 500.476C242.81 500.476 243.722 499.571 243.722 498.219Z" fill="white"/>
<path d="M245.308 500.453L245.661 499.835C246.125 500.199 246.906 500.486 247.72 500.486C248.822 500.486 249.273 500.112 249.273 499.538C249.273 498.029 245.518 499.218 245.518 496.928C245.518 495.98 246.332 495.275 247.808 495.275C248.555 495.275 249.373 495.485 249.857 495.816L249.516 496.444C249.009 496.09 248.404 495.947 247.808 495.947C246.762 495.947 246.299 496.354 246.299 496.905C246.299 498.47 250.054 497.289 250.054 499.515C250.054 500.517 249.173 501.167 247.664 501.167C246.706 501.167 245.781 500.86 245.308 500.453Z" fill="white"/>
<path d="M259.746 495.322V500.412C259.746 502.405 258.765 503.309 256.849 503.309C255.791 503.309 254.757 502.989 254.152 502.418L254.549 501.823C255.1 502.318 255.937 502.617 256.829 502.617C258.294 502.617 258.965 501.946 258.965 500.514V499.776C258.481 500.514 257.654 500.901 256.708 500.901C255.056 500.901 253.801 499.746 253.801 498.081C253.801 496.415 255.056 495.283 256.708 495.283C257.677 495.283 258.514 495.68 258.998 496.441V495.329H259.746V495.322ZM258.986 498.075C258.986 496.82 258.061 495.959 256.783 495.959C255.505 495.959 254.59 496.818 254.59 498.075C254.59 499.333 255.505 500.202 256.783 500.202C258.061 500.202 258.986 499.331 258.986 498.075Z" fill="white"/>
<path d="M266.982 498.459H262.136C262.223 499.671 263.151 500.476 264.416 500.476C265.12 500.476 265.748 500.222 266.188 499.715L266.629 500.222C266.112 500.839 265.307 501.17 264.393 501.17C262.587 501.17 261.353 499.935 261.353 498.219C261.353 496.502 262.554 495.278 264.183 495.278C265.812 495.278 266.99 496.479 266.99 498.219C266.99 498.285 266.98 498.372 266.98 498.462L266.982 498.459ZM262.136 497.875H266.245C266.145 496.741 265.32 495.946 264.185 495.946C263.051 495.946 262.236 496.741 262.136 497.875Z" fill="white"/>
<path d="M273.921 497.755V501.116H273.14V497.835C273.14 496.613 272.502 495.985 271.401 495.985C270.156 495.985 269.374 496.756 269.374 498.078V501.119H268.593V492.944H269.374V496.336C269.805 495.665 270.563 495.278 271.544 495.278C272.953 495.278 273.924 496.093 273.924 497.755H273.921Z" fill="white"/>
<path d="M279.098 500.763C278.79 501.039 278.327 501.17 277.876 501.17C276.785 501.17 276.18 500.553 276.18 499.485V495.983H275.146V495.322H276.18V494.054H276.962V495.322H278.724V495.983H276.962V499.441C276.962 500.125 277.315 500.499 277.963 500.499C278.283 500.499 278.601 500.399 278.821 500.202L279.098 500.763Z" fill="white"/>
<path d="M279.715 500.453L280.068 499.835C280.532 500.199 281.313 500.486 282.128 500.486C283.229 500.486 283.68 500.112 283.68 499.538C283.68 498.029 279.925 499.218 279.925 496.928C279.925 495.98 280.739 495.275 282.215 495.275C282.963 495.275 283.78 495.485 284.264 495.816L283.923 496.444C283.416 496.09 282.812 495.947 282.215 495.947C281.17 495.947 280.706 496.354 280.706 496.905C280.706 498.47 284.461 497.289 284.461 499.515C284.461 500.517 283.58 501.167 282.071 501.167C281.113 501.167 280.189 500.86 279.715 500.453Z" fill="white"/>
<rect x="122" y="563" width="125" height="121" fill="#D9D9D9"/>
</g>
<circle cx="564.516" cy="40.4812" r="40.4812" fill="#E5F2FF"/>
<circle cx="564.516" cy="40.4812" r="40.4812" fill="#E5F2FF"/>
<circle cx="564.516" cy="40.4813" r="35.4833" fill="#E5F2FF" stroke="white"/>
<path d="M575.107 54.3941C573.237 55.4736 571.3 56.1071 569.296 56.2945C567.277 56.456 565.301 56.2119 563.368 55.5622C561.42 54.8865 559.596 53.8271 557.897 52.3841C556.184 50.9152 554.697 49.09 553.438 46.9087C552.178 44.7273 551.335 42.5478 550.909 40.3701C550.509 38.1775 550.503 36.0687 550.892 34.0436C551.281 32.0185 552.058 30.1852 553.222 28.5435C554.412 26.8868 555.955 25.5112 557.851 24.4167C560.422 22.9324 563.071 22.3032 565.798 22.5291C568.537 22.714 570.962 23.7372 573.076 25.5986L569.93 29.596C568.444 28.3418 566.836 27.6255 565.106 27.4473C563.402 27.254 561.758 27.6147 560.173 28.5293C558.589 29.4438 557.418 30.7434 556.659 32.4279C555.912 34.0715 555.633 35.9287 555.825 37.9995C556.016 40.0703 556.727 42.1704 557.956 44.2999C559.186 46.4293 560.644 48.1151 562.33 49.3573C564.002 50.5735 565.744 51.2818 567.556 51.482C569.354 51.6562 571.07 51.2711 572.706 50.3265C574.316 49.3969 575.464 48.1458 576.148 46.5732C576.844 44.9596 577.028 43.2089 576.7 41.3209L581.734 40.5955C582.1 42.4275 582.072 44.2092 581.652 45.9406C581.232 47.672 580.475 49.2691 579.38 50.7319C578.271 52.1688 576.846 53.3895 575.107 54.3941ZM552.646 53.183L550.914 50.1836L568.287 40.1533L570.019 43.1527L552.646 53.183ZM549.34 47.4569L547.585 44.4186L564.958 34.3882L566.713 37.4266L549.34 47.4569Z" fill="white"/>
<circle cx="460.687" cy="81.6872" r="28.8087" transform="rotate(-6.05599 460.687 81.6872)" fill="#E5F2FF"/>
<circle cx="460.687" cy="81.6872" r="28.8087" transform="rotate(-6.05599 460.687 81.6872)" fill="#E5F2FF"/>
<circle cx="460.687" cy="81.6875" r="25.1077" transform="rotate(-6.05599 460.687 81.6875)" fill="#E5F2FF" stroke="white"/>
<path d="M462.345 94.0759C460.859 94.2335 459.451 94.1039 458.119 93.6873C456.785 93.2494 455.62 92.5897 454.626 91.7081C453.631 90.8265 452.854 89.7716 452.294 88.5434L455.335 86.8688C456.064 88.2722 457.021 89.308 458.208 89.9761C459.395 90.6442 460.71 90.9017 462.153 90.7486C463.001 90.6585 463.731 90.4524 464.34 90.1302C464.948 89.7868 465.395 89.353 465.683 88.8289C465.992 88.3026 466.113 87.7211 466.045 87.0845C465.953 86.2144 465.636 85.5507 465.093 85.0931C464.551 84.6356 463.787 84.309 462.801 84.1132L458.196 83.1854C456.355 82.8228 454.908 82.1287 453.855 81.103C452.799 80.0562 452.191 78.7688 452.028 77.2409C451.887 75.904 452.092 74.702 452.644 73.6348C453.194 72.5464 454.011 71.655 455.096 70.9604C456.202 70.2637 457.498 69.8365 458.984 69.6789C460.406 69.528 461.727 69.6454 462.948 70.0308C464.167 70.3951 465.237 70.9683 466.157 71.7506C467.098 72.5306 467.82 73.4733 468.324 74.5786L465.349 76.2783C464.75 75.0758 463.915 74.188 462.846 73.6147C461.797 73.0392 460.626 72.8201 459.332 72.9575C458.547 73.0408 457.871 73.2519 457.307 73.5908C456.739 73.9085 456.313 74.34 456.028 74.8853C455.761 75.4071 455.663 75.997 455.732 76.6548C455.814 77.4188 456.13 78.0719 456.681 78.6143C457.232 79.1567 458.022 79.5236 459.051 79.7148L463.327 80.5809C465.277 80.9535 466.786 81.6303 467.856 82.6112C468.923 83.5709 469.542 84.8466 469.71 86.4381C469.85 87.7538 469.624 88.9581 469.032 90.051C468.461 91.1416 467.602 92.0482 466.455 92.7707C465.306 93.472 463.936 93.907 462.345 94.0759ZM461.178 97.0323L457.986 66.952L460.533 66.6819L463.724 96.7622L461.178 97.0323Z" fill="white"/>
<defs>
<clipPath id="clip0_2024_1212">
<rect width="80" height="91" fill="white" transform="translate(373.553 283.305) rotate(-36.5629)"/>
</clipPath>
<clipPath id="clip1_2024_1212">
<rect width="154.58" height="92.45" fill="white" transform="translate(0 59)"/>
</clipPath>
<clipPath id="clip2_2024_1212">
<rect width="272.531" height="550" fill="white" transform="translate(122 15)"/>
</clipPath>
</defs>
</svg>
