<svg width="272" height="272" viewBox="0 0 272 272" fill="none" xmlns="http://www.w3.org/2000/svg">
<g clip-path="url(#clip0_2193_1211)">
<path d="M77.8576 242.816C84.3637 242.816 89.6699 248.123 89.6699 254.629C89.6699 261.135 84.3637 266.45 77.8576 266.45C71.3515 266.45 66.0454 261.144 66.0454 254.629C66.0454 248.113 71.3515 242.816 77.8576 242.816Z" fill="#70D6F9"/>
<path d="M253.166 50.427C261.864 50.427 268.916 43.3757 268.916 34.6774C268.916 25.9791 261.864 18.9277 253.166 18.9277C244.468 18.9277 237.417 25.9791 237.417 34.6774C237.417 43.3757 244.468 50.427 253.166 50.427Z" fill="#70D6F9"/>
<path d="M18.834 253.073C27.5323 253.073 34.5836 246.021 34.5836 237.323C34.5836 228.625 27.5323 221.573 18.834 221.573C10.1357 221.573 3.08435 228.625 3.08435 237.323C3.08435 246.021 10.1357 253.073 18.834 253.073Z" fill="#FCDD86"/>
<path d="M194.142 5.5498C200.649 5.5498 205.955 10.8559 205.955 17.3714C205.955 23.8869 200.649 29.1836 194.142 29.1836C187.636 29.1836 182.33 23.8775 182.33 17.3714C182.321 10.8559 187.627 5.5498 194.142 5.5498Z" fill="#FCDD86"/>
<path d="M237.323 268.916C246.021 268.916 253.072 261.864 253.072 253.166C253.072 244.468 246.021 237.417 237.323 237.417C228.624 237.417 221.573 244.468 221.573 253.166C221.573 261.864 228.624 268.916 237.323 268.916Z" fill="#F98FA6"/>
<path d="M17.3715 66.0454C23.8776 66.0454 29.1838 71.3515 29.1838 77.8576C29.1838 84.3637 23.8776 89.6699 17.3715 89.6699C10.8654 89.6699 5.54993 84.3637 5.54993 77.8576C5.54993 71.3515 10.8561 66.0454 17.3715 66.0454Z" fill="#F98FA6"/>
<path d="M254.629 182.321C261.135 182.321 266.45 187.627 266.45 194.133C266.45 200.639 261.144 205.945 254.629 205.945C248.113 205.945 242.816 200.639 242.816 194.133C242.816 187.627 248.123 182.321 254.629 182.321Z" fill="#87D147"/>
<path d="M34.6774 34.5837C43.3757 34.5837 50.427 27.5324 50.427 18.8341C50.427 10.1358 43.3757 3.08447 34.6774 3.08447C25.9791 3.08447 18.9277 10.1358 18.9277 18.8341C18.9277 27.5324 25.9791 34.5837 34.6774 34.5837Z" fill="#87D147"/>
<path d="M126.7 132.822V138.513H107.238V132.822C107.238 127.469 111.616 123.091 116.969 123.091C122.322 123.091 126.7 127.469 126.7 132.822Z" fill="#EDF4FC"/>
<path d="M146.931 123.119C150.934 123.119 154.206 126.391 154.206 130.403C154.206 134.416 150.934 137.678 146.931 137.678H137.997V123.129H146.931V123.119Z" fill="#EDF4FC"/>
<path d="M126.7 138.503V132.813C126.7 127.46 122.322 123.082 116.969 123.082C111.616 123.082 107.238 127.46 107.238 132.813V138.503H126.7ZM137.997 137.678H146.931C150.934 137.678 154.206 134.406 154.206 130.403C154.206 126.4 150.934 123.119 146.931 123.119H137.997V137.678ZM136 91.9761C160.243 91.9761 180.024 111.757 180.024 136C180.024 160.243 160.243 180.024 136 180.024C111.757 180.024 91.9761 160.243 91.9761 136C91.9761 111.757 111.757 91.9761 136 91.9761Z" fill="#EDF4FC"/>
<path d="M218.217 133.01V138.991C218.217 142.984 214.945 145.984 210.961 146.247L194.771 147.334C193.224 155.434 190.036 162.962 185.574 169.543L196.261 181.768C198.886 184.768 199.083 189.211 196.261 192.024L194.142 194.143L192.024 196.261C189.202 199.083 184.768 198.886 181.768 196.261L169.543 185.574C162.962 190.036 155.434 193.233 147.334 194.78L146.247 210.97C145.984 214.945 142.984 218.217 138.991 218.217H133.009C129.016 218.217 126.016 214.945 125.753 210.97L124.666 194.771C116.566 193.224 109.038 190.036 102.457 185.574L90.2323 196.261C87.2324 198.886 82.7888 199.083 79.9763 196.261L77.8576 194.143L75.7389 192.024C72.9171 189.202 73.114 184.768 75.7389 181.768L86.4262 169.543C81.9638 162.962 78.767 155.443 77.2201 147.334L61.0299 146.247C57.055 145.984 53.7738 142.984 53.7738 138.991V133.01C53.7738 129.016 57.0456 126.016 61.0299 125.754L77.2201 124.666C78.7764 116.566 81.9638 109.038 86.4262 102.457L75.7389 90.2325C73.114 87.2325 72.9171 82.7889 75.7389 79.9764L77.8576 77.8577L79.9763 75.739C82.7981 72.9172 87.2324 73.1141 90.2323 75.739L102.457 86.4263C109.038 81.9639 116.557 78.7765 124.666 77.2296L125.753 61.03C126.016 57.0551 129.016 53.7739 133.009 53.7739H138.991C142.984 53.7739 145.984 57.0457 146.247 61.03L147.334 77.2296C155.434 78.7765 162.962 81.9639 169.543 86.4263L181.768 75.739C184.768 73.1141 189.211 72.9172 192.024 75.739L194.142 77.8577L196.261 79.9764C199.083 82.7983 198.886 87.2325 196.261 90.2325L185.574 102.457C190.036 109.038 193.224 116.557 194.78 124.666L210.961 125.754C214.945 126.016 218.217 129.016 218.217 133.01ZM180.024 136C180.024 111.757 160.243 91.9762 136 91.9762C111.757 91.9762 91.976 111.757 91.976 136C91.976 160.243 111.757 180.024 136 180.024C160.243 180.024 180.024 160.243 180.024 136Z" fill="#3A70BF"/>
<path d="M138.991 221.301H133.009C127.506 221.301 123.072 216.951 122.688 211.176L121.75 197.302C115 195.746 108.626 193.102 102.729 189.418L92.2573 198.567C87.9074 202.374 81.6919 202.317 77.8013 198.427L73.5639 194.189C69.6734 190.299 69.6172 184.083 73.4233 179.733L82.5731 169.262C78.8888 163.365 76.2451 156.981 74.6889 150.24L60.8236 149.303C55.0487 148.919 50.6989 144.484 50.6989 138.981V133C50.6989 127.497 55.0487 123.063 60.8236 122.679L74.6889 121.741C76.2545 114.991 78.8982 108.607 82.5731 102.72L73.4233 92.248C69.6172 87.8981 69.6734 81.6826 73.5639 77.7921L77.8013 73.5546C81.6919 69.6641 87.9074 69.6079 92.2573 73.414L102.729 82.5638C108.626 78.8795 115 76.2358 121.75 74.6796L122.688 60.8049C123.072 55.0301 127.506 50.6802 133.009 50.6802H138.991C144.494 50.6802 148.928 55.0301 149.312 60.8049L150.25 74.6796C157 76.2358 163.374 78.8795 169.271 82.5638L179.743 73.414C184.093 69.6079 190.308 69.6641 194.199 73.5546L198.436 77.7921C202.327 81.6826 202.383 87.8981 198.577 92.248L189.427 102.72C193.102 108.607 195.755 114.991 197.311 121.741L211.176 122.679C216.951 123.063 221.301 127.497 221.301 133V138.981C221.301 144.484 216.951 148.919 211.176 149.303L197.311 150.24C195.755 156.99 193.111 163.365 189.427 169.262L198.577 179.733C202.383 184.083 202.327 190.299 198.436 194.189L194.199 198.427C190.308 202.317 184.093 202.374 179.743 198.567L169.271 189.418C163.374 193.102 156.99 195.746 150.25 197.302L149.312 211.167C148.928 216.942 144.494 221.301 138.991 221.301ZM102.457 182.499C103.057 182.499 103.657 182.677 104.182 183.024C110.585 187.365 117.672 190.299 125.247 191.752C126.625 192.014 127.647 193.177 127.741 194.564L128.828 210.764C128.997 213.258 130.797 215.142 133.009 215.142H138.991C141.212 215.142 143.012 213.258 143.172 210.764L144.259 194.574C144.353 193.177 145.375 192.024 146.753 191.761C154.318 190.318 161.396 187.374 167.818 183.033C168.971 182.246 170.518 182.349 171.568 183.268L183.793 193.955C185.677 195.605 188.283 195.661 189.849 194.096L194.086 189.858C195.652 188.293 195.596 185.686 193.946 183.802L183.258 171.577C182.34 170.527 182.246 168.981 183.024 167.827C187.364 161.425 190.299 154.337 191.752 146.762C192.014 145.384 193.167 144.362 194.564 144.269L210.755 143.181C213.258 143.012 215.142 141.212 215.142 139V133.019C215.142 130.797 213.258 128.997 210.764 128.838L194.574 127.75C193.177 127.657 192.024 126.635 191.761 125.257C190.308 117.682 187.374 110.594 183.033 104.191C182.246 103.038 182.34 101.492 183.268 100.442L193.955 88.2168C195.605 86.3325 195.661 83.7263 194.096 82.1607L189.858 77.9233C188.293 76.3577 185.686 76.414 183.802 78.0639L171.577 88.7512C170.527 89.6699 168.98 89.7636 167.827 88.9855C161.424 84.645 154.337 81.7107 146.762 80.2576C145.384 79.9951 144.362 78.842 144.269 77.4452L143.181 61.2456C143.012 58.7425 141.212 56.8582 139 56.8582H133.019C130.797 56.8582 128.997 58.7425 128.838 61.2362L127.75 77.4358C127.656 78.8327 126.635 79.9858 125.257 80.2482C117.691 81.692 110.604 84.6356 104.191 88.9762C103.038 89.7637 101.491 89.6699 100.441 88.7418L88.2167 78.0545C86.3324 76.4046 83.7262 76.3483 82.1606 77.9139L77.9232 82.1513C76.3576 83.7169 76.4139 86.3231 78.0638 88.2074L88.7511 100.432C89.6698 101.482 89.7636 103.029 88.9855 104.182C84.6449 110.585 81.7106 117.672 80.2575 125.247C79.9951 126.616 78.842 127.647 77.4451 127.741L61.2549 128.828C58.7518 128.997 56.8675 130.797 56.8675 133.01V138.991C56.8675 141.212 58.7518 143.012 61.2549 143.172L77.4451 144.259C78.842 144.353 79.9951 145.375 80.2575 146.753C81.7013 154.309 84.6449 161.396 88.9855 167.818C89.7729 168.971 89.6792 170.518 88.7511 171.568L78.0638 183.793C76.4139 185.677 76.3576 188.283 77.9232 189.849L82.1606 194.086C83.7262 195.652 86.3324 195.596 88.2167 193.946L100.441 183.258C101.004 182.752 101.735 182.499 102.457 182.499Z" fill="black"/>
<path d="M136 183.099C110.032 183.099 88.9011 161.968 88.9011 136C88.9011 110.032 110.032 88.9009 136 88.9009C161.968 88.9009 183.099 110.032 183.099 136C183.099 161.968 161.968 183.099 136 183.099ZM136 95.0507C113.426 95.0507 95.051 113.416 95.051 136C95.051 158.584 113.416 176.949 136 176.949C158.584 176.949 176.949 158.584 176.949 136C176.949 113.416 158.575 95.0507 136 95.0507Z" fill="black"/>
<path d="M136 56.8485C134.303 56.8485 132.925 55.4704 132.925 53.7735V36.2989C132.925 28.3585 126.466 21.9086 118.535 21.9086H50.4364C48.7395 21.9086 47.3615 20.5306 47.3615 18.8337C47.3615 17.1369 48.7395 15.7588 50.4364 15.7588H118.535C129.869 15.7588 139.084 24.9742 139.084 36.3083V53.7829C139.075 55.4704 137.697 56.8485 136 56.8485Z" fill="black"/>
<path d="M18.834 224.648C17.1371 224.648 15.759 223.27 15.759 221.573V153.475C15.759 142.141 24.9744 132.925 36.3086 132.925H53.7832C55.48 132.925 56.8581 134.303 56.8581 136C56.8581 137.697 55.48 139.075 53.7832 139.075H36.3086C28.3681 139.075 21.9183 145.534 21.9183 153.465V221.564C21.9089 223.27 20.5308 224.648 18.834 224.648Z" fill="black"/>
<path d="M221.564 256.241H153.465C142.131 256.241 132.916 247.026 132.916 235.692V218.217C132.916 216.52 134.294 215.142 135.991 215.142C137.687 215.142 139.066 216.52 139.066 218.217V235.692C139.066 243.632 145.525 250.082 153.456 250.082H221.554C223.251 250.082 224.629 251.46 224.629 253.157C224.629 254.854 223.27 256.241 221.564 256.241Z" fill="black"/>
<path d="M235.701 139.075H218.226C216.529 139.075 215.151 137.697 215.151 136C215.151 134.303 216.529 132.925 218.226 132.925H235.701C243.641 132.925 250.091 126.466 250.091 118.535V50.4363C250.091 48.7394 251.469 47.3613 253.166 47.3613C254.863 47.3613 256.241 48.7394 256.241 50.4363V118.535C256.241 129.859 247.026 139.075 235.701 139.075Z" fill="black"/>
<path d="M34.6773 37.6679C24.2901 37.6679 15.8434 29.2212 15.8434 18.8339C15.8434 8.44668 24.2901 0 34.6773 0C45.0646 0 53.5113 8.44668 53.5113 18.8339C53.5113 29.2212 45.0646 37.6679 34.6773 37.6679ZM34.6773 6.15923C27.6837 6.15923 22.0026 11.8497 22.0026 18.8339C22.0026 25.8182 27.6931 31.5086 34.6773 31.5086C41.6615 31.5086 47.352 25.8182 47.352 18.8339C47.352 11.8497 41.6709 6.15923 34.6773 6.15923Z" fill="black"/>
<path d="M18.8339 256.147C8.44668 256.147 0 247.701 0 237.313C0 226.926 8.44668 218.479 18.8339 218.479C29.2212 218.479 37.6679 226.926 37.6679 237.313C37.6679 247.701 29.2212 256.147 18.8339 256.147ZM18.8339 224.648C11.8404 224.648 6.15923 230.339 6.15923 237.323C6.15923 244.307 11.8497 249.998 18.8339 249.998C25.8182 249.998 31.5086 244.307 31.5086 237.323C31.5086 230.339 25.8275 224.648 18.8339 224.648Z" fill="black"/>
<path d="M237.323 272C226.935 272 218.489 263.553 218.489 253.166C218.489 242.779 226.935 234.332 237.323 234.332C247.71 234.332 256.157 242.779 256.157 253.166C256.157 263.553 247.701 272 237.323 272ZM237.323 240.491C230.329 240.491 224.648 246.182 224.648 253.166C224.648 260.15 230.338 265.841 237.323 265.841C244.307 265.841 249.997 260.15 249.997 253.166C249.997 246.182 244.307 240.491 237.323 240.491Z" fill="black"/>
<path d="M253.166 53.5111C242.779 53.5111 234.332 45.0645 234.332 34.6772C234.332 24.2899 242.779 15.8433 253.166 15.8433C263.553 15.8433 272 24.2899 272 34.6772C272 45.0645 263.553 53.5111 253.166 53.5111ZM253.166 22.0025C246.172 22.0025 240.491 27.693 240.491 34.6772C240.491 41.6614 246.182 47.3519 253.166 47.3519C260.15 47.3519 265.841 41.6614 265.841 34.6772C265.841 27.693 260.16 22.0025 253.166 22.0025Z" fill="black"/>
<path d="M77.8576 80.9326H29.1837C27.4869 80.9326 26.1088 79.5545 26.1088 77.8577C26.1088 76.1608 27.4869 74.7827 29.1837 74.7827H77.8576C79.5544 74.7827 80.9325 76.1608 80.9325 77.8577C80.9325 79.5545 79.5544 80.9326 77.8576 80.9326Z" fill="black"/>
<path d="M77.8575 245.891C76.1607 245.891 74.7826 244.513 74.7826 242.816V194.142C74.7826 192.445 76.1607 191.067 77.8575 191.067C79.5544 191.067 80.9325 192.445 80.9325 194.142V242.816C80.9325 244.513 79.5544 245.891 77.8575 245.891Z" fill="black"/>
<path d="M242.816 197.217H194.142C192.446 197.217 191.068 195.839 191.068 194.142C191.068 192.445 192.446 191.067 194.142 191.067H242.816C244.513 191.067 245.891 192.445 245.891 194.142C245.891 195.839 244.513 197.217 242.816 197.217Z" fill="black"/>
<path d="M194.142 80.9326C192.446 80.9326 191.068 79.5545 191.068 77.8577V29.1838C191.068 27.487 192.446 26.1089 194.142 26.1089C195.839 26.1089 197.217 27.487 197.217 29.1838V77.8577C197.217 79.5545 195.839 80.9326 194.142 80.9326Z" fill="black"/>
<path d="M77.8576 269.525C69.6453 269.525 62.9611 262.841 62.9611 254.628C62.9611 246.416 69.6453 239.732 77.8576 239.732C86.0699 239.732 92.7541 246.416 92.7541 254.628C92.7541 262.841 86.0699 269.525 77.8576 269.525ZM77.8576 245.891C73.039 245.891 69.1203 249.81 69.1203 254.628C69.1203 259.447 73.039 263.375 77.8576 263.375C82.6762 263.375 86.5949 259.456 86.5949 254.628C86.5949 249.8 82.6762 245.891 77.8576 245.891Z" fill="black"/>
<path d="M254.628 209.03C246.416 209.03 239.732 202.346 239.732 194.143C239.732 185.94 246.416 179.246 254.628 179.246C262.841 179.246 269.525 185.93 269.525 194.143C269.525 202.355 262.85 209.03 254.628 209.03ZM254.628 185.405C249.81 185.405 245.891 189.324 245.891 194.143C245.891 198.961 249.81 202.88 254.628 202.88C259.447 202.88 263.375 198.961 263.375 194.143C263.375 189.324 259.456 185.405 254.628 185.405Z" fill="black"/>
<path d="M17.3715 92.754C9.1592 92.754 2.47498 86.0698 2.47498 77.8575C2.47498 69.6452 9.1592 62.9609 17.3715 62.9609C25.5838 62.9609 32.268 69.6452 32.268 77.8575C32.268 86.0698 25.5838 92.754 17.3715 92.754ZM17.3715 69.1202C12.5529 69.1202 8.62483 73.0388 8.62483 77.8575C8.62483 82.6761 12.5435 86.5948 17.3715 86.5948C22.1995 86.5948 26.1088 82.6761 26.1088 77.8575C26.1088 73.0388 22.1901 69.1202 17.3715 69.1202Z" fill="black"/>
<path d="M194.142 32.2584C185.93 32.2584 179.246 25.5742 179.246 17.3619C179.246 9.14955 185.93 2.46533 194.142 2.46533C202.355 2.46533 209.03 9.14955 209.03 17.3619C209.03 25.5742 202.355 32.2584 194.142 32.2584ZM194.142 8.62457C189.324 8.62457 185.405 12.5432 185.405 17.3712C185.405 22.1993 189.324 26.1085 194.142 26.1085C198.961 26.1085 202.88 22.1899 202.88 17.3712C202.88 12.5526 198.961 8.62457 194.142 8.62457Z" fill="black"/>
<path d="M109.304 151V127.16H118.2C119.821 127.16 121.251 127.459 122.488 128.056C123.747 128.632 124.728 129.485 125.432 130.616C126.136 131.725 126.488 133.08 126.488 134.68C126.488 136.28 126.125 137.645 125.4 138.776C124.696 139.885 123.715 140.739 122.456 141.336C121.219 141.912 119.8 142.2 118.2 142.2H113.656V151H109.304ZM113.656 138.36H118.264C119.416 138.36 120.344 138.029 121.048 137.368C121.773 136.685 122.136 135.789 122.136 134.68C122.136 133.571 121.773 132.685 121.048 132.024C120.344 131.341 119.416 131 118.264 131H113.656V138.36ZM138.566 151.384C137.051 151.384 135.643 151.107 134.342 150.552C133.062 149.997 131.953 149.229 131.014 148.248C130.097 147.245 129.425 146.083 128.998 144.76L132.614 143.192C133.19 144.579 134.022 145.656 135.11 146.424C136.198 147.192 137.425 147.576 138.79 147.576C139.921 147.576 140.827 147.32 141.51 146.808C142.214 146.275 142.566 145.56 142.566 144.664C142.566 143.96 142.353 143.384 141.926 142.936C141.521 142.488 140.902 142.125 140.07 141.848L135.494 140.376C133.638 139.779 132.241 138.915 131.302 137.784C130.363 136.632 129.894 135.277 129.894 133.72C129.894 132.355 130.225 131.149 130.886 130.104C131.569 129.059 132.507 128.248 133.702 127.672C134.897 127.075 136.283 126.776 137.862 126.776C139.995 126.776 141.862 127.32 143.462 128.408C145.062 129.496 146.182 130.936 146.822 132.728L143.238 134.328C142.769 133.155 142.065 132.237 141.126 131.576C140.187 130.915 139.099 130.584 137.862 130.584C136.753 130.584 135.857 130.861 135.174 131.416C134.513 131.949 134.182 132.653 134.182 133.528C134.182 134.915 135.046 135.885 136.774 136.44L141.158 137.816C144.955 139.032 146.854 141.229 146.854 144.408C146.854 145.773 146.502 146.979 145.798 148.024C145.094 149.069 144.113 149.891 142.854 150.488C141.617 151.085 140.187 151.384 138.566 151.384ZM150.773 151V127.16H159.669C161.29 127.16 162.719 127.459 163.957 128.056C165.215 128.632 166.197 129.485 166.901 130.616C167.605 131.725 167.957 133.08 167.957 134.68C167.957 136.28 167.594 137.645 166.869 138.776C166.165 139.885 165.183 140.739 163.925 141.336C162.687 141.912 161.269 142.2 159.669 142.2H155.125V151H150.773ZM155.125 138.36H159.733C160.885 138.36 161.813 138.029 162.517 137.368C163.242 136.685 163.605 135.789 163.605 134.68C163.605 133.571 163.242 132.685 162.517 132.024C161.813 131.341 160.885 131 159.733 131H155.125V138.36Z" fill="black"/>
</g>
<defs>
<clipPath id="clip0_2193_1211">
<rect width="272" height="272" fill="white"/>
</clipPath>
</defs>
</svg>
