<svg width="456" height="300" viewBox="0 0 456 300" fill="none" xmlns="http://www.w3.org/2000/svg">
<g clip-path="url(#clip0_0_1516)">
<mask id="mask0_0_1516" style="mask-type:luminance" maskUnits="userSpaceOnUse" x="0" y="0" width="456" height="300">
<path d="M436 0H20C8.9543 0 0 8.9543 0 20V280C0 291.046 8.9543 300 20 300H436C447.046 300 456 291.046 456 280V20C456 8.9543 447.046 0 436 0Z" fill="white"/>
</mask>
<g mask="url(#mask0_0_1516)">
<path d="M157.892 242.118C157.892 242.118 133.453 287.317 154.493 298.276C168.564 305.598 248.405 349.287 248.405 349.287C248.405 349.287 230.345 425.261 230.345 438.954L256.146 445.735C256.146 445.735 292.315 340.733 285.526 330.463C278.737 320.194 211.53 276.366 211.53 276.366L216.964 261.302L157.9 242.126L157.892 242.118Z" fill="#682741"/>
<path d="M343.112 191.608C343.293 192.699 344.352 193.43 345.468 193.241L347.504 192.905C348.629 192.716 349.392 191.681 349.212 190.598C349.031 189.506 347.972 188.775 346.856 188.964L344.82 189.301C343.695 189.49 342.932 190.524 343.112 191.608Z" fill="#1E1328"/>
<path d="M344.467 185.927C344.803 186.977 346.1 187.503 347.365 187.101L349.655 186.37C350.919 185.968 351.674 184.786 351.338 183.735C351.001 182.684 349.704 182.159 348.44 182.561L346.15 183.292C344.885 183.694 344.13 184.876 344.467 185.927Z" fill="#1E1328"/>
<path d="M343.474 181.42C343.958 182.414 345.156 182.824 346.15 182.331L352.315 179.352C353.308 178.867 353.719 177.669 353.226 176.675C352.742 175.682 351.543 175.272 350.55 175.764L344.385 178.744C343.392 179.228 342.981 180.427 343.474 181.42Z" fill="#FFBF9D"/>
<path d="M344.82 189.301L346.856 188.964C347.332 188.882 347.8 188.972 348.194 189.186L347.381 192.929L345.477 193.241C344.352 193.43 343.301 192.691 343.121 191.607C342.94 190.516 343.704 189.481 344.828 189.301H344.82Z" fill="#FFBF9D"/>
<path d="M346.15 183.284L348.44 182.553C348.851 182.422 349.269 182.389 349.655 182.438L348.744 186.658L347.373 187.093C346.109 187.495 344.812 186.97 344.475 185.919C344.139 184.868 344.894 183.686 346.158 183.284H346.15Z" fill="#FFBF9D"/>
<path d="M344.385 178.744L350.55 175.764C350.738 175.674 350.935 175.608 351.133 175.583L350.082 180.435L346.15 182.331C345.156 182.816 343.958 182.413 343.473 181.42C342.989 180.427 343.391 179.228 344.385 178.744Z" fill="#1E1328"/>
<path d="M316.277 192.543C319.035 178.539 319.79 177.463 319.79 177.463C324.404 177.792 322.532 184.868 321.933 187.117C326.62 190.787 324.576 198.823 324.576 198.823L337.464 201.614C336.135 209.216 324.338 211.367 324.338 211.367L317.837 208.231L312.657 206.983L316.277 192.543Z" fill="#FFBF9D"/>
<path d="M328.689 208.37L313.806 217.959L305.745 205.44L319.068 196.861L328.689 208.37Z" fill="#FFBF9D"/>
<path opacity="0.2" d="M315.757 200.434L308.035 205.409L316.099 217.927L323.821 212.952L315.757 200.434Z" fill="#1E283A"/>
<path opacity="0.2" d="M324.338 199.899L324.568 198.824L337.456 201.615C337.391 201.984 337.3 202.337 337.194 202.682L324.338 199.899Z" fill="#1E283A"/>
<path d="M324.182 215.012L310.834 198.027L262.729 223.41C255.374 202.025 251.27 178.613 250.892 177.505V175.469C241.443 192.264 242.552 214.618 245.835 232.325L239.785 235.518L248.971 246.042C251.499 255.4 253.946 261.516 253.946 261.516C253.946 261.516 256.794 260.588 260.283 259.012L261.58 260.498L324.174 215.012H324.182Z" fill="#E23E57"/>
<path d="M324.182 215.012L310.834 198.027L262.729 223.41C255.374 202.025 251.27 178.613 250.892 177.505V175.469C241.443 192.264 242.552 214.618 245.835 232.325L239.785 235.518L248.971 246.042C251.499 255.4 253.946 261.516 253.946 261.516C253.946 261.516 256.794 260.588 260.283 259.012L261.58 260.498L324.174 215.012H324.182Z" fill="#1A58BF"/>
<path d="M352.66 159.822H352.61L353.727 154.7C354.096 153.009 353.021 151.334 351.33 150.965L332.736 146.91C331.045 146.54 329.371 147.616 329.001 149.307L327.885 154.421H327.836C327.614 154.363 327.392 154.503 327.351 154.725L326.58 158.263C326.53 158.484 326.67 158.706 326.891 158.747H326.941L326.76 159.601H326.711C326.489 159.543 326.268 159.683 326.227 159.905L325.455 163.443C325.406 163.664 325.545 163.886 325.767 163.927H325.816L319.068 194.9C318.699 196.591 319.774 198.265 321.465 198.635L340.059 202.69C341.75 203.059 343.424 201.984 343.794 200.293L351.198 166.324H351.248C351.469 166.381 351.691 166.242 351.732 166.02L352.972 160.315C353.021 160.093 352.881 159.872 352.66 159.831V159.822Z" fill="#333343"/>
<path d="M350.843 151.648L332.885 147.732C331.507 147.432 330.147 148.305 329.846 149.683L319.988 194.895C319.688 196.273 320.561 197.633 321.939 197.933L339.897 201.849C341.275 202.149 342.635 201.276 342.935 199.898L352.793 154.686C353.094 153.309 352.22 151.948 350.843 151.648Z" fill="white"/>
<path d="M334.583 155.431L331.341 154.725C331.218 154.7 331.144 154.577 331.168 154.454C331.193 154.331 331.316 154.257 331.439 154.282L334.682 154.988C334.805 155.012 334.879 155.135 334.854 155.258C334.83 155.382 334.706 155.455 334.583 155.431Z" fill="#333343"/>
<path d="M339.5 156.498L336.258 155.792C336.135 155.767 336.061 155.644 336.085 155.521C336.11 155.398 336.233 155.324 336.356 155.348L339.599 156.054C339.722 156.079 339.796 156.202 339.771 156.325C339.747 156.448 339.623 156.522 339.5 156.498Z" fill="#333343"/>
<path d="M344.418 157.573L341.175 156.867C341.052 156.842 340.978 156.719 341.003 156.596C341.027 156.473 341.151 156.399 341.274 156.424L344.516 157.13C344.639 157.154 344.713 157.277 344.689 157.401C344.664 157.524 344.541 157.598 344.418 157.573Z" fill="#333343"/>
<path d="M349.343 158.649L346.1 157.943C345.977 157.918 345.903 157.795 345.928 157.672C345.953 157.549 346.076 157.475 346.199 157.499L349.442 158.205C349.565 158.23 349.639 158.353 349.614 158.476C349.589 158.599 349.466 158.673 349.343 158.649Z" fill="#333343"/>
<path d="M337.465 159.223C337.424 159.396 337.268 159.47 337.005 159.412L336.496 159.306L336.718 158.288L337.194 158.394C337.44 158.444 337.547 158.583 337.514 158.739C337.489 158.846 337.424 158.911 337.333 158.936C337.432 158.994 337.489 159.1 337.465 159.232V159.223ZM336.882 158.476L336.824 158.756L337.095 158.813C337.227 158.838 337.309 158.813 337.333 158.714C337.358 158.616 337.292 158.558 337.161 158.526L336.89 158.468L336.882 158.476ZM337.284 159.166C337.309 159.067 337.243 159.002 337.095 158.969L336.792 158.903L336.726 159.199L337.03 159.264C337.169 159.297 337.26 159.264 337.284 159.166Z" fill="#333343"/>
<path d="M338.343 159.223L338.244 159.683L338.072 159.642L338.097 159.544C338.039 159.601 337.949 159.617 337.826 159.593C337.645 159.552 337.555 159.429 337.588 159.297C337.621 159.166 337.727 159.084 337.965 159.133L338.162 159.174C338.187 159.059 338.138 158.977 338.006 158.953C337.916 158.936 337.826 158.944 337.752 158.977L337.711 158.829C337.809 158.78 337.932 158.78 338.064 158.805C338.285 158.854 338.392 158.985 338.343 159.215V159.223ZM338.113 159.396L338.13 159.306L337.941 159.264C337.818 159.24 337.777 159.273 337.76 159.33C337.744 159.396 337.793 159.453 337.883 159.47C337.974 159.486 338.056 159.47 338.105 159.396H338.113Z" fill="#333343"/>
<path d="M339.337 159.453L339.238 159.896L339.057 159.855L339.148 159.436C339.181 159.297 339.123 159.215 339.008 159.19C338.877 159.166 338.77 159.223 338.737 159.379L338.655 159.773L338.475 159.732L338.647 158.952L338.819 158.993L338.795 159.092C338.869 159.034 338.975 159.018 339.09 159.042C339.279 159.083 339.394 159.223 339.345 159.453H339.337Z" fill="#333343"/>
<path d="M339.862 159.683L339.698 159.782L339.657 159.987L339.476 159.946L339.714 158.862L339.895 158.903L339.755 159.552L340.207 159.281L340.428 159.33L340.034 159.585L340.289 160.11L340.067 160.061L339.87 159.667L339.862 159.683Z" fill="#333343"/>
<path d="M341.816 159.773C341.766 159.995 341.569 160.102 341.307 160.044L341.077 159.995L341.011 160.29L340.822 160.249L341.044 159.231L341.463 159.322C341.733 159.379 341.865 159.552 341.816 159.781V159.773ZM341.627 159.732C341.651 159.601 341.586 159.511 341.422 159.478L341.2 159.428L341.11 159.831L341.331 159.88C341.495 159.913 341.602 159.864 341.627 159.732Z" fill="#333343"/>
<path d="M342.587 160.151L342.489 160.61L342.316 160.569L342.341 160.471C342.283 160.528 342.193 160.545 342.07 160.52C341.889 160.479 341.799 160.356 341.832 160.225C341.865 160.093 341.971 160.011 342.209 160.06L342.406 160.101C342.431 159.986 342.382 159.904 342.25 159.88C342.16 159.863 342.07 159.872 341.996 159.904L341.955 159.757C342.053 159.707 342.177 159.707 342.308 159.732C342.53 159.781 342.636 159.913 342.587 160.142V160.151ZM342.357 160.323L342.374 160.233L342.185 160.192C342.062 160.167 342.021 160.2 342.004 160.257C341.988 160.323 342.037 160.381 342.127 160.397C342.218 160.413 342.3 160.397 342.349 160.323H342.357Z" fill="#333343"/>
<path d="M343.605 160.036L343.055 160.799C342.948 160.963 342.833 160.988 342.702 160.963C342.628 160.947 342.546 160.906 342.513 160.848L342.612 160.733C342.636 160.774 342.686 160.807 342.735 160.816C342.8 160.832 342.842 160.807 342.899 160.742L342.915 160.717L342.743 159.863L342.932 159.904L343.055 160.536L343.424 160.011L343.597 160.052L343.605 160.036Z" fill="#333343"/>
<path d="M333.886 161.276L333.943 161.202C333.992 161.267 334.083 161.325 334.181 161.349C334.313 161.382 334.386 161.341 334.395 161.276C334.436 161.087 333.943 161.103 334.001 160.816C334.025 160.693 334.14 160.619 334.345 160.66C334.436 160.676 334.526 160.726 334.584 160.783L334.526 160.865C334.469 160.808 334.395 160.767 334.329 160.758C334.198 160.734 334.132 160.775 334.116 160.84C334.075 161.029 334.567 161.013 334.51 161.3C334.485 161.415 334.37 161.497 334.165 161.456C334.05 161.431 333.935 161.366 333.886 161.292V161.276Z" fill="#C90000"/>
<path d="M334.625 161.218C334.666 161.046 334.822 160.947 335.002 160.988C335.109 161.013 335.183 161.07 335.216 161.169L335.125 161.202C335.101 161.136 335.051 161.095 334.986 161.087C334.871 161.062 334.764 161.12 334.739 161.251C334.715 161.382 334.78 161.481 334.895 161.505C334.961 161.522 335.027 161.505 335.076 161.456L335.142 161.522C335.076 161.596 334.977 161.62 334.879 161.596C334.698 161.555 334.6 161.407 334.633 161.226L334.625 161.218Z" fill="#C90000"/>
<path d="M335.79 161.415L335.716 161.768L335.618 161.743L335.634 161.669C335.585 161.719 335.511 161.735 335.421 161.71C335.289 161.678 335.215 161.596 335.24 161.489C335.256 161.399 335.339 161.333 335.511 161.366L335.675 161.399V161.374C335.7 161.284 335.659 161.218 335.552 161.202C335.486 161.185 335.404 161.202 335.355 161.226L335.33 161.136C335.404 161.103 335.495 161.095 335.593 161.111C335.757 161.144 335.831 161.243 335.79 161.407V161.415ZM335.642 161.563L335.659 161.481L335.495 161.448C335.388 161.423 335.347 161.456 335.339 161.505C335.322 161.563 335.363 161.612 335.445 161.628C335.527 161.645 335.593 161.628 335.634 161.563H335.642Z" fill="#C90000"/>
<path d="M336.537 161.595L336.463 161.932L336.357 161.907L336.431 161.579C336.455 161.464 336.414 161.398 336.308 161.374C336.193 161.349 336.11 161.398 336.078 161.53L336.012 161.834L335.905 161.809L336.037 161.226L336.135 161.251L336.119 161.341C336.176 161.292 336.258 161.275 336.349 161.292C336.488 161.325 336.57 161.423 336.537 161.595Z" fill="#C90000"/>
<path d="M338.236 161.505L337.81 162.22L337.695 162.195L337.621 161.53L337.276 162.105L337.161 162.08L337.071 161.251L337.186 161.276L337.26 161.949L337.613 161.366L337.711 161.391L337.785 162.072L338.138 161.489L338.245 161.514L338.236 161.505Z" fill="#C90000"/>
<path d="M338.335 161.538C338.335 161.538 338.384 161.472 338.425 161.481C338.467 161.489 338.491 161.53 338.483 161.563C338.475 161.604 338.434 161.628 338.393 161.62C338.352 161.612 338.327 161.571 338.335 161.538ZM338.311 161.727L338.417 161.752L338.286 162.334L338.179 162.31L338.311 161.727Z" fill="#C90000"/>
<path d="M338.836 162.408C338.836 162.408 338.746 162.433 338.696 162.425C338.581 162.4 338.524 162.318 338.549 162.203L338.622 161.883L338.524 161.858L338.54 161.768L338.639 161.792L338.663 161.661L338.77 161.686L338.746 161.817L338.91 161.85L338.893 161.94L338.729 161.907L338.663 162.228C338.647 162.293 338.672 162.334 338.737 162.342C338.77 162.342 338.803 162.342 338.828 162.334L338.844 162.416L338.836 162.408Z" fill="#C90000"/>
<path d="M339.591 162.261L339.517 162.597L339.41 162.573L339.484 162.244C339.509 162.129 339.468 162.064 339.361 162.039C339.246 162.015 339.164 162.064 339.131 162.195L339.066 162.499L338.959 162.474L339.14 161.653L339.246 161.678L339.181 161.998C339.238 161.949 339.32 161.932 339.41 161.957C339.55 161.99 339.632 162.088 339.599 162.261H339.591Z" fill="#C90000"/>
<path d="M340.043 162.31C340.092 162.08 340.305 161.949 340.543 162.006C340.666 162.031 340.757 162.096 340.814 162.195L340.724 162.252C340.675 162.179 340.609 162.129 340.527 162.113C340.355 162.072 340.199 162.17 340.158 162.343C340.116 162.515 340.223 162.671 340.396 162.704C340.478 162.72 340.56 162.704 340.634 162.655L340.691 162.737C340.601 162.802 340.486 162.819 340.371 162.794C340.133 162.745 340.002 162.54 340.051 162.31H340.043Z" fill="#C90000"/>
<path d="M341.348 162.622L341.274 162.975L341.175 162.95L341.192 162.876C341.142 162.925 341.069 162.942 340.978 162.917C340.847 162.884 340.773 162.802 340.798 162.695C340.814 162.605 340.896 162.539 341.069 162.572L341.233 162.605V162.58C341.257 162.49 341.216 162.424 341.11 162.408C341.044 162.392 340.962 162.408 340.913 162.433L340.888 162.342C340.962 162.31 341.052 162.301 341.151 162.318C341.315 162.351 341.389 162.449 341.348 162.613V162.622ZM341.2 162.769L341.216 162.687L341.052 162.654C340.945 162.63 340.904 162.663 340.896 162.712C340.88 162.769 340.921 162.819 341.003 162.835C341.085 162.851 341.151 162.835 341.192 162.769H341.2Z" fill="#C90000"/>
<path d="M342.514 162.893L342.44 163.229L342.333 163.205L342.407 162.876C342.432 162.761 342.391 162.696 342.292 162.671C342.185 162.646 342.103 162.704 342.07 162.827L342.005 163.131L341.898 163.106L341.972 162.778C341.996 162.663 341.955 162.597 341.857 162.573C341.75 162.548 341.668 162.605 341.635 162.729L341.57 163.032L341.463 163.008L341.594 162.425L341.693 162.449L341.676 162.54C341.734 162.49 341.808 162.474 341.898 162.49C341.988 162.507 342.054 162.564 342.079 162.646C342.136 162.589 342.226 162.564 342.325 162.589C342.464 162.622 342.546 162.72 342.505 162.893H342.514Z" fill="#C90000"/>
<path d="M343.22 163.131L342.743 163.024C342.735 163.131 342.801 163.213 342.916 163.246C342.982 163.262 343.047 163.246 343.105 163.213L343.146 163.295C343.08 163.344 342.99 163.361 342.891 163.336C342.702 163.295 342.604 163.139 342.645 162.966C342.686 162.794 342.834 162.696 343.006 162.728C343.179 162.761 343.269 162.917 343.228 163.09C343.228 163.098 343.228 163.114 343.22 163.122V163.131ZM342.76 162.95L343.138 163.032C343.146 162.934 343.088 162.843 342.99 162.827C342.891 162.811 342.801 162.86 342.768 162.95H342.76Z" fill="#C90000"/>
<path d="M343.761 162.901L343.736 163.008C343.736 163.008 343.72 163.008 343.712 163.008C343.597 162.983 343.515 163.04 343.482 163.164L343.416 163.459L343.31 163.434L343.441 162.852L343.539 162.876L343.515 162.975C343.564 162.917 343.646 162.893 343.753 162.917L343.761 162.901Z" fill="#C90000"/>
<path d="M344.303 163.27L344.229 163.623L344.131 163.599L344.147 163.525C344.098 163.574 344.024 163.591 343.934 163.566C343.802 163.533 343.729 163.451 343.753 163.344C343.77 163.254 343.852 163.188 344.024 163.221L344.188 163.254V163.229C344.213 163.139 344.172 163.073 344.065 163.057C344 163.041 343.917 163.057 343.868 163.082L343.844 162.991C343.917 162.958 344.008 162.95 344.106 162.967C344.27 163 344.344 163.098 344.303 163.262V163.27ZM344.155 163.418L344.172 163.336L344.008 163.303C343.901 163.279 343.86 163.311 343.852 163.361C343.835 163.418 343.876 163.467 343.958 163.484C344.041 163.5 344.106 163.484 344.147 163.418H344.155Z" fill="#C90000"/>
<path d="M344.472 166.997L332.296 164.342C331.57 164.184 330.853 164.644 330.694 165.371L326.926 182.655C326.767 183.381 327.228 184.099 327.954 184.257L340.129 186.912C340.856 187.07 341.573 186.61 341.732 185.883L345.5 168.599C345.659 167.872 345.198 167.155 344.472 166.997Z" fill="#E5F2FF"/>
<path d="M333.417 171.422L332.933 173.647L335.158 174.131L335.642 171.906L333.417 171.422ZM334.78 173.54L333.524 173.269L333.795 172.013L335.051 172.284L334.78 173.54Z" fill="#333343"/>
<path d="M334.495 173.098L334.611 172.568L334.081 172.453L333.966 172.982L334.495 173.098Z" fill="#333343"/>
<path d="M338.261 172.473L337.776 174.697L340.001 175.182L340.485 172.957L338.261 172.473ZM339.623 174.591L338.367 174.32L338.638 173.064L339.894 173.335L339.623 174.591Z" fill="#333343"/>
<path d="M339.334 174.15L339.45 173.621L338.92 173.505L338.805 174.035L339.334 174.15Z" fill="#333343"/>
<path d="M332.408 176.036L331.923 178.26L334.148 178.745L334.632 176.52L332.408 176.036ZM333.77 178.154L332.514 177.883L332.785 176.627L334.041 176.898L333.77 178.154Z" fill="#333343"/>
<path d="M333.487 177.706L333.602 177.176L333.073 177.061L332.957 177.59L333.487 177.706Z" fill="#333343"/>
<path d="M333.321 174.188L332.84 174.083L332.515 175.575L332.996 175.68L333.321 174.188Z" fill="#333343"/>
<path d="M335.054 174.56L334.572 174.456L334.355 175.45L334.837 175.555L335.054 174.56Z" fill="#333343"/>
<path d="M337.894 172.396L337.067 172.216L336.962 172.697L337.789 172.877L337.894 172.396Z" fill="#333343"/>
<path d="M339.934 175.548L339.107 175.368L339.002 175.849L339.829 176.03L339.934 175.548Z" fill="#333343"/>
<path d="M338.358 178.769L337.404 178.561L337.299 179.042L338.253 179.25L338.358 178.769Z" fill="#333343"/>
<path d="M339.105 179.331L338.624 179.226L338.519 179.707L339 179.812L339.105 179.331Z" fill="#333343"/>
<path d="M338.992 178.177L338.511 178.072L338.413 178.521L338.895 178.626L338.992 178.177Z" fill="#333343"/>
<path d="M336.763 176.975L336.583 177.801L337.064 177.906L337.244 177.08L336.763 176.975Z" fill="#333343"/>
<path d="M336.7 175.616L336.52 176.442L337.001 176.547L337.181 175.721L336.7 175.616Z" fill="#333343"/>
<path d="M335.953 172.479L335.764 173.345L336.261 173.454L336.45 172.587L335.953 172.479Z" fill="#333343"/>
<path d="M333.67 174.296L333.565 174.777L334.047 174.882L334.152 174.401L333.67 174.296Z" fill="#333343"/>
<path d="M335.719 173.741L335.614 174.223L336.095 174.328L336.2 173.846L335.719 173.741Z" fill="#333343"/>
<path d="M338.596 176.673L338.491 177.154L339.534 177.382L339.639 176.9L338.596 176.673Z" fill="#333343"/>
<path d="M335.953 175.783L335.848 176.264L336.329 176.369L336.434 175.888L335.953 175.783Z" fill="#333343"/>
<path d="M337.297 179.048L337.218 179.409L337.699 179.514L337.778 179.153L337.297 179.048Z" fill="#333343"/>
<path d="M332.946 174.735L332.841 175.216L333.323 175.321L333.427 174.84L332.946 174.735Z" fill="#333343"/>
<path d="M336.935 178.464L336.117 178.285L336.012 178.766L336.83 178.945L336.935 178.464Z" fill="#333343"/>
<path d="M338.899 177.952L338.689 178.914L339.186 179.022L339.396 178.06L338.899 177.952Z" fill="#333343"/>
<path d="M338.677 177.404L338.572 177.885L339.39 178.063L339.495 177.582L338.677 177.404Z" fill="#333343"/>
<path d="M336.823 173.058L336.634 173.924L337.131 174.033L337.32 173.167L336.823 173.058Z" fill="#333343"/>
<path d="M337.712 173.261L335.875 172.861L335.769 173.35L337.606 173.751L337.712 173.261Z" fill="#333343"/>
<path d="M335.754 175.767L333.917 175.367L333.811 175.856L335.648 176.256L335.754 175.767Z" fill="#333343"/>
<path d="M338.088 175.65L338.179 175.165L337.686 175.059L337.588 175.543L337.481 176.027L337.982 176.142L339.32 176.43L339.426 175.945L338.088 175.65Z" fill="#333343"/>
<path d="M337.776 176.987L337.3 176.872L337.407 176.372L337.891 176.495L338.376 176.601L338.269 177.094L337.973 178.432L337.489 178.325L337.776 176.987Z" fill="#333343"/>
<path d="M336.857 174.96L336.972 174.476L337.473 174.582L337.349 175.067L337.243 175.559L336.75 175.444L335.412 175.157L335.519 174.664L336.857 174.96Z" fill="#333343"/>
<path d="M335.043 176.602L334.936 177.086L335.831 177.283L335.56 178.539L334.665 178.342L334.559 178.827L335.938 179.13L336.422 176.906L335.043 176.602Z" fill="#333343"/>
<path d="M334.862 177.454L334.746 177.983L335.275 178.098L335.391 177.569L334.862 177.454Z" fill="#333343"/>
<path d="M334.32 170.855L333.122 170.601L332.851 170.535L332.794 170.806L332.539 172.005L332.802 172.062L333.064 170.864L334.263 171.126L334.32 170.855Z" fill="#333343"/>
<path d="M341.044 173.86L341.298 172.661L341.356 172.39L341.093 172.333L339.894 172.07L339.837 172.341L341.035 172.604L340.773 173.802L341.044 173.86Z" fill="#333343"/>
<path d="M332.531 179.179L331.332 178.925L331.062 178.859L331.119 178.596L331.382 177.398L331.653 177.455L331.39 178.654L332.588 178.917L332.531 179.179Z" fill="#333343"/>
<path d="M339.886 179.253L339.624 180.452L339.566 180.714L339.295 180.657L338.097 180.394L338.162 180.132L339.353 180.394L339.615 179.196L339.886 179.253Z" fill="#333343"/>
<path d="M339.714 190.959L339.763 191.033C339.689 191.091 339.599 191.099 339.492 191.082C339.328 191.05 339.221 190.918 339.213 190.77L339.106 190.746V190.697L339.213 190.721C339.213 190.713 339.213 190.697 339.213 190.68C339.213 190.664 339.213 190.656 339.221 190.639L339.123 190.614V190.565L339.238 190.59C339.312 190.458 339.459 190.385 339.624 190.417C339.722 190.442 339.804 190.491 339.845 190.573L339.771 190.623C339.73 190.557 339.673 190.524 339.607 190.508C339.492 190.483 339.394 190.524 339.336 190.614L339.632 190.68V190.729L339.312 190.664C339.312 190.672 339.303 190.688 339.303 190.705C339.303 190.721 339.303 190.729 339.303 190.746L339.607 190.811V190.861L339.303 190.795C339.32 190.894 339.394 190.984 339.509 191.008C339.583 191.025 339.648 191.008 339.706 190.967L339.714 190.959Z" fill="#333343"/>
<path d="M340.403 190.59L340.264 191.238L340.174 191.222L340.297 190.655L340.149 190.623L340.165 190.541L340.403 190.59Z" fill="#333343"/>
<path d="M340.879 191.288L340.863 191.37L340.395 191.271L340.411 191.206L340.732 191.009C340.814 190.959 340.838 190.918 340.847 190.877C340.863 190.812 340.822 190.762 340.732 190.738C340.666 190.721 340.6 190.738 340.551 190.77L340.502 190.705C340.567 190.656 340.658 190.639 340.756 190.656C340.888 190.688 340.961 190.77 340.937 190.885C340.92 190.951 340.896 191 340.789 191.066L340.551 191.214L340.879 191.288Z" fill="#333343"/>
<path d="M341.003 191.058C341.052 190.844 341.183 190.754 341.339 190.787C341.495 190.82 341.577 190.967 341.528 191.173C341.479 191.378 341.347 191.476 341.191 191.444C341.035 191.411 340.953 191.263 341.003 191.058ZM341.438 191.156C341.47 190.992 341.421 190.894 341.323 190.869C341.224 190.844 341.134 190.918 341.101 191.082C341.068 191.247 341.117 191.345 341.216 191.37C341.314 191.394 341.405 191.32 341.438 191.156Z" fill="#333343"/>
<path d="M341.553 191.46C341.553 191.46 341.594 191.402 341.627 191.41C341.66 191.419 341.685 191.452 341.677 191.485C341.668 191.518 341.635 191.543 341.602 191.534C341.569 191.526 341.545 191.493 341.553 191.46Z" fill="#333343"/>
<path d="M341.807 191.238C341.856 191.025 341.988 190.935 342.144 190.968C342.3 191 342.382 191.148 342.333 191.353C342.283 191.559 342.152 191.657 341.996 191.624C341.84 191.591 341.758 191.444 341.807 191.238ZM342.242 191.337C342.275 191.173 342.226 191.074 342.127 191.05C342.029 191.025 341.939 191.099 341.906 191.263C341.873 191.427 341.922 191.526 342.021 191.55C342.119 191.575 342.209 191.501 342.242 191.337Z" fill="#333343"/>
<path d="M342.423 191.37C342.472 191.156 342.604 191.066 342.759 191.099C342.915 191.132 342.998 191.279 342.948 191.485C342.899 191.69 342.768 191.788 342.612 191.756C342.456 191.723 342.374 191.575 342.423 191.37ZM342.858 191.468C342.891 191.304 342.842 191.206 342.743 191.181C342.645 191.156 342.554 191.23 342.521 191.394C342.489 191.559 342.538 191.657 342.636 191.682C342.735 191.706 342.825 191.632 342.858 191.468Z" fill="#333343"/>
<path d="M323.789 189.219C323.756 189.358 323.641 189.424 323.468 189.383L323.312 189.35L323.271 189.547L323.181 189.531L323.321 188.882L323.575 188.94C323.739 188.973 323.83 189.079 323.797 189.227L323.789 189.219ZM323.698 189.202C323.715 189.112 323.665 189.047 323.551 189.022L323.395 188.989L323.329 189.276L323.485 189.309C323.6 189.334 323.674 189.293 323.698 189.202Z" fill="#333343"/>
<path d="M324.182 189.236L324.166 189.318H324.15C324.051 189.293 323.985 189.343 323.961 189.449L323.912 189.695L323.821 189.679L323.928 189.187L324.01 189.203L323.994 189.285C324.035 189.236 324.109 189.219 324.191 189.236H324.182Z" fill="#333343"/>
<path d="M324.191 189.498C324.224 189.35 324.355 189.276 324.503 189.301C324.65 189.326 324.733 189.457 324.7 189.605C324.667 189.753 324.536 189.835 324.388 189.802C324.24 189.769 324.158 189.646 324.191 189.498ZM324.609 189.588C324.634 189.482 324.577 189.4 324.486 189.383C324.396 189.367 324.306 189.416 324.281 189.523C324.256 189.629 324.314 189.712 324.412 189.728C324.511 189.744 324.593 189.695 324.618 189.588H324.609Z" fill="#333343"/>
<path d="M325.381 189.293L325.233 189.975L325.151 189.958L325.168 189.884C325.118 189.933 325.044 189.942 324.979 189.925C324.839 189.892 324.757 189.769 324.79 189.622C324.823 189.474 324.946 189.392 325.094 189.425C325.159 189.441 325.217 189.482 325.25 189.539L325.307 189.269L325.397 189.285L325.381 189.293ZM325.2 189.712C325.225 189.605 325.168 189.523 325.077 189.507C324.987 189.49 324.897 189.539 324.872 189.646C324.847 189.753 324.905 189.835 325.003 189.851C325.102 189.868 325.184 189.819 325.209 189.712H325.2Z" fill="#333343"/>
<path d="M325.956 189.621L325.849 190.114L325.767 190.097L325.783 190.023C325.734 190.064 325.668 190.081 325.603 190.064C325.479 190.04 325.406 189.949 325.438 189.802L325.496 189.522L325.586 189.539L325.529 189.81C325.504 189.908 325.545 189.966 325.627 189.982C325.718 189.999 325.791 189.958 325.816 189.851L325.874 189.596L325.964 189.613L325.956 189.621Z" fill="#333343"/>
<path d="M326.03 189.892C326.063 189.745 326.194 189.671 326.342 189.704C326.432 189.72 326.498 189.777 326.514 189.851L326.44 189.876C326.416 189.818 326.374 189.786 326.325 189.777C326.227 189.753 326.145 189.81 326.12 189.909C326.095 190.007 326.153 190.098 326.251 190.114C326.309 190.122 326.358 190.114 326.399 190.073L326.457 190.13C326.399 190.188 326.325 190.212 326.235 190.196C326.087 190.163 325.997 190.032 326.03 189.892Z" fill="#333343"/>
<path d="M326.834 190.295C326.834 190.295 326.76 190.311 326.719 190.303C326.621 190.278 326.579 190.213 326.596 190.114L326.653 189.843L326.571 189.827L326.588 189.753L326.67 189.769L326.694 189.663L326.785 189.679L326.76 189.786L326.9 189.819L326.883 189.892L326.744 189.86L326.686 190.122C326.678 190.172 326.694 190.213 326.744 190.221C326.768 190.221 326.793 190.221 326.818 190.221L326.834 190.286V190.295Z" fill="#333343"/>
<path d="M327.335 189.761L327.425 189.777L327.286 190.426L327.195 190.409L327.335 189.761Z" fill="#333343"/>
<path d="M327.622 189.827L327.893 189.884C328.099 189.933 328.214 190.089 328.172 190.286C328.131 190.483 327.959 190.582 327.754 190.533L327.483 190.475L327.622 189.827ZM327.762 190.451C327.918 190.483 328.041 190.41 328.074 190.262C328.107 190.114 328.025 189.999 327.869 189.958L327.696 189.917L327.59 190.401L327.762 190.442V190.451Z" fill="#333343"/>
<path d="M334.222 191.263L334.083 191.911L334.009 191.895L333.73 191.329L333.623 191.813L333.533 191.796L333.672 191.148L333.746 191.164L334.025 191.731L334.132 191.246L334.222 191.263Z" fill="#333343"/>
<path d="M334.271 191.689C334.304 191.542 334.436 191.468 334.583 191.492C334.731 191.517 334.813 191.648 334.78 191.796C334.747 191.944 334.616 192.026 334.468 191.993C334.321 191.96 334.239 191.837 334.271 191.689ZM334.69 191.78C334.715 191.673 334.657 191.591 334.567 191.575C334.477 191.558 334.386 191.607 334.362 191.714C334.337 191.821 334.394 191.903 334.493 191.919C334.592 191.936 334.674 191.886 334.698 191.78H334.69Z" fill="#333343"/>
<path d="M335.38 191.673L335.06 192.116L334.97 192.1L334.863 191.566L334.953 191.583L335.035 192.01L335.29 191.657L335.38 191.673Z" fill="#333343"/>
<path d="M335.79 191.969L335.725 192.265L335.642 192.248L335.659 192.182C335.659 192.182 335.56 192.232 335.486 192.215C335.38 192.191 335.322 192.117 335.339 192.035C335.355 191.953 335.421 191.903 335.569 191.936L335.708 191.969V191.953C335.725 191.879 335.692 191.821 335.61 191.805C335.552 191.788 335.486 191.805 335.445 191.821L335.421 191.747C335.478 191.715 335.56 191.715 335.634 191.731C335.766 191.764 335.831 191.838 335.798 191.977L335.79 191.969ZM335.667 192.092L335.683 192.027L335.544 191.994C335.454 191.977 335.421 192.002 335.413 192.043C335.404 192.092 335.437 192.133 335.503 192.15C335.569 192.166 335.626 192.15 335.659 192.092H335.667Z" fill="#333343"/>
<path d="M336.036 191.616L336.127 191.632L335.979 192.313L335.889 192.297L336.036 191.616Z" fill="#333343"/>
<path d="M336.677 192.174L336.619 192.453L336.529 192.437L336.586 192.166C336.611 192.067 336.57 192.01 336.488 191.993C336.398 191.977 336.324 192.018 336.299 192.125L336.242 192.379L336.151 192.363L336.258 191.87L336.34 191.887L336.324 191.96C336.373 191.919 336.439 191.903 336.521 191.919C336.636 191.944 336.71 192.034 336.677 192.174Z" fill="#333343"/>
<path d="M337.268 192.38L336.874 192.289C336.874 192.38 336.923 192.453 337.022 192.47C337.079 192.486 337.128 192.47 337.178 192.445L337.21 192.511C337.153 192.552 337.079 192.568 336.997 192.552C336.841 192.519 336.759 192.388 336.792 192.248C336.825 192.109 336.948 192.018 337.087 192.051C337.227 192.084 337.309 192.207 337.276 192.355C337.276 192.355 337.276 192.371 337.276 192.38H337.268ZM336.882 192.232L337.194 192.297C337.202 192.215 337.153 192.141 337.071 192.125C336.989 192.109 336.915 192.15 336.882 192.232Z" fill="#333343"/>
<path d="M337.621 192.65C337.621 192.65 337.547 192.667 337.506 192.658C337.407 192.634 337.366 192.568 337.383 192.47L337.44 192.199L337.358 192.182L337.374 192.108L337.456 192.125L337.481 192.018L337.571 192.034L337.547 192.141L337.686 192.174L337.67 192.248L337.53 192.215L337.473 192.478C337.465 192.527 337.481 192.568 337.53 192.576C337.555 192.576 337.58 192.576 337.604 192.576L337.621 192.642V192.65Z" fill="#333343"/>
<path d="M338.236 192.223L338.015 192.174L338.031 192.092L338.565 192.207L338.548 192.289L338.327 192.24L338.203 192.806L338.113 192.79L338.236 192.223Z" fill="#333343"/>
<path d="M338.951 192.74L338.557 192.65C338.557 192.74 338.606 192.814 338.704 192.831C338.762 192.847 338.811 192.831 338.86 192.806L338.893 192.872C338.836 192.913 338.762 192.929 338.68 192.913C338.524 192.88 338.442 192.749 338.474 192.609C338.507 192.469 338.63 192.379 338.77 192.412C338.91 192.445 338.992 192.568 338.959 192.716C338.959 192.716 338.959 192.732 338.959 192.74H338.951ZM338.565 192.593L338.877 192.658C338.885 192.576 338.836 192.502 338.754 192.486C338.671 192.469 338.598 192.511 338.565 192.593Z" fill="#333343"/>
<path d="M338.975 192.921L339.024 192.856C339.024 192.856 339.123 192.93 339.189 192.946C339.271 192.962 339.312 192.946 339.32 192.905C339.344 192.798 339.016 192.823 339.057 192.626C339.074 192.536 339.164 192.495 339.295 192.527C339.361 192.544 339.427 192.577 339.468 192.609L339.418 192.675C339.418 192.675 339.336 192.618 339.287 192.609C339.213 192.593 339.164 192.609 339.156 192.65C339.131 192.765 339.459 192.741 339.418 192.93C339.402 193.02 339.303 193.053 339.172 193.028C339.09 193.012 339.016 192.971 338.983 192.93L338.975 192.921Z" fill="#333343"/>
<path d="M339.771 193.118C339.771 193.118 339.698 193.134 339.657 193.126C339.558 193.102 339.517 193.036 339.533 192.937L339.591 192.666L339.509 192.65L339.525 192.576L339.607 192.593L339.632 192.486L339.722 192.502L339.698 192.609L339.837 192.642L339.821 192.716L339.681 192.683L339.624 192.946C339.616 192.995 339.632 193.036 339.681 193.044C339.706 193.044 339.73 193.044 339.755 193.044L339.771 193.11V193.118Z" fill="#333343"/>
<path d="M340.116 192.987L339.993 193.061L339.96 193.192L339.87 193.176L340.018 192.495L340.108 192.511L340.01 192.946L340.33 192.757L340.437 192.782L340.19 192.938L340.354 193.274L340.248 193.25L340.116 192.979V192.987Z" fill="#333343"/>
<path d="M340.428 193.036C340.461 192.888 340.592 192.815 340.74 192.839C340.888 192.864 340.97 192.995 340.937 193.143C340.904 193.291 340.773 193.373 340.625 193.34C340.477 193.307 340.395 193.184 340.428 193.036ZM340.847 193.126C340.871 193.02 340.814 192.938 340.724 192.921C340.633 192.905 340.543 192.954 340.518 193.061C340.494 193.168 340.551 193.25 340.65 193.266C340.748 193.282 340.83 193.233 340.855 193.126H340.847Z" fill="#333343"/>
<path d="M341.537 193.233L341.479 193.512L341.389 193.496L341.446 193.225C341.471 193.126 341.43 193.069 341.348 193.052C341.257 193.036 341.184 193.077 341.159 193.184L341.102 193.438L341.011 193.422L341.118 192.929L341.2 192.946L341.184 193.019C341.233 192.978 341.299 192.962 341.381 192.978C341.496 193.003 341.569 193.093 341.537 193.233Z" fill="#333343"/>
<path d="M341.914 193.586C341.914 193.586 341.84 193.603 341.799 193.594C341.701 193.57 341.66 193.504 341.676 193.406L341.733 193.135L341.651 193.118L341.668 193.044L341.75 193.061L341.774 192.954L341.865 192.971L341.84 193.077L341.98 193.11L341.963 193.184L341.824 193.151L341.766 193.414C341.758 193.463 341.774 193.504 341.824 193.512C341.848 193.512 341.873 193.512 341.898 193.512L341.914 193.578V193.586Z" fill="#333343"/>
<path d="M342.013 193.381C342.045 193.233 342.177 193.159 342.324 193.184C342.472 193.208 342.554 193.34 342.522 193.488C342.489 193.635 342.357 193.717 342.21 193.685C342.062 193.652 341.98 193.529 342.013 193.381ZM342.431 193.471C342.456 193.364 342.398 193.282 342.308 193.266C342.218 193.25 342.127 193.299 342.103 193.406C342.078 193.512 342.136 193.594 342.234 193.611C342.333 193.627 342.415 193.578 342.439 193.471H342.431Z" fill="#333343"/>
<path d="M322.992 191.008L322.771 190.959L322.787 190.877L323.32 190.992L323.304 191.074L323.082 191.025L322.959 191.591L322.869 191.575L322.992 191.008Z" fill="#333343"/>
<path d="M323.698 191.443L323.632 191.739L323.55 191.722L323.567 191.657C323.567 191.657 323.468 191.706 323.394 191.689C323.287 191.665 323.23 191.591 323.246 191.509C323.263 191.427 323.329 191.378 323.476 191.41L323.616 191.443V191.427C323.632 191.353 323.599 191.295 323.517 191.279C323.46 191.263 323.394 191.279 323.353 191.295L323.329 191.222C323.386 191.189 323.468 191.189 323.542 191.205C323.673 191.238 323.739 191.312 323.706 191.451L323.698 191.443ZM323.575 191.566L323.591 191.501L323.452 191.468C323.361 191.451 323.329 191.476 323.32 191.517C323.312 191.566 323.345 191.607 323.411 191.624C323.476 191.64 323.534 191.624 323.567 191.566H323.575Z" fill="#333343"/>
<path d="M324.166 191.337L324.149 191.419H324.133C324.035 191.394 323.969 191.444 323.944 191.55L323.895 191.797L323.805 191.78L323.911 191.288L323.994 191.304L323.977 191.386C324.018 191.337 324.092 191.32 324.174 191.337H324.166Z" fill="#333343"/>
<path d="M324.289 191.214C324.289 191.214 324.33 191.165 324.363 191.173C324.396 191.181 324.421 191.214 324.412 191.238C324.412 191.271 324.371 191.296 324.338 191.288C324.306 191.28 324.281 191.247 324.289 191.214ZM324.273 191.37L324.363 191.386L324.256 191.879L324.166 191.862L324.273 191.37Z" fill="#333343"/>
<path d="M324.642 191.403V191.444L324.774 191.477L324.757 191.55L324.618 191.518L324.527 191.936L324.437 191.92L324.527 191.501L324.445 191.485L324.462 191.411L324.544 191.427V191.386C324.577 191.288 324.642 191.238 324.749 191.263C324.79 191.271 324.823 191.288 324.839 191.312L324.798 191.37C324.798 191.37 324.757 191.337 324.733 191.329C324.683 191.321 324.65 191.337 324.634 191.394L324.642 191.403Z" fill="#333343"/>
<path d="M325.348 191.821L325.291 192.1L325.2 192.084L325.258 191.813C325.282 191.714 325.241 191.657 325.159 191.64C325.069 191.624 324.995 191.665 324.971 191.772L324.913 192.026L324.823 192.01L324.929 191.517L325.012 191.534L324.995 191.607C325.044 191.566 325.11 191.55 325.192 191.566C325.307 191.591 325.381 191.681 325.348 191.821Z" fill="#333343"/>
<path d="M326.013 191.747L325.907 192.239L325.824 192.223L325.841 192.149C325.792 192.19 325.726 192.207 325.66 192.19C325.537 192.166 325.463 192.075 325.496 191.928L325.554 191.648L325.644 191.665L325.586 191.936C325.562 192.034 325.603 192.092 325.685 192.108C325.775 192.125 325.849 192.084 325.874 191.977L325.931 191.722L326.021 191.739L326.013 191.747Z" fill="#333343"/>
<path d="M326.949 192.166L326.892 192.445L326.801 192.428L326.859 192.157C326.883 192.059 326.842 192.002 326.76 191.985C326.67 191.969 326.604 192.01 326.58 192.116L326.522 192.371L326.432 192.355L326.489 192.084C326.514 191.985 326.473 191.928 326.391 191.911C326.301 191.895 326.235 191.936 326.21 192.043L326.153 192.297L326.062 192.281L326.169 191.788L326.251 191.805L326.235 191.878C326.284 191.837 326.35 191.821 326.424 191.837C326.498 191.854 326.555 191.895 326.571 191.969C326.621 191.919 326.695 191.903 326.777 191.919C326.892 191.944 326.965 192.034 326.933 192.174L326.949 192.166Z" fill="#333343"/>
<path d="M327.926 192.38L327.868 192.659L327.778 192.642L327.835 192.371C327.86 192.273 327.819 192.215 327.737 192.199C327.647 192.183 327.581 192.224 327.556 192.33L327.499 192.585L327.408 192.568L327.466 192.297C327.491 192.199 327.45 192.142 327.367 192.125C327.277 192.109 327.211 192.15 327.187 192.256L327.129 192.511L327.039 192.494L327.146 192.002L327.228 192.018L327.211 192.092C327.261 192.051 327.326 192.035 327.4 192.051C327.474 192.068 327.532 192.109 327.548 192.183C327.597 192.133 327.671 192.117 327.753 192.133C327.868 192.158 327.942 192.248 327.909 192.388L327.926 192.38Z" fill="#333343"/>
<path d="M328.517 192.576L328.123 192.486C328.123 192.576 328.172 192.65 328.271 192.667C328.328 192.683 328.377 192.667 328.427 192.642L328.46 192.708C328.402 192.749 328.328 192.765 328.246 192.749C328.09 192.716 328.008 192.585 328.041 192.445C328.074 192.305 328.197 192.215 328.336 192.248C328.476 192.281 328.558 192.404 328.525 192.552C328.525 192.552 328.525 192.568 328.525 192.576H328.517ZM328.131 192.429L328.443 192.494C328.451 192.412 328.402 192.338 328.32 192.322C328.238 192.305 328.164 192.346 328.131 192.429Z" fill="#333343"/>
<path d="M328.968 192.387L328.952 192.469H328.935C328.837 192.445 328.771 192.494 328.746 192.601L328.697 192.847L328.607 192.83L328.714 192.338L328.796 192.354L328.779 192.436C328.82 192.387 328.894 192.371 328.976 192.387H328.968Z" fill="#333343"/>
<path d="M336.504 193.865L336.365 194.513L336.291 194.497L336.012 193.931L335.905 194.415L335.815 194.399L335.955 193.75L336.028 193.766L336.307 194.333L336.414 193.849L336.504 193.865Z" fill="#333343"/>
<path d="M336.546 194.3C336.579 194.153 336.71 194.079 336.858 194.103C337.005 194.128 337.088 194.259 337.055 194.407C337.022 194.555 336.891 194.637 336.743 194.604C336.595 194.571 336.513 194.448 336.546 194.3ZM336.964 194.391C336.989 194.284 336.932 194.202 336.841 194.185C336.751 194.169 336.661 194.218 336.636 194.325C336.611 194.432 336.669 194.514 336.767 194.53C336.866 194.547 336.948 194.497 336.973 194.391H336.964Z" fill="#333343"/>
<path d="M337.654 194.284L337.334 194.727L337.243 194.711L337.137 194.177L337.227 194.194L337.309 194.621L337.564 194.268L337.654 194.284Z" fill="#333343"/>
<path d="M338.064 194.579L337.998 194.875L337.916 194.859L337.933 194.793C337.933 194.793 337.834 194.842 337.76 194.826C337.654 194.801 337.596 194.727 337.613 194.645C337.629 194.563 337.695 194.514 337.842 194.547L337.982 194.579V194.563C337.998 194.489 337.966 194.432 337.884 194.415C337.826 194.399 337.76 194.415 337.719 194.432L337.695 194.358C337.752 194.325 337.834 194.325 337.908 194.341C338.04 194.374 338.105 194.448 338.072 194.588L338.064 194.579ZM337.941 194.703L337.957 194.637L337.818 194.604C337.728 194.588 337.695 194.612 337.687 194.653C337.678 194.703 337.711 194.744 337.777 194.76C337.842 194.776 337.9 194.76 337.933 194.703H337.941Z" fill="#333343"/>
<path d="M338.31 194.227L338.401 194.243L338.253 194.924L338.163 194.908L338.31 194.227Z" fill="#333343"/>
<path d="M338.951 194.785L338.893 195.064L338.803 195.047L338.86 194.776C338.885 194.678 338.844 194.621 338.762 194.604C338.672 194.588 338.598 194.629 338.573 194.735L338.516 194.99L338.425 194.974L338.532 194.481L338.614 194.497L338.598 194.571C338.647 194.53 338.713 194.514 338.795 194.53C338.91 194.555 338.984 194.645 338.951 194.785Z" fill="#333343"/>
<path d="M339.542 194.982L339.148 194.891C339.148 194.982 339.197 195.055 339.296 195.072C339.353 195.088 339.402 195.072 339.452 195.047L339.484 195.113C339.427 195.154 339.353 195.17 339.271 195.154C339.115 195.121 339.033 194.99 339.066 194.85C339.099 194.711 339.222 194.62 339.361 194.653C339.501 194.686 339.583 194.809 339.55 194.957C339.55 194.957 339.55 194.973 339.55 194.982H339.542ZM339.156 194.834L339.468 194.9C339.476 194.817 339.427 194.744 339.345 194.727C339.263 194.711 339.189 194.752 339.156 194.834Z" fill="#333343"/>
<path d="M339.903 195.253C339.903 195.253 339.829 195.269 339.788 195.261C339.689 195.236 339.648 195.171 339.665 195.072L339.722 194.801L339.64 194.785L339.657 194.711L339.739 194.727L339.763 194.621L339.854 194.637L339.829 194.744L339.968 194.777L339.952 194.85L339.813 194.818L339.755 195.08C339.747 195.13 339.763 195.171 339.813 195.179C339.837 195.179 339.862 195.179 339.886 195.179L339.903 195.245V195.253Z" fill="#333343"/>
<path d="M340.511 194.826L340.289 194.776L340.305 194.694L340.839 194.809L340.823 194.891L340.601 194.842L340.478 195.409L340.388 195.392L340.511 194.826Z" fill="#333343"/>
<path d="M341.224 195.351L340.83 195.261C340.83 195.351 340.88 195.425 340.978 195.442C341.036 195.458 341.085 195.442 341.134 195.417L341.167 195.483C341.11 195.524 341.036 195.54 340.954 195.524C340.798 195.491 340.716 195.359 340.748 195.22C340.781 195.08 340.904 194.99 341.044 195.023C341.183 195.056 341.266 195.179 341.233 195.327C341.233 195.327 341.233 195.343 341.233 195.351H341.224ZM340.839 195.203L341.151 195.269C341.159 195.187 341.11 195.113 341.027 195.097C340.945 195.08 340.871 195.121 340.839 195.203Z" fill="#333343"/>
<path d="M341.257 195.523L341.307 195.458C341.307 195.458 341.405 195.532 341.471 195.548C341.553 195.564 341.594 195.548 341.602 195.507C341.627 195.4 341.298 195.425 341.339 195.228C341.356 195.138 341.446 195.097 341.577 195.129C341.643 195.146 341.709 195.179 341.75 195.211L341.701 195.277C341.701 195.277 341.619 195.22 341.569 195.211C341.495 195.195 341.446 195.211 341.438 195.253C341.413 195.367 341.742 195.343 341.701 195.532C341.684 195.622 341.586 195.655 341.454 195.63C341.372 195.614 341.298 195.573 341.266 195.532L341.257 195.523Z" fill="#333343"/>
<path d="M342.045 195.72C342.045 195.72 341.972 195.737 341.93 195.729C341.832 195.704 341.791 195.638 341.807 195.54L341.865 195.269L341.783 195.253L341.799 195.179L341.881 195.195L341.906 195.088L341.996 195.105L341.972 195.212L342.111 195.244L342.095 195.318L341.955 195.285L341.898 195.548C341.889 195.597 341.906 195.638 341.955 195.647C341.98 195.647 342.004 195.647 342.029 195.647L342.045 195.712V195.72Z" fill="#333343"/>
<path d="M324.043 187.536L323.698 187.462L323.592 187.61L323.493 187.585L323.928 187.002L324.019 187.019L324.175 187.725L324.076 187.7L324.043 187.52V187.536ZM324.027 187.454L323.953 187.109L323.748 187.396L324.027 187.454Z" fill="#333343"/>
<path d="M325.135 187.643L325.078 187.922L324.987 187.905L325.045 187.635C325.069 187.536 325.028 187.479 324.946 187.462C324.856 187.446 324.79 187.487 324.766 187.593L324.708 187.848L324.618 187.832L324.675 187.561C324.7 187.462 324.659 187.405 324.577 187.388C324.487 187.372 324.421 187.413 324.396 187.52L324.339 187.774L324.249 187.758L324.355 187.265L324.437 187.282L324.421 187.355C324.47 187.314 324.536 187.298 324.61 187.314C324.684 187.331 324.741 187.372 324.757 187.446C324.807 187.396 324.881 187.38 324.963 187.396C325.078 187.421 325.152 187.511 325.119 187.651L325.135 187.643Z" fill="#333343"/>
<path d="M325.25 187.709C325.283 187.561 325.414 187.487 325.562 187.512C325.71 187.536 325.792 187.667 325.759 187.815C325.726 187.963 325.595 188.045 325.447 188.012C325.299 187.979 325.217 187.856 325.25 187.709ZM325.669 187.799C325.693 187.692 325.636 187.61 325.545 187.594C325.455 187.577 325.365 187.626 325.34 187.733C325.316 187.84 325.373 187.922 325.471 187.938C325.57 187.955 325.652 187.906 325.677 187.799H325.669Z" fill="#333343"/>
<path d="M326.391 187.701L326.284 188.193L326.202 188.177L326.219 188.103C326.17 188.144 326.104 188.16 326.038 188.144C325.915 188.119 325.841 188.029 325.874 187.881L325.931 187.602L326.022 187.618L325.964 187.889C325.94 187.988 325.981 188.045 326.063 188.062C326.153 188.078 326.227 188.037 326.252 187.93L326.309 187.676L326.399 187.692L326.391 187.701Z" fill="#333343"/>
<path d="M326.974 188.045L326.916 188.324L326.826 188.308L326.883 188.037C326.908 187.938 326.867 187.881 326.785 187.864C326.695 187.848 326.621 187.889 326.596 187.996L326.539 188.25L326.448 188.234L326.555 187.741L326.637 187.758L326.621 187.832C326.67 187.79 326.736 187.774 326.818 187.79C326.933 187.815 327.006 187.905 326.974 188.045Z" fill="#333343"/>
<path d="M327.36 188.398C327.36 188.398 327.286 188.415 327.245 188.406C327.146 188.382 327.105 188.316 327.122 188.218L327.179 187.947L327.097 187.93L327.114 187.856L327.196 187.873L327.22 187.766L327.311 187.783L327.286 187.889L327.426 187.922L327.409 187.996L327.27 187.963L327.212 188.226C327.204 188.275 327.22 188.316 327.27 188.324C327.294 188.324 327.319 188.324 327.343 188.324L327.36 188.39V188.398Z" fill="#333343"/>
<path d="M167.028 301.929L209.19 443.634L121.247 427.306L176.017 332.368H298.324L301.919 338.821L209.19 443.634" stroke="#E23E57" stroke-width="4.73" stroke-linecap="round" stroke-linejoin="round"/>
<path d="M147.146 294.541L191.467 298.407C191.467 298.407 192.025 305.049 186.049 306.419C180.081 307.79 154.682 313.808 149.478 309.449C144.273 305.09 141.589 298.161 147.138 294.541H147.146Z" fill="#311D3F"/>
<path d="M290.016 320.342C292.709 319.119 295.467 318.093 298.291 317.231L295.648 310.647L326.342 304.203C328.739 303.743 330.306 301.412 329.847 298.998C329.387 296.585 327.08 295.001 324.683 295.46L288.711 302.922C287.414 303.169 286.298 303.998 285.666 305.163C285.034 306.329 284.952 307.725 285.452 308.964L290.016 320.342Z" fill="#877881"/>
<path d="M306.254 290.773C306.254 290.773 319.602 291.701 320.981 295.879C322.36 300.057 320.283 303.743 314.841 309.12C310.4 313.52 307.174 307.946 307.174 307.946C307.174 307.946 316.384 307.019 314.537 301.913C312.698 296.807 303.947 307.487 298.882 298.662C293.817 289.837 306.246 290.765 306.246 290.765L306.254 290.773Z" fill="#FFBF9D"/>
<path d="M157.892 242.118C157.892 242.118 133.453 287.317 154.493 298.276C168.564 305.598 236.592 334.576 236.592 334.576C236.592 334.576 195.555 380.58 186.049 401.119L206.087 412.636C206.087 412.636 286.897 335.955 283.277 324.167C278.376 308.184 217.842 279.929 217.842 279.929L223.4 263.116L157.892 242.118Z" fill="#333343"/>
<path d="M173.473 270.456C187.789 272.746 202.172 275.176 216.562 276.892C217.293 276.982 218.031 277.064 218.762 277.146L223.4 263.109L157.892 242.11C157.892 242.11 152.137 252.757 148.616 264.964C156.685 267.566 165.149 269.118 173.473 270.447V270.456Z" fill="#1A1243"/>
<path d="M232.315 109.871C232.315 109.871 235.451 90.6614 262.484 91.0226C289.516 91.3756 290.238 121.355 282.67 141.344C275.101 161.325 265.078 165.347 254.258 162.138C243.447 158.928 222.579 146.631 232.315 109.871Z" fill="#FFB6B6"/>
<path d="M267.287 146.218C267.509 146.013 268.795 147.929 271.155 148.814C272.321 149.261 273.471 149.361 274.326 149.438C275.182 149.516 275.718 149.595 275.728 149.726C275.733 149.841 275.217 149.974 274.352 150.067C273.497 150.14 272.222 150.147 270.896 149.651C269.557 149.159 268.564 148.255 267.996 147.532C267.414 146.814 267.22 146.256 267.297 146.198L267.287 146.218Z" fill="#263238"/>
<g opacity="0.7">
<path d="M234.942 124.844C233.801 123.416 233.473 121.207 235.87 121.076L235.566 121.281C235.894 120.403 236.174 119.475 236.362 118.564C236.707 117.234 236.756 114.123 234.671 114.936C233.891 115.346 233.226 116.118 232.652 116.889C233.21 115.601 234.384 113.589 236.091 114.345C238.48 115.954 237.003 119.68 236.108 121.766C233.949 121.626 234.351 123.399 234.95 124.852L234.942 124.844Z" fill="#AF7068"/>
</g>
<path d="M276.956 123.136C276.956 128.505 276.39 133.816 275.257 139.062C275.257 133.693 275.823 128.382 276.956 123.136Z" fill="#AF7068"/>
<path opacity="0.1" d="M267.056 155.176C255.933 147.977 243.898 142.608 231.839 137.272C234.417 154.371 246.599 160.134 254.48 162.474C260.834 164.362 266.917 163.763 272.4 158.968C270.668 157.647 268.895 156.374 267.056 155.184V155.176Z" fill="#1E1328"/>
<path d="M232.061 139.144C232.061 139.144 231.872 142.116 231.379 140.942C229.762 137.051 226.405 123.637 228.753 111.406C231.806 95.4801 238.677 86.7539 238.677 86.7539L257.772 92.1472C257.772 92.1472 259.298 109.608 242.749 115.773L239.35 126.732L236.379 126.65C236.379 126.65 240.705 113.983 235.615 112.44C230.526 110.897 228.744 122.972 234.343 126.822" fill="#1A2E35"/>
<path d="M267.343 125.459C267.401 124.162 267.327 122.874 266.99 121.692C266.424 119.221 263.583 117.981 261.646 119.853C260.743 120.665 260.045 121.757 259.594 122.972C259.733 121.683 260.267 120.395 261.203 119.393C262.639 117.653 265.521 117.792 266.818 119.639C268.016 121.339 267.893 123.604 267.351 125.468L267.343 125.459Z" fill="#1E1328"/>
<path d="M283.449 130.417C283.416 128.365 283.622 125.36 281.66 124.228C280.65 123.669 279.657 124.384 279.016 125.196C278.319 126.091 277.801 127.158 277.424 128.291C277.522 127.101 277.875 125.902 278.557 124.86C279.763 122.824 282.308 122.807 283.343 125.007C284.098 126.723 283.901 128.677 283.449 130.417Z" fill="#1E1328"/>
<path d="M274.575 117.57C268.411 112.702 263.46 110.338 255.99 114.229C261.146 106.661 271.538 109.821 274.575 117.57Z" fill="#1E1328"/>
<path d="M278.902 120.14C280.084 117.71 283.376 115.904 285.937 117.546C287.447 118.589 287.727 120.698 287.045 122.192C286.446 121.322 285.962 120.542 285.453 120.042C284.919 119.549 284.533 119.442 283.934 119.385C282.374 119.327 280.65 119.943 278.902 120.14Z" fill="#1E1328"/>
<path d="M291.297 106.529C291.297 106.529 294.351 83.2481 277.383 74.686C260.407 66.124 234.95 71.6077 229.861 100.364L291.297 106.529Z" fill="#E23E57"/>
<path d="M291.297 106.529C291.297 106.529 294.351 83.2481 277.383 74.686C260.407 66.124 234.95 71.6077 229.861 100.364L291.297 106.529Z" fill="#333343"/>
<path d="M229.853 100.364C229.853 100.364 300.122 121.593 308.602 114.402C313.371 110.363 298.414 104.132 291.97 102.072C287.554 105.495 229.853 100.356 229.853 100.356V100.364Z" fill="#1A4093"/>
<path d="M264.478 164.732C257.533 155.628 224.098 134.21 224.098 134.21C218.04 141.755 214.19 147.624 211.866 151.573C187.642 160.135 166.405 191.682 148.402 251.206C148.402 251.206 192.846 273.625 233.128 272.927C233.128 272.927 259.873 208.166 255.399 172.924L264.486 164.74L264.478 164.732Z" fill="#E23E57"/>
<path d="M264.478 164.732C257.533 155.628 224.098 134.21 224.098 134.21C218.04 141.755 214.19 147.624 211.866 151.573C187.642 160.135 166.405 191.682 148.402 251.206C148.402 251.206 192.846 273.625 233.128 272.927C233.128 272.927 259.873 208.166 255.399 172.924L264.486 164.74L264.478 164.732Z" fill="#1A58BF"/>
<path d="M215.52 144.028C215.52 144.028 242.076 146.278 245.466 172.079C248.865 197.88 232.57 259.653 157.892 237.25L158.573 229.78C158.573 229.78 200.661 242.676 227.144 214.848C253.618 187.011 205.422 151.031 205.422 151.031L215.528 144.028H215.52Z" fill="#311D3F"/>
<path d="M215.52 144.028C215.52 144.028 242.076 146.278 245.466 172.079C248.865 197.88 232.57 259.653 157.892 237.25L162.366 230.297C162.366 230.297 200.464 241.831 227.135 214.848C254.143 187.528 207.458 154.971 207.458 154.971L215.52 144.028Z" fill="#1A4093"/>
<path d="M154.14 242.077C154.14 242.077 106.922 223.516 84.6919 207.558C84.6919 207.558 119.769 132.708 141.975 102.934C141.975 102.934 194.775 126.847 215.519 144.02C215.519 144.02 174.573 216.21 154.14 242.069V242.077Z" fill="#1A4093"/>
<path d="M156.357 109.731C147.811 105.577 141.983 102.934 141.983 102.934C119.777 132.708 84.7002 207.558 84.7002 207.558C90.1592 211.482 97.1287 215.553 104.533 219.477C121.657 182.832 140.078 146.688 156.357 109.739V109.731Z" fill="#1A58BF"/>
<path d="M137.189 110.97L147.368 116.741L100.864 209.75L102.9 211.786L149.74 115.723L137.862 108.935L137.189 110.97Z" fill="#311D3F"/>
<path d="M133.79 127.946L144.314 117.422L144.995 119.122L137.189 132.018L133.79 127.946Z" fill="#311D3F"/>
<path d="M300.31 300.509C300.31 300.509 286.88 295.009 279.476 282.638L293.103 277.532C293.103 277.532 298.356 286.373 307.124 290.888L300.31 300.509Z" fill="#FFBF9D"/>
<path d="M320.57 295.337C320.57 295.337 324.42 302.75 322.45 306.46C320.48 310.171 319.544 305.253 319.544 305.253C319.544 305.253 320.315 310.343 314.585 309.309L320.57 295.337Z" fill="#FFBF9D"/>
<path d="M197.008 180.452C197.008 180.452 194.923 144.02 222.013 155.931C243.767 165.495 248.405 223.188 266.456 241.396L307.428 286.931L290.763 298.137C290.763 298.137 257.426 279.921 233.817 254.703C210.208 229.484 197.008 180.444 197.008 180.444V180.452Z" fill="#1A58BF"/>
</g>
</g>
<defs>
<clipPath id="clip0_0_1516">
<rect width="456" height="300" fill="white"/>
</clipPath>
</defs>
</svg>
