<svg width="456" height="300" viewBox="0 0 456 300" fill="none" xmlns="http://www.w3.org/2000/svg">
<g clip-path="url(#clip0_0_1967)">
<mask id="mask0_0_1967" style="mask-type:luminance" maskUnits="userSpaceOnUse" x="-6" y="0" width="457" height="300">
<path d="M430.96 0H14.96C3.91427 0 -5.04004 8.9543 -5.04004 20V280C-5.04004 291.046 3.91427 300 14.96 300H430.96C442.006 300 450.96 291.046 450.96 280V20C450.96 8.9543 442.006 0 430.96 0Z" fill="white"/>
</mask>
<g mask="url(#mask0_0_1967)">
<path d="M35.77 283.169H18.54V322.869H35.77V283.169Z" fill="#ECF2FF"/>
<path d="M94.2202 283.169H76.9902V322.869H94.2202V283.169Z" fill="#ECF2FF"/>
<path d="M65 247.029H47.77V322.869H65V247.029Z" fill="#ECF2FF"/>
<path d="M123.45 247.029H106.22V322.869H123.45V247.029Z" fill="#ECF2FF"/>
<path d="M152.68 249.199H135.45V322.869H152.68V249.199Z" fill="#ECF2FF"/>
<path d="M211.13 249.199H193.9V322.869H211.13V249.199Z" fill="#ECF2FF"/>
<path d="M269.59 249.199H252.36V322.869H269.59V249.199Z" fill="#ECF2FF"/>
<path d="M181.91 210.54H164.68V322.87H181.91V210.54Z" fill="#ECF2FF"/>
<path d="M240.36 221.529H223.13V322.869H240.36V221.529Z" fill="#ECF2FF"/>
<path d="M355.93 249.199H338.7V322.869H355.93V249.199Z" fill="#ECF2FF"/>
<path d="M326.7 263.339H309.47V322.869H326.7V263.339Z" fill="#ECF2FF"/>
<path d="M417.06 209.889H399.83V322.879H417.06V209.889Z" fill="#ECF2FF"/>
<path d="M387.84 263.339H370.61V322.869H387.84V263.339Z" fill="#ECF2FF"/>
<path d="M446.32 263.339H429.09V322.869H446.32V263.339Z" fill="#ECF2FF"/>
<path d="M298.82 237.06H281.59V322.87H298.82V237.06Z" fill="#ECF2FF"/>
<path d="M176.3 210.539C176.3 212.989 174.32 214.969 171.87 214.969C169.42 214.969 167.44 212.989 167.44 210.539C167.44 208.089 169.42 206.109 171.87 206.109C174.32 206.109 176.3 208.089 176.3 210.539Z" fill="#ECF2FF"/>
<path d="M171.87 218.589C167.43 218.589 163.82 214.979 163.82 210.539C163.82 206.099 167.43 202.489 171.87 202.489C176.31 202.489 179.92 206.099 179.92 210.539C179.92 214.979 176.31 218.589 171.87 218.589ZM171.87 203.139C167.79 203.139 164.47 206.459 164.47 210.539C164.47 214.619 167.79 217.939 171.87 217.939C175.95 217.939 179.27 214.619 179.27 210.539C179.27 206.459 175.95 203.139 171.87 203.139Z" fill="#ECF2FF"/>
<path d="M175.41 199.249L175.18 190.519L177.36 190.559L173.29 185.589L169.22 190.599L171.48 190.619L171.7 199.219L175.41 199.249Z" fill="#ECF2FF"/>
<path d="M32.0602 265.029C32.0602 267.479 30.0802 269.459 27.6302 269.459C25.1802 269.459 23.2002 267.479 23.2002 265.029C23.2002 262.579 25.1802 260.599 27.6302 260.599C30.0802 260.599 32.0602 262.579 32.0602 265.029Z" fill="#ECF2FF"/>
<path d="M27.6301 273.239C23.1901 273.239 19.5801 269.629 19.5801 265.189C19.5801 260.749 23.1901 257.139 27.6301 257.139C32.0701 257.139 35.6801 260.749 35.6801 265.189C35.6801 269.629 32.0701 273.239 27.6301 273.239ZM27.6301 257.789C23.5501 257.789 20.2301 261.109 20.2301 265.189C20.2301 269.269 23.5501 272.589 27.6301 272.589C31.7101 272.589 35.0301 269.269 35.0301 265.189C35.0301 261.109 31.7101 257.789 27.6301 257.789Z" fill="#ECF2FF"/>
<path d="M24.9499 237.549L25.1899 246.619L22.9199 246.589L27.1499 251.759L31.3799 246.539L29.0399 246.519L28.7999 237.579L24.9499 237.549Z" fill="#ECF2FF"/>
<path d="M259.41 218.589L259.65 227.659L257.38 227.619L261.61 232.789L265.84 227.569L263.5 227.559L263.26 218.609L259.41 218.589Z" fill="#ECF2FF"/>
<path d="M312.77 298.939L260.88 250.269C228.01 234.399 177.25 210.999 171.33 211.329C164.7 211.719 38.87 261.339 -9.06 280.429L-10 278.059C-2.95 275.249 162.78 209.279 171.18 208.779C171.24 208.779 171.3 208.779 171.36 208.779C180.57 208.779 253.79 244.009 262.16 248.049L262.48 248.269L313.19 295.829C322.81 290.749 377.95 261.659 378.89 261.239C379.22 261.099 380.09 260.739 455.92 260.749V263.299C426.83 263.279 383.11 263.359 379.79 263.639C376.91 265.099 335.53 286.919 313.58 298.509L312.78 298.929L312.77 298.939Z" fill="#ECF2FF"/>
<path d="M266.04 248.119C266.04 250.569 264.06 252.549 261.61 252.549C259.16 252.549 257.18 250.569 257.18 248.119C257.18 245.669 259.16 243.689 261.61 243.689C264.06 243.689 266.04 245.669 266.04 248.119Z" fill="#ECF2FF"/>
<path d="M261.61 256.329C257.17 256.329 253.56 252.719 253.56 248.279C253.56 243.839 257.17 240.229 261.61 240.229C266.05 240.229 269.66 243.839 269.66 248.279C269.66 252.719 266.05 256.329 261.61 256.329ZM261.61 240.879C257.53 240.879 254.21 244.199 254.21 248.279C254.21 252.359 257.53 255.679 261.61 255.679C265.69 255.679 269.01 252.359 269.01 248.279C269.01 244.199 265.69 240.879 261.61 240.879Z" fill="#ECF2FF"/>
<path d="M383.83 261.329C383.83 263.779 381.85 265.759 379.4 265.759C376.95 265.759 374.97 263.779 374.97 261.329C374.97 258.879 376.95 256.899 379.4 256.899C381.85 256.899 383.83 258.879 383.83 261.329Z" fill="#ECF2FF"/>
<path d="M379.4 269.539C374.96 269.539 371.35 265.929 371.35 261.489C371.35 257.049 374.96 253.439 379.4 253.439C383.84 253.439 387.45 257.049 387.45 261.489C387.45 265.929 383.84 269.539 379.4 269.539ZM379.4 254.089C375.32 254.089 372 257.409 372 261.489C372 265.569 375.32 268.889 379.4 268.889C383.48 268.889 386.8 265.569 386.8 261.489C386.8 257.409 383.48 254.089 379.4 254.089Z" fill="#ECF2FF"/>
<path d="M377.02 235L377.25 244.07L374.99 244.03L379.22 249.2L383.45 243.99L381.1 243.97L380.87 235.02L377.02 235Z" fill="#ECF2FF"/>
<path d="M309.03 198.129L312.63 202.629V194.889H323.96C323.96 194.889 325.22 212.609 324.95 216.389C324.86 217.709 324.28 219.889 323.56 222.169C322.08 226.889 316.12 228.369 312.58 224.919C311.39 223.759 310.18 222.449 309.03 220.979C303.99 214.509 295.63 198.729 295.63 198.729L304.36 193.459L309.04 198.139L309.03 198.129Z" fill="#FFBE9D"/>
<path d="M308.31 197.3C308.25 197.35 308.84 198.09 309.79 199.28C310.74 200.46 312.07 202.1 313.58 203.86C315.1 205.62 316.52 207.18 317.63 208.23C318.73 209.29 319.51 209.84 319.55 209.79C319.6 209.73 318.92 209.09 317.89 207.97C316.86 206.86 315.48 205.27 313.97 203.51C310.97 199.97 308.42 197.18 308.29 197.3H308.31Z" fill="#EB996E"/>
<path d="M370 97.0296L370.51 138.19C370.6 145.19 369.29 155.49 358.22 155.12C348.64 154.08 346.1 145.01 346.02 138.47C345.98 135.37 345.95 132.79 345.92 132.47C345.92 132.47 335.43 131.61 334.54 121.25C334.11 116.24 334.07 105.86 334.14 96.4596C334.22 86.3696 342.04 78.0296 352.1 77.2996L353.1 77.2296C363.94 77.0696 370.12 86.1896 369.98 97.0196L370 97.0296Z" fill="#FFBE9D"/>
<path d="M345.93 132.48C345.93 132.48 352.49 132.39 359.14 127.5C359.14 127.5 356.4 135.32 345.98 135.14L345.93 132.48Z" fill="#EB996E"/>
<path d="M351.87 100.719C352.08 100.929 353.27 99.9692 355.01 99.9192C356.74 99.8492 358.04 100.729 358.22 100.499C358.31 100.399 358.1 100.019 357.53 99.6192C356.97 99.2192 356.03 98.8492 354.95 98.8892C353.87 98.9292 352.97 99.3592 352.46 99.7992C351.94 100.239 351.77 100.629 351.87 100.719Z" fill="#263238"/>
<path d="M350.92 104.909C350.95 105.649 351.6 106.239 352.37 106.219C353.14 106.209 353.75 105.589 353.72 104.849C353.69 104.109 353.04 103.519 352.27 103.529C351.5 103.539 350.89 104.159 350.92 104.899V104.909Z" fill="#263238"/>
<path d="M347.53 112.789C347.53 112.699 346.53 112.599 344.91 112.509C344.5 112.499 344.11 112.449 344.02 112.169C343.9 111.879 344.04 111.429 344.2 110.939C344.51 109.929 344.84 108.869 345.18 107.749C346.53 103.219 347.47 99.4992 347.29 99.4492C347.11 99.3992 345.86 103.029 344.52 107.559C344.2 108.679 343.89 109.739 343.59 110.759C343.47 111.229 343.24 111.779 343.5 112.369C343.63 112.669 343.95 112.859 344.21 112.919C344.48 112.979 344.71 112.969 344.91 112.969C346.53 112.939 347.53 112.869 347.53 112.779V112.789Z" fill="#263238"/>
<path d="M352.61 93.3294C352.78 93.7194 354.17 93.4294 355.83 93.5094C357.5 93.5594 358.86 93.9594 359.05 93.5894C359.14 93.4094 358.88 93.0594 358.31 92.7194C357.75 92.3794 356.87 92.0794 355.87 92.0294C354.87 91.9894 353.98 92.2194 353.4 92.5194C352.81 92.8194 352.53 93.1494 352.6 93.3294H352.61Z" fill="#263238"/>
<path d="M336.13 95.9296C336.31 96.2396 337.67 95.8996 339.31 95.8396C340.95 95.7596 342.31 95.9996 342.49 95.6696C342.57 95.5096 342.3 95.2296 341.72 94.9796C341.15 94.7296 340.28 94.5396 339.29 94.5796C338.31 94.6196 337.44 94.8796 336.88 95.1696C336.32 95.4596 336.05 95.7696 336.13 95.9196V95.9296Z" fill="#263238"/>
<path d="M369.72 104.769C369.89 104.679 376.69 102.139 376.98 109.249C377.27 116.359 370.08 115.179 370.06 114.979C370.04 114.779 369.72 104.769 369.72 104.769Z" fill="#FFBE9D"/>
<path d="M372.12 112.199C372.12 112.199 372.25 112.279 372.46 112.369C372.67 112.459 373.02 112.509 373.39 112.349C374.13 112.039 374.71 110.829 374.69 109.539C374.69 108.889 374.52 108.279 374.27 107.779C374.03 107.269 373.68 106.919 373.3 106.869C372.92 106.799 372.66 107.039 372.58 107.239C372.49 107.439 372.54 107.579 372.51 107.599C372.49 107.619 372.35 107.489 372.4 107.189C372.42 107.049 372.5 106.879 372.66 106.729C372.82 106.579 373.07 106.499 373.34 106.519C373.89 106.539 374.4 107.019 374.68 107.569C374.99 108.119 375.18 108.809 375.19 109.529C375.2 110.959 374.52 112.329 373.51 112.669C373.02 112.819 372.59 112.689 372.37 112.529C372.14 112.359 372.1 112.209 372.12 112.189V112.199Z" fill="#EB996E"/>
<path d="M349.2 117.709C349.12 117.529 350.51 117.109 351.49 115.809C351.98 115.169 352.26 114.469 352.47 113.949C352.68 113.429 352.83 113.109 352.91 113.129C352.98 113.149 352.96 113.499 352.85 114.059C352.73 114.609 352.49 115.409 351.94 116.139C351.39 116.879 350.66 117.319 350.12 117.529C349.58 117.749 349.21 117.759 349.19 117.699L349.2 117.709Z" fill="#263238"/>
<path d="M320.4 87.1694C320.51 86.7494 320.82 86.4094 321.19 86.1894C322 85.7094 322.94 85.7694 323.84 85.7594C326.59 85.7194 329.32 84.8794 331.63 83.3894C332.71 81.8294 333.93 80.3594 335.26 78.9994C338.4 75.7594 340.98 73.5594 343.66 72.4794C347.12 71.0894 352.9 70.5194 356.5 71.4694C360.11 72.4194 363.34 75.3394 363.84 79.0294C365.86 77.3194 368.9 77.3394 371.36 78.3294L371.42 78.2994C374.16 79.2794 375.72 82.1694 376.53 84.9694C377.34 87.7694 377.68 90.7594 379.17 93.2594C379.48 93.7794 379.85 94.4094 379.58 94.9594C379.37 95.3794 378.84 95.5594 378.37 95.4894C377.9 95.4194 377.49 95.1594 377.09 94.9094C377.4 95.6394 377.7 96.3694 378.01 97.1094C377.02 97.2794 375.99 97.1994 375.03 96.9094C374.45 99.5294 373.75 102.509 373.08 104.279C371.93 104.279 370.88 104.359 370.18 104.989C369.22 105.849 368.79 107.479 367.19 106.859C366.38 106.549 365.64 104.839 365.36 104.009C363.56 98.5194 362.96 92.6394 363.61 86.8894C362.47 85.6794 361.1 84.6894 359.6 83.9894L359.72 84.0994C356.82 83.0894 353.55 82.1094 350.8 83.4594C348.67 84.5094 347.42 86.7294 345.82 88.4894C342.8 91.8294 338.73 93.6494 334.23 93.8494C334.08 96.7694 334.32 100.889 334.17 103.809L331.72 99.1394V99.1594C331.52 98.8194 331.35 98.4694 331.19 98.1294L331.14 98.0294C330.88 97.4594 330.64 96.9094 330.32 96.3594C330.32 96.3594 330.3 96.3794 330.29 96.3794C328.71 97.7694 326.38 95.6394 327.63 93.9394C327.88 93.5994 328.17 93.2994 328.51 93.0494C327.79 93.7294 326.71 94.0494 325.76 93.7594C324.81 93.4694 324.08 92.5094 324.16 91.5194C324.22 90.8494 324.7 90.2394 325.31 89.9794C324.03 90.0794 322.73 89.7994 321.61 89.1694C320.88 88.7494 320.16 88.0694 320.41 87.1494L320.4 87.1694Z" fill="#363644"/>
<path d="M360.58 80.2195C360.58 80.2195 361.01 80.4895 361.62 81.1695C362.22 81.8395 362.89 83.0195 363.21 84.6095C363.37 85.3995 363.48 86.2895 363.47 87.2395C363.47 88.1895 363.4 89.2195 363.32 90.2895C363.25 91.3695 363.17 92.5095 363.24 93.6895C363.27 94.2795 363.35 94.8795 363.47 95.4795C363.6 96.0695 363.76 96.7095 364.2 97.2195C364.56 97.6295 365.15 97.8195 365.66 97.7095C366.18 97.6195 366.64 97.3395 366.98 96.9695C367.65 96.1895 367.81 95.1995 367.98 94.3295L367.76 94.3595C368.12 95.1395 368.48 95.9095 369.02 96.5295C369.55 97.1495 370.29 97.5595 371.04 97.6295C371.41 97.6595 371.79 97.5995 372.11 97.4395C372.44 97.2795 372.67 97.0095 372.84 96.7195C373 96.4295 373.08 96.1095 373.06 95.7995C373.04 95.4895 372.92 95.1995 372.73 94.9895L372.62 95.0895C373.42 95.9995 374.26 96.4895 374.85 96.7595C375.14 96.8995 375.38 96.9795 375.54 97.0295C375.7 97.0795 375.79 97.0995 375.79 97.0895C375.79 97.0895 375.71 97.0495 375.56 96.9895C375.41 96.9295 375.18 96.8295 374.89 96.6895C374.32 96.3995 373.51 95.8995 372.74 94.9995L372.63 95.0995C372.98 95.4695 373 96.1195 372.7 96.6395C372.55 96.8995 372.33 97.1395 372.04 97.2695C371.75 97.4095 371.41 97.4595 371.07 97.4295C370.38 97.3595 369.7 96.9795 369.2 96.3895C368.69 95.7995 368.34 95.0495 367.99 94.2695L367.84 93.9395L367.77 94.2995C367.6 95.1695 367.43 96.1195 366.82 96.8195C366.52 97.1595 366.1 97.4095 365.64 97.4895C365.19 97.5795 364.71 97.4295 364.4 97.0695C364.01 96.6295 363.85 96.0195 363.72 95.4395C363.59 94.8495 363.52 94.2695 363.49 93.6795C363.42 92.5195 363.49 91.3895 363.55 90.3095C363.62 89.2295 363.69 88.2095 363.67 87.2395C363.67 86.2695 363.55 85.3695 363.37 84.5695C363.03 82.9495 362.31 81.7695 361.68 81.0995C361.04 80.4295 360.57 80.2095 360.57 80.2095L360.58 80.2195Z" fill="#455A64"/>
<path d="M328.52 90.3093C328.52 90.3093 328.55 90.3393 328.6 90.3793C328.67 90.4293 328.75 90.4893 328.86 90.5693C328.97 90.6493 329.12 90.7493 329.3 90.8493C329.48 90.9493 329.68 91.0793 329.93 91.1793C330.89 91.6393 332.44 92.0893 334.37 91.9793C336.28 91.8693 338.58 91.1993 340.63 89.6693C342.7 88.1793 344.52 85.9893 346 83.4793C346.75 82.2293 347.37 80.9393 348.05 79.7493C348.72 78.5593 349.47 77.4593 350.37 76.5893C351.26 75.7193 352.29 75.0693 353.36 74.7793C353.89 74.6193 354.42 74.5893 354.93 74.5993C355.44 74.6293 355.93 74.7293 356.37 74.8793C357.26 75.1793 357.98 75.6693 358.53 76.1793C359.08 76.6893 359.45 77.2293 359.7 77.6993C360.17 78.6493 360.2 79.2593 360.23 79.2493C360.23 79.2493 360.23 79.2093 360.23 79.1393C360.22 79.0493 360.2 78.9493 360.18 78.8193C360.13 78.5393 360.01 78.1393 359.79 77.6493C359.55 77.1693 359.18 76.6093 358.63 76.0793C358.08 75.5493 357.35 75.0293 356.43 74.7193C355.97 74.5593 355.47 74.4493 354.94 74.4193C354.41 74.3993 353.85 74.4393 353.3 74.5893C352.19 74.8893 351.13 75.5493 350.21 76.4393C349.28 77.3193 348.52 78.4393 347.84 79.6393C347.15 80.8393 346.54 82.1193 345.79 83.3593C344.32 85.8493 342.52 88.0193 340.49 89.4993C338.48 91.0093 336.24 91.6893 334.36 91.8193C332.46 91.9493 330.94 91.5293 329.97 91.1093C329 90.6793 328.54 90.2893 328.52 90.3193V90.3093Z" fill="#455A64"/>
<path d="M327.57 85.7495C327.57 85.7495 327.69 85.8595 327.94 86.0095C328.19 86.1695 328.56 86.3595 329.04 86.5695C329.52 86.7795 330.11 86.9795 330.78 87.1395C331.45 87.2895 332.21 87.4095 333.01 87.4395C333.81 87.4595 334.57 87.3995 335.25 87.2895C335.93 87.1695 336.54 87.0095 337.03 86.8295C337.52 86.6495 337.91 86.4795 338.16 86.3395C338.42 86.1995 338.55 86.1195 338.55 86.1095C338.53 86.0695 337.96 86.3595 336.98 86.6695C336.49 86.8295 335.89 86.9595 335.22 87.0695C334.55 87.1595 333.8 87.2195 333.02 87.1995C332.24 87.1695 331.5 87.0695 330.83 86.9295C330.17 86.7795 329.58 86.5995 329.1 86.4195C328.14 86.0495 327.59 85.7195 327.56 85.7595L327.57 85.7495Z" fill="#455A64"/>
<path d="M336.05 100.719C336.26 100.929 337.45 99.9692 339.19 99.9192C340.92 99.8492 342.22 100.729 342.4 100.499C342.49 100.399 342.28 100.019 341.71 99.6192C341.15 99.2192 340.21 98.8492 339.13 98.8892C338.05 98.9292 337.15 99.3592 336.64 99.7992C336.12 100.239 335.95 100.629 336.05 100.719Z" fill="#263238"/>
<path d="M336.41 104.909C336.44 105.649 337.09 106.239 337.86 106.219C338.63 106.209 339.24 105.589 339.21 104.849C339.18 104.109 338.53 103.519 337.76 103.529C336.99 103.539 336.38 104.159 336.41 104.899V104.909Z" fill="#263238"/>
<path d="M321.8 254.219C321.82 255.489 326.74 430.619 326.74 430.619H353.05L358.38 280.809C358.38 280.809 364.6 359.139 364.6 360.829C364.6 362.519 370.09 431.459 370.09 431.459L394.48 429.469L392.88 271.739L389.9 248.609L321.8 254.209V254.219Z" fill="#363644"/>
<path d="M361.11 275.259C361.11 275.259 360.74 275.449 360.04 275.709C359.34 275.969 358.33 276.319 357.07 276.739L356.83 276.819L356.81 276.569C356.66 274.459 356.5 271.649 356.34 268.559C356.17 265.209 356.05 262.179 355.99 259.989C355.96 258.889 355.94 257.999 355.94 257.389C355.94 256.779 355.96 256.429 355.99 256.429C356.03 256.429 356.08 256.769 356.14 257.379C356.2 257.989 356.27 258.879 356.35 259.969C356.51 262.159 356.69 265.189 356.85 268.539C357 271.629 357.12 274.449 357.19 276.559L356.93 276.389C358.2 276.009 359.24 275.709 359.95 275.509C360.67 275.309 361.07 275.219 361.09 275.259H361.11Z" fill="#455A64"/>
<path d="M359.12 257.049C359.12 257.049 359.2 256.909 359.47 256.819C359.73 256.729 360.17 256.709 360.63 256.919C361.08 257.109 361.59 257.659 361.51 258.359C361.46 259.019 360.95 259.729 360.11 259.909C359.27 260.059 358.51 259.599 358.17 259.029C357.8 258.439 357.93 257.759 358.19 257.369C358.45 256.949 358.81 256.729 359.06 256.639C359.32 256.549 359.47 256.559 359.48 256.589C359.52 256.659 358.89 256.789 358.52 257.529C358.35 257.879 358.29 258.379 358.58 258.789C358.85 259.199 359.44 259.529 360.01 259.419C360.57 259.309 360.98 258.789 361.03 258.309C361.1 257.819 360.8 257.419 360.45 257.219C359.71 256.799 359.13 257.119 359.12 257.039V257.049Z" fill="#455A64"/>
<path d="M371.19 258.85C371.05 258.86 370.85 258.1 370.74 257.15C370.64 256.2 370.67 255.42 370.81 255.4C370.95 255.39 371.15 256.14 371.26 257.1C371.36 258.05 371.33 258.83 371.19 258.85Z" fill="#455A64"/>
<path d="M373.02 258.669C372.88 258.669 372.76 257.859 372.75 256.859C372.75 255.859 372.86 255.049 373 255.049C373.14 255.049 373.26 255.859 373.27 256.859C373.27 257.859 373.16 258.669 373.02 258.669Z" fill="#455A64"/>
<path d="M341.31 259.879C341.17 259.889 340.94 258.979 340.81 257.849C340.68 256.709 340.69 255.779 340.83 255.759C340.97 255.749 341.2 256.659 341.33 257.789C341.46 258.929 341.45 259.859 341.31 259.879Z" fill="#455A64"/>
<path d="M343.52 260.049C343.39 260.099 342.93 259.169 342.88 257.919C342.82 256.669 343.21 255.709 343.34 255.749C343.49 255.779 343.34 256.739 343.4 257.899C343.44 259.069 343.67 260.009 343.52 260.049Z" fill="#455A64"/>
<path d="M335.2 257.709C335.2 257.709 335.2 257.989 335.11 258.479C335.03 258.969 334.85 259.679 334.58 260.529C334.04 262.239 332.99 264.539 331.32 266.769C329.64 268.999 327.7 270.699 326.18 271.739C325.42 272.269 324.78 272.659 324.31 272.889C323.85 273.129 323.59 273.249 323.57 273.219C323.53 273.149 324.52 272.589 325.97 271.489C327.42 270.389 329.28 268.699 330.93 266.509C332.57 264.319 333.64 262.089 334.25 260.429C334.87 258.769 335.1 257.689 335.18 257.699L335.2 257.709Z" fill="#455A64"/>
<path d="M392.08 269.509C392.08 269.509 391.8 269.589 391.28 269.629C390.76 269.669 390.01 269.679 389.08 269.589C387.23 269.419 384.66 268.719 382.34 267.099C380.02 265.469 378.57 263.339 377.85 261.709C377.48 260.889 377.27 260.199 377.16 259.719C377.05 259.239 377.02 258.959 377.05 258.959C377.13 258.939 377.36 260.009 378.15 261.579C378.93 263.139 380.38 265.169 382.62 266.739C384.86 268.309 387.33 269.029 389.12 269.279C390.93 269.539 392.07 269.429 392.08 269.509Z" fill="#455A64"/>
<path d="M334.88 143.689L346.83 138.999L368.84 137.759L379.18 141.689L365.01 149.559L352.78 149.109L334.88 143.689Z" fill="#FFBE9D"/>
<path d="M320.78 256.13C321.86 256.32 393.98 259.38 393.98 259.38L391.45 194.53L391.24 181.8L387.14 143.23C387.14 143.23 376.36 139.52 370.86 137.75C370.86 137.75 365.07 143.78 354.06 143.62C343.3 143.46 341.05 141.03 341.05 141.03L326.01 146.8C326.01 146.8 315.31 150.64 313.47 155.37C311.68 159.98 308.39 186.29 308.39 186.29H323.98L323.69 232.77L320.77 256.12L320.78 256.13Z" fill="#3859BA"/>
<g opacity="0.2">
<path d="M366.13 169.59L368.36 185.93L379.18 190.77L387.18 183.95V168.77L366.13 169.59Z" fill="black"/>
</g>
<path d="M386.9 174.22C386.9 174.36 382.4 174.47 376.86 174.47C371.32 174.47 366.82 174.36 366.82 174.22C366.82 174.08 371.32 173.97 376.86 173.97C382.4 173.97 386.9 174.08 386.9 174.22Z" fill="#263238"/>
<path d="M315.919 162.129C315.919 162.129 315.969 162.279 316.039 162.559C316.109 162.879 316.209 163.299 316.329 163.809C316.599 164.899 317.039 166.479 317.769 168.409C318.489 170.349 319.499 172.619 320.739 175.169C321.909 177.769 322.979 180.759 324.089 184.009V184.039L324.099 184.079C324.069 187.959 324.049 192.219 324.019 196.659C323.919 206.579 323.819 215.549 323.749 222.099C323.689 225.319 323.649 227.939 323.609 229.809C323.579 230.689 323.559 231.379 323.549 231.899C323.529 232.379 323.509 232.629 323.499 232.629C323.479 232.629 323.469 232.379 323.459 231.899C323.459 231.379 323.439 230.679 323.429 229.799C323.429 227.929 323.429 225.309 323.419 222.089C323.449 215.539 323.499 206.569 323.549 196.649C323.589 192.209 323.629 187.959 323.659 184.079V184.149C322.579 180.909 321.539 177.909 320.399 175.329C319.189 172.769 318.189 170.459 317.509 168.509C316.809 166.549 316.419 164.949 316.189 163.849C316.079 163.299 316.009 162.869 315.969 162.579C315.929 162.289 315.909 162.139 315.929 162.139L315.919 162.129Z" fill="#263238"/>
<path d="M392.379 154.55C392.379 154.55 392.399 155.05 392.369 155.93C392.329 156.9 392.289 158.17 392.229 159.69C392.099 162.95 391.929 167.3 391.739 172.11C391.519 176.92 391.329 181.27 391.179 184.53C391.089 186.05 391.019 187.32 390.959 188.29C390.899 189.18 390.849 189.67 390.819 189.67C390.789 189.67 390.769 189.18 390.779 188.29C390.799 187.32 390.819 186.05 390.849 184.52C390.929 181.34 391.069 176.94 391.279 172.09C391.479 167.24 391.699 162.85 391.909 159.67C392.009 158.08 392.109 156.8 392.199 155.91C392.289 155.02 392.359 154.54 392.399 154.54L392.379 154.55Z" fill="#263238"/>
<g opacity="0.3">
<path d="M315.959 164.49C315.609 171.61 318.289 178.5 323.039 183.81C321.569 177.12 317.909 170.89 315.959 164.49Z" fill="black"/>
</g>
<g opacity="0.3">
<path d="M347.639 228.69C351.009 228.4 354.049 226.41 356.289 223.87C358.529 221.34 360.569 218.47 362.099 215.45C364.189 211.35 365.229 206.89 365.509 202.22C361.309 213.48 355.149 222.39 347.629 228.69H347.639Z" fill="black"/>
</g>
<path d="M366.839 197.31C366.839 197.31 366.839 197.46 366.779 197.73C366.709 198.05 366.619 198.44 366.519 198.9C366.409 199.41 366.249 200.03 366.029 200.73C365.819 201.44 365.599 202.25 365.269 203.13C364.689 204.9 363.829 206.95 362.779 209.19C361.689 211.4 360.379 213.78 358.809 216.16C357.219 218.53 355.539 220.66 353.919 222.52C352.259 224.35 350.689 225.92 349.269 227.13C348.579 227.76 347.909 228.27 347.329 228.73C346.759 229.2 346.239 229.57 345.809 229.87C345.419 230.14 345.089 230.36 344.819 230.55C344.589 230.7 344.469 230.77 344.459 230.76C344.459 230.75 344.559 230.65 344.769 230.47C345.029 230.27 345.339 230.02 345.709 229.73C346.119 229.42 346.619 229.02 347.179 228.54C347.739 228.06 348.389 227.54 349.059 226.89C350.439 225.66 351.979 224.07 353.609 222.24C355.199 220.38 356.859 218.26 358.439 215.91C359.989 213.55 361.309 211.2 362.409 209.01C363.469 206.8 364.349 204.78 364.969 203.03C365.309 202.17 365.559 201.37 365.789 200.67C366.029 199.97 366.209 199.37 366.349 198.86C366.489 198.41 366.599 198.03 366.689 197.71C366.769 197.45 366.829 197.31 366.839 197.32V197.31Z" fill="#263238"/>
<path d="M364.76 177.01C364.76 177.01 364.75 177.24 364.68 177.67C364.6 178.15 364.49 178.77 364.35 179.55C364.21 180.37 364.02 181.37 363.72 182.51C363.44 183.66 363.16 184.97 362.71 186.39C362.5 187.1 362.28 187.85 362.05 188.63C361.82 189.41 361.51 190.2 361.23 191.02C360.69 192.68 359.96 194.4 359.23 196.23C357.67 199.84 355.73 203.71 353.38 207.59C350.99 211.45 348.42 214.94 345.92 217.97C344.63 219.45 343.43 220.89 342.19 222.13C341.58 222.76 341.02 223.38 340.43 223.95C339.84 224.51 339.28 225.04 338.74 225.56C337.68 226.6 336.63 227.45 335.74 228.22C334.86 229 334.05 229.63 333.39 230.12C332.76 230.6 332.25 230.98 331.86 231.27C331.51 231.53 331.32 231.66 331.31 231.65C331.31 231.64 331.47 231.48 331.8 231.2C332.17 230.89 332.66 230.49 333.27 229.98C333.92 229.46 334.7 228.82 335.56 228.02C336.43 227.23 337.46 226.37 338.5 225.32C339.03 224.8 339.59 224.26 340.16 223.7C340.74 223.13 341.29 222.5 341.89 221.87C343.11 220.62 344.29 219.19 345.57 217.71C348.04 214.68 350.59 211.2 352.96 207.36C355.3 203.5 357.23 199.65 358.81 196.07C359.55 194.26 360.29 192.55 360.85 190.9C361.14 190.08 361.45 189.3 361.69 188.53C361.93 187.76 362.16 187.02 362.38 186.31C362.85 184.9 363.14 183.6 363.45 182.46C363.77 181.33 363.98 180.34 364.15 179.52C364.32 178.75 364.46 178.13 364.57 177.66C364.67 177.23 364.73 177.01 364.75 177.02L364.76 177.01Z" fill="#263238"/>
<path d="M307.78 156.839C312.23 163.599 330.22 190.969 335.55 199.059C336.14 199.949 335.41 201.119 334.35 200.989L302.37 196.969C302.03 196.929 301.72 196.749 301.52 196.469L270.98 154.759C270.35 153.899 271.02 152.689 272.08 152.769L304.98 155.199C306.12 155.279 307.16 155.889 307.79 156.849L307.78 156.839Z" fill="#E0E0E0"/>
<path d="M307.78 156.839C307.78 156.839 307.71 156.699 307.53 156.459C307.34 156.219 307.02 155.879 306.5 155.589C305.99 155.269 305.23 155.099 304.37 155.069C303.5 154.999 302.51 154.919 301.39 154.829C296.89 154.479 290.41 153.969 282.42 153.339C280.42 153.189 278.32 153.029 276.13 152.859C275.04 152.779 273.92 152.689 272.79 152.599C272.49 152.579 272.25 152.549 271.91 152.549C271.57 152.549 271.24 152.699 270.99 152.929C270.48 153.379 270.35 154.229 270.75 154.809C273.54 158.629 276.51 162.709 279.64 166.999C285.91 175.569 292.8 184.999 300.03 194.889C300.49 195.519 300.91 196.109 301.41 196.759C301.57 196.929 301.76 197.059 301.98 197.139C302.21 197.229 302.43 197.239 302.6 197.259L303.73 197.399C305.23 197.589 306.72 197.779 308.2 197.959C311.16 198.329 314.08 198.699 316.95 199.059C322.68 199.779 328.22 200.469 333.49 201.119C333.83 201.159 334.12 201.209 334.51 201.229C334.9 201.229 335.3 201.069 335.57 200.789C335.85 200.509 336 200.129 336.01 199.739C336.03 199.359 335.8 198.949 335.63 198.719C334.92 197.639 334.21 196.569 333.52 195.529C332.13 193.429 330.79 191.389 329.49 189.419C326.89 185.479 324.46 181.809 322.24 178.459C317.81 171.779 314.22 166.379 311.72 162.609C310.48 160.759 309.51 159.319 308.84 158.319C308.52 157.849 308.26 157.479 308.08 157.209C307.91 156.959 307.81 156.839 307.81 156.839C307.81 156.839 307.88 156.979 308.04 157.239C308.21 157.519 308.45 157.889 308.76 158.379C309.41 159.399 310.36 160.859 311.56 162.729C314.03 166.519 317.57 171.959 321.94 178.669C324.14 182.029 326.55 185.709 329.13 189.659C330.42 191.639 331.76 193.679 333.14 195.779C333.83 196.829 334.53 197.899 335.24 198.979C335.44 199.269 335.53 199.459 335.54 199.739C335.54 199.999 335.43 200.259 335.24 200.449C335.06 200.639 334.79 200.749 334.53 200.739C334.26 200.729 333.89 200.659 333.57 200.629C328.3 199.959 322.77 199.259 317.04 198.529C314.17 198.169 311.26 197.799 308.29 197.429C306.81 197.239 305.32 197.059 303.82 196.869L302.69 196.729C302.49 196.699 302.32 196.689 302.19 196.639C302.05 196.589 301.92 196.499 301.82 196.389C301.37 195.789 300.93 195.179 300.48 194.569C293.23 184.689 286.33 175.269 280.05 166.709C276.91 162.429 273.93 158.369 271.13 154.569C270.85 154.159 270.94 153.579 271.3 153.249C271.48 153.089 271.7 152.989 271.94 152.979C272.18 152.979 272.5 153.009 272.77 153.029C273.91 153.109 275.02 153.189 276.11 153.269C278.3 153.429 280.39 153.579 282.4 153.719C290.39 154.279 296.87 154.729 301.38 155.039C302.5 155.109 303.49 155.179 304.36 155.239C305.23 155.259 305.93 155.399 306.45 155.689C307.48 156.259 307.76 156.889 307.79 156.849L307.78 156.839Z" fill="#263238"/>
<path d="M270.97 154.749C270.97 154.749 271.2 154.799 271.64 154.849C272.13 154.899 272.77 154.959 273.58 155.049C275.32 155.199 277.77 155.419 280.81 155.689C287.01 156.199 295.6 156.899 305.38 157.699L305.18 157.589C306.72 159.879 308.31 162.249 309.9 164.699C316.38 174.669 322.05 183.829 326.33 190.349C328.46 193.619 330.22 196.229 331.46 198.029C332.06 198.889 332.55 199.579 332.9 200.079C333.23 200.549 333.42 200.789 333.43 200.779C333.44 200.769 333.29 200.509 332.99 200.019C332.65 199.499 332.2 198.789 331.63 197.909C330.43 196.029 328.73 193.389 326.65 190.139C322.45 183.569 316.84 174.379 310.35 164.399C308.76 161.949 307.16 159.569 305.62 157.289L305.55 157.189H305.42C295.63 156.449 287.04 155.819 280.83 155.359C277.79 155.159 275.34 154.989 273.59 154.869C272.78 154.829 272.13 154.789 271.64 154.759C271.2 154.739 270.96 154.739 270.96 154.759L270.97 154.749Z" fill="#263238"/>
<path d="M290 161.19C290.08 160.81 290.44 160.65 290.79 160.71C291.17 160.82 291.36 160.91 291.65 161.19C291.94 161.47 292.06 161.97 291.81 162.29C291.49 162.68 290.83 162.54 290.45 162.21C290.16 161.96 289.93 161.57 290.01 161.19H290Z" fill="white"/>
<path d="M304.94 184.849C304.94 184.849 306.2 181.839 303 181.449C299.8 181.059 291.39 181.449 291.39 181.449C291.39 181.449 286.79 181.939 287.76 185.229C287.76 185.229 285.04 187.659 286.5 190.279C287.96 192.899 288.54 192.119 288.54 192.119C288.54 192.119 288.15 195.319 290.58 195.809C290.58 195.809 293.21 198.919 295.63 198.719C298.05 198.529 308.34 193.579 309.02 192.609C309.7 191.639 310.67 191.089 310.09 189.999C310.09 189.999 311.35 187.159 308.63 186.729C308.63 186.729 308.44 184.359 304.94 184.839V184.849Z" fill="#FFBE9D"/>
<path d="M290.35 185.94C290.35 186.01 291.18 186.07 292.51 186.1C293.85 186.13 295.69 186.13 297.73 186.1C299.76 186.03 301.61 186.11 302.97 185.79C304.35 185.47 304.89 184.66 304.83 184.64C304.77 184.57 304.19 185.22 302.89 185.42C301.62 185.63 299.75 185.5 297.72 185.57C295.68 185.6 293.84 185.66 292.51 185.73C291.18 185.8 290.35 185.88 290.35 185.95V185.94Z" fill="#EB996E"/>
<path d="M292.64 190.789C292.64 190.789 292.87 190.929 293.34 191.029C293.8 191.129 294.49 191.209 295.34 191.149C296.19 191.099 297.19 190.919 298.26 190.619C299.33 190.319 300.48 189.909 301.68 189.539C302.88 189.169 304.05 188.899 305.12 188.829C306.17 188.779 307.3 188.809 308.05 188.239C308.42 187.979 308.68 187.609 308.75 187.239C308.82 186.869 308.75 186.549 308.63 186.329C308.38 185.869 308.03 185.839 308.04 185.869C308.01 185.909 308.29 186.009 308.44 186.419C308.61 186.809 308.52 187.529 307.84 187.929C307.19 188.379 306.22 188.329 305.09 188.339C303.96 188.389 302.74 188.649 301.52 189.029C300.32 189.419 299.18 189.799 298.12 190.149C297.08 190.469 296.12 190.679 295.31 190.779C293.68 190.979 292.66 190.699 292.65 190.789H292.64Z" fill="#EB996E"/>
<path d="M296.08 194.889C296.1 194.959 296.93 194.799 298.24 194.469C299.56 194.139 301.36 193.619 303.32 192.979C305.29 192.339 307.04 191.679 308.3 191.169C309.56 190.659 310.32 190.299 310.29 190.229C310.24 190.089 307.07 191.189 303.15 192.469C299.23 193.759 296.03 194.739 296.07 194.879L296.08 194.889Z" fill="#EB996E"/>
<path d="M295.25 198.699C295.25 198.759 295.95 198.739 297.04 198.489C298.13 198.249 299.6 197.749 301.14 197.049C302.68 196.349 304.03 195.629 305 195.119C305.97 194.599 306.57 194.259 306.54 194.189C306.47 194.029 303.96 195.139 300.92 196.569C297.89 198.019 295.23 198.569 295.25 198.699Z" fill="#EB996E"/>
<path d="M397.49 169.76C397.49 169.76 390.95 195.95 382.78 205.62C374.87 214.98 362.47 210.68 358.18 198.56C353.89 186.45 346.24 158.78 346.24 158.78L355.63 151.6L371.86 183.06L379.17 161.62L397.48 169.77L397.49 169.76Z" fill="#FFBE9D"/>
<path d="M346.68 159.51L339.79 149.53C339.79 149.53 337.5 149 336.85 148.62C336.07 148.16 335.3 144.2 335.32 143.42C335.34 142.65 333.98 140.84 334.53 140.33C335.08 139.82 336.92 139.78 336.82 139.04C336.8 138.88 335.45 137.23 336.52 136.01C336.91 135.57 338.46 135.19 338.46 135.19L338.35 131.38C338.35 131.38 340.41 126.88 342.51 128.51C342.51 128.51 350.44 134.6 351.24 135.57C352.04 136.54 355.09 149.23 355.63 151.61" fill="#FFBE9D"/>
<path d="M355.64 151.6C355.64 151.6 355.62 151.36 355.53 150.93C355.43 150.45 355.29 149.81 355.12 149.02C354.75 147.37 354.19 144.98 353.44 142.03C353.06 140.56 352.64 138.95 352.11 137.23C351.97 136.8 351.83 136.37 351.65 135.92C351.48 135.42 351.06 135.08 350.72 134.77C350 134.13 349.24 133.51 348.45 132.88C346.88 131.61 345.22 130.3 343.48 128.95C343.03 128.63 342.66 128.22 342.03 127.99C341.39 127.78 340.71 128.05 340.24 128.42C339.28 129.18 338.67 130.2 338.13 131.27L338.11 131.32V131.38C338.12 131.75 338.13 132.15 338.15 132.55C338.18 133.44 338.2 134.33 338.23 135.19L338.41 134.95C337.93 135.08 337.47 135.22 337.01 135.42C336.78 135.53 336.55 135.63 336.33 135.86C336.17 136.07 336.01 136.3 335.95 136.56C335.79 137.08 335.9 137.62 336.07 138.08C336.16 138.31 336.27 138.53 336.38 138.73L336.56 139.03L336.6 139.09C336.6 139.09 336.6 139.05 336.6 139.08C336.6 139.1 336.6 139.13 336.59 139.14C336.57 139.23 336.38 139.34 336.2 139.42C336.01 139.5 335.8 139.56 335.58 139.63C335.37 139.7 335.15 139.76 334.93 139.85C334.71 139.95 334.48 140 334.27 140.31C334.11 140.64 334.2 140.9 334.25 141.12C334.31 141.35 334.4 141.56 334.48 141.76C334.65 142.16 334.84 142.55 334.99 142.92C335.06 143.11 335.11 143.28 335.11 143.45C335.11 143.69 335.14 143.89 335.17 144.1C335.23 144.52 335.31 144.92 335.39 145.32C335.57 146.12 335.76 146.89 336.04 147.62C336.19 147.99 336.31 148.35 336.64 148.68C337.02 148.97 337.36 149.02 337.71 149.15C338.41 149.37 339.09 149.54 339.75 149.69L339.64 149.62C341.77 152.64 343.5 155.11 344.74 156.87C345.33 157.69 345.8 158.34 346.15 158.83C346.48 159.28 346.66 159.51 346.67 159.5C346.68 159.49 346.53 159.24 346.23 158.77C345.9 158.27 345.45 157.59 344.9 156.75C343.69 154.97 342 152.47 339.93 149.41L339.89 149.35L339.82 149.33C339.17 149.17 338.49 148.99 337.82 148.77C337.5 148.66 337.1 148.54 336.89 148.37C336.69 148.18 336.54 147.8 336.41 147.47C336.15 146.77 335.97 146.01 335.8 145.23C335.72 144.84 335.65 144.44 335.59 144.04C335.57 143.84 335.54 143.63 335.54 143.45C335.54 143.2 335.47 142.96 335.4 142.76C335.25 142.35 335.06 141.96 334.89 141.57C334.81 141.38 334.73 141.18 334.68 140.99C334.63 140.81 334.61 140.59 334.66 140.52C334.69 140.45 334.9 140.33 335.08 140.27C335.27 140.19 335.48 140.13 335.7 140.07C335.91 140 336.13 139.94 336.36 139.85C336.57 139.75 336.85 139.66 337.01 139.31C337.05 139.22 337.06 139.13 337.06 139.04C337.06 139.01 337.05 138.93 337.02 138.86L336.97 138.77L336.8 138.48C336.69 138.29 336.59 138.09 336.52 137.89C336.37 137.49 336.29 137.06 336.41 136.68C336.46 136.49 336.57 136.32 336.7 136.16C336.8 136.05 337.01 135.93 337.21 135.84C337.62 135.66 338.08 135.52 338.52 135.4L338.71 135.35V135.16C338.68 134.29 338.65 133.41 338.63 132.52C338.62 132.12 338.61 131.72 338.6 131.35L338.58 131.46C339.08 130.45 339.71 129.45 340.54 128.79C340.96 128.47 341.45 128.29 341.9 128.44C342.32 128.58 342.76 128.99 343.2 129.31C344.94 130.65 346.61 131.95 348.18 133.21C348.97 133.84 349.73 134.46 350.44 135.08C350.8 135.4 351.15 135.67 351.28 136.07C351.46 136.48 351.59 136.91 351.74 137.33C352.28 139.03 352.72 140.63 353.12 142.1C353.88 145 354.5 147.36 354.94 149.05C355.15 149.83 355.31 150.46 355.44 150.94C355.56 151.37 355.62 151.59 355.64 151.59V151.6Z" fill="#EB996E"/>
<path d="M338.47 135.179C338.47 135.259 339.27 135.199 340.53 135.319C341.16 135.369 341.84 135.599 342.7 135.819C343.58 136.009 344.54 135.909 345.5 135.839C347.43 135.579 349.05 136.389 349.92 137.269C350.81 138.149 350.9 138.999 350.99 138.969C351.03 138.989 351.07 138.069 350.18 137.039C349.74 136.539 349.1 136.039 348.28 135.709C347.47 135.339 346.45 135.269 345.47 135.359C344.49 135.429 343.58 135.529 342.79 135.379C342 135.209 341.22 134.979 340.56 134.979C339.25 134.949 338.47 135.129 338.48 135.179H338.47Z" fill="#EB996E"/>
<path d="M341.27 134.97C341.39 135.03 341.71 134.57 341.67 133.91C341.63 133.25 341.26 132.83 341.15 132.9C341.03 132.97 341.15 133.41 341.18 133.94C341.22 134.47 341.14 134.92 341.27 134.97Z" fill="#EB996E"/>
<path d="M336.58 139.18C336.58 139.3 339.29 139.42 342.55 138.71C343.36 138.53 344.11 138.31 344.75 138.43C345.38 138.54 345.87 138.97 346.17 139.37C346.77 140.21 346.87 140.91 346.95 140.88C346.99 140.88 347.03 140.16 346.45 139.17C346.15 138.7 345.62 138.16 344.83 137.99C344.04 137.81 343.23 138.07 342.44 138.23C339.24 138.93 336.57 139.03 336.57 139.18H336.58Z" fill="#EB996E"/>
<path d="M335.53 142.78C335.53 142.84 336.1 142.9 337 142.78C337.9 142.68 339.11 142.37 340.43 142.11C341.09 141.99 341.72 141.89 342.28 141.93C342.84 141.96 343.3 142.14 343.61 142.41C344.26 142.96 344.19 143.58 344.26 143.57C344.29 143.57 344.36 143.44 344.34 143.17C344.32 142.9 344.19 142.51 343.84 142.16C343.51 141.8 342.94 141.54 342.31 141.48C341.68 141.41 341.01 141.51 340.33 141.63C338.97 141.9 337.79 142.26 336.93 142.44C336.07 142.64 335.52 142.7 335.52 142.77L335.53 142.78Z" fill="#EB996E"/>
<path d="M337.89 145.64C337.81 145.7 338.48 146.41 339.72 146.4L339.48 146.19C339.5 146.41 339.53 146.61 339.55 146.83C339.73 148.24 339.98 149.37 340.12 149.35C340.25 149.33 340.22 148.18 340.04 146.78C340.01 146.57 339.98 146.36 339.95 146.15L339.92 145.93H339.71C338.67 146.01 337.96 145.55 337.9 145.65L337.89 145.64Z" fill="#EB996E"/>
<path d="M387.15 143.229C387.15 143.229 400.54 146.469 400.51 164.229C400.48 181.919 396.47 190.759 396.47 190.759L371.78 177.329L377.29 163.499L387.15 143.229Z" fill="#3859BA"/>
<path d="M396.47 190.769C396.47 190.769 396.29 190.709 395.96 190.549C395.59 190.359 395.11 190.119 394.53 189.819C393.24 189.139 391.46 188.199 389.27 187.049C384.78 184.629 378.61 181.309 371.67 177.569L371.47 177.459L371.55 177.249C371.97 176.139 372.42 174.969 372.87 173.789C374.45 169.689 375.95 165.789 377.32 162.229C378.01 160.459 378.66 158.769 379.28 157.189C379.87 155.599 380.52 154.139 381.23 152.879C382.62 150.339 384.26 148.539 385.68 147.719C386.38 147.299 387 147.109 387.42 147.019C387.63 146.979 387.79 146.959 387.9 146.959C388.01 146.959 388.07 146.959 388.07 146.959C388.09 147.019 387.14 147.009 385.79 147.889C384.44 148.739 382.88 150.519 381.55 153.049C380.87 154.309 380.25 155.739 379.68 157.329C379.08 158.919 378.44 160.609 377.77 162.379C376.41 165.939 374.92 169.849 373.36 173.949C372.91 175.139 372.46 176.299 372.03 177.409L371.91 177.089C378.82 180.889 384.96 184.259 389.43 186.719C391.59 187.929 393.34 188.919 394.62 189.629C395.19 189.959 395.65 190.229 396.01 190.439C396.32 190.629 396.48 190.729 396.48 190.749L396.47 190.769Z" fill="#263238"/>
<path d="M157.84 199.119C157.5 177.639 174.61 159.889 195.99 159.549C217.37 159.209 235.04 176.399 235.38 197.869C235.72 219.349 218.61 237.099 197.23 237.439C175.85 237.779 158.18 220.589 157.84 199.119ZM215.14 198.199C214.98 187.929 206.53 179.709 196.31 179.879C186.09 180.039 177.91 188.529 178.07 198.799C178.23 209.069 186.68 217.289 196.9 217.119C207.12 216.949 215.3 208.469 215.14 198.199Z" fill="#3859BA"/>
<path d="M157.84 199.119C157.5 177.639 174.61 159.889 195.98 159.549L196.31 179.869C186.09 180.039 177.91 188.519 178.07 198.789C178.23 209.059 186.68 217.279 196.9 217.109L197.22 237.429C175.84 237.769 158.17 220.579 157.83 199.109L157.84 199.119Z" fill="#3859BA"/>
<path d="M192.51 156.419C217.52 156.019 237.47 175.429 237.87 200.549L214.2 200.929C214.01 188.919 204.87 181.349 192.91 181.549L192.51 156.419Z" fill="#ECF2FF"/>
<path d="M232.49 115.029V84.4492C249.26 84.4492 263.07 98.2492 263.07 115.029C263.07 131.809 249.27 145.609 232.49 145.609C215.71 145.609 202.3 132.239 201.92 115.739L232.49 115.029Z" fill="#3859BA"/>
<path d="M226.81 103.469L196.23 104.159C196.23 96.1994 199.34 87.8494 204.89 82.1394C210.44 76.4294 218.37 73.1194 226.33 72.8994L226.8 103.469H226.81Z" fill="#ECF2FF"/>
<path d="M63.6202 153.819H46.1602V208.359H63.6202V153.819Z" fill="#3859BA"/>
<path d="M89.7002 166.279H72.2402V208.359H89.7002V166.279Z" fill="#3859BA"/>
<path d="M113.84 183.369H96.3804V208.359H113.84V183.369Z" fill="#3859BA"/>
<path d="M140.9 91.3094C136.72 81.7394 125.58 77.3694 116.01 81.5494C106.44 85.7294 102.07 96.8694 106.25 106.439C109.27 113.369 115.95 117.569 123.03 117.769C123.93 119.819 124.94 122.139 124.94 122.139L140.12 115.509C140.12 115.509 139.14 113.019 138.22 110.809C142.54 105.499 143.82 98.0194 140.89 91.3094H140.9Z" fill="#3859BA"/>
<path d="M134.6 117.83C134.6 117.83 134.57 117.76 134.52 117.61C134.47 117.45 134.4 117.24 134.32 116.95C134.15 116.37 133.89 115.52 133.59 114.41C133.29 113.3 132.94 111.94 132.63 110.34C132.33 108.74 132.07 106.89 132.1 104.83C132.11 103.8 132.18 102.73 132.39 101.62C132.51 101.07 132.71 100.5 133.11 100.04C133.51 99.5796 134.14 99.2996 134.78 99.3796C135.1 99.4196 135.42 99.5696 135.63 99.8296C135.85 100.08 135.96 100.42 135.95 100.75C135.92 101.42 135.58 102.02 135.12 102.49C134.15 103.39 132.79 103.86 131.41 103.81C130.03 103.76 128.65 103.09 127.7 101.99C127.24 101.44 126.83 100.79 126.73 100.04C126.6 99.2996 126.99 98.4096 127.78 98.1496C128.17 98.0096 128.62 98.1196 128.93 98.3796C129.25 98.6296 129.46 98.9896 129.54 99.3896C129.69 100.19 129.4 100.95 129.07 101.64C128.37 103.02 127.1 104.17 125.54 104.57C123.99 104.97 122.27 104.58 121.1 103.54C120.51 103.03 120.09 102.29 120.07 101.49C120.07 101.1 120.19 100.67 120.5 100.39C120.79 100.1 121.22 99.9896 121.61 100.02C122 100.05 122.38 100.21 122.67 100.46C122.97 100.7 123.19 101.02 123.37 101.34C123.72 102 123.91 102.71 123.97 103.43C124.1 104.87 123.66 106.32 122.8 107.4C121.94 108.48 120.71 109.21 119.43 109.46C118.8 109.58 118.11 109.61 117.51 109.31C116.93 109.02 116.5 108.34 116.69 107.68C116.78 107.36 117.03 107.11 117.3 106.96C117.58 106.81 117.89 106.75 118.2 106.76C118.83 106.79 119.35 107.13 119.78 107.49C120.63 108.24 121.37 109 122.11 109.72C125.02 112.61 127.26 115.05 128.79 116.76C129.55 117.61 130.14 118.29 130.53 118.74C130.72 118.96 130.87 119.14 130.97 119.26C131.07 119.38 131.11 119.44 131.11 119.44C131.11 119.44 131.05 119.39 130.95 119.27C130.84 119.15 130.69 118.98 130.49 118.76C130.08 118.31 129.48 117.65 128.72 116.81C127.17 115.12 124.92 112.69 121.99 109.83C121.26 109.12 120.49 108.35 119.66 107.62C119.24 107.27 118.74 106.96 118.19 106.94C117.65 106.92 117.03 107.19 116.87 107.73C116.72 108.27 117.08 108.87 117.6 109.13C118.13 109.4 118.78 109.38 119.39 109.25C120.62 109.01 121.81 108.31 122.63 107.26C123.46 106.22 123.87 104.83 123.75 103.44C123.69 102.75 123.5 102.06 123.17 101.43C122.85 100.82 122.29 100.27 121.59 100.23C121.25 100.2 120.9 100.3 120.66 100.54C120.41 100.77 120.3 101.12 120.31 101.47C120.33 102.18 120.71 102.87 121.27 103.35C122.38 104.34 124.02 104.72 125.5 104.33C126.99 103.95 128.21 102.84 128.88 101.52C129.2 100.86 129.46 100.12 129.33 99.4196C129.26 99.0796 129.08 98.7596 128.81 98.5496C128.55 98.3396 128.19 98.2496 127.87 98.3596C127.55 98.4596 127.29 98.7096 127.13 99.0096C126.97 99.3096 126.93 99.6596 126.97 99.9996C127.07 100.69 127.45 101.31 127.89 101.84C128.79 102.89 130.12 103.54 131.44 103.59C132.76 103.65 134.08 103.19 135 102.34C135.43 101.91 135.76 101.33 135.78 100.74C135.82 100.15 135.36 99.6196 134.79 99.5696C134.23 99.4996 133.64 99.7496 133.29 100.17C132.92 100.59 132.72 101.13 132.61 101.67C132.4 102.75 132.32 103.83 132.31 104.85C132.28 106.89 132.52 108.73 132.81 110.33C133.1 111.93 133.44 113.29 133.72 114.4C134.02 115.5 134.25 116.35 134.41 116.95C134.49 117.23 134.55 117.45 134.59 117.61C134.63 117.76 134.64 117.84 134.64 117.84L134.6 117.83Z" fill="white"/>
<path d="M140.18 118.829L127.14 124.519C126.6 124.759 125.97 124.509 125.73 123.969C125.49 123.429 125.74 122.799 126.28 122.559L139.32 116.869C139.86 116.629 140.49 116.879 140.73 117.419C140.97 117.959 140.72 118.589 140.18 118.829Z" fill="#363644"/>
<path d="M140.56 119.679L127.52 125.369C126.98 125.609 126.73 126.239 126.97 126.779C127.21 127.319 127.84 127.569 128.38 127.329L129.81 126.709L133.29 129.489C133.69 129.809 134.23 129.879 134.7 129.679L139.36 127.649C139.83 127.439 140.15 126.989 140.18 126.479L140.45 122.069L141.42 121.649C141.96 121.409 142.21 120.779 141.97 120.239C141.73 119.699 141.1 119.449 140.56 119.689V119.679Z" fill="#363644"/>
<g opacity="0.2">
<path d="M107.63 92.6893C108.33 91.1093 109.22 89.8193 110.09 88.8693C110.97 87.9193 111.79 87.2793 112.42 86.9293C113.05 86.5793 113.45 86.4793 113.54 86.5993C113.75 86.8793 112.64 87.9193 111.39 89.8793C110.13 91.8093 108.81 94.7893 108.72 98.2293C108.65 101.669 109.83 104.719 111 106.699C112.16 108.709 113.22 109.799 113 110.069C112.9 110.189 112.51 110.069 111.9 109.689C111.29 109.309 110.49 108.629 109.66 107.639C108.83 106.649 108 105.329 107.38 103.709C106.76 102.099 106.37 100.189 106.41 98.1693" fill="white"/>
</g>
<g opacity="0.2">
<path d="M118.03 85.5296C116.93 85.9996 115.83 86.1196 115.46 85.5896C115.29 85.3196 115.35 84.9296 115.65 84.5096C115.94 84.0996 116.46 83.6796 117.11 83.3896C117.77 83.1096 118.43 83.0196 118.93 83.0896C119.43 83.1596 119.77 83.3796 119.84 83.6896" fill="white"/>
</g>
<path d="M140.06 126.889C140.06 126.889 139.67 126.919 139.04 127.009C138.42 127.089 137.57 127.289 136.71 127.699C135.85 128.109 135.15 128.639 134.7 129.059C134.24 129.489 134 129.789 133.96 129.769C133.94 129.759 134.14 129.409 134.58 128.939C135.02 128.469 135.72 127.909 136.61 127.479C137.5 127.059 138.39 126.879 139.02 126.839C139.66 126.799 140.06 126.859 140.05 126.889H140.06Z" fill="#455A64"/>
<path d="M140.49 122.099C140.52 122.159 138.18 123.239 135.27 124.499C132.36 125.769 129.99 126.749 129.96 126.689C129.93 126.629 132.27 125.549 135.18 124.289C138.09 123.019 140.46 122.039 140.49 122.099Z" fill="#455A64"/>
<path d="M140.35 123.999C140.35 123.999 139.9 124.289 139.12 124.689C138.35 125.089 137.27 125.609 136.06 126.159C134.85 126.709 133.75 127.169 132.94 127.489C132.13 127.809 131.62 127.989 131.61 127.959C131.6 127.929 132.08 127.699 132.87 127.339C133.72 126.949 134.79 126.479 135.96 125.949C137.13 125.419 138.19 124.929 139.04 124.539C139.83 124.179 140.32 123.969 140.34 123.999H140.35Z" fill="#455A64"/>
</g>
</g>
<defs>
<clipPath id="clip0_0_1967">
<rect width="456" height="300" fill="white"/>
</clipPath>
</defs>
</svg>
