<svg width="60" height="52" viewBox="0 0 60 52" fill="none" xmlns="http://www.w3.org/2000/svg">
<g clip-path="url(#clip0_143_24325)">
<path d="M45.0182 0.0800564H9.06731C4.72372 -0.539253 0.700311 2.48006 0.0795976 6.82365C-0.0271315 7.56794 -0.0271315 8.32347 0.0795976 9.06777V36.0309C-0.539712 40.3745 2.47819 44.3993 6.82319 45.0186C7.56748 45.1253 8.32301 45.1253 9.06731 45.0186H30.6378C31.1167 45.0186 31.5127 44.6437 31.5366 44.1648C31.5605 43.0315 32.0337 41.953 32.8524 41.1693L49.3 24.632C50.3532 23.5703 51.7182 22.8723 53.1942 22.6392C53.6436 22.5957 53.9904 22.2263 54.0059 21.777V9.06777C54.6252 4.72418 51.6073 0.699366 47.2623 0.0800564C46.518 -0.0266727 45.7625 -0.0266727 45.0182 0.0800564ZM44.8412 13.879L30.1252 24.5828C28.2884 25.9211 25.7971 25.9211 23.9602 24.5828L9.24426 13.8804C8.24156 13.1502 8.01968 11.7458 8.74993 10.7431C9.48018 9.74044 10.8845 9.51856 11.8872 10.2488L26.606 20.9498C26.8672 21.1394 27.2197 21.1394 27.4809 20.9498L42.1997 10.2488C43.2024 9.51856 44.6067 9.74044 45.3369 10.7431C46.0672 11.7458 45.8453 13.1502 44.8426 13.8804L44.8412 13.879ZM47.9448 32.3754L54.6561 39.0867L42.6729 51.0109H36.0304V44.36L47.9448 32.3768V32.3754ZM59.2089 30.7871L56.243 27.8212C55.2094 26.7792 53.527 26.7708 52.485 27.8043C52.4794 27.81 52.4737 27.8156 52.4681 27.8212L50.0414 30.2774L56.7527 36.9887L59.2089 34.562C60.2509 33.534 60.2622 31.8544 59.2342 30.8124C59.2258 30.804 59.2173 30.7956 59.2089 30.7871Z" fill="#1A58BF"/>
</g>
<defs>
<clipPath id="clip0_143_24325">
<rect width="60" height="51.0109" fill="white"/>
</clipPath>
</defs>
</svg>
