<svg width="60" height="62" viewBox="0 0 60 62" fill="none" xmlns="http://www.w3.org/2000/svg">
<g clip-path="url(#clip0_143_24320)">
<path d="M51.8997 25.8552C51.9744 17.1679 44.5748 9.20388 35.4072 8.10361C35.2254 8.08256 35.0264 8.05003 34.8159 8.01368C34.3624 7.93905 33.8936 7.8606 33.4191 7.8606C31.54 7.8606 31.0367 9.18092 30.9047 9.96737C30.7765 10.7328 30.899 11.3757 31.2683 11.879C31.8902 12.7247 32.9847 12.8759 33.8649 12.9965C34.1232 13.0328 34.3663 13.0653 34.5691 13.1113C42.8067 14.9521 45.5794 17.8453 46.9361 26.0121C46.9686 26.2112 46.9839 26.458 46.9992 26.7182C47.0586 27.6941 47.181 29.7263 49.3643 29.7263C49.5461 29.7263 49.7413 29.711 49.9441 29.6803C51.9782 29.3704 51.9131 27.5143 51.8825 26.6226C51.873 26.3719 51.8653 26.1346 51.8863 25.9758C51.8921 25.9356 51.894 25.8954 51.8959 25.8552H51.8997Z" fill="#1A58BF"/>
<path d="M32.8858 4.91581C33.1288 4.93303 33.3604 4.95025 33.5536 4.97895C47.0802 7.05894 53.3011 13.4673 55.0251 27.0991C55.0538 27.3307 55.0596 27.6139 55.0634 27.9124C55.0806 28.9782 55.1151 31.194 57.4955 31.238H57.5701C58.3164 31.238 58.9096 31.0142 59.3344 30.5702C60.0749 29.7953 60.0232 28.6452 59.9811 27.7191C59.9716 27.4914 59.962 27.279 59.9639 27.0915C60.1342 13.1516 48.0657 0.508994 34.1373 0.0382702C34.0799 0.0363567 34.0244 0.0382702 33.9689 0.0478377C33.9421 0.0516648 33.8904 0.0574053 33.8043 0.0574053C33.6646 0.0574053 33.4943 0.0459242 33.3125 0.0325297C33.0925 0.0172216 32.8456 0 32.5931 0C30.3753 0 29.9524 1.57673 29.8988 2.51626C29.7745 4.6881 31.8755 4.84118 32.8858 4.91581Z" fill="#1A58BF"/>
<path d="M54.3703 44.7187C54.0833 44.4987 53.7847 44.271 53.5073 44.0471C52.0301 42.8588 50.4591 41.7624 48.9397 40.7042C48.624 40.4841 48.3083 40.2641 47.9945 40.044C46.0484 38.6759 44.2976 38.0119 42.6443 38.0119C40.417 38.0119 38.4767 39.2423 36.8731 41.6686C36.1632 42.744 35.3022 43.2664 34.2402 43.2664C33.6125 43.2664 32.8988 43.0865 32.12 42.7344C25.8379 39.8852 21.3508 35.5167 18.7867 29.7513C17.5467 26.9652 17.9485 25.1435 20.1319 23.6606C21.3718 22.8186 23.6776 21.2534 23.5149 18.2549C23.3293 14.8488 15.815 4.602 12.65 3.43859C11.3087 2.9449 9.90224 2.94107 8.45562 3.42711C4.81804 4.65175 2.2061 6.80062 0.903002 9.64027C-0.356087 12.3862 -0.298681 15.6085 1.06756 18.9629C5.01705 28.6586 10.5681 37.1106 17.5716 44.0854C24.4258 50.9128 32.849 56.5059 42.6079 60.7099C43.4882 61.0888 44.4105 61.2954 45.084 61.4447C45.3136 61.4964 45.5126 61.5404 45.6562 61.5806C45.7346 61.6016 45.8169 61.6131 45.8992 61.615H45.9757C50.5662 61.615 56.0771 57.4206 57.7706 52.6387C59.2536 48.452 56.5459 46.3816 54.3703 44.7187Z" fill="#1A58BF"/>
<path d="M34.9158 15.9892C34.1294 16.0083 32.4952 16.0504 31.9212 17.7152C31.6533 18.494 31.6839 19.1694 32.0169 19.7244C32.5048 20.5376 33.4367 20.7883 34.2863 20.9241C37.3651 21.4178 38.9457 23.1208 39.2633 26.282C39.4107 27.7554 40.4038 28.7848 41.6782 28.7848C41.7719 28.7848 41.8676 28.7791 41.9652 28.7676C43.4979 28.5858 44.2404 27.4588 44.1734 25.4209C44.1983 23.2931 43.0846 20.8782 41.1902 18.9551C39.2901 17.0263 36.9996 15.9394 34.9158 15.9892Z" fill="#1A58BF"/>
</g>
<defs>
<clipPath id="clip0_143_24320">
<rect width="60" height="61.615" fill="white"/>
</clipPath>
</defs>
</svg>
