<svg width="130" height="130" viewBox="0 0 130 130" fill="none" xmlns="http://www.w3.org/2000/svg">
<rect width="130" height="130" rx="16" fill="#E5F2FF"/>
<g clip-path="url(#clip0_2398_1213)">
<path fill-rule="evenodd" clip-rule="evenodd" d="M16.1979 114.808H19.0416C23.404 114.808 27.007 111.951 27.1968 106.614C27.3867 101.469 24.543 98.4209 20.3666 98.4209H16.1979V114.808ZM11.0762 94.225H20.7501C27.3905 94.225 32.1325 99.18 32.3185 106.801C32.3185 113.664 26.6273 118.996 19.9907 118.996H11.0762V94.2212V94.225ZM76.1359 94.225H92.6362V98.4171H81.4436V103.944H91.8769V108.136H81.4436V114.999H93.2019V119H76.1321V94.225H76.1359ZM43.3213 119V114.999H50.1515L44.0806 99.3707L36.6847 119H31.3732L40.8572 94.225H47.3078L56.9817 119H43.3251H43.3213ZM52.8053 98.4171V94.225H74.0477V98.4171H66.2721V119H60.7708V98.4171H52.8053ZM105.913 94.225V98.4171H112.174L106.483 113.473L99.4664 94.225H93.965L103.639 119H109.52L119.004 94.225H105.917H105.913Z" fill="#039A9A"/>
<path d="M11 12H118.62V88.4918H11V12Z" fill="#90D033"/>
</g>
<defs>
<clipPath id="clip0_2398_1213">
<rect width="108" height="107" fill="white" transform="translate(11 12)"/>
</clipPath>
</defs>
</svg>
