<svg width="130" height="130" viewBox="0 0 130 130" fill="none" xmlns="http://www.w3.org/2000/svg">
<rect width="130" height="130" rx="16" fill="#E5F2FF"/>
<path d="M83.391 61.7228V85.353C83.3914 87.8463 82.6315 90.2804 81.2126 92.3305C79.7937 94.3807 77.7834 95.9494 75.4498 96.8273L67.0785 99.9787C66.7074 100.119 66.3078 100.167 65.9141 100.118C65.5204 100.07 65.1444 99.9264 64.8183 99.7006C64.4922 99.4748 64.2258 99.1733 64.0419 98.8218C63.8581 98.4703 63.7623 98.0795 63.7628 97.6828V68.8955L47.3681 74.884C46.4262 75.2312 45.6134 75.859 45.0395 76.6826C44.4656 77.5063 44.1582 78.4863 44.1588 79.4902V118.089C44.1588 121.497 47.5421 123.865 50.7466 122.695L99.8581 104.749C102.219 103.888 104.258 102.321 105.698 100.261C107.139 98.202 107.911 95.7494 107.91 93.2362V44.1972C107.909 46.7092 107.135 49.1601 105.695 51.2184C104.255 53.2766 102.218 54.8429 99.8581 55.7053L83.391 61.7228ZM83.391 59.1515V52.061C83.3909 49.5659 82.6298 47.1302 81.2091 45.0791C79.7885 43.028 77.7759 41.4591 75.4401 40.5818L67.0881 37.4402C66.717 37.3013 66.3178 37.2544 65.9246 37.3033C65.5313 37.3522 65.1558 37.4956 64.83 37.7212C64.5043 37.9468 64.2379 38.2478 64.0538 38.5987C63.8696 38.9495 63.7731 39.3397 63.7725 39.736V61.921C63.7725 65.3092 60.4133 67.6775 57.2233 66.5417L25.3426 55.1543C24.3893 54.8143 23.5645 54.1877 22.9813 53.3605C22.398 52.5332 22.085 51.5458 22.085 50.5337V11.9057C22.085 8.5175 25.4441 6.14917 28.639 7.28983L99.776 32.6938C101.772 33.407 103.549 34.6252 104.934 36.2295C106.319 37.8338 107.264 39.7696 107.678 41.8482C107.021 46.0097 102.603 52.1335 99.0268 53.4385L83.391 59.1515Z" fill="#0B53CE"/>
</svg>
