<svg width="470" height="375" viewBox="0 0 470 375" fill="none" xmlns="http://www.w3.org/2000/svg">
<circle cx="256.5" cy="194.5" r="169.5" fill="#E5F2FF"/>
<circle cx="256.5" cy="194.5" r="169.5" fill="#E5F2FF"/>
<circle cx="256.5" cy="194.5" r="135.5" fill="#E5F2FF"/>
<circle cx="256.5" cy="194.5" r="135.5" fill="#C6E2FE"/>
<g style="mix-blend-mode:multiply" opacity="0.36">
<ellipse cx="254" cy="296" rx="216" ry="79" fill="url(#paint0_radial_2395_1211)"/>
</g>
<path d="M88.1829 269.473L235.606 342.547C239.043 343.728 242.792 343.637 246.169 342.29L363.567 273.59C365.49 272.823 366.418 271.065 366.376 269.331C366.333 267.598 369.84 259.352 367.88 258.678L198.515 208.57C195.249 207.447 191.692 207.534 188.485 208.815L88.2476 251.727C86.5874 252.391 85.3418 262.576 85.0607 264.049C84.6482 266.208 85.7037 268.621 88.1829 269.473Z" fill="url(#paint1_linear_2395_1211)"/>
<path d="M204.046 187.182L246.835 66.5351C248.246 62.5538 252.602 60.4559 256.592 61.8316L428.671 103.83C432.715 105.223 434.845 109.648 433.415 113.682L385.249 249.799C383.837 253.78 379.482 255.878 375.492 254.502L208.79 197.034C204.745 195.64 202.616 191.216 204.046 187.182Z" fill="url(#paint2_linear_2395_1211)"/>
<path d="M198.407 189.086L241.197 68.4389C242.608 64.4576 246.964 62.3597 250.954 63.7354L423.033 105.733C427.077 107.127 429.206 111.552 427.777 115.585L379.611 251.703C378.199 255.684 373.843 257.782 369.854 256.406L203.152 198.938C199.107 197.544 196.978 193.12 198.407 189.086Z" fill="url(#paint3_linear_2395_1211)"/>
<path d="M371.198 252.508L204.494 195.044C203.588 194.73 202.858 194.079 202.44 193.213C202.023 192.347 201.971 191.372 202.294 190.461L245.081 69.8143C245.688 68.113 247.468 67.1318 249.229 67.5303L421.696 109.629C422.602 109.943 423.328 110.592 423.747 111.458C424.163 112.324 424.216 113.299 423.894 114.21L375.728 250.327C375.126 252.024 373.344 253.009 371.591 252.613L371.202 252.508H371.198Z" fill="white"/>
<path d="M90.5385 259.048L237.961 332.122C241.399 333.303 245.148 333.212 248.525 331.865L365.922 263.165C369.769 261.629 369.635 256.137 365.718 254.792L200.87 198.147C197.605 197.024 194.048 197.111 190.84 198.392L90.3201 250.135C86.2252 251.769 86.3668 257.616 90.5365 259.05L90.5385 259.048Z" fill="url(#paint4_linear_2395_1211)"/>
<path d="M207.443 208.746C204.421 207.544 202.913 206.939 199.896 205.717C196.834 207.613 195.324 208.527 192.309 210.324C195.265 211.566 196.747 212.183 199.712 213.405C202.785 211.588 204.326 210.664 207.443 208.746Z" fill="url(#paint5_linear_2395_1211)"/>
<path d="M201.979 217.421C196.893 215.323 194.357 214.259 189.298 212.102C186.289 213.866 184.79 214.728 181.769 216.441C186.723 218.632 189.211 219.713 194.199 221.849C197.318 220.101 198.867 219.221 201.977 217.421H201.979Z" fill="url(#paint6_linear_2395_1211)"/>
<path d="M218.372 213.031C215.345 211.859 213.833 211.269 210.81 210.077C207.671 212.003 206.118 212.934 203.018 214.76C205.987 215.974 207.473 216.575 210.45 217.771C213.604 215.922 215.185 214.979 218.374 213.031H218.372Z" fill="url(#paint7_linear_2395_1211)"/>
<path d="M229.321 217.216C226.291 216.071 224.775 215.494 221.748 214.331C218.536 216.289 216.945 217.238 213.766 219.097C216.743 220.285 218.233 220.874 221.216 222.043C224.447 220.159 226.065 219.198 229.323 217.216H229.321Z" fill="url(#paint8_linear_2395_1211)"/>
<path d="M240.271 221.311C237.241 220.19 235.725 219.626 232.696 218.489C229.418 220.481 227.79 221.448 224.536 223.344C227.519 224.507 229.011 225.084 231.994 226.231C235.296 224.311 236.95 223.33 240.271 221.311Z" fill="url(#paint9_linear_2395_1211)"/>
<path d="M251.215 225.325C248.19 224.224 246.675 223.672 243.646 222.557C240.305 224.588 238.641 225.573 235.318 227.507C238.303 228.648 239.793 229.215 242.776 230.344C246.145 228.383 247.832 227.384 251.215 225.325Z" fill="url(#paint10_linear_2395_1211)"/>
<path d="M262.139 229.263C259.119 228.183 257.609 227.639 254.584 226.544C251.182 228.616 249.488 229.621 246.099 231.594C249.079 232.717 250.57 233.275 253.548 234.386C256.982 232.383 258.699 231.363 262.139 229.263Z" fill="url(#paint11_linear_2395_1211)"/>
<path d="M273.032 233.141C270.023 232.075 268.516 231.541 265.501 230.465C262.045 232.577 260.319 233.605 256.867 235.622C259.843 236.728 261.33 237.278 264.3 238.375C267.793 236.328 269.542 235.286 273.034 233.141H273.032Z" fill="url(#paint12_linear_2395_1211)"/>
<path d="M283.881 236.967C280.886 235.915 279.386 235.387 276.381 234.327C272.872 236.484 271.117 237.534 267.604 239.595C270.571 240.688 272.053 241.232 275.012 242.316C278.563 240.222 280.338 239.156 283.879 236.967H283.881Z" fill="url(#paint13_linear_2395_1211)"/>
<path d="M294.675 240.748C291.697 239.706 290.204 239.184 287.213 238.136C283.656 240.341 281.873 241.414 278.306 243.522C281.26 244.602 282.734 245.142 285.679 246.216C289.282 244.074 291.086 242.983 294.675 240.746V240.748Z" fill="url(#paint14_linear_2395_1211)"/>
<path d="M305.403 244.495C302.445 243.461 300.962 242.945 297.99 241.905C294.386 244.159 292.576 245.257 288.955 247.414C291.893 248.486 293.359 249.022 296.283 250.09C299.939 247.899 301.767 246.783 305.403 244.495Z" fill="url(#paint15_linear_2395_1211)"/>
<path d="M316.052 248.217C313.118 247.189 311.645 246.675 308.693 245.644C305.045 247.948 303.209 249.073 299.537 251.28C302.455 252.346 303.911 252.88 306.814 253.944C310.521 251.698 312.373 250.555 316.052 248.217Z" fill="url(#paint16_linear_2395_1211)"/>
<path d="M326.612 251.923C323.704 250.899 322.244 250.386 319.318 249.36C315.627 251.717 313.767 252.868 310.046 255.128C312.942 256.192 314.386 256.722 317.263 257.786C321.018 255.488 322.893 254.316 326.614 251.923H326.612Z" fill="url(#paint17_linear_2395_1211)"/>
<path d="M329.847 253.064C326.116 255.475 324.232 256.655 320.464 258.971C325.107 260.691 327.415 261.551 332.003 263.274C335.823 260.893 337.734 259.683 341.509 257.207C336.874 255.548 334.541 254.721 329.849 253.064H329.847Z" fill="url(#paint18_linear_2395_1211)"/>
<path d="M211.867 221.454C208.911 220.261 207.433 219.66 204.482 218.448C201.354 220.257 199.793 221.141 196.659 222.895C199.554 224.127 201.004 224.74 203.91 225.956C207.099 224.179 208.687 223.285 211.869 221.452L211.867 221.454Z" fill="url(#paint19_linear_2395_1211)"/>
<path d="M222.565 225.725C219.602 224.554 218.122 223.965 215.161 222.779C211.954 224.622 210.355 225.523 207.144 227.309C210.051 228.519 211.507 229.119 214.419 230.315C217.679 228.506 219.307 227.592 222.565 225.725Z" fill="url(#paint20_linear_2395_1211)"/>
<path d="M233.278 229.917C230.314 228.768 228.831 228.189 225.867 227.026C222.587 228.905 220.949 229.824 217.667 231.644C220.583 232.834 222.041 233.425 224.959 234.6C228.287 232.755 229.95 231.822 233.278 229.917Z" fill="url(#paint21_linear_2395_1211)"/>
<path d="M243.991 234.04C241.029 232.907 239.545 232.338 236.58 231.195C233.232 233.113 231.559 234.052 228.21 235.907C231.128 237.078 232.588 237.661 235.508 238.82C238.902 236.937 240.598 235.984 243.991 234.038V234.04Z" fill="url(#paint22_linear_2395_1211)"/>
<path d="M254.693 238.102C251.735 236.985 250.254 236.425 247.292 235.298C243.876 237.256 242.172 238.215 238.76 240.111C241.678 241.266 243.138 241.842 246.054 242.987C249.508 241.063 251.235 240.09 254.693 238.102Z" fill="url(#paint23_linear_2395_1211)"/>
<path d="M265.37 242.113C262.42 241.009 260.943 240.454 257.987 239.344C254.511 241.347 252.774 242.326 249.302 244.264C252.216 245.407 253.674 245.975 256.584 247.11C260.094 245.144 261.853 244.148 265.37 242.115V242.113Z" fill="url(#paint24_linear_2395_1211)"/>
<path d="M276.009 246.083C273.071 244.99 271.6 244.44 268.654 243.341C265.119 245.389 263.352 246.392 259.823 248.373C262.731 249.505 264.183 250.068 267.083 251.195C270.648 249.184 272.436 248.164 276.009 246.083Z" fill="url(#paint25_linear_2395_1211)"/>
<path d="M286.597 250.022C283.675 248.935 282.211 248.391 279.278 247.301C275.687 249.397 273.891 250.422 270.31 252.449C273.206 253.574 274.652 254.135 277.537 255.255C281.153 253.196 282.969 252.154 286.599 250.024L286.597 250.022Z" fill="url(#paint26_linear_2395_1211)"/>
<path d="M297.12 253.936C294.218 252.856 292.762 252.314 289.848 251.229C286.204 253.374 284.38 254.426 280.749 256.499C283.628 257.618 285.066 258.177 287.933 259.293C291.6 257.185 293.442 256.117 297.122 253.936H297.12Z" fill="url(#paint27_linear_2395_1211)"/>
<path d="M307.567 257.836C304.687 256.758 303.243 256.218 300.35 255.138C296.655 257.335 294.803 258.411 291.123 260.535C293.984 261.65 295.41 262.208 298.255 263.323C301.967 261.164 303.836 260.068 307.567 257.834V257.836Z" fill="url(#paint28_linear_2395_1211)"/>
<path d="M317.924 261.733C315.073 260.655 313.641 260.114 310.77 259.036C307.025 261.286 305.148 262.39 301.421 264.565C304.258 265.68 305.674 266.238 308.493 267.355C312.252 265.144 314.145 264.021 317.924 261.731V261.733Z" fill="url(#paint29_linear_2395_1211)"/>
<path d="M311.629 268.601C314.44 269.718 315.842 270.278 318.63 271.399C322.434 269.131 324.353 267.98 328.179 265.635C325.358 264.555 323.94 264.015 321.097 262.937C317.304 265.243 315.403 266.374 311.629 268.603V268.601Z" fill="url(#paint30_linear_2395_1211)"/>
<path d="M148.189 234.736C152.874 237.004 155.234 238.126 159.984 240.354C163.479 238.478 165.185 237.57 168.538 235.778C163.774 233.556 161.404 232.438 156.696 230.174C153.378 231.954 151.683 232.86 148.189 234.736Z" fill="url(#paint31_linear_2395_1211)"/>
<path d="M162.322 241.448C165.082 242.736 166.467 243.376 169.248 244.654C172.738 242.777 174.449 241.865 177.826 240.06C175.041 238.79 173.652 238.15 170.884 236.868C167.523 238.662 165.816 239.572 162.322 241.448Z" fill="url(#paint32_linear_2395_1211)"/>
<path d="M172.348 246.074C175.134 247.347 176.532 247.98 179.33 249.243C182.81 247.361 184.525 246.443 187.923 244.624C185.12 243.37 183.72 242.741 180.93 241.474C177.547 243.281 175.834 244.197 172.346 246.074H172.348Z" fill="url(#paint33_linear_2395_1211)"/>
<path d="M231.893 263.774C230.631 263.234 230 262.963 228.738 262.423C225.907 261.209 224.49 260.6 221.659 259.382C220.397 258.84 219.766 258.567 218.504 258.023C215.673 256.801 214.257 256.19 211.428 254.964C210.169 254.418 209.538 254.145 208.278 253.596C205.451 252.366 204.039 251.749 201.218 250.513C197.142 248.725 195.105 247.827 191.047 246.018C187.644 247.841 185.929 248.761 182.453 250.645C186.509 252.463 188.545 253.368 192.624 255.17C195.445 256.416 196.859 257.04 199.69 258.28C200.949 258.832 201.58 259.109 202.844 259.661C205.677 260.899 207.095 261.516 209.932 262.751C211.196 263.301 211.829 263.574 213.093 264.122C215.93 265.354 217.351 265.969 220.19 267.197C221.456 267.745 222.087 268.018 223.353 268.565C224.773 269.178 225.483 269.485 226.902 270.098C228.322 270.711 229.031 271.019 230.449 271.632C233.822 269.692 235.529 268.729 238.97 266.803C237.557 266.198 236.849 265.894 235.436 265.289C234.02 264.682 233.312 264.381 231.897 263.774H231.893Z" fill="url(#paint34_linear_2395_1211)"/>
<path d="M233.605 272.997C236.441 274.223 237.858 274.836 240.687 276.062C244.03 274.104 245.73 273.128 249.172 271.176C246.353 269.966 244.942 269.364 242.117 268.154C238.675 270.088 236.97 271.053 233.605 272.999V272.997Z" fill="url(#paint35_linear_2395_1211)"/>
<path d="M243.836 277.427C246.663 278.653 248.074 279.266 250.891 280.494C254.202 278.516 255.894 277.528 259.334 275.544C256.529 274.334 255.124 273.729 252.309 272.521C248.869 274.484 247.17 275.463 243.838 277.427H243.836Z" fill="url(#paint36_linear_2395_1211)"/>
<path d="M254.027 281.862C256.84 283.092 258.244 283.707 261.044 284.939C264.32 282.938 266.005 281.937 269.438 279.922C266.652 278.708 265.255 278.103 262.454 276.894C259.016 278.886 257.326 279.878 254.025 281.864L254.027 281.862Z" fill="url(#paint37_linear_2395_1211)"/>
<path d="M264.163 286.315C266.957 287.549 268.351 288.168 271.129 289.406C274.369 287.381 276.045 286.363 279.473 284.314C276.708 283.096 275.321 282.487 272.54 281.273C269.109 283.301 267.426 284.306 264.163 286.315Z" fill="url(#paint38_linear_2395_1211)"/>
<path d="M274.221 290.788C276.992 292.03 278.375 292.653 281.127 293.901C284.328 291.85 285.994 290.818 289.416 288.732C286.68 287.506 285.305 286.893 282.549 285.673C279.123 287.735 277.451 288.754 274.221 290.788Z" fill="url(#paint39_linear_2395_1211)"/>
<path d="M194.632 225.124C188.25 222.375 185.069 220.983 178.744 218.146C175.709 219.848 174.184 220.691 171.084 222.389C177.29 225.259 180.414 226.674 186.691 229.463C189.894 227.73 191.478 226.866 194.632 225.122V225.124Z" fill="url(#paint40_linear_2395_1211)"/>
<path d="M204.284 229.235C201.397 228.017 199.955 227.404 197.075 226.172C193.902 227.924 192.311 228.79 189.094 230.529C191.927 231.782 193.346 232.405 196.188 233.643C199.447 231.885 201.063 231.009 204.284 229.235Z" fill="url(#paint41_linear_2395_1211)"/>
<path d="M214.739 233.601C211.843 232.403 210.395 231.8 207.503 230.588C204.26 232.371 202.634 233.253 199.358 235.019C202.205 236.251 203.631 236.864 206.486 238.086C209.802 236.299 211.451 235.407 214.741 233.601H214.739Z" fill="url(#paint42_linear_2395_1211)"/>
<path d="M225.216 237.899C222.314 236.718 220.864 236.125 217.966 234.934C214.656 236.75 212.998 237.646 209.667 239.443C212.524 240.659 213.954 241.264 216.817 242.467C220.184 240.651 221.863 239.74 225.218 237.899H225.216Z" fill="url(#paint43_linear_2395_1211)"/>
<path d="M235.704 242.14C232.803 240.974 231.351 240.388 228.449 239.212C225.076 241.065 223.389 241.98 220.006 243.807C222.87 245.006 224.303 245.605 227.169 246.797C230.584 244.946 232.291 244.019 235.707 242.14H235.704Z" fill="url(#paint44_linear_2395_1211)"/>
<path d="M246.187 246.33C243.288 245.176 241.838 244.598 238.936 243.435C235.504 245.326 233.79 246.259 230.358 248.12C233.223 249.307 234.657 249.9 237.522 251.08C240.982 249.194 242.717 248.247 246.187 246.33Z" fill="url(#paint45_linear_2395_1211)"/>
<path d="M256.654 250.481C253.762 249.338 252.315 248.763 249.417 247.614C245.931 249.546 244.187 250.499 240.713 252.395C243.577 253.572 245.008 254.159 247.868 255.332C251.37 253.408 253.13 252.441 256.654 250.481Z" fill="url(#paint46_linear_2395_1211)"/>
<path d="M267.087 254.6C264.205 253.463 262.764 252.894 259.874 251.753C256.335 253.728 254.568 254.701 251.053 256.635C253.911 257.806 255.338 258.389 258.189 259.556C261.73 257.594 263.514 256.605 267.087 254.6Z" fill="url(#paint47_linear_2395_1211)"/>
<path d="M277.472 258.698C274.607 257.568 273.169 256.999 270.294 255.866C266.704 257.885 264.915 258.881 261.362 260.855C264.209 262.02 265.631 262.603 268.468 263.764C272.045 261.759 273.851 260.75 277.472 258.698Z" fill="url(#paint48_linear_2395_1211)"/>
<path d="M287.8 262.783C284.953 261.654 283.525 261.087 280.664 259.958C277.028 262.024 275.216 263.042 271.626 265.061C274.46 266.224 275.873 266.804 278.692 267.966C282.304 265.918 284.132 264.885 287.8 262.783Z" fill="url(#paint49_linear_2395_1211)"/>
<path d="M298.049 266.865C295.224 265.734 293.808 265.17 290.967 264.041C287.284 266.157 285.452 267.197 281.829 269.26C284.641 270.424 286.045 271.004 288.844 272.167C292.49 270.074 294.336 269.016 298.049 266.865Z" fill="url(#paint50_linear_2395_1211)"/>
<path d="M291.958 273.466C297.401 275.738 300.109 276.877 305.48 279.163C309.176 276.988 311.055 275.888 314.838 273.65C309.419 271.435 306.687 270.331 301.191 268.125C297.464 270.292 295.612 271.358 291.958 273.466Z" fill="url(#paint51_linear_2395_1211)"/>
<path d="M185.614 232.158C178.51 228.98 174.975 227.37 167.968 224.092C164.83 225.8 163.24 226.657 159.98 228.409C166.892 231.713 170.385 233.34 177.408 236.552C180.734 234.776 182.37 233.902 185.612 232.158H185.614Z" fill="url(#paint52_linear_2395_1211)"/>
<path d="M195.069 236.346C192.238 235.104 190.825 234.48 188.006 233.224C184.75 234.972 183.108 235.848 179.775 237.628C182.564 238.897 183.963 239.528 186.764 240.786C190.121 238.994 191.779 238.11 195.069 236.344V236.346Z" fill="url(#paint53_linear_2395_1211)"/>
<path d="M205.321 240.801C202.478 239.577 201.059 238.962 198.224 237.724C194.917 239.498 193.253 240.384 189.886 242.182C192.693 243.435 194.1 244.058 196.917 245.298C200.302 243.487 201.981 242.591 205.319 240.799L205.321 240.801Z" fill="url(#paint54_linear_2395_1211)"/>
<path d="M215.61 245.201C212.759 243.991 211.335 243.384 208.49 242.164C205.135 243.965 203.451 244.865 200.06 246.681C202.881 247.92 204.294 248.535 207.121 249.763C210.53 247.93 212.227 247.021 215.612 245.199L215.61 245.201Z" fill="url(#paint55_linear_2395_1211)"/>
<path d="M225.92 249.552C223.066 248.354 221.639 247.754 218.787 246.548C215.39 248.379 213.687 249.291 210.272 251.132C213.101 252.358 214.519 252.967 217.352 254.185C220.781 252.328 222.494 251.405 225.92 249.552Z" fill="url(#paint56_linear_2395_1211)"/>
<path d="M236.235 253.863C233.381 252.676 231.954 252.079 229.1 250.883C225.663 252.747 223.944 253.673 220.51 255.538C223.345 256.754 224.763 257.359 227.598 258.571C231.044 256.687 232.773 255.749 236.237 253.863H236.235Z" fill="url(#paint57_linear_2395_1211)"/>
<path d="M246.538 258.146C243.69 256.965 242.265 256.374 239.411 255.187C235.937 257.084 234.204 258.027 230.752 259.918C233.588 261.126 235.003 261.729 237.836 262.933C241.296 261.021 243.037 260.066 246.536 258.146H246.538Z" fill="url(#paint58_linear_2395_1211)"/>
<path d="M256.814 262.404C253.975 261.227 252.554 260.638 249.708 259.459C246.2 261.393 244.455 262.352 240.991 264.272C243.822 265.475 245.235 266.076 248.06 267.276C251.53 265.334 253.286 264.363 256.814 262.402V262.404Z" fill="url(#paint59_linear_2395_1211)"/>
<path d="M267.05 266.653C264.225 265.477 262.81 264.891 259.975 263.715C256.436 265.686 254.677 266.663 251.205 268.615C254.026 269.815 255.435 270.416 258.248 271.615C261.726 269.641 263.491 268.649 267.052 266.651L267.05 266.653Z" fill="url(#paint60_linear_2395_1211)"/>
<path d="M277.23 270.895C274.423 269.722 273.016 269.133 270.195 267.959C266.626 269.97 264.858 270.968 261.376 272.952C264.185 274.152 265.584 274.753 268.381 275.954C271.867 273.946 273.64 272.936 277.23 270.895Z" fill="url(#paint61_linear_2395_1211)"/>
<path d="M271.493 277.294C280.122 281.014 284.409 282.878 292.872 286.638C296.366 284.536 298.164 283.474 301.812 281.324C293.321 277.656 289.017 275.839 280.354 272.204C276.759 274.257 274.981 275.275 271.493 277.294Z" fill="url(#paint62_linear_2395_1211)"/>
<path d="M370.657 234.877L370.246 234.733C328.452 220.202 286.094 205.055 245.13 190.409C238.192 187.928 231.254 185.446 224.314 182.968L223.91 182.824L224.057 182.42C228.472 170.267 232.971 157.915 237.323 145.971C244.552 126.129 252.028 105.611 259.322 85.4096L259.453 85.0454L259.83 85.1405C280.243 90.3235 300.983 95.6501 321.039 100.801C349.311 108.061 378.545 115.567 407.337 122.799L407.784 122.912L407.636 123.349C396.419 156.828 384.365 193.174 370.788 234.464L370.653 234.877H370.657ZM225.008 182.308C231.812 184.74 238.615 187.172 245.418 189.605C286.245 204.204 328.46 219.297 370.115 233.784C383.579 192.844 395.544 156.764 406.682 123.517C378.032 116.319 348.953 108.852 320.826 101.63C300.892 96.5119 280.286 91.2197 259.995 86.067C252.742 106.15 245.312 126.544 238.126 146.266C233.822 158.079 229.372 170.29 225.006 182.31L225.008 182.308Z" fill="#D0D2D3"/>
<path d="M403.584 134.146C373.812 126.606 343.586 118.767 314.358 111.185C295.224 106.222 275.437 101.09 255.963 96.0911L256.176 95.2637C275.649 100.265 295.436 105.395 314.572 110.359C343.801 117.94 374.024 125.779 403.795 133.319L403.584 134.148V134.146Z" fill="#D0D2D3"/>
<path d="M399.855 145.257C369.102 137.272 337.886 128.963 307.699 120.928C289.542 116.095 270.766 111.098 252.289 106.222L252.507 105.395C270.986 110.271 289.762 115.267 307.919 120.1C338.106 128.136 369.32 136.444 400.072 144.427L399.857 145.255L399.855 145.257Z" fill="#D0D2D3"/>
<path d="M396.114 156.454C364.372 147.907 332.157 139.008 301.003 130.4C283.875 125.668 266.163 120.774 248.734 115.996L248.96 115.17C266.392 119.949 284.102 124.842 301.232 129.574C332.383 138.18 364.596 147.08 396.337 155.627L396.114 156.452V156.454Z" fill="#D0D2D3"/>
<path d="M392.367 167.706C359.573 158.481 326.296 148.876 294.115 139.586C278.108 134.965 261.554 130.187 245.266 125.514L245.5 124.692C261.791 129.366 278.344 134.144 294.352 138.765C326.531 148.054 359.806 157.66 392.597 166.885L392.367 167.708V167.706Z" fill="#D0D2D3"/>
<path d="M388.624 178.988C354.659 168.976 320.199 158.554 286.876 148.475C272.12 144.012 256.861 139.396 241.846 134.878L242.093 134.059C257.108 138.579 272.367 143.193 287.125 147.656C320.446 157.735 354.904 168.157 388.866 178.167L388.624 178.986V178.988Z" fill="#D0D2D3"/>
<path d="M384.891 190.269C349.622 179.385 313.85 168.056 279.254 157.1C265.88 152.863 252.05 148.486 238.443 144.193L238.7 143.377C252.307 147.67 266.137 152.05 279.511 156.286C314.105 167.241 349.877 178.57 385.142 189.454L384.889 190.271L384.891 190.269Z" fill="#D0D2D3"/>
<path d="M381.178 201.517C344.423 189.686 307.148 177.374 271.101 165.467C259.277 161.56 247.051 157.522 235.021 153.559L235.288 152.748C247.318 156.711 259.544 160.749 271.368 164.656C307.413 176.561 344.686 188.873 381.439 200.704L381.178 201.517Z" fill="#D0D2D3"/>
<path d="M377.492 212.706C339.107 199.905 300.19 186.579 262.551 173.694C252.218 170.156 241.883 166.618 231.547 163.086L231.824 162.276C242.162 165.809 252.495 169.347 262.83 172.885C300.465 185.77 339.382 199.093 377.763 211.895L377.492 212.706Z" fill="#D0D2D3"/>
<path d="M373.84 223.807C333.722 210.066 293.054 195.76 253.727 181.924C245.147 178.906 236.566 175.887 227.984 172.871L228.267 172.064C236.85 175.08 245.43 178.099 254.01 181.117C293.337 194.952 334.003 209.257 374.117 222.998L373.84 223.807Z" fill="#D0D2D3"/>
<path d="M235.098 186.134L234.295 185.843C239.264 172.115 244.327 158.164 249.225 144.67C255.963 126.109 262.931 106.914 269.746 88.0234L270.549 88.3127C263.732 107.204 256.766 126.398 250.028 144.959C245.13 158.453 240.065 172.404 235.098 186.132V186.134Z" fill="#D0D2D3"/>
<path d="M246.309 190.135L245.504 189.846C251.605 172.881 257.825 155.639 263.839 138.963C269.52 123.218 275.394 106.934 281.155 90.916L281.96 91.2053C276.199 107.226 270.325 123.507 264.644 139.254C258.628 155.928 252.408 173.172 246.309 190.135Z" fill="#D0D2D3"/>
<path d="M257.658 194.198L256.853 193.91C265.821 168.76 274.972 143.201 283.821 118.484C286.761 110.274 289.699 102.063 292.637 93.8535L293.442 94.1408C290.504 102.352 287.564 110.562 284.626 118.771C275.777 143.488 266.626 169.047 257.658 194.198Z" fill="#D0D2D3"/>
<path d="M269.108 198.304L268.303 198.019C279.231 167.071 290.963 133.97 304.17 96.8232L304.975 97.1105C291.768 134.255 280.035 167.358 269.108 198.304Z" fill="#D0D2D3"/>
<path d="M280.63 202.437L279.823 202.156C292.526 165.796 305.106 130.019 315.737 99.8174L316.543 100.101C305.913 130.302 293.333 166.078 280.63 202.437Z" fill="#D0D2D3"/>
<path d="M292.191 206.581L291.384 206.302C302.029 175.485 313.45 142.605 327.324 102.822L328.131 103.103C314.257 142.886 302.837 175.766 292.193 206.581H292.191Z" fill="#D0D2D3"/>
<path d="M303.757 210.718L302.948 210.44C316.264 171.536 328.027 137.314 338.907 105.826L339.713 106.105C328.834 137.593 317.071 171.813 303.755 210.718H303.757Z" fill="#D0D2D3"/>
<path d="M315.298 214.832L314.489 214.557C328.104 174.354 339.539 140.755 350.475 108.818L351.284 109.095C340.348 141.03 328.913 174.629 315.298 214.83V214.832Z" fill="#D0D2D3"/>
<path d="M326.78 218.907L325.969 218.636C339.6 177.995 351.052 144.045 362.01 111.792L362.819 112.067C351.861 144.318 340.409 178.269 326.78 218.907Z" fill="#D0D2D3"/>
<path d="M338.171 222.925L337.36 222.656C350.807 182.234 362.627 146.93 373.494 114.731L374.303 115.005C363.436 147.203 351.616 182.505 338.171 222.925Z" fill="#D0D2D3"/>
<path d="M349.438 226.867L348.627 226.598C362.083 185.893 373.949 150.247 384.909 117.622L385.72 117.895C374.762 150.521 362.894 186.164 349.44 226.867H349.438Z" fill="#D0D2D3"/>
<path d="M360.55 230.721L359.739 230.454C373.231 189.476 385.17 153.496 396.238 120.462L397.048 120.733C385.981 153.767 374.042 189.743 360.55 230.721Z" fill="#D0D2D3"/>
<path d="M255.86 85.347C255.799 85.347 255.739 85.3389 255.68 85.3247C252.643 84.5722 251.13 84.1999 248.113 83.4595C247.711 83.3604 247.464 82.9537 247.563 82.5512C247.662 82.1486 248.066 81.9018 248.471 82.0009C251.488 82.7413 253.003 83.1136 256.04 83.8661C256.442 83.9653 256.687 84.3719 256.588 84.7745C256.503 85.1164 256.198 85.345 255.86 85.345V85.347Z" fill="#A6A8AB"/>
<path d="M252.206 95.458C252.145 95.458 252.084 95.4499 252.024 95.4358C248.991 94.6751 247.48 94.2988 244.469 93.5523C244.067 93.4532 243.822 93.0466 243.921 92.644C244.02 92.2414 244.429 91.9966 244.829 92.0958C247.84 92.8422 249.353 93.2185 252.388 93.9792C252.79 94.0803 253.035 94.487 252.934 94.8895C252.849 95.2294 252.543 95.458 252.206 95.458Z" fill="#A6A8AB"/>
<path d="M248.701 105.132C248.639 105.132 248.576 105.124 248.513 105.108C245.488 104.329 243.98 103.943 240.979 103.178C240.576 103.075 240.334 102.668 240.437 102.265C240.54 101.863 240.948 101.622 241.349 101.723C244.352 102.488 245.86 102.874 248.887 103.653C249.288 103.756 249.531 104.165 249.427 104.568C249.34 104.905 249.035 105.132 248.701 105.132Z" fill="#A6A8AB"/>
<path d="M245.31 114.462C245.245 114.462 245.181 114.454 245.116 114.436C242.099 113.631 240.596 113.23 237.608 112.439C237.207 112.334 236.968 111.923 237.074 111.521C237.179 111.12 237.589 110.882 237.992 110.987C240.983 111.778 242.485 112.178 245.504 112.985C245.905 113.093 246.143 113.503 246.036 113.904C245.947 114.24 245.644 114.46 245.312 114.46L245.31 114.462Z" fill="#A6A8AB"/>
<path d="M242.004 123.544C241.937 123.544 241.869 123.536 241.802 123.515C238.797 122.676 237.3 122.259 234.324 121.436C233.925 121.324 233.691 120.912 233.802 120.511C233.913 120.113 234.324 119.878 234.726 119.987C237.705 120.813 239.201 121.229 242.208 122.069C242.607 122.18 242.841 122.595 242.73 122.993C242.637 123.325 242.336 123.542 242.008 123.542L242.004 123.544Z" fill="#A6A8AB"/>
<path d="M238.75 132.465C238.679 132.465 238.609 132.455 238.54 132.435C235.547 131.557 234.059 131.122 231.094 130.262C230.696 130.147 230.467 129.73 230.583 129.332C230.698 128.933 231.114 128.705 231.513 128.82C234.477 129.682 235.968 130.117 238.96 130.995C239.359 131.112 239.585 131.529 239.47 131.925C239.375 132.253 239.076 132.465 238.75 132.465Z" fill="#A6A8AB"/>
<path d="M235.517 141.326C235.444 141.326 235.369 141.316 235.296 141.294C232.316 140.377 230.834 139.924 227.885 139.024C227.489 138.902 227.266 138.484 227.386 138.087C227.507 137.691 227.926 137.468 228.322 137.587C231.27 138.488 232.755 138.941 235.735 139.857C236.132 139.979 236.354 140.399 236.233 140.796C236.134 141.12 235.836 141.326 235.515 141.326H235.517Z" fill="#A6A8AB"/>
<path d="M232.271 150.215C232.195 150.215 232.118 150.203 232.041 150.179C229.072 149.226 227.596 148.752 224.662 147.816C224.268 147.69 224.049 147.268 224.175 146.873C224.3 146.479 224.723 146.26 225.117 146.385C228.053 147.322 229.529 147.796 232.498 148.75C232.892 148.878 233.109 149.301 232.983 149.695C232.882 150.013 232.587 150.217 232.269 150.217L232.271 150.215Z" fill="#A6A8AB"/>
<path d="M228.985 159.23C228.906 159.23 228.825 159.218 228.746 159.192C225.79 158.204 224.318 157.713 221.398 156.744C221.005 156.612 220.791 156.189 220.923 155.795C221.054 155.402 221.479 155.188 221.871 155.319C224.793 156.291 226.265 156.78 229.224 157.767C229.616 157.899 229.828 158.324 229.697 158.716C229.592 159.03 229.298 159.23 228.985 159.23Z" fill="#A6A8AB"/>
<path d="M225.622 168.459C225.541 168.459 225.458 168.445 225.377 168.419C222.429 167.403 220.963 166.899 218.051 165.9C217.659 165.766 217.45 165.34 217.584 164.947C217.717 164.555 218.144 164.346 218.536 164.48C221.448 165.479 222.914 165.983 225.865 166.998C226.257 167.134 226.465 167.561 226.33 167.953C226.223 168.265 225.931 168.459 225.62 168.459H225.622Z" fill="#A6A8AB"/>
<path d="M222.156 177.999C222.073 177.999 221.99 177.985 221.907 177.957C218.965 176.921 217.503 176.407 214.599 175.39C214.209 175.252 214.003 174.825 214.14 174.433C214.278 174.04 214.704 173.836 215.097 173.974C218.001 174.991 219.465 175.505 222.407 176.541C222.797 176.678 223.003 177.107 222.866 177.498C222.757 177.805 222.468 177.999 222.158 177.999H222.156Z" fill="#A6A8AB"/>
<path d="M228.52 193.573C228.172 193.573 227.861 193.33 227.786 192.976C227.701 192.569 227.962 192.173 228.366 192.088C231.618 191.408 233.222 191.086 236.39 190.461C236.797 190.38 237.191 190.645 237.272 191.052C237.353 191.459 237.088 191.853 236.682 191.934C233.519 192.557 231.919 192.879 228.676 193.557C228.623 193.567 228.573 193.573 228.522 193.573H228.52Z" fill="#A6A8AB"/>
<path d="M239.694 197.574C239.345 197.574 239.031 197.327 238.96 196.971C238.88 196.565 239.142 196.17 239.549 196.087C242.821 195.43 244.445 195.112 247.658 194.497C248.064 194.42 248.459 194.685 248.535 195.094C248.614 195.501 248.347 195.895 247.939 195.972C244.73 196.587 243.11 196.903 239.844 197.56C239.794 197.57 239.745 197.574 239.694 197.574Z" fill="#A6A8AB"/>
<path d="M251.017 201.641C250.665 201.641 250.351 201.392 250.28 201.034C250.202 200.627 250.467 200.232 250.873 200.154C254.175 199.508 255.809 199.197 259.045 198.588C259.451 198.513 259.843 198.78 259.92 199.187C259.997 199.593 259.728 199.986 259.322 200.063C256.09 200.671 254.458 200.981 251.16 201.626C251.112 201.636 251.063 201.641 251.015 201.641H251.017Z" fill="#A6A8AB"/>
<path d="M262.458 205.76C262.107 205.76 261.791 205.509 261.722 205.151C261.643 204.744 261.91 204.35 262.319 204.273C265.538 203.656 267.192 203.344 270.533 202.721C270.941 202.644 271.332 202.915 271.409 203.322C271.485 203.729 271.216 204.121 270.808 204.198C267.471 204.819 265.817 205.13 262.602 205.747C262.553 205.756 262.507 205.762 262.46 205.762L262.458 205.76Z" fill="#A6A8AB"/>
<path d="M273.981 209.911C273.627 209.911 273.313 209.66 273.245 209.3C273.168 208.893 273.435 208.5 273.841 208.422C277.222 207.78 278.864 207.473 282.075 206.874C282.484 206.797 282.874 207.066 282.951 207.475C283.028 207.881 282.759 208.274 282.35 208.351C279.143 208.948 277.499 209.255 274.122 209.896C274.076 209.904 274.027 209.911 273.981 209.911Z" fill="#A6A8AB"/>
<path d="M285.555 214.076C285.202 214.076 284.888 213.825 284.819 213.465C284.742 213.059 285.009 212.664 285.418 212.587C288.581 211.988 290.225 211.679 293.256 211.108L293.652 211.034C294.059 210.957 294.451 211.226 294.528 211.632C294.605 212.039 294.336 212.432 293.929 212.508L293.533 212.583C290.504 213.154 288.86 213.461 285.697 214.062C285.65 214.07 285.602 214.076 285.557 214.076H285.555Z" fill="#A6A8AB"/>
<path d="M297.147 218.239C296.793 218.239 296.479 217.988 296.411 217.63C296.334 217.224 296.601 216.829 297.007 216.752L305.221 215.185C305.63 215.108 306.022 215.375 306.099 215.781C306.176 216.188 305.909 216.582 305.502 216.659L297.288 218.227C297.24 218.235 297.193 218.241 297.147 218.241V218.239Z" fill="#A6A8AB"/>
<path d="M308.72 222.385C308.368 222.385 308.054 222.136 307.984 221.778C307.905 221.371 308.17 220.976 308.576 220.898C311.854 220.26 313.49 219.943 316.752 219.303C317.16 219.225 317.553 219.49 317.631 219.896C317.71 220.303 317.445 220.697 317.039 220.776C313.775 221.417 312.139 221.735 308.861 222.37C308.813 222.38 308.764 222.385 308.718 222.385H308.72Z" fill="#A6A8AB"/>
<path d="M320.242 226.494C319.892 226.494 319.578 226.247 319.508 225.889C319.427 225.482 319.692 225.088 320.096 225.007C323.297 224.369 324.927 224.044 328.213 223.378C328.62 223.295 329.016 223.558 329.097 223.965C329.18 224.371 328.917 224.768 328.51 224.849C325.222 225.516 323.59 225.842 320.387 226.479C320.337 226.489 320.288 226.494 320.24 226.494H320.242Z" fill="#A6A8AB"/>
<path d="M331.681 230.548C331.333 230.548 331.02 230.303 330.947 229.949C330.864 229.542 331.125 229.146 331.531 229.063C334.698 228.411 336.304 228.08 339.574 227.39C339.978 227.305 340.376 227.564 340.463 227.968C340.548 228.373 340.289 228.771 339.885 228.858C336.613 229.548 335.006 229.882 331.835 230.533C331.784 230.544 331.734 230.55 331.683 230.55L331.681 230.548Z" fill="#A6A8AB"/>
<path d="M343.001 234.533C342.655 234.533 342.344 234.292 342.269 233.938C342.182 233.534 342.441 233.133 342.846 233.048C346.158 232.34 347.717 232.002 350.795 231.322C351.199 231.233 351.6 231.488 351.689 231.893C351.778 232.298 351.523 232.698 351.118 232.787C348.037 233.467 346.475 233.807 343.159 234.515C343.106 234.527 343.054 234.531 343.001 234.531V234.533Z" fill="#A6A8AB"/>
<path d="M354.172 238.429C353.828 238.429 353.519 238.193 353.44 237.843C353.349 237.438 353.604 237.038 354.008 236.947C357.244 236.222 358.782 235.872 361.846 235.158C362.248 235.063 362.653 235.316 362.746 235.719C362.839 236.123 362.588 236.526 362.186 236.619C359.116 237.333 357.577 237.685 354.336 238.411C354.281 238.423 354.226 238.429 354.172 238.429Z" fill="#A6A8AB"/>
<path opacity="0.34" d="M239.088 143.167C242.663 141.965 244.461 141.359 248.072 140.129C250.038 142.55 251.025 143.77 253 146.23C257.809 143.222 260.226 141.702 265.083 138.601C266.691 140.218 267.497 141.031 269.111 142.663C274.444 139.904 277.123 138.498 282.506 135.613C284.073 137.972 284.86 139.156 286.431 141.535C299.276 135.022 305.767 131.583 318.806 124.311C319.101 131.173 319.265 134.579 319.597 141.417C321.961 141.759 323.144 141.929 325.508 142.267C325.295 149.77 325.198 153.519 324.998 161.063C327.176 160.385 328.266 160.043 330.444 159.351C331.269 163.195 331.681 165.125 332.502 169.003C344.431 164.11 350.394 161.524 362.283 156.092C365.567 163.027 367.195 166.525 370.4 173.583C373.827 171.724 375.54 170.781 378.962 168.874C382.367 169.938 387.964 169.865 391.335 170.909L370.39 234.333L224.461 182.57L239.088 143.169V143.167Z" fill="#35F9C5"/>
<path d="M301.086 164.68L300.503 163.377C299.276 160.632 298.609 159.151 297.557 156.828C292.528 158.299 289.798 159.072 284.749 160.482L283.553 160.816L283.272 159.606C282.676 157.033 282.342 155.6 281.806 153.316C280.575 153.385 279.699 153.432 278.239 153.511L277.386 153.555L277.072 152.76C276.326 150.873 275.877 149.738 275.252 148.17C267.631 152.962 262.804 155.922 256.248 159.94C254.367 161.093 252.347 162.331 250.086 163.719L249.613 164.008L249.088 163.832C246.912 163.104 245.781 162.726 243.702 162.032C241.703 162.327 240.617 162.489 238.538 162.798L238.093 162.865L237.717 162.62C235.672 161.293 234.653 160.632 232.625 159.323L233.911 157.326C235.814 158.554 236.829 159.212 238.633 160.383C240.461 160.112 241.537 159.952 243.446 159.669L243.915 159.6L244.184 159.689C246.259 160.381 247.381 160.757 249.314 161.405C251.387 160.132 253.255 158.987 255.004 157.913C261.892 153.691 266.869 150.64 275.192 145.398L276.399 144.638L276.927 145.963C277.756 148.042 278.219 149.21 278.963 151.089C280.263 151.02 281.149 150.97 282.666 150.885L283.661 150.828L283.887 151.799C284.465 154.263 284.797 155.683 285.301 157.856C289.905 156.567 292.643 155.787 297.875 154.255L298.863 153.966L299.288 154.905C300.406 157.373 301.059 158.819 302.081 161.099C319.977 148.738 329 142.147 346.88 128.405L348.34 127.284L349.933 134.084C350.318 135.724 350.688 137.302 351.163 139.335C353.086 139.24 354.291 139.178 356.423 139.062L357.359 139.012L357.624 139.912C358.17 141.763 358.487 142.841 358.956 144.446C362.101 143.956 363.961 143.655 367.45 143.08L368.418 142.92L368.756 143.843C370.43 148.411 371.336 150.901 372.903 155.279C381.716 152.016 386.341 150.213 395.06 146.725L395.507 146.547L398.989 147.974L398.09 150.173L395.495 149.111C386.68 152.635 382.027 154.443 372.6 157.925L371.476 158.34L371.071 157.211C369.365 152.436 368.459 149.936 366.865 145.584C363.634 146.117 361.769 146.414 358.291 146.954L357.262 147.114L356.969 146.115C356.415 144.221 356.097 143.139 355.61 141.486C353.715 141.587 352.498 141.65 350.287 141.757L349.298 141.805L349.072 140.84C348.484 138.326 348.059 136.515 347.616 134.626L346.862 131.409C329.522 144.717 320.47 151.293 302.251 163.865L301.076 164.676L301.086 164.68Z" fill="#ED4848"/>
<path d="M369.844 175.234L369.318 174.073C366.212 167.231 364.594 163.754 361.711 157.658C350.482 162.781 344.623 165.311 332.953 170.1L331.637 170.64L331.342 169.246C330.598 165.724 330.189 163.818 329.558 160.875C328.127 161.328 327.093 161.652 325.352 162.194L323.769 162.685L323.872 158.771C324.026 152.975 324.121 149.354 324.292 143.289C322.57 143.042 321.417 142.876 319.427 142.589L318.459 142.449L318.41 141.472C318.117 135.449 317.951 132 317.702 126.281C305.941 132.828 299.569 136.202 286.967 142.591L286.023 143.068L285.44 142.186C284.082 140.129 283.311 138.968 282.114 137.165C277.243 139.773 274.583 141.162 269.655 143.714L268.881 144.114L268.266 143.493C266.895 142.105 266.108 141.31 264.915 140.111C260.533 142.906 258.121 144.422 253.63 147.232L252.736 147.792L252.075 146.969C250.321 144.786 249.365 143.598 247.672 141.514C244.609 142.558 242.813 143.163 239.466 144.288L238.71 142.036C242.328 140.821 244.133 140.212 247.688 139L248.471 138.733L248.993 139.374C250.782 141.577 251.747 142.771 253.264 144.658C257.445 142.04 259.86 140.521 264.442 137.594L265.247 137.08L265.92 137.758C267.314 139.158 268.104 139.955 269.338 141.201C274.07 138.751 276.737 137.351 281.942 134.561L282.894 134.052L283.493 134.95C284.856 136.999 285.626 138.162 286.838 139.991C299.363 133.635 305.709 130.25 318.228 123.267L319.908 122.328L319.991 124.252C320.274 130.831 320.44 134.329 320.735 140.376C322.501 140.63 323.658 140.796 325.676 141.086L326.725 141.235L326.695 142.295C326.505 149.01 326.408 152.708 326.244 158.832L326.228 159.43C327.504 159.032 328.501 158.716 330.082 158.213L331.328 157.816L331.603 159.095C332.304 162.364 332.707 164.241 333.366 167.357C344.492 162.781 350.328 160.242 361.788 155.006L362.853 154.521L363.355 155.579C366.39 161.99 368.008 165.451 370.952 171.927C373.656 170.458 375.322 169.539 378.384 167.832L378.829 167.583L379.316 167.735C380.917 168.235 383.16 168.479 385.328 168.716C387.576 168.961 389.902 169.216 391.688 169.768L390.986 172.036C389.419 171.55 387.208 171.31 385.071 171.075C382.992 170.848 380.851 170.614 379.108 170.144C375.923 171.919 374.24 172.843 370.964 174.619L369.844 175.226V175.234Z" fill="#459FE8"/>
<path d="M142.285 283.954C134.241 293.747 110.409 317.04 62.9184 321.92C62.1641 322.003 61.4038 321.835 60.7183 321.432C60.2612 321.165 59.8467 320.771 59.5414 320.346L25.4414 272.016C25.5081 271.9 25.6477 271.767 25.8883 271.724C67.8201 266.641 89.8376 245.725 97.3742 236.957C97.9526 236.281 98.8201 236.267 99.3924 236.601C99.5299 236.682 99.6532 236.785 99.7422 236.896L142.303 282.4C142.469 282.588 142.598 282.786 142.679 283.019C142.647 283.339 142.505 283.685 142.287 283.956L142.285 283.954Z" fill="url(#paint63_linear_2395_1211)"/>
<path d="M121.163 291.163C112.324 281.328 106.876 276.175 97.1619 265.609C96.9253 265.352 96.9394 264.951 97.1922 264.716C97.2408 264.672 97.265 264.648 97.3136 264.603C97.5643 264.369 97.9606 264.385 98.1972 264.642C107.94 275.21 113.424 280.379 122.308 290.263C122.524 290.504 122.471 290.876 122.194 291.095C122.14 291.137 122.114 291.157 122.059 291.2C121.78 291.418 121.377 291.402 121.163 291.163Z" fill="#D0D0DD"/>
<path d="M123.877 289.011C114.939 279.054 109.402 273.859 99.6208 263.284C99.3822 263.027 99.3903 262.623 99.637 262.384C99.6835 262.338 99.7077 262.315 99.7543 262.269C99.9989 262.03 100.391 262.046 100.63 262.303C110.437 272.886 116.009 278.099 124.987 288.111C125.203 288.354 125.161 288.73 124.892 288.948C124.839 288.991 124.815 289.011 124.763 289.054C124.494 289.272 124.095 289.252 123.877 289.011Z" fill="#D0D0DD"/>
<path d="M129.917 283.907C117.527 269.977 108.951 262.675 96.6885 248.225C96.4398 247.932 96.4539 247.474 96.7148 247.209C96.9777 246.944 97.3922 246.969 97.641 247.262C109.887 261.7 118.516 269.026 130.946 283.033C131.199 283.316 131.173 283.743 130.89 283.984C130.606 284.223 130.17 284.188 129.917 283.907Z" fill="#D0D0DD"/>
<path d="M118.492 293.211C109.754 283.474 104.395 278.352 94.7515 267.779C94.517 267.523 94.5392 267.126 94.798 266.897C94.8466 266.853 94.8729 266.831 94.9214 266.786C95.1782 266.558 95.5806 266.578 95.8152 266.835C105.491 277.403 110.889 282.535 119.673 292.315C119.885 292.551 119.824 292.924 119.539 293.14C119.485 293.183 119.456 293.203 119.402 293.245C119.115 293.462 118.706 293.448 118.494 293.211H118.492Z" fill="#D0D0DD"/>
<path d="M115.693 295.185C103.861 281.953 95.9649 274.818 83.5912 259.88C83.3425 259.58 83.3849 259.139 83.6802 258.896C83.9754 258.654 84.4183 258.696 84.667 258.996C97.0467 273.883 105.012 281.024 116.909 294.299C117.147 294.566 117.068 294.983 116.735 295.226C116.399 295.469 115.932 295.451 115.693 295.185Z" fill="#D0D0DD"/>
<path d="M112.86 297.184C101.18 284.022 93.4414 276.891 81.0879 261.809C80.8392 261.508 80.8877 261.077 81.1931 260.848C81.4964 260.622 81.9453 260.679 82.194 260.98C94.5576 275.993 102.365 283.124 114.112 296.312C114.349 296.577 114.26 296.99 113.914 297.229C113.568 297.469 113.095 297.449 112.86 297.184Z" fill="#D0D0DD"/>
<path d="M107.19 300.888C95.811 287.733 88.3815 280.545 76.0725 265.061C75.8258 264.749 75.8905 264.349 76.2121 264.16C76.5336 263.974 76.9987 264.069 77.2454 264.377C89.5645 279.752 97.0668 286.92 108.514 300.059C108.745 300.322 108.634 300.725 108.27 300.953C107.904 301.182 107.418 301.152 107.19 300.886V300.888Z" fill="#D0D0DD"/>
<path d="M104.102 302.729C92.8832 289.497 85.6155 282.238 73.3308 266.467C73.0841 266.151 73.1589 265.765 73.4926 265.605C73.8242 265.445 74.2974 265.564 74.5441 265.878C86.8389 281.516 94.1774 288.74 105.467 301.932C105.694 302.197 105.572 302.594 105.196 302.814C104.82 303.035 104.327 302.997 104.102 302.731V302.729Z" fill="#D0D0DD"/>
<path d="M100.921 304.487C89.8396 291.063 82.756 283.739 70.5016 267.636C70.2549 267.312 70.3378 266.944 70.6836 266.813C71.0273 266.683 71.5086 266.833 71.7553 267.152C84.0239 283.116 91.2006 290.429 102.331 303.731C102.553 303.998 102.42 304.388 102.033 304.599C101.647 304.809 101.146 304.756 100.923 304.487H100.921Z" fill="#D0D0DD"/>
<path d="M97.5582 306.057C86.5737 292.246 79.7812 285.026 67.6098 268.698C67.3651 268.37 67.452 268 67.8019 267.873C68.1517 267.747 68.635 267.911 68.8817 268.237C81.0977 284.476 88.0216 291.746 99.0566 305.396C99.277 305.669 99.1254 306.049 98.7128 306.231C98.3003 306.415 97.7786 306.332 97.5582 306.055V306.057Z" fill="#D0D0DD"/>
<path d="M91.9425 308.108C81.2108 293.83 74.9258 286.838 62.9889 270.296C62.7503 269.964 62.8454 269.596 63.2013 269.475C63.5552 269.355 64.0425 269.529 64.2831 269.859C76.2949 286.357 82.7254 293.419 93.5359 307.582C93.7523 307.866 93.5723 308.222 93.1335 308.367C92.6947 308.513 92.1588 308.394 91.9425 308.106V308.108Z" fill="#D0D0DD"/>
<path d="M88.2624 309.181C77.7228 294.676 71.7776 287.866 60.0187 271.263C59.7821 270.93 59.8832 270.564 60.2411 270.448C60.599 270.333 61.0864 270.511 61.323 270.845C73.1608 287.427 79.2556 294.32 89.8801 308.732C90.0925 309.021 89.9024 309.363 89.4575 309.489C89.0126 309.614 88.4747 309.472 88.2624 309.183V309.181Z" fill="#D0D0DD"/>
<path d="M84.5659 310.099C74.2185 295.414 68.611 288.809 57.03 272.188C56.7974 271.854 56.9026 271.492 57.2625 271.383C57.6225 271.274 58.1078 271.456 58.3403 271.789C69.9982 288.409 75.7533 295.105 86.1817 309.717C86.3899 310.01 86.1958 310.34 85.7509 310.447C85.304 310.555 84.7722 310.397 84.5639 310.101L84.5659 310.099Z" fill="#D0D0DD"/>
<path d="M80.9116 310.882C70.734 296.051 65.4541 289.669 54.0308 273.066C53.8023 272.732 53.9095 272.376 54.2694 272.271C54.6294 272.167 55.1147 272.354 55.3452 272.687C66.8332 289.303 72.2546 295.784 82.503 310.554C82.7093 310.85 82.5152 311.171 82.0764 311.262C81.6375 311.353 81.1158 311.182 80.9116 310.884V310.882Z" fill="#D0D0DD"/>
<path d="M76.0889 311.779C66.069 296.788 61.1996 290.731 49.9138 274.189C49.6873 273.857 49.7986 273.507 50.1605 273.41C50.5225 273.313 51.0038 273.507 51.2323 273.839C62.5484 290.403 67.5431 296.567 77.6014 311.511C77.8037 311.811 77.6237 312.12 77.2071 312.193C76.7906 312.266 76.2911 312.078 76.0889 311.779Z" fill="#D0D0DD"/>
<path d="M72.7785 312.329C62.791 297.237 58.1784 291.425 46.9149 274.945C46.6884 274.616 46.7976 274.27 47.1596 274.181C47.5215 274.092 48.0028 274.288 48.2273 274.62C59.4908 291.127 64.2105 297.047 74.2021 312.096C74.4023 312.398 74.2405 312.699 73.8482 312.764C73.4559 312.828 72.9787 312.63 72.7785 312.329Z" fill="#D0D0DD"/>
<path d="M69.7147 312.818C59.6665 297.629 55.2663 292.062 43.9259 275.647C43.6994 275.317 43.8046 274.979 44.1645 274.897C44.5245 274.814 45.0057 275.016 45.2322 275.346C56.5261 291.789 61.0113 297.463 71.021 312.61C71.2212 312.913 71.0857 313.211 70.7258 313.269C70.3658 313.326 69.9149 313.124 69.7127 312.818H69.7147Z" fill="#D0D0DD"/>
<path d="M66.9567 313.265C56.7305 297.971 52.484 292.646 40.9556 276.288C40.725 275.961 40.8261 275.629 41.1841 275.554C41.542 275.479 42.0233 275.685 42.2538 276.013C53.6831 292.394 57.9904 297.825 68.1215 313.071C68.3237 313.376 68.2206 313.672 67.901 313.726C67.5815 313.779 67.1589 313.571 66.9547 313.265H66.9567Z" fill="#D0D0DD"/>
<path d="M93.8474 255.398C92.7271 254.114 92.1771 253.471 91.0952 252.18C91.528 251.755 91.7443 251.541 92.173 251.116C94.8018 254.251 96.1911 255.815 99.0221 258.927C98.5914 259.353 98.375 259.568 97.9403 259.995C96.7735 258.71 96.1951 258.067 95.0566 256.778C92.9536 258.85 91.8778 259.888 89.6514 261.854C89.1681 261.3 88.9274 261.022 88.4502 260.468C90.6726 258.508 91.7484 257.47 93.8494 255.4L93.8474 255.398Z" fill="#D0D0DD"/>
<path d="M378.689 109.31C370.645 119.104 346.813 142.397 299.323 147.276C298.568 147.359 297.808 147.191 297.123 146.789C296.666 146.522 296.251 146.127 295.946 145.702L261.846 97.3722C261.912 97.2569 262.052 97.1234 262.293 97.0809C304.224 91.9971 326.242 71.081 333.779 62.3132C334.357 61.6375 335.224 61.6234 335.797 61.9572C335.934 62.0381 336.058 62.1413 336.147 62.2525L378.707 107.756C378.873 107.945 379.002 108.143 379.083 108.375C379.051 108.695 378.909 109.041 378.691 109.312L378.689 109.31Z" fill="url(#paint64_linear_2395_1211)"/>
<path d="M357.565 116.52C348.726 106.684 343.279 101.531 333.564 90.9651C333.328 90.7082 333.342 90.3076 333.595 90.0729C333.643 90.0284 333.667 90.0041 333.716 89.9596C333.967 89.725 334.363 89.7412 334.6 89.9981C344.342 100.566 349.827 105.735 358.71 115.62C358.926 115.86 358.874 116.233 358.597 116.451C358.542 116.494 358.516 116.514 358.461 116.556C358.182 116.775 357.78 116.759 357.565 116.52Z" fill="#D0D0DD"/>
<path d="M360.279 114.366C351.341 104.408 345.804 99.2152 336.023 88.6388C335.785 88.3819 335.793 87.9773 336.039 87.7386C336.086 87.692 336.11 87.6698 336.157 87.6233C336.401 87.3845 336.794 87.4007 337.032 87.6576C346.84 98.2401 352.411 103.453 361.389 113.465C361.606 113.708 361.563 114.084 361.294 114.303C361.242 114.345 361.217 114.366 361.165 114.408C360.896 114.627 360.498 114.606 360.279 114.366Z" fill="#D0D0DD"/>
<path d="M366.321 109.264C353.931 95.333 345.355 88.0319 333.093 73.5815C332.844 73.2881 332.858 72.8309 333.119 72.5659C333.382 72.3009 333.797 72.3252 334.045 72.6185C346.292 87.0568 354.92 94.3822 367.35 108.39C367.603 108.673 367.577 109.1 367.294 109.34C367.011 109.579 366.574 109.545 366.321 109.264Z" fill="#D0D0DD"/>
<path d="M354.896 118.567C346.158 108.831 340.8 103.708 331.156 93.1359C330.921 92.879 330.944 92.4825 331.202 92.2539C331.251 92.2094 331.277 92.1871 331.326 92.1426C331.583 91.914 331.985 91.9342 332.22 92.1911C341.894 102.759 347.293 107.892 356.077 117.671C356.289 117.908 356.229 118.28 355.944 118.497C355.889 118.539 355.861 118.559 355.806 118.602C355.519 118.818 355.111 118.804 354.898 118.567H354.896Z" fill="#D0D0DD"/>
<path d="M352.096 120.54C340.264 107.307 332.367 100.172 319.994 85.2342C319.745 84.9347 319.787 84.4937 320.082 84.251C320.378 84.0082 320.821 84.0507 321.069 84.3501C333.449 99.2375 341.414 106.379 353.311 119.654C353.55 119.921 353.471 120.338 353.137 120.58C352.801 120.823 352.334 120.805 352.096 120.54Z" fill="#D0D0DD"/>
<path d="M349.262 122.54C337.582 109.379 329.843 102.248 317.49 87.1659C317.241 86.8644 317.29 86.4335 317.595 86.2049C317.898 85.9783 318.347 86.035 318.596 86.3364C330.959 101.349 338.767 108.48 350.514 121.669C350.75 121.934 350.662 122.346 350.316 122.585C349.97 122.826 349.497 122.805 349.262 122.54Z" fill="#D0D0DD"/>
<path d="M343.592 126.245C332.213 113.089 324.784 105.901 312.475 90.4172C312.228 90.1056 312.293 89.7051 312.614 89.5169C312.936 89.3308 313.401 89.4259 313.648 89.7334C325.967 105.108 333.469 112.276 344.917 125.416C345.147 125.678 345.036 126.081 344.672 126.31C344.306 126.538 343.821 126.508 343.592 126.243V126.245Z" fill="#D0D0DD"/>
<path d="M340.507 128.086C329.288 114.853 322.02 107.595 309.735 91.8232C309.488 91.5076 309.563 91.1212 309.897 90.9614C310.228 90.8016 310.702 90.9209 310.948 91.2345C323.243 106.872 330.582 114.097 341.872 127.289C342.098 127.554 341.977 127.95 341.601 128.171C341.224 128.391 340.731 128.353 340.507 128.088V128.086Z" fill="#D0D0DD"/>
<path d="M337.324 129.844C326.242 116.419 319.158 109.096 306.904 92.9924C306.657 92.6687 306.74 92.3006 307.086 92.1691C307.43 92.0396 307.911 92.1893 308.158 92.5089C320.426 108.473 327.603 115.786 338.733 129.087C338.955 129.354 338.822 129.745 338.436 129.955C338.049 130.166 337.548 130.113 337.326 129.844H337.324Z" fill="#D0D0DD"/>
<path d="M333.961 131.412C322.976 117.601 316.184 110.38 304.012 94.0526C303.767 93.7249 303.854 93.3547 304.204 93.2272C304.554 93.1018 305.037 93.2657 305.284 93.5914C317.5 109.83 324.424 117.101 335.459 130.75C335.679 131.023 335.528 131.404 335.115 131.586C334.703 131.77 334.181 131.687 333.961 131.41V131.412Z" fill="#D0D0DD"/>
<path d="M328.345 133.465C317.613 119.186 311.328 112.195 299.391 95.6525C299.153 95.3207 299.248 94.9525 299.604 94.8311C299.957 94.7118 300.445 94.8858 300.685 95.2155C312.697 111.713 319.128 118.776 329.938 132.939C330.155 133.222 329.975 133.578 329.536 133.724C329.097 133.869 328.561 133.75 328.345 133.463V133.465Z" fill="#D0D0DD"/>
<path d="M324.667 134.537C314.127 120.032 308.182 113.223 296.423 96.6199C296.186 96.2861 296.287 95.92 296.645 95.8047C297.003 95.6893 297.491 95.8674 297.727 96.2012C309.565 112.784 315.66 119.676 326.284 134.088C326.497 134.378 326.307 134.72 325.862 134.845C325.417 134.97 324.879 134.829 324.667 134.54V134.537Z" fill="#D0D0DD"/>
<path d="M320.968 135.453C310.621 120.768 305.013 114.163 293.432 97.542C293.2 97.2082 293.305 96.846 293.665 96.7368C294.025 96.6275 294.51 96.8096 294.743 97.1434C306.401 113.763 312.156 120.459 322.584 135.071C322.792 135.364 322.598 135.694 322.153 135.801C321.706 135.909 321.175 135.751 320.966 135.455L320.968 135.453Z" fill="#D0D0DD"/>
<path d="M317.316 136.239C307.138 121.408 301.858 115.025 290.435 98.4202C290.207 98.0864 290.314 97.7303 290.674 97.6251C291.034 97.522 291.519 97.7081 291.75 98.0419C303.237 114.657 308.659 121.139 318.907 135.909C319.114 136.204 318.919 136.526 318.481 136.617C318.042 136.708 317.52 136.536 317.316 136.239Z" fill="#D0D0DD"/>
<path d="M312.493 137.133C302.473 122.142 297.604 116.085 286.318 99.5432C286.092 99.2114 286.203 98.8614 286.565 98.7643C286.927 98.6672 287.408 98.8614 287.637 99.1932C298.953 115.758 303.947 121.922 314.006 136.866C314.208 137.165 314.028 137.475 313.611 137.548C313.195 137.621 312.695 137.432 312.493 137.133Z" fill="#D0D0DD"/>
<path d="M309.183 137.685C299.195 122.593 294.583 116.781 283.319 100.302C283.093 99.972 283.202 99.6261 283.564 99.5371C283.926 99.4481 284.407 99.6443 284.632 99.9761C295.895 116.484 300.615 122.403 310.606 137.453C310.807 137.754 310.645 138.055 310.253 138.12C309.86 138.185 309.383 137.987 309.183 137.685Z" fill="#D0D0DD"/>
<path d="M306.117 138.173C296.069 122.984 291.669 117.416 280.328 101.002C280.102 100.672 280.207 100.334 280.567 100.251C280.927 100.168 281.408 100.37 281.635 100.7C292.928 117.143 297.414 122.818 307.423 137.964C307.624 138.268 307.488 138.565 307.128 138.624C306.768 138.68 306.317 138.478 306.115 138.173H306.117Z" fill="#D0D0DD"/>
<path d="M303.361 138.622C293.135 123.328 288.888 118.003 277.36 101.645C277.129 101.317 277.23 100.985 277.588 100.91C277.946 100.836 278.428 101.042 278.658 101.37C290.087 117.75 294.395 123.182 304.526 138.427C304.728 138.733 304.625 139.028 304.305 139.083C303.986 139.135 303.563 138.927 303.359 138.622H303.361Z" fill="#D0D0DD"/>
<path d="M330.25 80.7549C329.129 79.4703 328.579 78.827 327.498 77.5363C327.93 77.1114 328.147 76.897 328.575 76.4722C331.204 79.6079 332.593 81.1717 335.424 84.2831C334.994 84.7099 334.777 84.9244 334.343 85.3512C333.176 84.0666 332.597 83.4233 331.459 82.1346C329.356 84.2062 328.28 85.244 326.054 87.2104C325.57 86.6561 325.33 86.3789 324.853 85.8246C327.075 83.8643 328.151 82.8265 330.252 80.7569L330.25 80.7549Z" fill="#D0D0DD"/>
<path d="M259.322 264.509C259.543 277.185 256.485 310.383 223.487 344.889C222.968 345.44 222.278 345.806 221.495 345.945C220.974 346.038 220.401 346.006 219.896 345.881L162.624 331.165C162.6 331.034 162.62 330.843 162.775 330.653C191.409 299.594 194.623 269.384 194.681 257.816C194.683 256.926 195.335 256.352 195.988 256.236C196.143 256.208 196.305 256.206 196.445 256.236L258.327 263.311C258.576 263.347 258.803 263.414 259.015 263.537C259.197 263.8 259.314 264.157 259.322 264.506V264.509Z" fill="url(#paint65_linear_2395_1211)"/>
<path d="M247.911 283.697C234.809 281.933 227.323 281.54 213.083 279.786C212.737 279.744 212.488 279.43 212.527 279.086C212.535 279.02 212.539 278.987 212.545 278.921C212.583 278.579 212.897 278.334 213.243 278.376C227.507 280.112 235.032 280.494 248.198 282.267C248.518 282.309 248.72 282.629 248.651 282.975C248.637 283.041 248.631 283.076 248.617 283.143C248.546 283.489 248.228 283.737 247.911 283.695V283.697Z" fill="#D0D0DD"/>
<path d="M248.582 280.296C235.327 278.504 227.746 278.136 213.449 276.42C213.101 276.38 212.846 276.066 212.879 275.724C212.885 275.659 212.889 275.627 212.895 275.56C212.927 275.22 213.237 274.978 213.582 275.018C227.906 276.723 235.525 277.082 248.845 278.89C249.169 278.935 249.379 279.248 249.314 279.588C249.302 279.653 249.296 279.687 249.284 279.752C249.219 280.092 248.904 280.337 248.582 280.294V280.296Z" fill="#D0D0DD"/>
<path d="M249.877 272.492C231.418 269.91 220.159 269.908 201.462 266.847C201.082 266.785 200.796 266.429 200.825 266.056C200.853 265.684 201.185 265.433 201.565 265.496C220.242 268.557 231.558 268.543 250.095 271.158C250.471 271.211 250.728 271.553 250.667 271.919C250.607 272.285 250.251 272.542 249.877 272.49V272.492Z" fill="#D0D0DD"/>
<path d="M247.205 286.988C234.245 285.234 226.846 284.808 212.656 283.005C212.313 282.961 212.072 282.645 212.12 282.303C212.129 282.236 212.135 282.204 212.143 282.139C212.191 281.797 212.509 281.553 212.855 281.597C227.066 283.375 234.502 283.788 247.525 285.542C247.84 285.584 248.034 285.906 247.957 286.258C247.941 286.325 247.935 286.359 247.919 286.428C247.84 286.78 247.521 287.033 247.205 286.99V286.988Z" fill="#D0D0DD"/>
<path d="M246.35 290.306C228.771 287.895 218.134 287.579 199.037 284.221C198.655 284.154 198.4 283.79 198.467 283.414C198.533 283.038 198.899 282.783 199.282 282.849C218.351 286.165 229.044 286.442 246.7 288.846C247.053 288.894 247.264 289.262 247.167 289.665C247.07 290.068 246.7 290.357 246.348 290.308L246.35 290.306Z" fill="#D0D0DD"/>
<path d="M245.488 293.667C228.069 291.211 217.556 290.794 198.382 287.314C197.997 287.246 197.755 286.886 197.84 286.515C197.925 286.145 198.303 285.898 198.687 285.967C217.825 289.39 228.391 289.76 245.876 292.192C246.228 292.24 246.427 292.613 246.319 293.019C246.212 293.426 245.838 293.717 245.488 293.669V293.667Z" fill="#D0D0DD"/>
<path d="M243.571 300.164C226.387 297.518 216.072 296.859 196.671 293.043C196.283 292.966 196.07 292.618 196.196 292.266C196.321 291.914 196.734 291.688 197.122 291.761C216.462 295.487 226.815 296.084 244.044 298.673C244.39 298.726 244.566 299.104 244.437 299.513C244.305 299.924 243.917 300.215 243.573 300.162L243.571 300.164Z" fill="#D0D0DD"/>
<path d="M242.413 303.569C225.299 300.761 215.063 299.942 195.492 295.89C195.1 295.809 194.906 295.467 195.057 295.129C195.207 294.792 195.644 294.577 196.034 294.656C215.526 298.599 225.792 299.347 242.934 302.076C243.278 302.131 243.444 302.513 243.298 302.924C243.155 303.335 242.754 303.626 242.413 303.569Z" fill="#D0D0DD"/>
<path d="M241.131 306.972C223.997 303.928 213.86 302.942 194.097 298.617C193.701 298.53 193.525 298.194 193.703 297.873C193.881 297.551 194.344 297.353 194.738 297.438C214.42 301.646 224.622 302.564 241.713 305.483C242.055 305.542 242.209 305.926 242.049 306.337C241.891 306.748 241.475 307.033 241.131 306.972Z" fill="#D0D0DD"/>
<path d="M239.585 310.346C222.276 306.946 212.426 305.849 192.582 301.299C192.184 301.208 192.01 300.868 192.196 300.547C192.38 300.225 192.855 300.035 193.253 300.124C213.073 304.577 223.056 305.627 240.299 308.874C240.645 308.938 240.774 309.327 240.578 309.733C240.382 310.14 239.933 310.417 239.585 310.348V310.346Z" fill="#D0D0DD"/>
<path d="M236.639 315.552C219.218 311.629 209.904 310.377 190.099 305.516C189.703 305.419 189.535 305.075 189.729 304.753C189.921 304.431 190.404 304.247 190.803 304.344C210.634 309.127 220.106 310.339 237.513 314.12C237.863 314.194 237.956 314.583 237.715 314.977C237.474 315.374 236.989 315.629 236.639 315.552Z" fill="#D0D0DD"/>
<path d="M234.532 318.754C217.111 314.536 208.173 313.203 188.465 308.176C188.071 308.075 187.909 307.731 188.107 307.411C188.305 307.092 188.791 306.912 189.187 307.011C208.942 311.969 218.047 313.268 235.473 317.362C235.822 317.445 235.899 317.83 235.64 318.212C235.382 318.596 234.882 318.837 234.532 318.754Z" fill="#D0D0DD"/>
<path d="M232.312 321.849C214.921 317.368 206.371 315.972 186.788 310.816C186.396 310.713 186.24 310.369 186.443 310.051C186.645 309.733 187.134 309.559 187.527 309.661C207.168 314.765 215.888 316.136 233.294 320.506C233.644 320.593 233.709 320.971 233.438 321.342C233.167 321.712 232.659 321.938 232.31 321.847L232.312 321.849Z" fill="#D0D0DD"/>
<path d="M230.039 324.815C212.683 320.114 204.527 318.675 185.074 313.43C184.684 313.325 184.534 312.983 184.74 312.669C184.946 312.356 185.438 312.184 185.828 312.289C205.338 317.5 213.665 318.924 231.036 323.533C231.384 323.626 231.444 323.994 231.169 324.348C230.894 324.702 230.385 324.908 230.037 324.815H230.039Z" fill="#D0D0DD"/>
<path d="M226.945 328.625C209.605 323.7 201.973 322.242 182.665 316.954C182.279 316.848 182.135 316.509 182.348 316.201C182.562 315.894 183.054 315.728 183.442 315.833C202.788 321.117 210.585 322.574 227.924 327.439C228.271 327.536 228.334 327.888 228.065 328.214C227.796 328.54 227.293 328.722 226.945 328.622V328.625Z" fill="#D0D0DD"/>
<path d="M224.783 331.19C207.403 326.167 200.125 324.728 180.874 319.477C180.487 319.371 180.348 319.038 180.566 318.736C180.783 318.433 181.278 318.273 181.664 318.378C200.934 323.652 208.361 325.105 225.717 330.091C226.065 330.193 226.138 330.526 225.881 330.83C225.624 331.133 225.133 331.293 224.783 331.192V331.19Z" fill="#D0D0DD"/>
<path d="M222.767 333.548C205.278 328.491 198.319 327.101 179.054 321.946C178.668 321.843 178.53 321.515 178.751 321.22C178.971 320.923 179.469 320.765 179.855 320.87C199.104 326.075 206.198 327.491 223.629 332.541C223.979 332.642 224.068 332.958 223.831 333.235C223.595 333.512 223.119 333.649 222.767 333.548Z" fill="#D0D0DD"/>
<path d="M220.957 335.679C203.263 330.656 196.582 329.351 177.208 324.364C176.819 324.265 176.682 323.945 176.906 323.656C177.131 323.367 177.632 323.211 178.019 323.314C197.332 328.384 204.129 329.731 221.72 334.777C222.072 334.878 222.185 335.171 221.977 335.418C221.768 335.667 221.311 335.78 220.957 335.679Z" fill="#D0D0DD"/>
<path d="M203.945 274.156C202.26 273.903 201.423 273.77 199.765 273.489C199.82 272.884 199.846 272.582 199.897 271.979C203.931 272.663 205.999 272.955 210.171 273.489C210.121 274.094 210.094 274.397 210.04 275.004C208.319 274.781 207.464 274.666 205.761 274.423C205.502 277.365 205.354 278.854 204.932 281.795C204.206 281.686 203.842 281.631 203.118 281.518C203.541 278.583 203.686 277.096 203.945 274.158V274.156Z" fill="#D0D0DD"/>
<path d="M96.704 135.259C96.9244 147.936 93.8669 181.134 60.869 215.64C60.3493 216.191 59.6598 216.557 58.8772 216.696C58.3555 216.789 57.7832 216.757 57.2776 216.632L0.00761144 201.918C-0.0166547 201.787 0.0035671 201.596 0.159275 201.406C28.7933 170.347 32.0065 140.137 32.0652 128.569C32.0672 127.679 32.7183 127.105 33.3715 126.989C33.5272 126.961 33.689 126.959 33.8285 126.989L95.7111 134.064C95.9598 134.1 96.1863 134.167 96.3987 134.29C96.5807 134.553 96.6979 134.909 96.706 135.259H96.704Z" fill="url(#paint66_linear_2395_1211)"/>
<path d="M85.2927 154.447C72.1911 152.683 64.705 152.291 50.4648 150.537C50.119 150.494 49.8703 150.181 49.9087 149.837C49.9168 149.77 49.9208 149.738 49.9269 149.671C49.9653 149.329 50.2788 149.084 50.6246 149.127C64.889 150.863 72.4135 151.245 85.5799 153.017C85.8994 153.06 86.1016 153.379 86.0329 153.725C86.0187 153.792 86.0126 153.826 85.9985 153.893C85.9277 154.239 85.6102 154.488 85.2927 154.445V154.447Z" fill="#D0D0DD"/>
<path d="M85.9641 151.047C72.7088 149.255 65.1276 148.887 50.8308 147.171C50.483 147.131 50.2282 146.817 50.2606 146.475C50.2666 146.41 50.2707 146.378 50.2768 146.311C50.3091 145.971 50.6185 145.729 50.9643 145.769C65.2874 147.474 72.9069 147.833 86.227 149.641C86.5505 149.686 86.7609 149.999 86.6961 150.339C86.684 150.404 86.6779 150.438 86.6658 150.503C86.6011 150.843 86.2856 151.088 85.9641 151.045V151.047Z" fill="#D0D0DD"/>
<path d="M87.2584 143.242C68.8 140.661 57.5406 140.659 38.8435 137.598C38.4633 137.535 38.1782 137.179 38.2065 136.807C38.2348 136.435 38.5665 136.186 38.9466 136.246C57.6235 139.307 68.9396 139.293 87.4768 141.909C87.853 141.961 88.1098 142.303 88.0491 142.67C87.9885 143.036 87.6325 143.293 87.2584 143.24V143.242Z" fill="#D0D0DD"/>
<path d="M84.5871 157.739C71.6269 155.985 64.2278 155.558 50.0382 153.756C49.6944 153.711 49.4538 153.395 49.5023 153.054C49.5104 152.987 49.5165 152.954 49.5246 152.89C49.5731 152.548 49.8906 152.303 50.2364 152.348C64.4482 154.126 71.8838 154.538 84.9066 156.292C85.222 156.335 85.4162 156.657 85.3393 157.009C85.3231 157.075 85.3171 157.11 85.3009 157.178C85.222 157.531 84.9025 157.783 84.5871 157.741V157.739Z" fill="#D0D0DD"/>
<path d="M83.7316 161.057C66.1528 158.645 55.5162 158.33 36.4188 154.972C36.0366 154.905 35.7818 154.541 35.8485 154.164C35.9152 153.788 36.2813 153.533 36.6634 153.6C55.7326 156.916 66.4258 157.193 84.0814 159.596C84.4353 159.645 84.6456 160.013 84.5486 160.416C84.4515 160.818 84.0814 161.107 83.7296 161.059L83.7316 161.057Z" fill="#D0D0DD"/>
<path d="M82.8701 164.417C65.451 161.961 54.9377 161.545 35.7635 158.065C35.3793 157.996 35.1366 157.636 35.2215 157.266C35.3065 156.896 35.6846 156.649 36.0688 156.718C55.2067 160.141 65.7726 160.511 83.2583 162.942C83.6102 162.991 83.8083 163.363 83.7012 163.77C83.594 164.176 83.2199 164.468 82.8701 164.419V164.417Z" fill="#D0D0DD"/>
<path d="M80.9531 170.915C63.7687 168.269 53.4536 167.609 34.0508 163.794C33.6625 163.717 33.4502 163.369 33.5756 163.017C33.7009 162.665 34.1135 162.438 34.5017 162.511C53.8418 166.238 64.1954 166.834 81.4243 169.424C81.7701 169.476 81.946 169.855 81.8166 170.263C81.6852 170.674 81.2969 170.965 80.9531 170.913V170.915Z" fill="#D0D0DD"/>
<path d="M79.7946 174.32C62.6809 171.512 52.4446 170.693 32.874 166.641C32.4817 166.56 32.2876 166.218 32.4393 165.88C32.5889 165.542 33.0257 165.328 33.416 165.406C52.9077 169.349 63.1743 170.098 80.3163 172.827C80.6601 172.882 80.8259 173.264 80.6803 173.675C80.5367 174.085 80.1363 174.377 79.7946 174.32Z" fill="#D0D0DD"/>
<path d="M78.5126 177.723C61.3788 174.678 51.2416 173.693 31.4789 169.368C31.0825 169.281 30.9066 168.945 31.0845 168.623C31.2625 168.301 31.7256 168.103 32.1199 168.188C51.8017 172.396 62.0036 173.315 79.095 176.234C79.4368 176.292 79.5905 176.677 79.4307 177.087C79.273 177.498 78.8564 177.783 78.5126 177.723Z" fill="#D0D0DD"/>
<path d="M76.9673 181.097C59.6574 177.696 49.8074 176.6 29.9638 172.05C29.5654 171.959 29.3915 171.619 29.5776 171.297C29.7616 170.976 30.2368 170.785 30.6352 170.874C50.4545 175.327 60.438 176.377 77.6811 179.624C78.0269 179.689 78.1563 180.077 77.9601 180.484C77.764 180.89 77.3151 181.168 76.9673 181.099V181.097Z" fill="#D0D0DD"/>
<path d="M74.0211 186.302C56.6 182.38 47.2859 181.127 27.4807 176.266C27.0844 176.169 26.9165 175.825 27.1107 175.503C27.3028 175.182 27.7861 174.998 28.1844 175.095C48.0159 179.877 57.4878 181.089 74.8947 184.87C75.2445 184.945 75.3375 185.333 75.0969 185.728C74.8562 186.124 74.3709 186.379 74.0211 186.302Z" fill="#D0D0DD"/>
<path d="M71.9161 189.505C54.495 185.287 45.557 183.954 25.8489 178.926C25.4546 178.825 25.2928 178.481 25.491 178.162C25.6891 177.842 26.1744 177.662 26.5708 177.761C46.3254 182.72 55.4313 184.018 72.8564 188.113C73.2062 188.196 73.2831 188.58 73.0242 188.963C72.7654 189.347 72.2659 189.588 71.9161 189.505Z" fill="#D0D0DD"/>
<path d="M69.694 192.6C52.3033 188.119 43.7535 186.723 24.1708 181.566C23.7785 181.463 23.6227 181.119 23.825 180.802C24.0272 180.484 24.5166 180.31 24.9089 180.411C44.5502 185.515 53.2699 186.887 70.6768 191.257C71.0266 191.344 71.0913 191.722 70.8203 192.092C70.5494 192.462 70.0418 192.689 69.692 192.598L69.694 192.6Z" fill="#D0D0DD"/>
<path d="M67.4207 195.565C50.0644 190.864 41.909 189.425 22.4556 184.18C22.0654 184.075 21.9157 183.733 22.122 183.419C22.3282 183.106 22.8196 182.934 23.2099 183.039C42.7199 188.25 51.0472 189.674 68.4177 194.283C68.7655 194.376 68.8261 194.744 68.5511 195.098C68.2761 195.452 67.7665 195.658 67.4187 195.565H67.4207Z" fill="#D0D0DD"/>
<path d="M64.3267 199.375C46.9865 194.451 39.3548 192.992 20.0471 187.704C19.6608 187.599 19.5173 187.259 19.7296 186.952C19.9439 186.644 20.4353 186.478 20.8236 186.583C40.1697 191.868 47.9673 193.324 65.3054 198.189C65.6532 198.287 65.7159 198.639 65.4469 198.964C65.178 199.29 64.6745 199.472 64.3267 199.373V199.375Z" fill="#D0D0DD"/>
<path d="M62.165 201.942C44.7844 196.919 37.5066 195.481 18.2554 190.229C17.8692 190.124 17.7297 189.79 17.9481 189.487C18.1644 189.183 18.6599 189.023 19.0461 189.129C38.3154 194.403 45.7429 195.855 63.0992 200.842C63.447 200.943 63.5198 201.277 63.263 201.58C63.0062 201.884 62.5148 202.044 62.165 201.942Z" fill="#D0D0DD"/>
<path d="M60.1493 204.301C42.6595 199.243 35.7012 197.853 16.4359 192.699C16.0497 192.596 15.9122 192.268 16.1326 191.972C16.353 191.675 16.8505 191.517 17.2367 191.622C36.4878 196.828 43.5796 198.244 61.0107 203.293C61.3606 203.394 61.4495 203.71 61.2129 203.987C60.9763 204.264 60.5011 204.402 60.1493 204.301Z" fill="#D0D0DD"/>
<path d="M58.3392 206.429C40.6452 201.406 33.9639 200.101 14.5895 195.115C14.2012 195.015 14.0637 194.696 14.2881 194.406C14.5126 194.117 15.0141 193.961 15.4003 194.065C34.7141 199.134 41.5107 200.482 59.1016 205.527C59.4534 205.628 59.5667 205.922 59.3584 206.168C59.1501 206.417 58.6931 206.53 58.3392 206.429Z" fill="#D0D0DD"/>
<path d="M41.3268 144.907C39.6423 144.654 38.8052 144.521 37.147 144.24C37.2016 143.635 37.2279 143.333 37.2784 142.73C41.3127 143.414 43.3813 143.706 47.5531 144.24C47.5025 144.845 47.4762 145.148 47.4216 145.755C45.7008 145.532 44.8454 145.417 43.1427 145.174C42.8839 148.116 42.7363 149.605 42.3136 152.546C41.5877 152.437 41.2237 152.382 40.4997 152.269C40.9224 149.334 41.068 147.847 41.3268 144.909V144.907Z" fill="#D0D0DD"/>
<path d="M444.988 176.928C445.209 189.604 442.151 222.802 409.153 257.309C408.634 257.859 407.944 258.225 407.161 258.365C406.64 258.458 406.067 258.426 405.562 258.3L348.29 243.585C348.266 243.453 348.286 243.263 348.442 243.073C377.076 212.013 380.289 181.803 380.347 170.236C380.349 169.346 381.001 168.771 381.654 168.656C381.809 168.627 381.971 168.625 382.111 168.656L443.993 175.73C444.242 175.767 444.469 175.833 444.681 175.957C444.863 176.22 444.98 176.576 444.988 176.926V176.928Z" fill="url(#paint67_linear_2395_1211)"/>
<path d="M433.577 196.116C420.475 194.352 412.989 193.958 398.749 192.206C398.403 192.163 398.154 191.85 398.193 191.506C398.201 191.439 398.205 191.407 398.211 191.34C398.249 190.998 398.563 190.753 398.909 190.796C413.173 192.532 420.698 192.914 433.864 194.686C434.184 194.729 434.386 195.048 434.317 195.394C434.303 195.461 434.297 195.495 434.283 195.562C434.212 195.908 433.894 196.157 433.577 196.114V196.116Z" fill="#D0D0DD"/>
<path d="M434.248 192.716C420.993 190.924 413.412 190.555 399.115 188.84C398.767 188.799 398.512 188.486 398.545 188.144C398.551 188.079 398.555 188.047 398.561 187.98C398.593 187.64 398.903 187.398 399.25 187.438C413.574 189.143 421.193 189.501 434.513 191.31C434.837 191.355 435.047 191.668 434.982 192.008C434.97 192.073 434.964 192.107 434.952 192.172C434.887 192.512 434.572 192.757 434.25 192.714L434.248 192.716Z" fill="#D0D0DD"/>
<path d="M435.543 184.911C417.084 182.33 405.825 182.328 387.128 179.267C386.748 179.204 386.462 178.848 386.491 178.476C386.519 178.104 386.851 177.853 387.231 177.915C405.908 180.976 417.224 180.962 435.761 183.578C436.137 183.63 436.394 183.972 436.333 184.338C436.273 184.705 435.917 184.962 435.543 184.909V184.911Z" fill="#D0D0DD"/>
<path d="M432.871 199.408C419.911 197.654 412.512 197.227 398.322 195.424C397.979 195.38 397.738 195.064 397.786 194.723C397.795 194.656 397.801 194.623 397.809 194.559C397.857 194.217 398.175 193.972 398.521 194.016C412.732 195.795 420.168 196.207 433.191 197.961C433.506 198.004 433.7 198.326 433.624 198.678C433.607 198.744 433.601 198.779 433.585 198.847C433.506 199.199 433.187 199.452 432.871 199.41V199.408Z" fill="#D0D0DD"/>
<path d="M432.018 202.726C414.439 200.314 403.802 199.999 384.705 196.641C384.323 196.574 384.068 196.21 384.135 195.833C384.201 195.457 384.567 195.202 384.95 195.269C404.019 198.585 414.712 198.862 432.368 201.265C432.721 201.314 432.932 201.682 432.835 202.084C432.738 202.487 432.368 202.776 432.016 202.728L432.018 202.726Z" fill="#D0D0DD"/>
<path d="M431.157 206.086C413.738 203.63 403.224 203.213 384.05 199.734C383.666 199.665 383.423 199.305 383.508 198.935C383.593 198.565 383.971 198.318 384.355 198.387C403.493 201.809 414.059 202.18 431.545 204.611C431.897 204.66 432.095 205.032 431.988 205.439C431.881 205.845 431.506 206.137 431.157 206.088V206.086Z" fill="#D0D0DD"/>
<path d="M429.237 212.584C412.053 209.938 401.738 209.278 382.337 205.463C381.949 205.386 381.736 205.038 381.862 204.686C381.987 204.334 382.4 204.107 382.788 204.18C402.128 207.907 412.481 208.503 429.71 211.093C430.056 211.145 430.232 211.524 430.103 211.932C429.971 212.343 429.583 212.634 429.239 212.582L429.237 212.584Z" fill="#D0D0DD"/>
<path d="M428.081 215.989C410.967 213.181 400.731 212.362 381.16 208.309C380.768 208.229 380.574 207.887 380.725 207.549C380.875 207.211 381.312 206.997 381.702 207.075C401.194 211.018 411.46 211.767 428.602 214.496C428.946 214.551 429.112 214.933 428.966 215.344C428.823 215.754 428.422 216.046 428.081 215.989Z" fill="#D0D0DD"/>
<path d="M426.797 219.392C409.663 216.347 399.526 215.362 379.763 211.037C379.367 210.95 379.191 210.614 379.369 210.292C379.547 209.97 380.01 209.772 380.404 209.857C400.086 214.065 410.288 214.983 427.379 217.903C427.721 217.961 427.875 218.346 427.715 218.756C427.557 219.167 427.141 219.452 426.797 219.392Z" fill="#D0D0DD"/>
<path d="M425.251 222.766C407.942 219.365 398.092 218.269 378.248 213.719C377.85 213.628 377.676 213.288 377.862 212.966C378.046 212.645 378.521 212.454 378.919 212.543C398.739 216.996 408.722 218.046 425.965 221.293C426.311 221.358 426.441 221.746 426.244 222.153C426.048 222.559 425.599 222.837 425.251 222.768V222.766Z" fill="#D0D0DD"/>
<path d="M422.307 227.971C404.886 224.048 395.572 222.796 375.767 217.935C375.37 217.837 375.203 217.494 375.397 217.172C375.589 216.85 376.072 216.666 376.471 216.763C396.302 221.546 405.774 222.757 423.181 226.539C423.531 226.613 423.624 227.002 423.383 227.396C423.142 227.793 422.657 228.048 422.307 227.971Z" fill="#D0D0DD"/>
<path d="M420.2 231.174C402.779 226.956 393.841 225.623 374.133 220.595C373.739 220.494 373.577 220.15 373.775 219.831C373.973 219.511 374.459 219.331 374.855 219.43C394.61 224.389 403.715 225.687 421.141 229.782C421.49 229.865 421.567 230.249 421.308 230.632C421.05 231.016 420.55 231.257 420.2 231.174Z" fill="#D0D0DD"/>
<path d="M417.98 234.269C400.589 229.788 392.04 228.392 372.457 223.235C372.065 223.132 371.909 222.788 372.111 222.47C372.313 222.153 372.803 221.979 373.195 222.08C392.836 227.184 401.556 228.556 418.963 232.925C419.313 233.012 419.377 233.391 419.106 233.761C418.835 234.131 418.328 234.358 417.978 234.267L417.98 234.269Z" fill="#D0D0DD"/>
<path d="M415.705 237.234C398.349 232.533 390.193 231.094 370.74 225.849C370.35 225.743 370.2 225.402 370.406 225.088C370.612 224.774 371.104 224.603 371.494 224.708C391.004 229.919 399.331 231.343 416.702 235.952C417.05 236.045 417.11 236.413 416.835 236.767C416.56 237.121 416.051 237.327 415.703 237.234H415.705Z" fill="#D0D0DD"/>
<path d="M412.613 241.044C395.273 236.12 387.641 234.661 368.334 229.373C367.947 229.268 367.804 228.928 368.016 228.621C368.231 228.313 368.722 228.147 369.11 228.252C388.456 233.536 396.254 234.993 413.592 239.858C413.94 239.956 414.003 240.308 413.734 240.633C413.465 240.959 412.961 241.141 412.613 241.042V241.044Z" fill="#D0D0DD"/>
<path d="M410.449 243.611C393.069 238.588 385.791 237.15 366.54 231.898C366.153 231.793 366.014 231.459 366.232 231.158C366.449 230.854 366.944 230.694 367.33 230.799C386.6 236.073 394.027 237.526 411.383 242.513C411.731 242.614 411.804 242.948 411.547 243.251C411.29 243.555 410.799 243.714 410.449 243.613V243.611Z" fill="#D0D0DD"/>
<path d="M408.433 245.97C390.944 240.912 383.985 239.522 364.72 234.368C364.334 234.264 364.196 233.937 364.417 233.641C364.637 233.344 365.135 233.186 365.521 233.291C384.772 238.497 391.864 239.913 409.295 244.962C409.645 245.063 409.734 245.379 409.497 245.656C409.261 245.933 408.785 246.071 408.433 245.97Z" fill="#D0D0DD"/>
<path d="M406.623 248.098C388.929 243.075 382.248 241.77 362.874 236.784C362.485 236.684 362.348 236.365 362.572 236.075C362.797 235.786 363.298 235.63 363.685 235.734C382.998 240.803 389.795 242.151 407.386 247.196C407.738 247.297 407.851 247.591 407.643 247.837C407.434 248.086 406.977 248.199 406.623 248.098Z" fill="#D0D0DD"/>
<path d="M389.611 186.576C387.927 186.323 387.089 186.19 385.431 185.909C385.486 185.304 385.512 185.002 385.563 184.399C389.597 185.083 391.666 185.375 395.837 185.909C395.787 186.513 395.76 186.817 395.706 187.424C393.985 187.201 393.13 187.086 391.427 186.843C391.168 189.785 391.02 191.274 390.598 194.215C389.872 194.106 389.508 194.051 388.784 193.938C389.207 191.003 389.352 189.516 389.611 186.578V186.576Z" fill="#D0D0DD"/>
<path d="M194.772 0.746443C200.432 12.0875 211.972 43.3554 197.063 88.7278C196.83 89.45 196.367 90.0751 195.722 90.5404C195.291 90.85 194.761 91.0664 194.25 91.1736L136.234 102.62C136.157 102.513 136.092 102.331 136.149 102.094C148.605 61.7143 138.492 33.0764 133.562 22.6153C133.182 21.8122 133.522 21.0131 134.06 20.6267C134.189 20.5336 134.333 20.4628 134.472 20.4285L193.358 0.0970516C193.599 0.0221997 193.831 -0.0142147 194.076 0.00601551C194.353 0.165834 194.614 0.43692 194.772 0.746443Z" fill="url(#paint68_linear_2395_1211)"/>
<path d="M192.739 22.9815C180.157 27.0457 173.233 29.9225 159.628 34.4864C159.298 34.5977 158.938 34.4217 158.825 34.096C158.803 34.0333 158.793 34.0009 158.77 33.9382C158.657 33.6125 158.835 33.2564 159.167 33.1451C172.784 28.5529 179.74 25.6498 192.383 21.5674C192.69 21.4682 193.01 21.6685 193.095 22.0104C193.111 22.0772 193.119 22.1095 193.135 22.1763C193.22 22.5202 193.04 22.8803 192.737 22.9794L192.739 22.9815Z" fill="#D0D0DD"/>
<path d="M191.882 19.6255C179.15 23.7302 172.151 26.6697 158.51 31.2943C158.178 31.4076 157.812 31.2357 157.695 30.914C157.673 30.8533 157.66 30.8209 157.638 30.7602C157.521 30.4406 157.695 30.0866 158.026 29.9733C171.684 25.3304 178.715 22.3647 191.514 18.2458C191.823 18.1467 192.151 18.3389 192.24 18.6727C192.256 18.7374 192.266 18.7698 192.282 18.8345C192.371 19.1703 192.191 19.5264 191.882 19.6255Z" fill="#D0D0DD"/>
<path d="M189.688 12.0269C171.921 17.665 161.759 22.5243 143.57 27.8328C143.2 27.94 142.789 27.7417 142.654 27.3958C142.518 27.0478 142.71 26.6796 143.08 26.5704C161.252 21.2701 171.456 16.3744 189.309 10.7301C189.671 10.6148 190.05 10.8131 190.153 11.1691C190.256 11.5252 190.046 11.9116 189.686 12.0248L189.688 12.0269Z" fill="#D0D0DD"/>
<path d="M193.52 26.255C181.069 30.2687 174.21 33.0746 160.629 37.5738C160.299 37.6831 159.945 37.501 159.842 37.1733C159.822 37.1105 159.812 37.0782 159.792 37.0155C159.687 36.6857 159.871 36.3276 160.2 36.2184C173.789 31.6888 180.677 28.8505 193.184 24.8126C193.487 24.7155 193.801 24.9218 193.884 25.2718C193.9 25.3386 193.908 25.373 193.922 25.4397C194.003 25.7897 193.823 26.1579 193.52 26.255Z" fill="#D0D0DD"/>
<path d="M194.179 29.6191C177.278 35.0328 167.545 39.3378 148.866 44.5511C148.492 44.6563 148.106 44.4378 148.005 44.0696C147.904 43.7014 148.122 43.313 148.496 43.2078C167.132 37.9682 176.9 33.6025 193.866 28.1484C194.205 28.0392 194.555 28.2799 194.64 28.6845C194.725 29.0891 194.519 29.5099 194.179 29.6191Z" fill="#D0D0DD"/>
<path d="M194.85 33.022C178.074 38.3243 168.41 42.4877 149.608 47.6241C149.232 47.7273 148.858 47.5068 148.775 47.1366C148.692 46.7664 148.927 46.38 149.303 46.2768C168.046 41.1039 177.739 36.8778 194.565 31.5249C194.903 31.4177 195.243 31.6665 195.321 32.0792C195.4 32.4919 195.188 32.9168 194.85 33.024V33.022Z" fill="#D0D0DD"/>
<path d="M195.918 39.712C179.271 44.7433 169.68 48.5991 150.53 53.5313C150.146 53.6304 149.804 53.4079 149.766 53.0356C149.727 52.6654 150.002 52.281 150.385 52.1799C169.44 47.1931 179.041 43.2644 195.702 38.1644C196.035 38.0612 196.359 38.3262 196.417 38.7531C196.476 39.1799 196.252 39.6108 195.918 39.712Z" fill="#D0D0DD"/>
<path d="M196.341 43.2826C179.69 48.1378 170.101 51.8157 150.696 56.6062C150.308 56.7013 149.986 56.4788 149.976 56.1086C149.966 55.7404 150.268 55.358 150.654 55.2609C169.941 50.4057 179.526 46.6469 196.169 41.7127C196.503 41.6136 196.816 41.8867 196.862 42.3196C196.911 42.7525 196.674 43.1875 196.341 43.2846V43.2826Z" fill="#D0D0DD"/>
<path d="M196.648 46.9057C179.876 51.5546 170.305 55.0403 150.609 59.6689C150.215 59.762 149.911 59.5354 149.932 59.1672C149.954 58.799 150.286 58.4207 150.678 58.3277C170.25 53.6282 179.852 50.0535 196.531 45.3095C196.864 45.2144 197.168 45.4956 197.202 45.9346C197.236 46.3736 196.984 46.8106 196.648 46.9036V46.9057Z" fill="#D0D0DD"/>
<path d="M196.709 50.6161C179.625 55.0202 170.265 58.2813 150.399 62.7421C150 62.8311 149.697 62.6005 149.725 62.2303C149.754 61.86 150.1 61.4838 150.496 61.3927C170.299 56.8551 179.757 53.4928 196.717 48.9774C197.057 48.8864 197.34 49.1817 197.34 49.6329C197.34 50.084 197.052 50.5271 196.709 50.6161Z" fill="#D0D0DD"/>
<path d="M196.292 56.5842C178.883 60.5655 169.939 63.4564 149.974 67.6178C149.574 67.7008 149.276 67.4641 149.311 67.0898C149.347 66.7176 149.703 66.3433 150.104 66.2583C170.058 62.012 179.126 59.0159 196.462 54.9173C196.81 54.8343 197.06 55.1438 197.014 55.6031C196.967 56.0643 196.64 56.5053 196.29 56.5842H196.292Z" fill="#D0D0DD"/>
<path d="M195.77 60.3834C178.234 64.0977 169.595 66.7519 149.647 70.7251C149.246 70.804 148.953 70.5633 148.993 70.1911C149.034 69.8168 149.396 69.4446 149.796 69.3636C169.759 65.3095 178.533 62.5521 196.021 58.7225C196.373 58.6457 196.608 58.9592 196.539 59.4185C196.47 59.8757 196.124 60.3106 195.772 60.3855L195.77 60.3834Z" fill="#D0D0DD"/>
<path d="M195.101 64.1339C177.478 67.5993 169.163 70.029 149.27 73.8303C148.872 73.9071 148.583 73.6623 148.629 73.2901C148.676 72.9158 149.042 72.5477 149.44 72.4708C169.363 68.5967 177.82 66.0699 195.408 62.4993C195.76 62.4285 195.983 62.74 195.898 63.1912C195.813 63.6423 195.453 64.0651 195.099 64.1339H195.101Z" fill="#D0D0DD"/>
<path d="M194.326 67.7895C176.64 71.0405 168.661 73.2618 148.85 76.9275C148.453 77.0003 148.17 76.7576 148.221 76.3853C148.273 76.0131 148.641 75.6469 149.04 75.5721C168.889 71.8517 177.016 69.5414 194.676 66.2034C195.03 66.1367 195.244 66.4442 195.147 66.8812C195.052 67.3181 194.68 67.7268 194.326 67.7915V67.7895Z" fill="#D0D0DD"/>
<path d="M193.176 72.562C175.409 75.6046 167.893 77.5831 148.195 81.1457C147.8 81.2165 147.525 80.9737 147.584 80.6035C147.645 80.2333 148.017 79.8732 148.413 79.8004C168.146 76.2176 175.81 74.1662 193.55 71.071C193.906 71.0083 194.114 71.2996 194.011 71.7103C193.908 72.121 193.532 72.5013 193.176 72.562Z" fill="#D0D0DD"/>
<path d="M192.329 75.8107C174.483 78.7825 167.296 80.6234 147.663 84.1961C147.269 84.2669 147 84.0282 147.064 83.66C147.129 83.2938 147.507 82.9337 147.901 82.8629C167.561 79.3044 174.889 77.4068 192.697 74.4148C193.053 74.3561 193.263 74.6252 193.162 75.0095C193.061 75.3939 192.685 75.75 192.329 75.8107Z" fill="#D0D0DD"/>
<path d="M191.526 78.8088C173.565 81.7968 166.689 83.5447 147.084 87.2104C146.692 87.2832 146.427 87.0486 146.498 86.6865C146.569 86.3243 146.951 85.9663 147.343 85.8934C166.956 82.2803 173.965 80.496 191.869 77.5282C192.229 77.4696 192.444 77.7143 192.351 78.0663C192.258 78.4184 191.886 78.7481 191.526 78.8068V78.8088Z" fill="#D0D0DD"/>
<path d="M190.812 81.5099C172.683 84.6152 166.091 86.3227 146.461 90.1846C146.067 90.2615 145.808 90.0349 145.885 89.6748C145.962 89.3167 146.348 88.9607 146.74 88.8858C166.352 85.123 173.065 83.4034 191.111 80.3628C191.473 80.3021 191.702 80.5166 191.619 80.8322C191.538 81.1457 191.174 81.4451 190.812 81.5079V81.5099Z" fill="#D0D0DD"/>
<path d="M148.959 33.3534C147.329 33.8511 146.518 34.0938 144.899 34.5551C144.686 33.9866 144.581 33.7014 144.367 33.1369C148.302 32.0142 150.294 31.383 154.287 30.064C154.502 30.6304 154.609 30.9177 154.821 31.4882C153.173 32.0303 152.35 32.2974 150.708 32.8112C151.742 35.5767 152.249 36.9827 153.137 39.819C152.435 40.0334 152.083 40.1407 151.382 40.351C150.498 37.5208 149.99 36.1169 148.959 33.3534Z" fill="#D0D0DD"/>
<defs>
<radialGradient id="paint0_radial_2395_1211" cx="0" cy="0" r="1" gradientUnits="userSpaceOnUse" gradientTransform="translate(254 296) rotate(90) scale(79 216)">
<stop/>
<stop offset="0.595" stop-opacity="0"/>
<stop offset="1" stop-opacity="0"/>
</radialGradient>
<linearGradient id="paint1_linear_2395_1211" x1="354.375" y1="259.633" x2="185.184" y2="279.283" gradientUnits="userSpaceOnUse">
<stop stop-color="#CBCBD6"/>
<stop offset="1" stop-color="#F9FAF9"/>
</linearGradient>
<linearGradient id="paint2_linear_2395_1211" x1="295.188" y1="99.0225" x2="354.185" y2="227.801" gradientUnits="userSpaceOnUse">
<stop stop-color="#3B3E5E"/>
<stop offset="1" stop-color="#626282"/>
</linearGradient>
<linearGradient id="paint3_linear_2395_1211" x1="261.277" y1="224.192" x2="372.04" y2="79.7322" gradientUnits="userSpaceOnUse">
<stop stop-color="#3B3E5E"/>
<stop offset="1" stop-color="#626282"/>
</linearGradient>
<linearGradient id="paint4_linear_2395_1211" x1="230.588" y1="210.904" x2="224.167" y2="326.052" gradientUnits="userSpaceOnUse">
<stop stop-color="#CBCBD6"/>
<stop offset="1" stop-color="#F9FAF9"/>
</linearGradient>
<linearGradient id="paint5_linear_2395_1211" x1="192.585" y1="208.49" x2="207.156" y2="210.674" gradientUnits="userSpaceOnUse">
<stop stop-color="#3B3E5E"/>
<stop offset="1" stop-color="#626282"/>
</linearGradient>
<linearGradient id="paint6_linear_2395_1211" x1="181.912" y1="215.511" x2="201.82" y2="218.495" gradientUnits="userSpaceOnUse">
<stop stop-color="#3B3E5E"/>
<stop offset="1" stop-color="#626282"/>
</linearGradient>
<linearGradient id="paint7_linear_2395_1211" x1="203.309" y1="212.838" x2="218.073" y2="215.052" gradientUnits="userSpaceOnUse">
<stop stop-color="#3B3E5E"/>
<stop offset="1" stop-color="#626282"/>
</linearGradient>
<linearGradient id="paint8_linear_2395_1211" x1="214.069" y1="217.089" x2="229.008" y2="219.329" gradientUnits="userSpaceOnUse">
<stop stop-color="#3B3E5E"/>
<stop offset="1" stop-color="#626282"/>
</linearGradient>
<linearGradient id="paint9_linear_2395_1211" x1="224.853" y1="221.248" x2="239.946" y2="223.511" gradientUnits="userSpaceOnUse">
<stop stop-color="#3B3E5E"/>
<stop offset="1" stop-color="#626282"/>
</linearGradient>
<linearGradient id="paint10_linear_2395_1211" x1="235.647" y1="225.329" x2="250.876" y2="227.612" gradientUnits="userSpaceOnUse">
<stop stop-color="#3B3E5E"/>
<stop offset="1" stop-color="#626282"/>
</linearGradient>
<linearGradient id="paint11_linear_2395_1211" x1="246.442" y1="229.336" x2="261.787" y2="231.636" gradientUnits="userSpaceOnUse">
<stop stop-color="#3B3E5E"/>
<stop offset="1" stop-color="#626282"/>
</linearGradient>
<linearGradient id="paint12_linear_2395_1211" x1="257.22" y1="233.283" x2="272.668" y2="235.599" gradientUnits="userSpaceOnUse">
<stop stop-color="#3B3E5E"/>
<stop offset="1" stop-color="#626282"/>
</linearGradient>
<linearGradient id="paint13_linear_2395_1211" x1="267.972" y1="237.177" x2="283.505" y2="239.506" gradientUnits="userSpaceOnUse">
<stop stop-color="#3B3E5E"/>
<stop offset="1" stop-color="#626282"/>
</linearGradient>
<linearGradient id="paint14_linear_2395_1211" x1="278.686" y1="241.027" x2="294.289" y2="243.366" gradientUnits="userSpaceOnUse">
<stop stop-color="#3B3E5E"/>
<stop offset="1" stop-color="#626282"/>
</linearGradient>
<linearGradient id="paint15_linear_2395_1211" x1="289.346" y1="244.844" x2="305.005" y2="247.192" gradientUnits="userSpaceOnUse">
<stop stop-color="#3B3E5E"/>
<stop offset="1" stop-color="#626282"/>
</linearGradient>
<linearGradient id="paint16_linear_2395_1211" x1="299.942" y1="248.637" x2="315.643" y2="250.991" gradientUnits="userSpaceOnUse">
<stop stop-color="#3B3E5E"/>
<stop offset="1" stop-color="#626282"/>
</linearGradient>
<linearGradient id="paint17_linear_2395_1211" x1="310.459" y1="252.414" x2="326.191" y2="254.773" gradientUnits="userSpaceOnUse">
<stop stop-color="#3B3E5E"/>
<stop offset="1" stop-color="#626282"/>
</linearGradient>
<linearGradient id="paint18_linear_2395_1211" x1="320.816" y1="256.668" x2="341.138" y2="259.715" gradientUnits="userSpaceOnUse">
<stop stop-color="#3B3E5E"/>
<stop offset="1" stop-color="#626282"/>
</linearGradient>
<linearGradient id="paint19_linear_2395_1211" x1="196.924" y1="221.126" x2="211.588" y2="223.325" gradientUnits="userSpaceOnUse">
<stop stop-color="#3B3E5E"/>
<stop offset="1" stop-color="#626282"/>
</linearGradient>
<linearGradient id="paint20_linear_2395_1211" x1="207.425" y1="225.455" x2="222.276" y2="227.682" gradientUnits="userSpaceOnUse">
<stop stop-color="#3B3E5E"/>
<stop offset="1" stop-color="#626282"/>
</linearGradient>
<linearGradient id="paint21_linear_2395_1211" x1="217.96" y1="229.708" x2="232.975" y2="231.959" gradientUnits="userSpaceOnUse">
<stop stop-color="#3B3E5E"/>
<stop offset="1" stop-color="#626282"/>
</linearGradient>
<linearGradient id="paint22_linear_2395_1211" x1="228.515" y1="233.894" x2="243.676" y2="236.167" gradientUnits="userSpaceOnUse">
<stop stop-color="#3B3E5E"/>
<stop offset="1" stop-color="#626282"/>
</linearGradient>
<linearGradient id="paint23_linear_2395_1211" x1="239.078" y1="238.017" x2="254.367" y2="240.309" gradientUnits="userSpaceOnUse">
<stop stop-color="#3B3E5E"/>
<stop offset="1" stop-color="#626282"/>
</linearGradient>
<linearGradient id="paint24_linear_2395_1211" x1="249.632" y1="242.092" x2="265.032" y2="244.401" gradientUnits="userSpaceOnUse">
<stop stop-color="#3B3E5E"/>
<stop offset="1" stop-color="#626282"/>
</linearGradient>
<linearGradient id="paint25_linear_2395_1211" x1="260.165" y1="246.127" x2="275.66" y2="248.45" gradientUnits="userSpaceOnUse">
<stop stop-color="#3B3E5E"/>
<stop offset="1" stop-color="#626282"/>
</linearGradient>
<linearGradient id="paint26_linear_2395_1211" x1="270.662" y1="250.129" x2="286.237" y2="252.464" gradientUnits="userSpaceOnUse">
<stop stop-color="#3B3E5E"/>
<stop offset="1" stop-color="#626282"/>
</linearGradient>
<linearGradient id="paint27_linear_2395_1211" x1="281.111" y1="254.111" x2="296.75" y2="256.455" gradientUnits="userSpaceOnUse">
<stop stop-color="#3B3E5E"/>
<stop offset="1" stop-color="#626282"/>
</linearGradient>
<linearGradient id="paint28_linear_2395_1211" x1="291.497" y1="258.077" x2="307.186" y2="260.429" gradientUnits="userSpaceOnUse">
<stop stop-color="#3B3E5E"/>
<stop offset="1" stop-color="#626282"/>
</linearGradient>
<linearGradient id="paint29_linear_2395_1211" x1="301.808" y1="262.04" x2="317.532" y2="264.397" gradientUnits="userSpaceOnUse">
<stop stop-color="#3B3E5E"/>
<stop offset="1" stop-color="#626282"/>
</linearGradient>
<linearGradient id="paint30_linear_2395_1211" x1="312.026" y1="266.007" x2="327.776" y2="268.369" gradientUnits="userSpaceOnUse">
<stop stop-color="#3B3E5E"/>
<stop offset="1" stop-color="#626282"/>
</linearGradient>
<linearGradient id="paint31_linear_2395_1211" x1="148.332" y1="233.776" x2="168.388" y2="236.783" gradientUnits="userSpaceOnUse">
<stop stop-color="#3B3E5E"/>
<stop offset="1" stop-color="#626282"/>
</linearGradient>
<linearGradient id="paint32_linear_2395_1211" x1="162.592" y1="239.653" x2="177.551" y2="241.896" gradientUnits="userSpaceOnUse">
<stop stop-color="#3B3E5E"/>
<stop offset="1" stop-color="#626282"/>
</linearGradient>
<linearGradient id="paint33_linear_2395_1211" x1="172.623" y1="244.245" x2="187.644" y2="246.497" gradientUnits="userSpaceOnUse">
<stop stop-color="#3B3E5E"/>
<stop offset="1" stop-color="#626282"/>
</linearGradient>
<linearGradient id="paint34_linear_2395_1211" x1="181.877" y1="254.508" x2="239.518" y2="263.15" gradientUnits="userSpaceOnUse">
<stop stop-color="#3B3E5E"/>
<stop offset="1" stop-color="#626282"/>
</linearGradient>
<linearGradient id="paint35_linear_2395_1211" x1="233.908" y1="270.999" x2="248.865" y2="273.241" gradientUnits="userSpaceOnUse">
<stop stop-color="#3B3E5E"/>
<stop offset="1" stop-color="#626282"/>
</linearGradient>
<linearGradient id="paint36_linear_2395_1211" x1="244.145" y1="275.405" x2="259.025" y2="277.636" gradientUnits="userSpaceOnUse">
<stop stop-color="#3B3E5E"/>
<stop offset="1" stop-color="#626282"/>
</linearGradient>
<linearGradient id="paint37_linear_2395_1211" x1="254.338" y1="279.821" x2="269.127" y2="282.038" gradientUnits="userSpaceOnUse">
<stop stop-color="#3B3E5E"/>
<stop offset="1" stop-color="#626282"/>
</linearGradient>
<linearGradient id="paint38_linear_2395_1211" x1="264.474" y1="284.253" x2="279.157" y2="286.454" gradientUnits="userSpaceOnUse">
<stop stop-color="#3B3E5E"/>
<stop offset="1" stop-color="#626282"/>
</linearGradient>
<linearGradient id="paint39_linear_2395_1211" x1="274.537" y1="288.71" x2="289.096" y2="290.893" gradientUnits="userSpaceOnUse">
<stop stop-color="#3B3E5E"/>
<stop offset="1" stop-color="#626282"/>
</linearGradient>
<linearGradient id="paint40_linear_2395_1211" x1="171.133" y1="222.08" x2="194.565" y2="225.593" gradientUnits="userSpaceOnUse">
<stop stop-color="#3B3E5E"/>
<stop offset="1" stop-color="#626282"/>
</linearGradient>
<linearGradient id="paint41_linear_2395_1211" x1="189.35" y1="228.829" x2="204.019" y2="231.028" gradientUnits="userSpaceOnUse">
<stop stop-color="#3B3E5E"/>
<stop offset="1" stop-color="#626282"/>
</linearGradient>
<linearGradient id="paint42_linear_2395_1211" x1="199.625" y1="233.245" x2="214.46" y2="235.469" gradientUnits="userSpaceOnUse">
<stop stop-color="#3B3E5E"/>
<stop offset="1" stop-color="#626282"/>
</linearGradient>
<linearGradient id="paint43_linear_2395_1211" x1="209.945" y1="237.596" x2="224.928" y2="239.842" gradientUnits="userSpaceOnUse">
<stop stop-color="#3B3E5E"/>
<stop offset="1" stop-color="#626282"/>
</linearGradient>
<linearGradient id="paint44_linear_2395_1211" x1="220.296" y1="241.89" x2="235.405" y2="244.155" gradientUnits="userSpaceOnUse">
<stop stop-color="#3B3E5E"/>
<stop offset="1" stop-color="#626282"/>
</linearGradient>
<linearGradient id="paint45_linear_2395_1211" x1="230.661" y1="246.138" x2="245.88" y2="248.419" gradientUnits="userSpaceOnUse">
<stop stop-color="#3B3E5E"/>
<stop offset="1" stop-color="#626282"/>
</linearGradient>
<linearGradient id="paint46_linear_2395_1211" x1="241.025" y1="250.344" x2="256.336" y2="252.639" gradientUnits="userSpaceOnUse">
<stop stop-color="#3B3E5E"/>
<stop offset="1" stop-color="#626282"/>
</linearGradient>
<linearGradient id="paint47_linear_2395_1211" x1="251.375" y1="254.522" x2="266.758" y2="256.828" gradientUnits="userSpaceOnUse">
<stop stop-color="#3B3E5E"/>
<stop offset="1" stop-color="#626282"/>
</linearGradient>
<linearGradient id="paint48_linear_2395_1211" x1="261.694" y1="258.678" x2="277.134" y2="260.993" gradientUnits="userSpaceOnUse">
<stop stop-color="#3B3E5E"/>
<stop offset="1" stop-color="#626282"/>
</linearGradient>
<linearGradient id="paint49_linear_2395_1211" x1="271.967" y1="262.821" x2="287.452" y2="265.143" gradientUnits="userSpaceOnUse">
<stop stop-color="#3B3E5E"/>
<stop offset="1" stop-color="#626282"/>
</linearGradient>
<linearGradient id="paint50_linear_2395_1211" x1="282.18" y1="266.962" x2="297.693" y2="269.288" gradientUnits="userSpaceOnUse">
<stop stop-color="#3B3E5E"/>
<stop offset="1" stop-color="#626282"/>
</linearGradient>
<linearGradient id="paint51_linear_2395_1211" x1="292.184" y1="271.988" x2="314.592" y2="275.347" gradientUnits="userSpaceOnUse">
<stop stop-color="#3B3E5E"/>
<stop offset="1" stop-color="#626282"/>
</linearGradient>
<linearGradient id="paint52_linear_2395_1211" x1="159.98" y1="228.427" x2="185.6" y2="232.268" gradientUnits="userSpaceOnUse">
<stop stop-color="#3B3E5E"/>
<stop offset="1" stop-color="#626282"/>
</linearGradient>
<linearGradient id="paint53_linear_2395_1211" x1="180.033" y1="235.916" x2="194.803" y2="238.131" gradientUnits="userSpaceOnUse">
<stop stop-color="#3B3E5E"/>
<stop offset="1" stop-color="#626282"/>
</linearGradient>
<linearGradient id="paint54_linear_2395_1211" x1="190.155" y1="240.414" x2="205.048" y2="242.646" gradientUnits="userSpaceOnUse">
<stop stop-color="#3B3E5E"/>
<stop offset="1" stop-color="#626282"/>
</linearGradient>
<linearGradient id="paint55_linear_2395_1211" x1="200.334" y1="244.856" x2="215.327" y2="247.104" gradientUnits="userSpaceOnUse">
<stop stop-color="#3B3E5E"/>
<stop offset="1" stop-color="#626282"/>
</linearGradient>
<linearGradient id="paint56_linear_2395_1211" x1="210.556" y1="249.253" x2="225.628" y2="251.513" gradientUnits="userSpaceOnUse">
<stop stop-color="#3B3E5E"/>
<stop offset="1" stop-color="#626282"/>
</linearGradient>
<linearGradient id="paint57_linear_2395_1211" x1="220.801" y1="253.61" x2="235.936" y2="255.879" gradientUnits="userSpaceOnUse">
<stop stop-color="#3B3E5E"/>
<stop offset="1" stop-color="#626282"/>
</linearGradient>
<linearGradient id="paint58_linear_2395_1211" x1="231.053" y1="257.939" x2="246.23" y2="260.214" gradientUnits="userSpaceOnUse">
<stop stop-color="#3B3E5E"/>
<stop offset="1" stop-color="#626282"/>
</linearGradient>
<linearGradient id="paint59_linear_2395_1211" x1="241.298" y1="262.246" x2="256.501" y2="264.525" gradientUnits="userSpaceOnUse">
<stop stop-color="#3B3E5E"/>
<stop offset="1" stop-color="#626282"/>
</linearGradient>
<linearGradient id="paint60_linear_2395_1211" x1="251.519" y1="266.543" x2="266.73" y2="268.823" gradientUnits="userSpaceOnUse">
<stop stop-color="#3B3E5E"/>
<stop offset="1" stop-color="#626282"/>
</linearGradient>
<linearGradient id="paint61_linear_2395_1211" x1="261.699" y1="270.836" x2="276.902" y2="273.115" gradientUnits="userSpaceOnUse">
<stop stop-color="#3B3E5E"/>
<stop offset="1" stop-color="#626282"/>
</linearGradient>
<linearGradient id="paint62_linear_2395_1211" x1="271.515" y1="277.174" x2="301.758" y2="281.708" gradientUnits="userSpaceOnUse">
<stop stop-color="#3B3E5E"/>
<stop offset="1" stop-color="#626282"/>
</linearGradient>
<linearGradient id="paint63_linear_2395_1211" x1="27.0866" y1="326.815" x2="101.359" y2="264.133" gradientUnits="userSpaceOnUse">
<stop stop-color="#E1E2E7"/>
<stop offset="1" stop-color="#F9FAF9"/>
</linearGradient>
<linearGradient id="paint64_linear_2395_1211" x1="263.477" y1="152.165" x2="337.75" y2="89.4834" gradientUnits="userSpaceOnUse">
<stop stop-color="#E1E2E7"/>
<stop offset="1" stop-color="#F9FAF9"/>
</linearGradient>
<linearGradient id="paint65_linear_2395_1211" x1="199.167" y1="371.77" x2="215.127" y2="275.877" gradientUnits="userSpaceOnUse">
<stop stop-color="#E1E2E7"/>
<stop offset="1" stop-color="#F9FAF9"/>
</linearGradient>
<linearGradient id="paint66_linear_2395_1211" x1="36.5812" y1="242.544" x2="52.5415" y2="146.651" gradientUnits="userSpaceOnUse">
<stop stop-color="#E1E2E7"/>
<stop offset="1" stop-color="#F9FAF9"/>
</linearGradient>
<linearGradient id="paint67_linear_2395_1211" x1="384.889" y1="284.22" x2="400.852" y2="188.328" gradientUnits="userSpaceOnUse">
<stop stop-color="#E1E2E7"/>
<stop offset="1" stop-color="#F9FAF9"/>
</linearGradient>
<linearGradient id="paint68_linear_2395_1211" x1="186.913" y1="123.505" x2="159.938" y2="30.1111" gradientUnits="userSpaceOnUse">
<stop stop-color="#E1E2E7"/>
<stop offset="1" stop-color="#F9FAF9"/>
</linearGradient>
</defs>
</svg>
