<svg width="130" height="130" viewBox="0 0 130 130" fill="none" xmlns="http://www.w3.org/2000/svg">
<rect width="130" height="130" rx="16" fill="#E5F2FF"/>
<g clip-path="url(#clip0_2406_1215)">
<path d="M19.8189 32C27.0764 32 32.9776 37.0191 33.1136 44.0048C33.1816 45.9714 31.7572 47.0574 30.197 47.0574C28.7047 47.0574 27.4163 45.9729 27.3483 44.1407C27.2804 40.2061 23.9574 37.2895 19.751 37.2895C15.8163 37.2895 12.8332 40.0702 12.8332 43.8688C12.8332 48.0059 15.6139 49.838 21.3792 51.9405C27.5507 54.179 33.1816 56.8237 33.1816 64.6914C33.1816 71.5427 27.8226 77.0361 20.3626 77.0361C13.0372 77.0361 7 71.881 7 64.8954C7 60.5544 9.1025 57.5019 11.137 57.5019C12.9012 57.5019 13.9857 58.6543 13.9857 60.2146C13.9857 61.571 12.8332 62.1812 12.8332 64.6235C12.8332 68.9644 16.36 71.7451 20.3626 71.7451C24.5676 71.7451 27.3483 68.8285 27.3483 65.3017C27.3483 60.9607 24.5676 59.1301 18.8024 57.0941C12.359 54.7907 7 52.0085 7 44.3446C7 37.4269 12.5614 32 19.8189 32Z" fill="#00D639"/>
<path d="M49.4198 77.0374C42.0943 77.0374 35.9907 71.1362 35.9907 63.6748C35.9907 55.943 42.1623 50.1777 49.6237 50.1777C57.6273 50.1777 63.2565 56.1469 63.2565 64.2865V74.1888C63.2565 75.885 61.9002 77.0374 60.3403 77.0374C58.7121 77.0374 57.3554 75.885 57.3554 74.1888V64.4889C57.3554 59.13 54.3032 55.4672 49.4878 55.4672C45.2148 55.4672 41.8239 59.062 41.8239 63.6748C41.8239 67.9478 45.1468 71.6105 49.3534 71.6105C50.9136 71.6105 51.5918 71.2042 52.5418 71.2042C53.8304 71.2042 55.1866 72.2887 55.1866 73.849C55.1852 75.9515 52.6748 77.0374 49.4198 77.0374Z" fill="#00D639"/>
<path d="M79.9696 97.2499C72.3726 97.2499 66.0649 91.823 66.0649 84.7693C66.0649 82.395 67.4212 81.3106 68.9816 81.3106C70.5416 81.3106 71.8301 82.3286 71.8984 84.2951C71.9661 88.704 75.493 91.9589 79.9019 91.9589C84.5827 91.9589 87.6335 88.9745 87.6335 85.1075C87.6335 80.6986 84.2426 78.8681 78.4774 77.036C71.7624 74.8655 66.0649 71.8809 66.0649 63.6068C66.0649 56.0094 71.8983 50.1777 79.494 50.1777C87.1579 50.1777 93.4669 55.7391 93.4669 63.0646C93.4669 67.5415 91.6364 71.0003 89.1257 71.0003C87.4298 71.0003 86.2772 69.7799 86.2772 68.2876C86.2772 66.7274 87.6335 66.0492 87.6335 63.2685C87.6335 58.5877 83.9707 55.4687 79.5618 55.4687C75.2888 55.4687 71.8984 58.7252 71.8984 62.9981C71.8984 67.8134 75.357 69.8494 81.0545 71.748C87.6335 73.9184 93.4669 76.6312 93.4669 84.567C93.4669 91.6884 87.8377 97.2499 79.9696 97.2499Z" fill="#00D639"/>
<path d="M110.113 77.0374C102.516 77.0374 96.2764 71.0683 96.2764 63.6083C96.2764 56.1468 102.313 50.1792 109.773 50.1792C117.303 50.1792 123 55.4022 123 62.0496C123 64.6263 121.17 66.1866 118.185 66.1866H110.385C108.825 66.1866 107.672 65.1021 107.672 63.6763C107.672 62.3199 108.825 61.234 110.385 61.234H116.218C116.761 61.234 117.168 60.962 117.168 60.4198C117.168 58.4532 114.658 55.4007 109.979 55.4007C105.638 55.4007 102.111 59.1314 102.111 63.6083C102.111 68.1532 105.706 71.748 110.182 71.748C115.338 71.748 117.034 68.6954 119.136 68.6954C120.9 68.6954 121.849 69.8478 121.849 71.1378C121.849 72.3582 121.035 73.4442 119 74.7325C116.963 76.0194 113.912 77.0374 110.113 77.0374Z" fill="#00D639"/>
</g>
<defs>
<clipPath id="clip0_2406_1215">
<rect width="116" height="65.424" fill="white" transform="translate(7 32)"/>
</clipPath>
</defs>
</svg>
