<svg width="130" height="130" viewBox="0 0 130 130" fill="none" xmlns="http://www.w3.org/2000/svg">
<rect width="130" height="130" rx="16" fill="#E5F2FF"/>
<g clip-path="url(#clip0_2406_1217)">
<path fill-rule="evenodd" clip-rule="evenodd" d="M7 93.3813H65.6222L123 36H7V93.3813Z" fill="url(#paint0_linear_2406_1217)"/>
<path fill-rule="evenodd" clip-rule="evenodd" d="M75.8399 46.7875H64.4231V73.9313L54.4464 46.784H44.5572L36.0383 69.4848C35.1364 63.7659 29.2148 61.7839 24.5551 60.3017C21.4754 59.316 18.2174 57.8618 18.2454 56.2538C18.2664 54.9359 19.9967 53.7124 23.412 53.8977C25.7086 54.02 27.7361 54.2053 31.7631 56.1489L35.7377 49.238C32.0532 47.3643 26.9671 46.1828 22.8037 46.1758H22.7758C17.9168 46.1758 13.8653 47.7558 11.3554 50.3461C9.60761 52.1604 8.66378 54.457 8.62183 57.0053C8.55891 60.5115 9.84531 62.9934 12.5475 64.9789C14.8231 66.6464 17.7385 67.7335 20.3078 68.534C23.4749 69.5128 26.0652 70.3658 26.0302 72.187C26.0162 72.8512 25.7611 73.4664 25.2856 73.9663C24.4921 74.7843 23.2826 75.0919 21.6047 75.1233C18.3677 75.1898 15.9697 74.6829 12.149 72.4247L8.62183 79.43C12.4356 81.5973 16.9485 82.8697 21.5453 82.8697H22.1396C26.1491 82.7928 29.3826 81.6463 31.9693 79.5698C32.1127 79.4545 32.249 79.3321 32.3853 79.2098L31.2422 82.272H41.6104L43.3512 76.976C45.1725 77.5913 47.2454 77.9409 49.4477 77.9409C51.6499 77.9409 53.611 77.6123 55.4008 77.025L57.0787 82.272H73.9907V71.3061H77.6786C86.596 71.3061 91.8745 66.7652 91.8745 59.1552C91.8745 50.6782 86.7463 46.7875 75.8329 46.7875H75.8399ZM49.4511 70.0232C48.1193 70.0232 46.8679 69.7855 45.7912 69.3765L49.4127 57.9597H49.4861L53.0307 69.4079C51.9645 69.7925 50.748 70.0197 49.4477 70.0197L49.4511 70.0232ZM76.5111 63.4618H73.9942V54.2577H76.5111C79.8669 54.2577 82.5376 55.3694 82.5376 58.8056C82.5376 62.2418 79.8669 63.4618 76.5111 63.4618Z" fill="white"/>
<path d="M79.6538 89.6621C79.6538 87.9003 80.9822 86.5649 82.6846 86.5649C84.387 86.5649 85.6943 87.9003 85.6943 89.6621C85.6943 91.4239 84.3625 92.7697 82.6846 92.7697C81.0067 92.7697 79.6538 91.4519 79.6538 89.6621ZM82.6846 93.392C84.7086 93.392 86.4424 91.8119 86.4424 89.6621C86.4424 87.5123 84.7086 85.9497 82.6846 85.9497C80.6606 85.9497 78.9058 87.5262 78.9058 89.6621C78.9058 91.7979 80.6361 93.392 82.6846 93.392ZM81.8946 89.9557H82.6426L83.7717 91.8154H84.5023L83.2788 89.9278C83.9081 89.8544 84.3939 89.5153 84.3939 88.7462C84.3939 87.9003 83.8941 87.5262 82.8803 87.5262H81.2444V91.8154H81.8911V89.9557H81.8946ZM81.8946 89.4034V88.0786H82.7824C83.2264 88.0786 83.7053 88.1729 83.7053 88.7078C83.7053 89.3685 83.2159 89.4034 82.6741 89.4034H81.8946Z" fill="#225FBC"/>
</g>
<defs>
<linearGradient id="paint0_linear_2406_1217" x1="65" y1="93.4652" x2="65" y2="36.0804" gradientUnits="userSpaceOnUse">
<stop stop-color="#225FBC"/>
<stop offset="1" stop-color="#1FB2F0"/>
</linearGradient>
<clipPath id="clip0_2406_1217">
<rect width="116" height="57.3918" fill="white" transform="translate(7 36)"/>
</clipPath>
</defs>
</svg>
