<svg width="130" height="130" viewBox="0 0 130 130" fill="none" xmlns="http://www.w3.org/2000/svg">
<rect width="130" height="130" rx="16" fill="#E5F2FF"/>
<g clip-path="url(#clip0_2406_1214)">
<path d="M58.0172 64.2063H64.3944C67.3507 64.2063 69.7721 65.1678 69.7721 68.5833C69.7721 70.3772 68.8711 71.5827 67.1677 72.085C69.3638 72.5299 70.4478 73.7784 70.4478 76.0602C70.4478 79.5762 67.8575 80.6812 64.8308 80.6812H58.0313L58.0172 64.2063ZM64.0143 71.1235C65.774 71.1235 66.7595 70.5925 66.7595 68.6551C66.7595 66.8469 65.4925 66.4451 63.958 66.4451H61.0721V71.1235H64.0143ZM64.4367 78.4568C66.2245 78.4568 67.3648 77.7536 67.3648 75.8593C67.3648 73.764 65.957 73.2474 64.2255 73.2474H61.0721V78.4568H64.4367ZM78.2328 68.3681C81.8226 68.3681 84.5818 70.9369 84.5818 74.6251C84.5818 78.4138 81.6818 80.9108 78.1061 80.9108C74.5022 80.9108 71.6163 78.3707 71.6163 74.6825C71.6163 70.9082 74.6852 68.3681 78.2328 68.3681ZM81.5551 74.6538C81.5551 72.4294 80.457 70.5925 78.1342 70.5925C75.741 70.5925 74.7978 72.5299 74.7978 74.7399C74.7978 76.8782 75.91 78.7008 78.2046 78.7008C80.5556 78.7008 81.5551 76.7634 81.5551 74.6538ZM92.1133 68.3681C95.7032 68.3681 98.4624 70.9369 98.4624 74.6251C98.4624 78.4138 95.5624 80.9108 91.9867 80.9108C88.3828 80.9108 85.4968 78.3707 85.4968 74.6825C85.4968 70.9082 88.5517 68.3681 92.1133 68.3681ZM95.4357 74.6538C95.4357 72.4294 94.3376 70.5925 92.0148 70.5925C89.6216 70.5925 88.6784 72.5299 88.6784 74.7399C88.6784 76.8782 89.7905 78.7008 92.0852 78.7008C94.4362 78.7008 95.4357 76.7634 95.4357 74.6538ZM100.532 63.173H103.361V73.8932L107.655 68.6408H110.752L106.064 74.1659L111.118 80.6956H107.852L103.361 74.8117V80.6956H100.532V63.173ZM114.004 77.0935C114.441 78.2703 115.651 78.8443 116.932 78.8443C117.847 78.8443 118.988 78.5573 118.988 77.4092C118.988 76.2037 117.707 75.9167 116.242 75.601C114.342 75.1991 112.216 74.7256 112.216 72.0132C112.216 69.5305 114.483 68.3537 116.623 68.3537C118.495 68.3537 120.649 69.0713 121.423 70.98L119.325 71.8984C118.861 70.8221 117.707 70.4203 116.735 70.4203C115.792 70.4203 114.891 70.8078 114.891 71.7836C114.891 72.8886 116.045 73.1183 117.481 73.4053C119.41 73.7928 121.719 74.2376 121.719 77.0504C121.719 79.8919 119.382 80.8965 116.918 80.8965C114.835 80.8965 112.582 80.1789 111.85 78.0119L114.004 77.0935ZM58.0454 58.9825L63.2541 51.3191H58.5803V49.8123H65.7036V50.5585L60.6216 58.2219H65.5488V59.7288H58.0454V58.9825ZM70.1522 52.3237C72.3202 52.3237 73.9813 53.8736 73.9813 56.098C73.9813 58.3798 72.2357 59.8867 70.0818 59.8867C67.9138 59.8867 66.1682 58.3511 66.1682 56.1411C66.1682 53.8449 68.0124 52.3237 70.1522 52.3237ZM72.1512 56.098C72.1512 54.7634 71.4896 53.644 70.0959 53.644C68.66 53.644 68.0828 54.8064 68.0828 56.1411C68.0828 57.4326 68.7585 58.5233 70.1381 58.5233C71.56 58.5377 72.1512 57.3752 72.1512 56.098ZM75.2342 49.1808H76.9376V53.6296C77.4022 52.7255 78.3313 52.3237 79.3167 52.3237C81.0201 52.3237 81.8789 53.5435 81.8789 55.1939V59.7432H80.1614V55.3661C80.1614 54.3185 79.6265 53.7588 78.641 53.7588C77.543 53.7588 76.9517 54.4476 76.9517 55.4809V59.7432H75.2483L75.2342 49.1808ZM86.9609 52.3237C89.1289 52.3237 90.7901 53.8736 90.7901 56.098C90.7901 58.3798 89.0444 59.8867 86.8905 59.8867C84.7226 59.8867 82.9769 58.3511 82.9769 56.1411C82.9769 53.8449 84.8211 52.3237 86.9609 52.3237ZM88.96 56.098C88.96 54.7634 88.2983 53.644 86.8905 53.644C85.4546 53.644 84.8774 54.8064 84.8774 56.1411C84.8774 57.4326 85.5532 58.5233 86.9328 58.5233C88.3546 58.5377 88.96 57.3752 88.96 56.098ZM37.2104 86.0485H9.32258C8.66093 86.0485 8.12598 85.5031 8.12598 84.8286V74.4959C8.12598 72.2428 9.53374 70.2337 11.6313 69.5018L42.5459 58.6812C44.9532 57.8345 46.5721 55.524 46.5721 52.9408C46.5721 49.597 43.8973 46.8703 40.6172 46.8703H10.5192V66.9904C10.5192 67.6649 9.98423 68.2102 9.32258 68.2102C8.66093 68.2102 8.12598 67.6649 8.12598 66.9904V45.6505C8.12598 44.976 8.66093 44.4307 9.32258 44.4307H40.6032C45.2066 44.4307 48.9512 48.248 48.9512 52.9408C48.9512 56.5716 46.6847 59.8149 43.3061 60.9917L12.4056 71.8123C11.2794 72.2141 10.5192 73.2905 10.5192 74.5103V83.6088H37.2104C39.7022 83.6088 42.0532 82.6186 43.8269 80.8104C45.5867 79.0165 46.5721 76.6199 46.5721 74.0798C46.5721 72.2715 46.0794 70.5207 45.1362 68.9995C44.207 67.4927 42.8837 66.2872 41.307 65.5122C40.7158 65.2109 40.4624 64.4933 40.758 63.8762C41.0396 63.2735 41.7575 63.0152 42.3629 63.3165C44.3337 64.2924 45.9949 65.8136 47.1634 67.7079C48.3459 69.6166 48.9794 71.8267 48.9794 74.0941C48.9794 77.2944 47.7546 80.2937 45.5444 82.5612C43.292 84.7999 40.3498 86.0485 37.2104 86.0485Z" fill="#1A58BF"/>
<path d="M21.5843 61.494C18.9517 61.494 16.7979 59.3127 16.7979 56.6147C16.7979 53.9167 18.9377 51.7354 21.5843 51.7354C24.2309 51.7354 26.3707 53.9167 26.3707 56.6147C26.3707 59.3127 24.2168 61.494 21.5843 61.494ZM21.5843 54.175C20.261 54.175 19.1911 55.2657 19.1911 56.6147C19.1911 57.9637 20.261 59.0543 21.5843 59.0543C22.9076 59.0543 23.9775 57.9637 23.9775 56.6147C23.9775 55.2657 22.8935 54.175 21.5843 54.175ZM33.5784 78.7152C30.9459 78.7152 28.792 76.5338 28.792 73.8358C28.792 71.1379 30.9318 68.9565 33.5784 68.9565C36.225 68.9565 38.3648 71.1379 38.3648 73.8358C38.3648 76.5338 36.211 78.7152 33.5784 78.7152ZM33.5784 71.3962C32.2551 71.3962 31.1852 72.4869 31.1852 73.8358C31.1852 75.1848 32.2551 76.2755 33.5784 76.2755C34.9017 76.2755 35.9716 75.1848 35.9716 73.8358C35.9716 72.4869 34.8877 71.3962 33.5784 71.3962Z" fill="#1A58BF"/>
</g>
<defs>
<clipPath id="clip0_2406_1214">
<rect width="116" height="42.4789" fill="white" transform="translate(7 44)"/>
</clipPath>
</defs>
</svg>
