<svg width="325" height="280" viewBox="0 0 325 280" fill="none" xmlns="http://www.w3.org/2000/svg">
<g filter="url(#filter0_d_2211_1211)">
<path fill-rule="evenodd" clip-rule="evenodd" d="M168.841 201.41L168.841 217.924L155.819 217.924L155.819 201.41L168.841 201.41ZM34.3129 38.3784L21.2907 38.3784L21.2907 69.6851C21.2907 73.2783 24.2086 76.1962 27.8018 76.1962L60.7649 76.1962L115.822 90.9512L115.822 139.778L128.845 139.778L128.845 85.9564C128.845 83.0131 126.87 80.4265 124.015 79.6747L63.3006 63.4034C62.7527 63.2505 62.1793 63.1867 61.6059 63.1867L34.3001 63.1867L34.3129 38.3784ZM195.816 85.9564L195.816 139.778L208.838 139.778L208.838 90.9512L263.895 76.1962L296.846 76.1962C300.439 76.1962 303.357 73.2783 303.357 69.6851L303.357 38.3784L290.335 38.3784L290.335 63.174L263.029 63.174C262.456 63.174 261.895 63.2505 261.347 63.3907L200.632 79.662C197.791 80.4265 195.816 83.0003 195.816 85.9564ZM76.4756 139.765L89.4978 139.765L89.4978 114.804C89.4978 111.211 86.5799 108.293 82.9867 108.293L39.0528 108.293L39.0528 121.315L76.4884 121.315L76.4884 139.765L76.4756 139.765ZM120.945 53.2864C121.149 53.5794 121.378 53.847 121.633 54.1018L155.819 88.2882L155.819 139.752L168.841 139.752L168.841 88.2754L203.028 54.0891C203.282 53.8343 203.512 53.5539 203.716 53.2736L185.431 53.2736L162.317 76.3873L139.204 53.2736L120.945 53.2864ZM285.607 108.293L241.674 108.293C238.08 108.293 235.162 111.211 235.162 114.804L235.162 139.765L248.185 139.765L248.185 121.315L285.607 121.315L285.607 108.293ZM195.242 242.579C191.84 242.579 189.063 245.357 189.063 248.746C189.063 252.135 191.84 254.926 195.242 254.926C198.644 254.926 201.422 252.148 201.422 248.746C201.409 245.344 198.644 242.579 195.242 242.579ZM234.079 242.579C230.677 242.579 227.9 245.357 227.9 248.746C227.9 252.135 230.677 254.926 234.079 254.926C237.481 254.926 240.259 252.148 240.259 248.746C240.246 245.344 237.481 242.579 234.079 242.579ZM195.242 164.408C191.84 164.408 189.063 167.186 189.063 170.588C189.063 173.99 191.84 176.767 195.242 176.768C198.644 176.768 201.422 173.99 201.422 170.588C201.409 167.173 198.644 164.408 195.242 164.408ZM234.079 164.408C230.677 164.408 227.9 167.186 227.9 170.588C227.9 173.99 230.677 176.768 234.079 176.768C237.481 176.768 240.259 173.99 240.259 170.588C240.246 167.173 237.481 164.408 234.079 164.408ZM260.098 150.366L260.098 190.809C260.098 192.478 258.748 193.829 257.078 193.829L67.5818 193.829C65.9127 193.829 64.562 192.478 64.562 190.809L64.562 150.366C64.562 148.697 65.9127 147.347 67.5818 147.347L257.078 147.347C258.735 147.359 260.098 148.71 260.098 150.366ZM100.405 170.6C100.405 168.511 98.6974 166.803 96.6077 166.803L80.604 166.803C78.5143 166.803 76.8069 168.511 76.8069 170.6C76.8069 172.69 78.5143 174.398 80.604 174.398L96.6077 174.398C98.7101 174.398 100.405 172.69 100.405 170.6ZM135.292 170.6C135.292 168.511 133.585 166.803 131.495 166.803L115.491 166.803C113.401 166.803 111.694 168.511 111.694 170.6C111.694 172.69 113.401 174.398 115.491 174.398L131.495 174.398C133.597 174.398 135.292 172.69 135.292 170.6ZM170.179 170.6C170.179 168.511 168.472 166.803 166.382 166.803L150.378 166.803C148.289 166.803 146.581 168.511 146.581 170.6C146.581 172.69 148.289 174.398 150.378 174.398L166.382 174.398C168.472 174.398 170.179 172.69 170.179 170.6ZM209.003 170.6C209.003 163.006 202.824 156.814 195.217 156.814C187.61 156.814 181.43 162.994 181.43 170.6C181.43 178.207 187.61 184.387 195.217 184.387C202.836 184.362 209.003 178.195 209.003 170.6ZM247.841 170.6C247.841 163.006 241.661 156.814 234.054 156.814C226.447 156.814 220.267 162.994 220.267 170.6C220.267 178.207 226.447 184.387 234.054 184.387C241.674 184.362 247.841 178.195 247.841 170.6ZM260.098 228.538L260.098 268.98C260.098 270.649 258.748 272 257.078 272L67.5691 272C65.8999 272 64.5493 270.649 64.5493 268.98L64.5493 228.538C64.5493 226.868 65.8999 225.518 67.5691 225.518L257.078 225.518C258.735 225.518 260.098 226.868 260.098 228.538ZM100.405 248.759C100.405 246.669 98.6974 244.962 96.6077 244.962L80.604 244.962C78.5143 244.962 76.8069 246.669 76.8069 248.759C76.8069 250.849 78.5143 252.556 80.604 252.556L96.6077 252.556C98.7101 252.556 100.405 250.849 100.405 248.759ZM135.292 248.759C135.292 246.669 133.585 244.962 131.495 244.962L115.491 244.962C113.401 244.962 111.694 246.669 111.694 248.759C111.694 250.849 113.401 252.556 115.491 252.556L131.495 252.556C133.597 252.556 135.292 250.849 135.292 248.759ZM170.179 248.759C170.179 246.669 168.472 244.962 166.382 244.962L150.378 244.962C148.289 244.962 146.581 246.669 146.581 248.759C146.581 250.849 148.289 252.556 150.378 252.556L166.382 252.556C168.472 252.556 170.179 250.849 170.179 248.759ZM209.003 248.759C209.003 241.165 202.824 234.985 195.217 234.985C187.61 234.985 181.43 241.165 181.43 248.759C181.43 256.353 187.61 262.546 195.217 262.546C202.836 262.533 209.003 256.353 209.003 248.759ZM247.841 248.759C247.841 241.165 241.661 234.985 234.054 234.985C226.447 234.985 220.267 241.165 220.267 248.759C220.267 256.353 226.447 262.546 234.054 262.546C241.674 262.533 247.841 256.353 247.841 248.759ZM4.00005 130.209L4.00005 99.4118L31.4587 99.4118L31.4587 130.209L4.00005 130.209ZM9.50453 108.497C9.50453 110.586 11.2119 112.294 13.3016 112.294L22.1572 112.294C24.2596 112.294 25.9542 110.586 25.9542 108.497C25.9542 106.407 24.2596 104.7 22.1572 104.7L13.3016 104.7C11.2119 104.7 9.50453 106.407 9.50453 108.497ZM9.50453 121.111C9.50453 123.201 11.2119 124.908 13.3016 124.908L22.1572 124.908C24.2596 124.908 25.9542 123.201 25.9542 121.111C25.9542 119.021 24.2596 117.314 22.1572 117.314L13.3016 117.314C11.2119 117.314 9.50453 119.009 9.50453 121.111ZM27.8146 30.797L14.0789 30.797L14.0789 -2.25227e-05L41.5375 -2.05054e-05L41.5375 30.797L27.8146 30.797ZM19.5833 9.08494C19.5833 11.1746 21.278 12.882 23.3804 12.882L32.236 12.882C34.3256 12.882 36.033 11.1746 36.033 9.08494C36.033 6.99528 34.3257 5.28785 32.236 5.28785L23.3804 5.28785C21.278 5.28785 19.5833 6.99528 19.5833 9.08494ZM23.3804 25.5091L32.236 25.5091C34.3256 25.5091 36.033 23.8017 36.033 21.7121C36.033 19.6224 34.3256 17.915 32.236 17.915L23.3804 17.915C21.278 17.915 19.5833 19.6224 19.5833 21.7121C19.5833 23.8017 21.278 25.5091 23.3804 25.5091ZM126.233 45.7177L112.497 45.7177L112.497 14.9207L139.955 14.9207L139.955 45.7177L126.233 45.7177ZM118.001 24.0056C118.001 26.0953 119.709 27.8027 121.798 27.8027L130.667 27.8027C132.756 27.8027 134.464 26.0953 134.464 24.0056C134.464 21.9159 132.756 20.2085 130.667 20.2085L121.798 20.2085C119.709 20.2085 118.001 21.9032 118.001 24.0056ZM121.798 40.4171L130.667 40.4171C132.756 40.4171 134.464 38.7224 134.464 36.62C134.464 34.5176 132.756 32.823 130.667 32.823L121.798 32.823C119.709 32.823 118.001 34.5304 118.001 36.62C118.001 38.7224 119.709 40.4171 121.798 40.4171ZM198.415 45.7177L184.692 45.7177L184.692 14.9207L212.151 14.9207L212.151 45.7177L198.415 45.7177ZM190.184 24.0056C190.184 26.0953 191.891 27.8027 193.981 27.8027L202.849 27.8027C204.939 27.8027 206.646 26.0953 206.646 24.0056C206.646 21.9159 204.939 20.2085 202.849 20.2085L193.981 20.2085C191.891 20.2085 190.184 21.9032 190.184 24.0056ZM193.994 40.4171L202.862 40.4171C204.952 40.4171 206.659 38.7224 206.659 36.62C206.659 34.5176 204.952 32.823 202.862 32.823L193.994 32.823C191.904 32.823 190.197 34.5304 190.197 36.62C190.184 38.7224 191.891 40.4171 193.994 40.4171ZM296.846 30.797L283.11 30.797L283.11 -2.75776e-06L310.581 -7.39523e-07L310.581 30.797L296.846 30.797ZM288.615 9.08496C288.615 11.1746 290.322 12.882 292.412 12.882L301.28 12.882C303.37 12.882 305.077 11.1746 305.077 9.08496C305.077 6.9953 303.37 5.28787 301.28 5.28787L292.412 5.28787C290.309 5.28787 288.615 6.9953 288.615 9.08496ZM292.412 25.5092L301.28 25.5092C303.37 25.5092 305.077 23.8018 305.077 21.7121C305.077 19.6224 303.37 17.915 301.28 17.915L292.412 17.915C290.322 17.915 288.615 19.6224 288.615 21.7121C288.615 23.8018 290.309 25.5092 292.412 25.5092ZM293.189 99.4118L320.647 99.4118L320.647 130.209L293.189 130.209L293.189 99.4118ZM298.681 108.497C298.681 110.586 300.388 112.294 302.478 112.294L311.346 112.294C313.436 112.294 315.143 110.586 315.143 108.497C315.143 106.407 313.436 104.7 311.346 104.7L302.478 104.7C300.388 104.7 298.681 106.407 298.681 108.497ZM298.681 121.111C298.681 123.201 300.388 124.908 302.478 124.908L311.346 124.908C313.436 124.908 315.143 123.201 315.143 121.111C315.143 119.022 313.436 117.314 311.346 117.314L302.478 117.314C300.388 117.314 298.681 119.009 298.681 121.111Z" fill="#1A58BF"/>
</g>
<defs>
<filter id="filter0_d_2211_1211" x="0" y="0" width="324.647" height="280" filterUnits="userSpaceOnUse" color-interpolation-filters="sRGB">
<feFlood flood-opacity="0" result="BackgroundImageFix"/>
<feColorMatrix in="SourceAlpha" type="matrix" values="0 0 0 0 0 0 0 0 0 0 0 0 0 0 0 0 0 0 127 0" result="hardAlpha"/>
<feOffset dy="4"/>
<feGaussianBlur stdDeviation="2"/>
<feComposite in2="hardAlpha" operator="out"/>
<feColorMatrix type="matrix" values="0 0 0 0 0 0 0 0 0 0 0 0 0 0 0 0 0 0 0.25 0"/>
<feBlend mode="normal" in2="BackgroundImageFix" result="effect1_dropShadow_2211_1211"/>
<feBlend mode="normal" in="SourceGraphic" in2="effect1_dropShadow_2211_1211" result="shape"/>
</filter>
</defs>
</svg>
